<?xml version="1.0" encoding="iso-8859-1"?>
<!-- Generator: Adobe Illustrator 16.0.0, SVG Export Plug-In . SVG Version: 6.00 Build 0)  -->
<!DOCTYPE svg PUBLIC "-//W3C//DTD SVG 1.1//EN" "http://www.w3.org/Graphics/SVG/1.1/DTD/svg11.dtd">
<svg version="1.1" id="Layer_1" xmlns="http://www.w3.org/2000/svg" xmlns:xlink="http://www.w3.org/1999/xlink" x="0px" y="0px"
	 width="512px" height="512px" viewBox="0 0 512 512" style="enable-background:new 0 0 512 512;" xml:space="preserve">
<path d="M47.512,256.001c0,115.145,93.344,208.489,208.488,208.488c115.146,0,208.49-93.343,208.49-208.489
	c0-115.145-93.344-208.489-208.49-208.489C140.855,47.511,47.512,140.854,47.512,256.001z M169.814,173.226l179.939,73.508
	c3.762,1.537,6.219,5.195,6.219,9.258c0,4.06-2.457,7.72-6.218,9.256l-179.943,73.526c-3.962,1.62-8.515,0.537-11.325-2.689
	c-1.623-1.865-2.457-4.209-2.457-6.568c0-1.725,0.444-3.458,1.352-5.021l39.785-68.507l-39.781-68.485
	c-2.148-3.701-1.704-8.359,1.105-11.587C161.3,172.689,165.852,171.607,169.814,173.226z"/>
</svg>
