<?xml version="1.0" encoding="iso-8859-1"?>
<!-- Generator: Adobe Illustrator 16.0.0, SVG Export Plug-In . SVG Version: 6.00 Build 0)  -->
<!DOCTYPE svg PUBLIC "-//W3C//DTD SVG 1.1//EN" "http://www.w3.org/Graphics/SVG/1.1/DTD/svg11.dtd">
<svg version="1.1" id="Layer_1" xmlns="http://www.w3.org/2000/svg" xmlns:xlink="http://www.w3.org/1999/xlink" x="0px" y="0px"
	 width="512px" height="512px" viewBox="0 0 512 512" style="enable-background:new 0 0 512 512;" xml:space="preserve">
<path d="M406.739,65.222H172.998c-8.728-9.797-21.426-15.983-35.548-15.983c-26.254,0-47.614,21.359-47.614,47.614v19.554
	c0,12.929,9.498,23.681,21.883,25.645v5.654c0,7.923,2.534,15.262,6.823,21.264v278.368c0,8.519,6.906,15.425,15.425,15.425h272.771
	c8.519,0,15.425-6.906,15.425-15.425V80.647C422.164,72.128,415.258,65.222,406.739,65.222z M165.339,145.538
	c0,9.193-7.479,16.673-16.672,16.673c-9.193,0-16.672-7.479-16.672-16.673l0-51.74c0-3.295,2.671-5.966,5.965-5.966
	c3.295,0,5.966,2.671,5.966,5.966v51.74c0,2.615,2.127,4.741,4.741,4.742c2.614,0,4.741-2.127,4.741-4.741V94.685
	c0-8.647-7.036-15.682-15.683-15.682c-8.647,0-15.683,7.034-15.683,15.683l0,19.553c0,3.295-2.67,5.966-5.965,5.966
	c-3.295,0-5.966-2.671-5.966-5.966V94.685c0-15.226,12.387-27.614,27.613-27.614c15.227,0,27.614,12.388,27.614,27.614V145.538z"/>
</svg>
