<?xml version="1.0" encoding="iso-8859-1"?>
<!-- Generator: Adobe Illustrator 16.0.0, SVG Export Plug-In . SVG Version: 6.00 Build 0)  -->
<!DOCTYPE svg PUBLIC "-//W3C//DTD SVG 1.1//EN" "http://www.w3.org/Graphics/SVG/1.1/DTD/svg11.dtd">
<svg version="1.1" id="Layer_1" xmlns="http://www.w3.org/2000/svg" xmlns:xlink="http://www.w3.org/1999/xlink" x="0px" y="0px"
	 width="512px" height="512px" viewBox="0 0 512 512" style="enable-background:new 0 0 512 512;" xml:space="preserve">
<g>
	<path d="M433.365,100.738l-22.104-22.103c-30.527-30.527-80.023-30.527-110.551,0l-5.781,5.78l132.654,132.653l5.781-5.78
		C463.89,180.762,463.894,131.268,433.365,100.738z"/>
	<path d="M249.59,129.759c-19.381,19.379-26.439,46.396-21.215,71.359L59.623,392.355c-5.424,6.145-5.133,15.448,0.662,21.241
		l38.117,38.118c5.794,5.795,15.098,6.084,21.242,0.662l191.236-168.752c24.961,5.225,51.982-1.834,71.36-21.214l23.845-23.846
		l-132.65-132.652L249.59,129.759z"/>
</g>
</svg>
