<?xml version="1.0" encoding="iso-8859-1"?>
<!-- Generator: Adobe Illustrator 16.0.0, SVG Export Plug-In . SVG Version: 6.00 Build 0)  -->
<!DOCTYPE svg PUBLIC "-//W3C//DTD SVG 1.1//EN" "http://www.w3.org/Graphics/SVG/1.1/DTD/svg11.dtd">
<svg version="1.1" id="Layer_1" xmlns="http://www.w3.org/2000/svg" xmlns:xlink="http://www.w3.org/1999/xlink" x="0px" y="0px"
	 width="512px" height="512px" viewBox="0 0 512 512" style="enable-background:new 0 0 512 512;" xml:space="preserve">
<g>
	<path d="M339.646,137.528l-1.76-2.151c-0.382-0.467-0.952-0.733-1.547-0.733c-0.069,0-2.974,0.3-2.974,0.3
		c-43.554,4.537-86.095,17.135-126.443,37.442l-2.72,1.369c-0.651,0.328-1.072,0.984-1.1,1.712l-0.115,3.043
		c-0.074,1.998-0.354,3.976-0.832,5.88l-0.748,2.98c-0.179,0.711,0.047,1.465,0.588,1.961l76.309,69.953
		c0.375,0.344,0.859,0.525,1.352,0.525c0.233,0,0.467-0.041,0.693-0.124l2.953-1.092c2.072-0.766,4.257-1.288,6.495-1.552
		l2.933-0.348c0.704-0.084,1.312-0.533,1.596-1.184l49.121-112.027c0.319-0.729,0.177-1.576-0.363-2.16l-2.293-2.48
		C340.393,138.412,340.008,137.971,339.646,137.528z"/>
	<path d="M160.327,151.134c0.375,0.344,0.859,0.525,1.352,0.525c0.22,0,0.441-0.036,0.655-0.11l2.906-1.008
		c3.005-1.043,6.142-1.571,9.322-1.571c5.245,0,10.369,1.438,14.815,4.159l2.449,1.497c0.319,0.194,0.681,0.293,1.043,0.293
		c0.308,0,0.616-0.07,0.9-0.214l2.562-1.291c25.075-12.632,51.116-22.556,77.399-29.495c18.102-4.779,36.783-8.25,55.526-10.316
		l3.005-0.343c0.714-0.081,1.33-0.54,1.613-1.202l1.244-2.912c6.794-15.049,23.754-19.868,23.925-19.916
		c0.788-0.217,1.365-0.891,1.456-1.703c0.092-0.813-0.319-1.599-1.04-1.986l-9.139-4.914
		c-28.743-15.451-61.272-23.619-94.074-23.619c-48.775,0-95.704,17.836-132.14,50.224l-4.27,3.795
		c-0.423,0.376-0.667,0.914-0.671,1.479c-0.004,0.566,0.231,1.107,0.648,1.49L160.327,151.134z"/>
	<path d="M416.472,137.989l-1.349-1.828c-0.333-0.451-0.841-0.742-1.399-0.802l-2.26-0.238c-6.561-0.692-13.463-1.232-20.517-1.605
		l-2.772-0.145c-0.035-0.002-0.07-0.003-0.104-0.003c-0.633,0-1.23,0.3-1.608,0.812l-1.648,2.23
		c-3.97,5.377-9.707,9.211-16.156,10.797l-2.47,0.61c-0.604,0.148-1.104,0.569-1.353,1.139l-50.556,115.299
		c-0.285,0.649-0.204,1.402,0.212,1.977l1.733,2.391c3.532,4.877,5.399,10.641,5.399,16.668c0,2.53-0.34,5.059-1.011,7.516
		l-0.828,3.033c-0.197,0.723,0.026,1.496,0.578,2.002l89.2,81.771c0.371,0.34,0.854,0.525,1.352,0.525
		c0.063,0,0.125-0.003,0.188-0.009c0.563-0.054,1.077-0.343,1.415-0.796l3.412-4.58c25.716-34.527,39.309-75.59,39.309-118.752
		C455.239,213.178,441.834,172.37,416.472,137.989z"/>
	<path d="M304.397,312.759c-0.373-0.342-0.857-0.525-1.352-0.525c-0.157,0-0.314,0.019-0.47,0.057l-2.672,0.646
		c-1.086,0.262-2.221,0.465-3.372,0.602l-2.932,0.344c-0.705,0.082-1.313,0.533-1.599,1.184l-59.646,136.031
		c-0.261,0.594-0.217,1.277,0.118,1.834c0.334,0.556,0.918,0.915,1.565,0.963l7.265,0.541c4.96,0.371,9.988,0.559,14.944,0.559
		c49.997,0,97.8-18.625,134.603-52.443l4.138-3.803c0.413-0.379,0.647-0.914,0.647-1.475c0-0.56-0.236-1.094-0.648-1.473
		L304.397,312.759z"/>
	<path d="M271.839,304.337l-1.731-2.391c-3.527-4.875-5.392-10.635-5.392-16.656c0-1.441,0.109-2.893,0.325-4.315l0.412-2.717
		c0.1-0.659-0.135-1.323-0.626-1.774l-78.352-71.826c-0.374-0.342-0.857-0.525-1.352-0.525c-0.171,0-0.344,0.021-0.514,0.066
		l-2.726,0.725c-2.388,0.634-4.852,0.955-7.323,0.955c-4.367,0-8.562-0.967-12.466-2.871l-2.731-1.334
		c-0.278-0.137-0.578-0.203-0.877-0.203c-0.404,0-0.805,0.122-1.147,0.361l-2.49,1.744c-46.608,32.648-77.771,68.17-92.198,86.438
		l-1.484,1.88c-0.365,0.462-0.507,1.062-0.39,1.638l0.478,2.346c7.319,35.977,24.528,69.228,49.766,96.156
		c25.135,26.818,57.044,46.121,92.279,55.824l4.301,1.184c0.177,0.049,0.355,0.072,0.531,0.072c0.777,0,1.506-0.455,1.831-1.197
		l62.088-141.602C272.336,305.664,272.256,304.912,271.839,304.337z"/>
	<path d="M143.097,185.214l2.351-1.642c0.728-0.509,1.034-1.436,0.75-2.277c-2.107-6.263,0.455-10.678,0.565-10.862
		c0.485-0.814,0.338-1.869-0.36-2.51l-41.468-38.012c-0.371-0.339-0.854-0.525-1.352-0.525c-0.057,0-0.114,0.002-0.172,0.008
		c-0.558,0.048-1.07,0.328-1.412,0.771l-3.428,4.447c-24.153,31.328-38.287,68.741-40.871,108.195l-0.936,14.279
		c-0.055,0.842,0.423,1.627,1.196,1.964c0.258,0.112,0.53,0.167,0.799,0.167c0.539,0,1.068-0.218,1.454-0.627l9.83-10.4
		C92.193,224.758,116.771,203.569,143.097,185.214z"/>
</g>
</svg>
