<?xml version="1.0" encoding="iso-8859-1"?>
<!-- Generator: Adobe Illustrator 16.0.0, SVG Export Plug-In . SVG Version: 6.00 Build 0)  -->
<!DOCTYPE svg PUBLIC "-//W3C//DTD SVG 1.1//EN" "http://www.w3.org/Graphics/SVG/1.1/DTD/svg11.dtd">
<svg version="1.1" id="Layer_1" xmlns="http://www.w3.org/2000/svg" xmlns:xlink="http://www.w3.org/1999/xlink" x="0px" y="0px"
	 width="512px" height="512px" viewBox="0 0 512 512" style="enable-background:new 0 0 512 512;" xml:space="preserve">
<path d="M455.568,183.509H343.879l60.838-42.639c10.559-7.399,13.119-21.955,5.719-32.513s-21.956-13.116-32.514-5.719
	l-115.391,80.87h-13.064l-115.389-80.87c-10.559-7.399-25.115-4.839-32.514,5.719c-7.4,10.558-4.84,25.113,5.719,32.513
	l60.838,42.639H56.432c-12.49,0-22.613,10.125-22.613,22.614v27.099c0,12.491,10.123,22.615,22.613,22.615H79.08l44.533,141.911
	c2.961,9.428,11.697,15.843,21.578,15.843h221.615c9.883,0,18.619-6.415,21.578-15.843l44.534-141.911h22.649
	c12.49,0,22.613-10.124,22.613-22.615v-27.099C478.182,193.634,468.059,183.509,455.568,183.509z"/>
</svg>
