<?xml version="1.0" encoding="iso-8859-1"?>
<!-- Generator: Adobe Illustrator 16.0.0, SVG Export Plug-In . SVG Version: 6.00 Build 0)  -->
<!DOCTYPE svg PUBLIC "-//W3C//DTD SVG 1.1//EN" "http://www.w3.org/Graphics/SVG/1.1/DTD/svg11.dtd">
<svg version="1.1" id="Layer_1" xmlns="http://www.w3.org/2000/svg" xmlns:xlink="http://www.w3.org/1999/xlink" x="0px" y="0px"
	 width="512px" height="512px" viewBox="0 0 512 512" style="enable-background:new 0 0 512 512;" xml:space="preserve">
<g>
	<path d="M382.783,154.81c-2.245,0-4.554,0.074-6.874,0.222l-72.698-13.395c-1.035-0.191-2.097-0.289-3.157-0.289h-88.105
		c-1.06,0-2.122,0.098-3.154,0.289l-72.702,13.395c-2.321-0.148-4.63-0.222-6.875-0.222c-59.508,0-107.921,48.413-107.921,107.921
		c0,59.507,48.413,107.921,107.921,107.921c25.866,0,50.901-9.328,70.493-26.265c18.119-15.663,30.513-36.842,35.255-60.071h42.069
		c4.742,23.229,17.137,44.409,35.254,60.071c19.594,16.937,44.628,26.265,70.494,26.265c59.508,0,107.921-48.414,107.921-107.921
		C490.704,203.222,442.291,154.81,382.783,154.81z M129.217,324.176c-33.913,0-61.503-27.591-61.503-61.504
		c0-33.913,27.59-61.503,61.503-61.503c33.913,0,61.503,27.59,61.503,61.503C190.72,296.585,163.13,324.176,129.217,324.176z
		 M382.783,324.176c-33.913,0-61.504-27.591-61.504-61.504c0-33.913,27.591-61.503,61.504-61.503
		c33.913,0,61.503,27.59,61.503,61.503C444.286,296.585,416.696,324.176,382.783,324.176z"/>
	<path d="M152.306,280.72c-10.328-1.666-19.727-6.486-27.18-13.939c-7.394-7.393-12.204-16.808-13.911-27.228
		c-0.357-2.182-1.923-3.972-4.039-4.614c-2.117-0.642-4.413-0.027-5.923,1.588c-6.642,7.097-10.299,16.384-10.299,26.151
		c0,10.242,3.976,19.858,11.195,27.078c7.22,7.22,16.837,11.196,27.079,11.196c9.747,0,19.021-3.645,26.111-10.262
		c1.62-1.511,2.238-3.813,1.592-5.931C156.287,282.64,154.492,281.073,152.306,280.72z"/>
	<path d="M404.825,234.939c-2.116,0.643-3.682,2.433-4.04,4.613c-1.708,10.42-6.517,19.835-13.91,27.229
		c-7.454,7.453-16.853,12.273-27.18,13.939c-2.187,0.353-3.982,1.919-4.627,4.039c-0.645,2.119-0.027,4.42,1.592,5.931
		c7.09,6.617,16.363,10.262,26.111,10.262c10.242,0,19.858-3.976,27.078-11.195c7.22-7.22,11.195-16.836,11.195-27.079
		c0-9.768-3.657-19.056-10.297-26.151C409.237,234.912,406.938,234.297,404.825,234.939z"/>
</g>
</svg>
