<?xml version="1.0" encoding="iso-8859-1"?>
<!-- Generator: Adobe Illustrator 16.0.0, SVG Export Plug-In . SVG Version: 6.00 Build 0)  -->
<!DOCTYPE svg PUBLIC "-//W3C//DTD SVG 1.1//EN" "http://www.w3.org/Graphics/SVG/1.1/DTD/svg11.dtd">
<svg version="1.1" id="Layer_1" xmlns="http://www.w3.org/2000/svg" xmlns:xlink="http://www.w3.org/1999/xlink" x="0px" y="0px"
	 width="512px" height="512px" viewBox="0 0 512 512" style="enable-background:new 0 0 512 512;" xml:space="preserve">
<g>
	<path d="M382.783,148.079H129.217c-59.508,0-107.921,48.412-107.921,107.921c0,59.507,48.413,107.921,107.921,107.921
		c25.866,0,50.901-9.328,70.493-26.265c10.676-9.229,19.346-20.384,25.652-32.734c7.896,7.264,18.43,11.703,30.005,11.703h1.266
		c11.574,0,22.109-4.439,30.005-11.703c6.307,12.351,14.976,23.505,25.651,32.734c19.594,16.937,44.628,26.265,70.494,26.265
		c59.508,0,107.921-48.414,107.921-107.921C490.704,196.491,442.291,148.079,382.783,148.079z M129.217,317.445
		c-33.913,0-61.503-27.591-61.503-61.504s27.59-61.503,61.503-61.503c33.913,0,61.503,27.59,61.503,61.503
		S163.13,317.445,129.217,317.445z M382.783,317.445c-33.913,0-61.504-27.591-61.504-61.504s27.591-61.503,61.504-61.503
		c33.913,0,61.503,27.59,61.503,61.503S416.696,317.445,382.783,317.445z"/>
	<path d="M152.306,273.989c-10.328-1.666-19.727-6.486-27.18-13.939c-7.394-7.393-12.204-16.808-13.911-27.228
		c-0.357-2.182-1.923-3.972-4.039-4.614c-2.117-0.642-4.413-0.026-5.923,1.588c-6.642,7.097-10.299,16.385-10.299,26.151
		c0,10.242,3.976,19.858,11.195,27.078c7.22,7.22,16.837,11.196,27.079,11.196c9.747,0,19.021-3.646,26.111-10.263
		c1.62-1.511,2.238-3.813,1.592-5.931C156.287,275.909,154.492,274.342,152.306,273.989z"/>
	<path d="M404.825,228.208c-2.116,0.643-3.682,2.433-4.04,4.613c-1.708,10.42-6.517,19.835-13.91,27.229
		c-7.454,7.453-16.853,12.273-27.18,13.939c-2.187,0.353-3.982,1.919-4.627,4.039c-0.645,2.118-0.027,4.42,1.592,5.931
		c7.09,6.617,16.362,10.263,26.111,10.263c10.242,0,19.858-3.977,27.078-11.195c7.22-7.221,11.195-16.837,11.195-27.079
		c0-9.768-3.657-19.056-10.297-26.151C409.237,228.182,406.938,227.566,404.825,228.208z"/>
</g>
</svg>
