<?xml version="1.0" encoding="iso-8859-1"?>
<!-- Generator: Adobe Illustrator 16.0.0, SVG Export Plug-In . SVG Version: 6.00 Build 0)  -->
<!DOCTYPE svg PUBLIC "-//W3C//DTD SVG 1.1//EN" "http://www.w3.org/Graphics/SVG/1.1/DTD/svg11.dtd">
<svg version="1.1" id="Layer_1" xmlns="http://www.w3.org/2000/svg" xmlns:xlink="http://www.w3.org/1999/xlink" x="0px" y="0px"
	 width="512px" height="512px" viewBox="0 0 512 512" style="enable-background:new 0 0 512 512;" xml:space="preserve">
<g>
	<path d="M256,269.81c54.735,0,99.107-51.936,99.107-116c0-88.842-44.371-116-99.107-116s-99.107,27.158-99.107,116
		C156.893,217.874,201.265,269.81,256,269.81z"/>
	<path d="M470.28,446.076l-50-112.636c-1.838-4.141-5.027-7.534-9.045-9.626l-79.62-41.446c-4.808-2.503-10.423-2.947-15.564-1.231
		c-5.141,1.715-9.365,5.442-11.707,10.329l-33.834,70.609l4.26-38.407c0.133-1.202-0.174-2.413-0.865-3.406l-13.8-19.839
		c-0.048-0.068-0.104-0.13-0.154-0.195l11.934-9.061c1.029-0.781,1.633-1.998,1.633-3.29c0-4.835-3.934-8.769-8.769-8.769h-17.498
		c-4.835,0-8.769,3.934-8.769,8.769c0,1.292,0.604,2.509,1.633,3.29l11.934,9.061c-0.051,0.065-0.106,0.127-0.154,0.195
		l-13.8,19.839c-0.691,0.993-0.999,2.204-0.865,3.406l4.26,38.407l-33.834-70.609c-2.342-4.887-6.566-8.614-11.707-10.329
		c-5.14-1.715-10.757-1.27-15.564,1.231l-79.62,41.446c-4.018,2.092-7.207,5.485-9.045,9.626l-50,112.636
		c-2.746,6.187-2.177,13.342,1.512,19.017S53.231,474.19,60,474.19h392c6.769,0,13.078-3.423,16.768-9.098
		S473.026,452.263,470.28,446.076z"/>
</g>
</svg>
