<?xml version="1.0" encoding="iso-8859-1"?>
<!-- Generator: Adobe Illustrator 16.0.0, SVG Export Plug-In . SVG Version: 6.00 Build 0)  -->
<!DOCTYPE svg PUBLIC "-//W3C//DTD SVG 1.1//EN" "http://www.w3.org/Graphics/SVG/1.1/DTD/svg11.dtd">
<svg version="1.1" id="Layer_1" xmlns="http://www.w3.org/2000/svg" xmlns:xlink="http://www.w3.org/1999/xlink" x="0px" y="0px"
	 width="512px" height="512px" viewBox="0 0 512 512" style="enable-background:new 0 0 512 512;" xml:space="preserve">
<g>
	<path d="M188.707,203.683c-21.021,0-23.652,35.873-23.957,46.867c-0.703,25.238,3.512,44.455,11.563,52.734
		c3.34,3.434,7.408,5.033,12.805,5.033c20.283,0,23.369-32.271,23.754-46.146c0.725-26.131-3.369-45.139-11.525-53.525
		C198.051,205.259,194.035,203.683,188.707,203.683z"/>
	<path d="M422.881,70.278H89.119c-10.406,0-18.84,8.436-18.84,18.842v333.76c0,10.408,8.434,18.842,18.84,18.842h333.762
		c10.406,0,18.84-8.434,18.84-18.842V287.925v-13.33V89.12C441.721,78.714,433.287,70.278,422.881,70.278z M238.861,262.892
		c-1.242,44.725-19.838,71.426-49.744,71.426c-12.359,0-23.232-4.463-31.443-12.904c-13.486-13.869-19.85-37.953-18.914-71.584
		c1.254-45.176,19.926-72.146,49.947-72.146c12.293,0,23.107,4.439,31.275,12.834C233.457,204.372,239.809,228.72,238.861,262.892z
		 M360.33,334.317h-59.473c-7.18,0-13-5.82-13-13s5.82-13,13-13h16.602l0.109-95.76c-4.084,1.908-8.135,3.611-12.084,5.078
		c-6.734,2.498-14.213-0.932-16.713-7.662c-2.5-6.729,0.932-14.213,7.662-16.713c4.344-1.613,8.871-3.586,13.455-5.863
		c4.621-2.295,9.268-4.896,13.814-7.736c4.01-2.51,9.063-2.641,13.199-0.346c4.135,2.295,6.697,6.654,6.691,11.381l-0.135,117.621
		h16.871c7.18,0,13,5.82,13,13S367.51,334.317,360.33,334.317z"/>
</g>
</svg>
