<?xml version="1.0" encoding="iso-8859-1"?>
<!-- Generator: Adobe Illustrator 16.0.0, SVG Export Plug-In . SVG Version: 6.00 Build 0)  -->
<!DOCTYPE svg PUBLIC "-//W3C//DTD SVG 1.1//EN" "http://www.w3.org/Graphics/SVG/1.1/DTD/svg11.dtd">
<svg version="1.1" id="Layer_1" xmlns="http://www.w3.org/2000/svg" xmlns:xlink="http://www.w3.org/1999/xlink" x="0px" y="0px"
	 width="512px" height="512px" viewBox="0 0 512 512" style="enable-background:new 0 0 512 512;" xml:space="preserve">
<path d="M455.925,165.234H418.73l-17.174-48.672c-1.563-4.429-5.748-7.39-10.444-7.39H247.735c-4.696,0-8.881,2.961-10.443,7.39
	l-17.174,48.672h-59.103v-18.953c0-5.17-4.191-9.361-9.361-9.361H82.848c-5.17,0-9.361,4.191-9.361,9.361v18.953H56.075
	c-6.117,0-11.075,4.958-11.075,11.074v215.443c0,6.117,4.958,11.075,11.075,11.075h399.85c6.117,0,11.075-4.958,11.075-11.075
	V176.309C467,170.192,462.042,165.234,455.925,165.234z M319.718,360.098c-42.201,0-76.412-34.21-76.412-76.412
	c0-42.201,34.211-76.412,76.412-76.412c42.202,0,76.412,34.211,76.412,76.412C396.13,325.888,361.92,360.098,319.718,360.098z"/>
</svg>
