<?xml version="1.0" encoding="iso-8859-1"?>
<!-- Generator: Adobe Illustrator 16.0.0, SVG Export Plug-In . SVG Version: 6.00 Build 0)  -->
<!DOCTYPE svg PUBLIC "-//W3C//DTD SVG 1.1//EN" "http://www.w3.org/Graphics/SVG/1.1/DTD/svg11.dtd">
<svg version="1.1" id="Layer_1" xmlns="http://www.w3.org/2000/svg" xmlns:xlink="http://www.w3.org/1999/xlink" x="0px" y="0px"
	 width="512px" height="512px" viewBox="0 0 512 512" style="enable-background:new 0 0 512 512;" xml:space="preserve">
<path d="M403.424,108.576c-81.42-81.42-213.428-81.42-294.849,0c-81.42,81.42-81.42,213.428,0,294.849
	c81.42,81.42,213.428,81.42,294.849,0C484.844,322.004,484.844,189.996,403.424,108.576z M360.035,306.274
	c4.454,4.454,4.454,11.675,0,16.129l-37.632,37.632c-4.454,4.454-11.675,4.453-16.129,0L256,309.76l-50.275,50.275
	c-4.453,4.454-11.674,4.453-16.128,0l-37.632-37.632c-4.454-4.454-4.453-11.674,0-16.127L202.24,256l-50.275-50.275
	c-4.453-4.454-4.453-11.675,0-16.128l37.633-37.632c4.454-4.454,11.675-4.454,16.127,0L256,202.24l50.275-50.275
	c4.454-4.454,11.674-4.454,16.128,0l37.632,37.632c4.453,4.454,4.454,11.675,0,16.128L309.76,256L360.035,306.274z"/>
</svg>
