<?xml version="1.0" encoding="iso-8859-1"?>
<!-- Generator: Adobe Illustrator 16.0.0, SVG Export Plug-In . SVG Version: 6.00 Build 0)  -->
<!DOCTYPE svg PUBLIC "-//W3C//DTD SVG 1.1//EN" "http://www.w3.org/Graphics/SVG/1.1/DTD/svg11.dtd">
<svg version="1.1" id="Layer_1" xmlns="http://www.w3.org/2000/svg" xmlns:xlink="http://www.w3.org/1999/xlink" x="0px" y="0px"
	 width="512px" height="512px" viewBox="0 0 512 512" style="enable-background:new 0 0 512 512;" xml:space="preserve">
<path d="M472.447,150.459c-3.248-4.109-8.196-6.504-13.433-6.504H152.6l-10.818-26.22c-2.498-6.055-8.401-10.006-14.952-10.006
	H52.04c-8.934,0-16.175,7.242-16.175,16.175v21.567c0,8.933,7.241,16.175,16.175,16.175h42.317l81.296,197.034
	c2.498,6.055,8.401,10.005,14.952,10.005h16.233c-0.012,0.36-0.018,0.719-0.018,1.078c0,19.027,15.479,34.507,34.507,34.507
	s34.507-15.479,34.507-34.507c0-0.359-0.006-0.718-0.018-1.078h84.862c-0.011,0.36-0.017,0.719-0.017,1.078
	c0,19.027,15.479,34.507,34.506,34.507c19.027,0,34.507-15.479,34.507-34.507c0-0.359-0.006-0.718-0.018-1.078h3.377
	c8.934,0,16.175-7.242,16.175-16.175v-21.567c0-6.619-3.98-12.301-9.674-14.805l36.136-151.108
	C476.882,159.936,475.693,154.568,472.447,150.459z"/>
</svg>
