<?xml version="1.0" encoding="iso-8859-1"?>
<!-- Generator: Adobe Illustrator 16.0.0, SVG Export Plug-In . SVG Version: 6.00 Build 0)  -->
<!DOCTYPE svg PUBLIC "-//W3C//DTD SVG 1.1//EN" "http://www.w3.org/Graphics/SVG/1.1/DTD/svg11.dtd">
<svg version="1.1" id="Layer_1" xmlns="http://www.w3.org/2000/svg" xmlns:xlink="http://www.w3.org/1999/xlink" x="0px" y="0px"
	 width="512px" height="512px" viewBox="0 0 512 512" style="enable-background:new 0 0 512 512;" xml:space="preserve">
<g>
	<path d="M410.104,146.639C349.705,61.53,231.748,41.499,146.64,101.896c-85.11,60.398-105.142,178.355-44.744,263.465
		c60.398,85.109,178.355,105.141,263.465,44.743C450.47,349.706,470.503,231.749,410.104,146.639z M293.24,308.477
		c-28.981,20.567-69.149,13.746-89.718-15.236c-20.566-28.982-13.745-69.15,15.236-89.717
		c28.982-20.567,69.151-13.746,89.718,15.236C329.044,247.742,322.222,287.91,293.24,308.477z M296.009,182.621
		c-5.868-4.293-12.661-6.979-19.706-7.943l14.049-82.725c21.046,3.338,41.243,11.928,58.47,25.411L296.009,182.621z"/>
	<circle cx="256" cy="256" r="29.666"/>
</g>
</svg>
