<?xml version="1.0" encoding="iso-8859-1"?>
<!-- Generator: Adobe Illustrator 16.0.0, SVG Export Plug-In . SVG Version: 6.00 Build 0)  -->
<!DOCTYPE svg PUBLIC "-//W3C//DTD SVG 1.1//EN" "http://www.w3.org/Graphics/SVG/1.1/DTD/svg11.dtd">
<svg version="1.1" id="Layer_1" xmlns="http://www.w3.org/2000/svg" xmlns:xlink="http://www.w3.org/1999/xlink" x="0px" y="0px"
	 width="512px" height="512px" viewBox="0 0 512 512" style="enable-background:new 0 0 512 512;" xml:space="preserve">
<path d="M443.645,193.032H104.705c-5.523,0-10,4.478-10,10v12.476l-19.278-19.278c-1.913-1.913-4.471-2.929-7.075-2.929
	c-1.286,0-2.586,0.249-3.823,0.761c-3.736,1.548-6.173,5.194-6.173,9.239v105.398c0,4.045,2.437,7.691,6.173,9.239
	c1.237,0.512,2.537,0.761,3.825,0.761c2.603,0,5.16-1.016,7.073-2.929l19.278-19.278v12.476c0,5.522,4.477,10,10,10h338.939
	c5.522,0,10-4.478,10-10V203.032C453.645,197.51,449.167,193.032,443.645,193.032z M78.355,227.442L106.913,256l-28.558,28.558
	V227.442z"/>
</svg>
