<?xml version="1.0" encoding="iso-8859-1"?>
<!-- Generator: Adobe Illustrator 16.0.0, SVG Export Plug-In . SVG Version: 6.00 Build 0)  -->
<!DOCTYPE svg PUBLIC "-//W3C//DTD SVG 1.1//EN" "http://www.w3.org/Graphics/SVG/1.1/DTD/svg11.dtd">
<svg version="1.1" id="Layer_1" xmlns="http://www.w3.org/2000/svg" xmlns:xlink="http://www.w3.org/1999/xlink" x="0px" y="0px"
	 width="512px" height="512px" viewBox="0 0 512 512" style="enable-background:new 0 0 512 512;" xml:space="preserve">
<path d="M457.065,100.632H54.935c-10.095,0-18.278,8.184-18.278,18.278v274.18c0,10.095,8.184,18.278,18.278,18.278h402.131
	c10.095,0,18.278-8.184,18.278-18.278V118.91C475.344,108.815,467.16,100.632,457.065,100.632z M73.213,137.188h164.509v97.042
	l-54.962-43.876c-2.48-1.979-5.874-2.362-8.734-0.987c-2.859,1.376-4.677,4.27-4.677,7.442V315.19c0,3.173,1.817,6.066,4.678,7.442
	c1.139,0.548,2.362,0.816,3.58,0.816c1.838,0,3.662-0.613,5.154-1.805l54.961-43.878v97.045H73.213V137.188z M438.787,374.812
	H274.278v-97.045l54.961,43.878c1.492,1.191,3.315,1.805,5.154,1.805c1.218,0,2.441-0.269,3.58-0.816
	c2.86-1.376,4.678-4.27,4.678-7.442V196.81c0-3.173-1.817-6.066-4.677-7.442c-2.859-1.374-6.255-0.991-8.734,0.987l-54.962,43.876
	v-97.042h164.509V374.812z"/>
</svg>
