<?xml version="1.0" encoding="iso-8859-1"?>
<!-- Generator: Adobe Illustrator 16.0.0, SVG Export Plug-In . SVG Version: 6.00 Build 0)  -->
<!DOCTYPE svg PUBLIC "-//W3C//DTD SVG 1.1//EN" "http://www.w3.org/Graphics/SVG/1.1/DTD/svg11.dtd">
<svg version="1.1" id="Layer_1" xmlns="http://www.w3.org/2000/svg" xmlns:xlink="http://www.w3.org/1999/xlink" x="0px" y="0px"
	 width="512px" height="512px" viewBox="0 0 512 512" style="enable-background:new 0 0 512 512;" xml:space="preserve">
<path d="M457.961,137.437h-21.104c-0.918-3.824-2.85-7.34-5.701-10.189l-38.225-38.225c-4.076-4.078-9.496-6.322-15.264-6.322
	c-5.766,0-11.188,2.246-15.262,6.322l-48.414,48.414H54.039c-10.488,0-18.992,8.504-18.992,18.992v253.879
	c0,10.488,8.504,18.992,18.992,18.992h403.922c10.488,0,18.992-8.504,18.992-18.992V156.429
	C476.953,145.94,468.449,137.437,457.961,137.437z M377.203,108.591c0.369-0.369,0.789-0.447,1.08-0.447s0.711,0.078,1.086,0.449
	l37.004,37.006c0.291,0.289,0.451,0.674,0.451,1.084s-0.16,0.795-0.451,1.084L217.285,346.854c-0.367,0.367-0.791,0.445-1.078,0.445
	c-0.289,0-0.715-0.078-1.084-0.451L104.625,236.353c-0.371-0.371-0.451-0.793-0.451-1.082s0.08-0.713,0.451-1.086l37.008-37.006
	c0.369-0.371,0.793-0.447,1.082-0.447s0.711,0.076,1.084,0.449l72.408,72.406L377.203,108.591z"/>
</svg>
