<?xml version="1.0" encoding="iso-8859-1"?>
<!-- Generator: Adobe Illustrator 16.0.0, SVG Export Plug-In . SVG Version: 6.00 Build 0)  -->
<!DOCTYPE svg PUBLIC "-//W3C//DTD SVG 1.1//EN" "http://www.w3.org/Graphics/SVG/1.1/DTD/svg11.dtd">
<svg version="1.1" id="Layer_1" xmlns="http://www.w3.org/2000/svg" xmlns:xlink="http://www.w3.org/1999/xlink" x="0px" y="0px"
	 width="512px" height="512px" viewBox="0 0 512 512" style="enable-background:new 0 0 512 512;" xml:space="preserve">
<path d="M256,100.699c41.482,0,80.481,16.154,109.814,45.486c29.332,29.332,45.486,68.332,45.486,109.814
	s-16.154,80.482-45.486,109.814c-29.333,29.332-68.332,45.486-109.814,45.486s-80.481-16.154-109.814-45.486
	c-29.332-29.332-45.486-68.332-45.486-109.814s16.154-80.482,45.486-109.814C175.519,116.854,214.518,100.699,256,100.699
	 M256,40.699C137.093,40.699,40.699,137.093,40.699,256S137.093,471.301,256,471.301S471.301,374.907,471.301,256
	S374.907,40.699,256,40.699L256,40.699z"/>
</svg>
