<?xml version="1.0" encoding="iso-8859-1"?>
<!-- Generator: Adobe Illustrator 16.0.0, SVG Export Plug-In . SVG Version: 6.00 Build 0)  -->
<!DOCTYPE svg PUBLIC "-//W3C//DTD SVG 1.1//EN" "http://www.w3.org/Graphics/SVG/1.1/DTD/svg11.dtd">
<svg version="1.1" id="Layer_1" xmlns="http://www.w3.org/2000/svg" xmlns:xlink="http://www.w3.org/1999/xlink" x="0px" y="0px"
	 width="512px" height="512px" viewBox="0 0 512 512" style="enable-background:new 0 0 512 512;" xml:space="preserve">
<path d="M408.488,92.997h-52.004c-6.602-19.438-25.115-32.825-45.798-32.825h-6.289c-7.679-17.341-25.202-28.852-44.247-28.852
	h-9.427c-19.045,0-36.568,11.511-44.247,28.852h-5.163c-20.683,0-39.196,13.387-45.798,32.825h-52.004
	c-12.879,0-23.357,10.478-23.357,23.357v340.968c0,12.879,10.479,23.357,23.357,23.357h304.977
	c12.879,0,23.357-10.478,23.357-23.357V116.354C431.846,103.475,421.367,92.997,408.488,92.997z M186.956,108.53
	c0-7.917,6.44-14.357,14.357-14.357h35.053V79.678c0-7.917,6.44-14.357,14.357-14.357h9.427c7.916,0,14.358,6.441,14.358,14.357
	v14.495h36.178c7.917,0,14.357,6.441,14.357,14.357v6.787c0,7.917-6.44,14.357-14.357,14.357H201.313
	c-7.917,0-14.357-6.441-14.357-14.357V108.53z"/>
</svg>
