<?xml version="1.0" encoding="iso-8859-1"?>
<!-- Generator: Adobe Illustrator 16.0.0, SVG Export Plug-In . SVG Version: 6.00 Build 0)  -->
<!DOCTYPE svg PUBLIC "-//W3C//DTD SVG 1.1//EN" "http://www.w3.org/Graphics/SVG/1.1/DTD/svg11.dtd">
<svg version="1.1" id="Layer_1" xmlns="http://www.w3.org/2000/svg" xmlns:xlink="http://www.w3.org/1999/xlink" x="0px" y="0px"
	 width="512px" height="512px" viewBox="0 0 512 512" style="enable-background:new 0 0 512 512;" xml:space="preserve">
<g>
	<path d="M346.745,105.812c0-6.26-5.072-11.334-11.332-11.334h-51.816c-3.881-12.309-14.584-21.621-27.656-23.467
		c-4.238-13.952-17.223-24.135-32.541-24.135h-27.201c-15.318,0-28.303,10.183-32.539,24.135
		c-13.074,1.846-23.775,11.158-27.658,23.467H84.187c-6.262,0-11.334,5.074-11.334,11.334V453.79c0,6.26,5.072,11.334,11.334,11.334
		h126.342c-0.639-2.31-0.986-4.738-0.986-7.248V182.259c0-15.025,12.224-27.249,27.248-27.249h109.955V105.812z M262.501,119.411
		H157.097v-14.732c0-6.26,5.074-11.334,11.334-11.334h16.436V80.878c0-6.26,5.072-11.334,11.332-11.334h27.201
		c6.258,0,11.334,5.074,11.334,11.334v12.467h16.434c6.258,0,11.334,5.074,11.334,11.334V119.411z"/>
	<path d="M432.086,182.476H244.921c-3.9,0-7.063,3.16-7.063,7.063v268.524c0,3.901,3.162,7.062,7.063,7.062h187.165
		c3.899,0,7.062-3.16,7.062-7.062V189.538C439.147,185.636,435.985,182.476,432.086,182.476z M415.225,392.982
		c0,3.009-2.44,5.45-5.452,5.45h-142.54c-3.011,0-5.45-2.441-5.45-5.45v-11.247c0-3.012,2.439-5.453,5.45-5.453h142.54
		c3.012,0,5.452,2.441,5.452,5.453V392.982z M415.225,329.423c0,3.009-2.44,5.451-5.452,5.451h-142.54
		c-3.011,0-5.45-2.442-5.45-5.451v-11.248c0-3.008,2.439-5.449,5.45-5.449h142.54c3.012,0,5.452,2.441,5.452,5.449V329.423z
		 M415.225,265.864c0,3.01-2.44,5.451-5.452,5.451h-142.54c-3.011,0-5.45-2.441-5.45-5.451v-11.248c0-3.009,2.439-5.45,5.45-5.45
		h142.54c3.012,0,5.452,2.441,5.452,5.45V265.864z"/>
</g>
</svg>
