<?xml version="1.0" encoding="iso-8859-1"?>
<!-- Generator: Adobe Illustrator 16.0.0, SVG Export Plug-In . SVG Version: 6.00 Build 0)  -->
<!DOCTYPE svg PUBLIC "-//W3C//DTD SVG 1.1//EN" "http://www.w3.org/Graphics/SVG/1.1/DTD/svg11.dtd">
<svg version="1.1" id="Layer_1" xmlns="http://www.w3.org/2000/svg" xmlns:xlink="http://www.w3.org/1999/xlink" x="0px" y="0px"
	 width="512px" height="512px" viewBox="0 0 512 512" style="enable-background:new 0 0 512 512;" xml:space="preserve">
<path d="M387.696,93.342c-48.775-48.774-128.137-48.774-176.912,0L90.653,213.475c-3.904,3.904-3.906,10.236,0,14.142l24.072,24.073
	c3.906,3.905,10.238,3.906,14.143,0l120.131-120.126c13.398-13.399,31.24-20.778,50.238-20.777s36.838,7.379,50.236,20.778
	c13.396,13.395,20.773,31.235,20.775,50.234c0.002,18.997-7.375,36.839-20.771,50.236l-162.902,162.9
	c-4.049,4.047-9.441,6.276-15.189,6.276c-5.746,0-11.139-2.229-15.184-6.275c-8.373-8.376-8.373-22.003-0.002-30.377
	l158.674-158.672c0.006-0.005,0.012-0.01,0.016-0.015c3.904-3.905,3.904-10.236,0-14.142c-0.152-0.152-0.307-0.297-0.467-0.437
	l-23.625-23.625c-3.906-3.905-10.236-3.905-14.143,0L117.983,326.339c0,0.001,0,0.001,0,0.001
	c-14.244,14.244-22.088,33.211-22.09,53.407c0,20.196,7.846,39.163,22.09,53.406c29.447,29.448,77.363,29.446,106.814-0.004
	l162.898-162.898C436.47,221.476,436.47,142.115,387.696,93.342z"/>
</svg>
