<?xml version="1.0" encoding="iso-8859-1"?>
<!-- Generator: Adobe Illustrator 16.0.0, SVG Export Plug-In . SVG Version: 6.00 Build 0)  -->
<!DOCTYPE svg PUBLIC "-//W3C//DTD SVG 1.1//EN" "http://www.w3.org/Graphics/SVG/1.1/DTD/svg11.dtd">
<svg version="1.1" id="Layer_1" xmlns="http://www.w3.org/2000/svg" xmlns:xlink="http://www.w3.org/1999/xlink" x="0px" y="0px"
	 width="512px" height="512px" viewBox="0 0 512 512" style="enable-background:new 0 0 512 512;" xml:space="preserve">
<g>
	<path d="M256,34.202C133.701,34.202,34.201,133.7,34.201,256S133.701,477.798,256,477.798
		c122.301,0,221.797-99.498,221.797-221.798S378.301,34.202,256,34.202z M256,415.325c-87.854,0-159.323-71.473-159.323-159.325
		S168.146,96.675,256,96.675c87.852,0,159.328,71.473,159.328,159.325S343.852,415.325,256,415.325z"/>
	<path d="M366.706,240.034h-94.738v-94.739c0-4.672-3.789-8.459-8.46-8.459H238.13c-4.672,0-8.462,3.787-8.462,8.459v128.576
		c0,4.672,3.79,8.459,8.462,8.459h128.576c4.672,0,8.458-3.787,8.458-8.459v-25.378
		C375.164,243.821,371.378,240.034,366.706,240.034z"/>
</g>
</svg>
