<?xml version="1.0" encoding="iso-8859-1"?>
<!-- Generator: Adobe Illustrator 16.0.0, SVG Export Plug-In . SVG Version: 6.00 Build 0)  -->
<!DOCTYPE svg PUBLIC "-//W3C//DTD SVG 1.1//EN" "http://www.w3.org/Graphics/SVG/1.1/DTD/svg11.dtd">
<svg version="1.1" id="Layer_1" xmlns="http://www.w3.org/2000/svg" xmlns:xlink="http://www.w3.org/1999/xlink" x="0px" y="0px"
	 width="512px" height="512px" viewBox="0 0 512 512" style="enable-background:new 0 0 512 512;" xml:space="preserve">
<g>
	<path d="M408.364,330.241c42.733-17.871,65.321-50.643,65.321-94.772c0-8.554-6.934-15.487-15.487-15.487h-53.174
		c-0.352,0-0.698,0.021-1.051,0.026c-0.073-0.962-0.146-1.924-0.235-2.884c-0.25-2.653-2.477-4.679-5.141-4.679H67.63
		c-2.664,0-4.892,2.026-5.141,4.679c-0.511,5.456-0.771,10.967-0.771,16.384c0,46.249,18.197,88.3,47.762,119.297
		c-2.069,0.367-4.109,0.743-6.106,1.13c-17.675,3.427-31.784,7.522-41.935,12.175c-15.344,7.033-23.125,16.322-23.125,27.609
		c0,11.287,7.781,20.577,23.125,27.609c10.15,4.652,24.26,8.748,41.935,12.176c34.809,6.747,80.884,10.464,129.738,10.464
		c48.855,0,94.933-3.717,129.741-10.464c17.676-3.428,31.784-7.523,41.934-12.176c15.345-7.033,23.126-16.322,23.126-27.609
		c0-11.288-7.781-20.576-23.127-27.609c-10.149-4.652-24.257-8.748-41.933-12.175c-1.998-0.388-4.037-0.764-6.106-1.13
		c3.384-3.548,6.613-7.245,9.689-11.072C379.084,339.757,393.889,336.295,408.364,330.241z M441.345,250.956
		c-4.357,23.267-19.17,39.935-44.931,50.708c-2.335,0.976-4.689,1.867-7.047,2.687c7.451-16.566,12.372-34.521,14.266-53.359
		c0.464-0.015,0.925-0.036,1.392-0.036H441.345z M390.643,393.72c-7.065,3.063-20.219,7.301-43.99,11.218
		c-31.532,5.194-71.854,8.056-113.54,8.056c-41.684,0-82.006-2.862-113.538-8.056c-23.771-3.917-36.925-8.154-43.988-11.218
		c7.064-3.063,20.218-7.301,43.988-11.217c7.014-1.155,14.48-2.188,22.281-3.106c26.441,16.8,57.739,26.54,91.258,26.54
		c33.52,0,64.817-9.739,91.259-26.54c7.8,0.918,15.268,1.951,22.28,3.106C370.424,386.419,383.577,390.657,390.643,393.72z"/>
	<path d="M200.859,185.367c-0.078,0.4,0.086,0.809,0.42,1.042c0.178,0.125,0.386,0.188,0.593,0.188c0.184,0,0.367-0.049,0.53-0.147
		c18.182-10.891,24.96-35.578,14.768-53.968c-7.211-11.147-10.321-24.344-9.79-41.533c0.011-0.37-0.178-0.719-0.494-0.913
		c-0.316-0.192-0.711-0.202-1.038-0.023c-17.279,9.532-19.699,32.049-12.02,47.469C202.664,154.091,204.504,166.622,200.859,185.367
		z"/>
	<path d="M251.806,185.368c-0.077,0.399,0.087,0.808,0.421,1.042c0.177,0.125,0.385,0.188,0.592,0.188
		c0.184,0,0.371-0.041,0.532-0.147c41.196-27.516,18.103-69.792,15.089-77.395c-4.916-12.402-9.56-24.116-9.08-39.961
		c0.012-0.37-0.177-0.719-0.494-0.913c-0.317-0.193-0.711-0.202-1.036-0.022c-21.155,11.665-24.108,39.233-14.701,58.108
		C253.888,146.521,256.239,162.539,251.806,185.368z"/>
</g>
</svg>
