<?xml version="1.0" encoding="iso-8859-1"?>
<!-- Generator: Adobe Illustrator 16.0.0, SVG Export Plug-In . SVG Version: 6.00 Build 0)  -->
<!DOCTYPE svg PUBLIC "-//W3C//DTD SVG 1.1//EN" "http://www.w3.org/Graphics/SVG/1.1/DTD/svg11.dtd">
<svg version="1.1" id="Layer_1" xmlns="http://www.w3.org/2000/svg" xmlns:xlink="http://www.w3.org/1999/xlink" x="0px" y="0px"
	 width="512px" height="512px" viewBox="0 0 512 512" style="enable-background:new 0 0 512 512;" xml:space="preserve">
<path d="M422.88,70.279H89.12c-10.406,0-18.84,8.435-18.84,18.841v333.762c0,10.404,8.434,18.84,18.84,18.84h333.76
	c10.406,0,18.84-8.436,18.84-18.84V89.12C441.72,78.713,433.286,70.279,422.88,70.279z M279.251,354.09
	c-8.408,2.507-22.473,5.495-41.723,5.495c-60.666,0-99.867-40.063-99.867-102.063c0-62.193,43.211-105.63,105.082-105.63
	c14.168,0,26.766,1.692,37.439,5.031c9.643,3.016,15.014,13.276,11.998,22.919s-13.273,15.015-22.918,11.998
	c-4.908-1.533-13.49-3.363-26.52-3.363c-41.607,0-68.496,27.102-68.496,69.045c0,41.612,23.064,65.479,63.281,65.479
	c15.621,0,26.297-2.488,31.27-3.971c9.68-2.887,19.873,2.623,22.756,12.304C294.444,341.016,288.935,351.204,279.251,354.09z
	 M373.888,209.082c-2.219,9.854-11.998,16.05-21.863,13.83c-1.395-0.313-2.818-0.473-4.229-0.473c-1.477,0-5.15,0.233-7.389,2.405
	c-0.041,0.041-0.084,0.08-0.125,0.121c-0.947,0.9-4.037,4.816-4.037,17.387v3.587h8.521c10.104,0,18.293,8.19,18.293,18.292
	c0,10.104-8.189,18.293-18.293,18.293h-8.521v59.291c0,10.104-8.189,18.293-18.293,18.293s-18.293-8.189-18.293-18.293v-59.291
	h-4.219c-10.104,0-18.291-8.189-18.291-18.293c0-10.102,8.188-18.292,18.291-18.292h4.219v-3.587
	c0-19.363,5.164-34.111,15.344-43.835c11.406-11.016,25.438-12.663,32.793-12.663c4.111,0,8.234,0.459,12.262,1.365
	C369.913,189.437,376.106,199.225,373.888,209.082z"/>
</svg>
