<?xml version="1.0" encoding="iso-8859-1"?>
<!-- Generator: Adobe Illustrator 16.0.0, SVG Export Plug-In . SVG Version: 6.00 Build 0)  -->
<!DOCTYPE svg PUBLIC "-//W3C//DTD SVG 1.1//EN" "http://www.w3.org/Graphics/SVG/1.1/DTD/svg11.dtd">
<svg version="1.1" id="Layer_1" xmlns="http://www.w3.org/2000/svg" xmlns:xlink="http://www.w3.org/1999/xlink" x="0px" y="0px"
	 width="512px" height="512px" viewBox="0 0 512 512" style="enable-background:new 0 0 512 512;" xml:space="preserve">
<g>
	<path d="M223.841,104.171H100.069c-5.898,0-10.681,4.781-10.681,10.68v47.318c0,5.898,4.782,10.68,10.681,10.68h123.771
		c5.898,0,10.681-4.781,10.681-10.68v-47.318C234.521,108.952,229.739,104.171,223.841,104.171z"/>
	<path d="M411.93,104.171H288.164c-5.898,0-10.682,4.781-10.682,10.68v47.318c0,5.898,4.783,10.68,10.682,10.68H411.93
		c5.899,0,10.682-4.781,10.682-10.68v-47.318C422.611,108.952,417.829,104.171,411.93,104.171z"/>
	<path d="M223.841,221.659H100.069c-5.898,0-10.681,4.783-10.681,10.682v47.316c0,5.898,4.782,10.682,10.681,10.682h123.771
		c5.898,0,10.681-4.783,10.681-10.682v-47.316C234.521,226.442,229.739,221.659,223.841,221.659z"/>
	<path d="M411.93,221.659H288.164c-5.898,0-10.682,4.783-10.682,10.682v47.316c0,5.898,4.783,10.682,10.682,10.682H411.93
		c5.899,0,10.682-4.783,10.682-10.682v-47.316C422.611,226.442,417.829,221.659,411.93,221.659z"/>
	<path d="M223.841,339.149H100.069c-5.898,0-10.681,4.783-10.681,10.682v47.316c0,5.898,4.782,10.682,10.681,10.682h123.771
		c5.898,0,10.681-4.783,10.681-10.682v-47.316C234.521,343.933,229.739,339.149,223.841,339.149z"/>
	<path d="M411.93,339.149H288.164c-5.898,0-10.682,4.783-10.682,10.682v47.316c0,5.898,4.783,10.682,10.682,10.682H411.93
		c5.899,0,10.682-4.783,10.682-10.682v-47.316C422.611,343.933,417.829,339.149,411.93,339.149z"/>
</g>
</svg>
