<?xml version="1.0" encoding="iso-8859-1"?>
<!-- Generator: Adobe Illustrator 16.0.0, SVG Export Plug-In . SVG Version: 6.00 Build 0)  -->
<!DOCTYPE svg PUBLIC "-//W3C//DTD SVG 1.1//EN" "http://www.w3.org/Graphics/SVG/1.1/DTD/svg11.dtd">
<svg version="1.1" id="Layer_1" xmlns="http://www.w3.org/2000/svg" xmlns:xlink="http://www.w3.org/1999/xlink" x="0px" y="0px"
	 width="512px" height="512px" viewBox="0 0 512 512" style="enable-background:new 0 0 512 512;" xml:space="preserve">
<path d="M41.678,116.69h192.891v113.784l-64.444-51.446c-2.909-2.319-6.888-2.77-10.241-1.157c-3.354,1.613-5.484,5.007-5.484,8.727
	v138.805c0,3.72,2.131,7.112,5.485,8.726c1.335,0.643,2.77,0.958,4.198,0.958c2.154,0,4.293-0.72,6.043-2.116l64.443-51.447V395.31
	H41.678V116.69z M470.322,395.31H277.432V281.522l64.443,51.447c1.75,1.396,3.887,2.116,6.043,2.116
	c1.428,0,2.863-0.315,4.198-0.958c3.354-1.613,5.484-5.006,5.484-8.726V186.598c0-3.72-2.131-7.113-5.483-8.727
	c-3.353-1.61-7.334-1.162-10.241,1.157l-64.444,51.446V116.69h192.891V395.31z"/>
</svg>
