<?xml version="1.0" encoding="iso-8859-1"?>
<!-- Generator: Adobe Illustrator 16.0.0, SVG Export Plug-In . SVG Version: 6.00 Build 0)  -->
<!DOCTYPE svg PUBLIC "-//W3C//DTD SVG 1.1//EN" "http://www.w3.org/Graphics/SVG/1.1/DTD/svg11.dtd">
<svg version="1.1" id="Layer_1" xmlns="http://www.w3.org/2000/svg" xmlns:xlink="http://www.w3.org/1999/xlink" x="0px" y="0px"
	 width="512px" height="512px" viewBox="0 0 512 512" style="enable-background:new 0 0 512 512;" xml:space="preserve">
<g>
	<path d="M256,57.751C146.684,57.751,57.75,146.685,57.75,256S146.684,454.249,256,454.249S454.248,365.315,454.248,256
		S365.316,57.751,256,57.751z M256,396.576c-77.513,0-140.575-63.062-140.575-140.576S178.487,115.424,256,115.424
		c77.514,0,140.577,63.062,140.577,140.576S333.514,396.576,256,396.576z"/>
	<path d="M315.64,165.503c-1.766-1.164-3.816-1.779-5.93-1.779c-3.049,0-5.969,1.299-8.008,3.562l-66.1,73.338
		c-0.725,0.805-1.323,1.712-1.779,2.701l-41.316,89.662c-2.248,4.874-0.626,10.556,3.856,13.511
		c1.766,1.163,3.815,1.778,5.929,1.778c3.049,0,5.969-1.298,8.01-3.562l66.094-73.334c0.725-0.804,1.324-1.712,1.783-2.705
		l41.316-89.662C321.743,174.138,320.12,168.457,315.64,165.503z"/>
</g>
</svg>
