<?xml version="1.0" encoding="iso-8859-1"?>
<!-- Generator: Adobe Illustrator 16.0.0, SVG Export Plug-In . SVG Version: 6.00 Build 0)  -->
<!DOCTYPE svg PUBLIC "-//W3C//DTD SVG 1.1//EN" "http://www.w3.org/Graphics/SVG/1.1/DTD/svg11.dtd">
<svg version="1.1" id="Layer_1" xmlns="http://www.w3.org/2000/svg" xmlns:xlink="http://www.w3.org/1999/xlink" x="0px" y="0px"
	 width="512px" height="512px" viewBox="0 0 512 512" style="enable-background:new 0 0 512 512;" xml:space="preserve">
<g>
	<path d="M131.423,54.603v402.796c0,7.645,6.197,13.842,13.843,13.842h91.186V40.76h-91.186
		C137.62,40.76,131.423,46.957,131.423,54.603z"/>
	<path d="M366.734,40.76h-91.186v430.48h91.186c7.645,0,13.843-6.197,13.843-13.842V54.603
		C380.577,46.957,374.379,40.76,366.734,40.76z"/>
	<path d="M459.126,214.802c-1.037-0.481-2.256-0.315-3.126,0.421l-45.571,38.54c-0.658,0.556-1.039,1.374-1.039,2.237
		c0,0.861,0.381,1.68,1.039,2.236L456,296.777c0.539,0.456,1.213,0.693,1.893,0.693c0.416,0,0.838-0.09,1.233-0.272
		c1.033-0.48,1.695-1.518,1.695-2.657v-77.083C460.821,216.318,460.159,215.281,459.126,214.802z"/>
	<path d="M56,215.223c-0.868-0.736-2.089-0.902-3.124-0.421c-1.036,0.479-1.697,1.517-1.697,2.656v77.083
		c0,1.14,0.661,2.177,1.697,2.657c0.393,0.183,0.814,0.272,1.231,0.272c0.68,0,1.354-0.237,1.893-0.693l45.571-38.541
		c0.658-0.557,1.039-1.375,1.039-2.236c0-0.863-0.381-1.682-1.039-2.237L56,215.223z"/>
</g>
</svg>
