<?xml version="1.0" encoding="iso-8859-1"?>
<!-- Generator: Adobe Illustrator 16.0.0, SVG Export Plug-In . SVG Version: 6.00 Build 0)  -->
<!DOCTYPE svg PUBLIC "-//W3C//DTD SVG 1.1//EN" "http://www.w3.org/Graphics/SVG/1.1/DTD/svg11.dtd">
<svg version="1.1" id="Layer_1" xmlns="http://www.w3.org/2000/svg" xmlns:xlink="http://www.w3.org/1999/xlink" x="0px" y="0px"
	 width="512px" height="512px" viewBox="0 0 512 512" style="enable-background:new 0 0 512 512;" xml:space="preserve">
<path d="M484.092,198.123c0-15.49-12.602-28.092-28.092-28.092c-14.284,0-26.104,10.719-27.858,24.535l-103.038,48.316
	l-44.648-65.189c10.042-7.482,16.559-19.445,16.559-32.904c0-22.615-18.398-41.014-41.014-41.014s-41.014,18.398-41.014,41.014
	c0,13.459,6.517,25.422,16.559,32.904l-44.648,65.189L83.858,194.566C82.104,180.75,70.284,170.031,56,170.031
	c-15.49,0-28.092,12.602-28.092,28.092c0,11.85,7.379,22.002,17.779,26.123l37.047,168.279c2.019,9.168,10.144,15.699,19.532,15.699
	h307.467c9.389,0,17.514-6.531,19.532-15.699l37.047-168.279C476.713,220.125,484.092,209.973,484.092,198.123z"/>
</svg>
