<?xml version="1.0" encoding="iso-8859-1"?>
<!-- Generator: Adobe Illustrator 16.0.0, SVG Export Plug-In . SVG Version: 6.00 Build 0)  -->
<!DOCTYPE svg PUBLIC "-//W3C//DTD SVG 1.1//EN" "http://www.w3.org/Graphics/SVG/1.1/DTD/svg11.dtd">
<svg version="1.1" id="Layer_1" xmlns="http://www.w3.org/2000/svg" xmlns:xlink="http://www.w3.org/1999/xlink" x="0px" y="0px"
	 width="512px" height="512px" viewBox="0 0 512 512" style="enable-background:new 0 0 512 512;" xml:space="preserve">
<g>
	<path d="M430.402,59.249H81.598c-5.015,0-9.081,4.066-9.081,9.082v89.9c0,5.014,4.066,9.08,9.081,9.08h348.805
		c5.016,0,9.081-4.066,9.081-9.08v-89.9C439.483,63.315,435.418,59.249,430.402,59.249z M309.282,132.944
		c-10.859,0-19.663-8.805-19.663-19.662c0-10.861,8.804-19.666,19.663-19.666c10.86,0,19.664,8.805,19.664,19.666
		C328.946,124.14,320.143,132.944,309.282,132.944z M382.228,132.944c-10.859,0-19.663-8.805-19.663-19.662
		c0-10.861,8.804-19.666,19.663-19.666c10.86,0,19.664,8.805,19.664,19.666C401.892,124.14,393.088,132.944,382.228,132.944z"/>
	<path d="M430.402,201.97H81.598c-5.015,0-9.081,4.066-9.081,9.082v89.898c0,5.016,4.066,9.08,9.081,9.08h348.805
		c5.016,0,9.081-4.064,9.081-9.08v-89.898C439.483,206.036,435.418,201.97,430.402,201.97z M309.282,275.663
		c-10.859,0-19.663-8.805-19.663-19.662c0-10.859,8.804-19.664,19.663-19.664c10.86,0,19.664,8.805,19.664,19.664
		C328.946,266.858,320.143,275.663,309.282,275.663z M382.228,275.663c-10.859,0-19.663-8.805-19.663-19.662
		c0-10.859,8.804-19.664,19.663-19.664c10.86,0,19.664,8.805,19.664,19.664C401.892,266.858,393.088,275.663,382.228,275.663z"/>
	<path d="M430.402,344.688H81.598c-5.015,0-9.081,4.066-9.081,9.082v89.898c0,5.016,4.066,9.082,9.081,9.082h348.805
		c5.016,0,9.081-4.066,9.081-9.082v-89.898C439.483,348.755,435.418,344.688,430.402,344.688z M309.282,418.384
		c-10.859,0-19.663-8.805-19.663-19.664s8.804-19.664,19.663-19.664c10.86,0,19.664,8.805,19.664,19.664
		S320.143,418.384,309.282,418.384z M382.228,418.384c-10.859,0-19.663-8.805-19.663-19.664s8.804-19.664,19.663-19.664
		c10.86,0,19.664,8.805,19.664,19.664S393.088,418.384,382.228,418.384z"/>
</g>
</svg>
