<?xml version="1.0" encoding="iso-8859-1"?>
<!-- Generator: Adobe Illustrator 16.0.0, SVG Export Plug-In . SVG Version: 6.00 Build 0)  -->
<!DOCTYPE svg PUBLIC "-//W3C//DTD SVG 1.1//EN" "http://www.w3.org/Graphics/SVG/1.1/DTD/svg11.dtd">
<svg version="1.1" id="Layer_1" xmlns="http://www.w3.org/2000/svg" xmlns:xlink="http://www.w3.org/1999/xlink" x="0px" y="0px"
	 width="512px" height="512px" viewBox="0 0 512 512" style="enable-background:new 0 0 512 512;" xml:space="preserve">
<g>
	<path d="M218.759,226.844c68.642,0,124.286-21.395,124.286-47.787v-58c0-26.391-55.645-47.785-124.286-47.785
		c-68.643,0-124.29,21.395-124.29,47.785v58C94.469,205.449,150.116,226.844,218.759,226.844z"/>
	<path d="M218.235,330.414v-49.283c0-10.252,7.688-18.803,17.883-19.887l106.927-11.402v-25.211c0-4.426-1.569-8.709-4.498-12.775
		c-14.531,20.188-62.656,35.01-119.788,35.01c-57.133,0-105.257-14.822-119.789-35.01c-2.929,4.066-4.501,8.35-4.501,12.775v58
		C94.469,308.957,149.834,330.305,218.235,330.414z"/>
	<path d="M218.235,413.496v-63.129c-56.902-0.09-104.777-14.877-119.266-35.006c-2.929,4.066-4.501,8.348-4.501,12.773v58.002
		c0,26.391,55.647,47.785,124.29,47.785c6.049,0,11.993-0.168,17.811-0.49l-0.455-0.049
		C225.924,432.299,218.235,423.75,218.235,413.496z"/>
	<path d="M415.874,261.182c-1.055-0.949-2.463-1.402-3.873-1.254l-70.832,7.555c-2.542,0.27-4.47,2.414-4.47,4.971v62.213
		c0,2.762,2.238,5,5,5h70.832c2.761,0,5-2.238,5-5V264.9C417.531,263.482,416.929,262.131,415.874,261.182z"/>
	<path d="M311.871,270.607l-70.832,7.553c-2.541,0.27-4.47,2.414-4.47,4.971v51.535c0,2.762,2.239,5,5,5h70.832c2.762,0,5-2.238,5-5
		v-59.088c0-1.418-0.603-2.77-1.657-3.717C314.689,270.912,313.283,270.461,311.871,270.607z"/>
	<path d="M312.401,358.963h-70.832c-2.761,0-5,2.238-5,5v51.533c0,2.557,1.928,4.701,4.47,4.973l70.832,7.555
		c0.178,0.018,0.354,0.027,0.531,0.027c1.228,0,2.42-0.451,3.342-1.281c1.055-0.949,1.657-2.301,1.657-3.719v-59.088
		C317.401,361.201,315.163,358.963,312.401,358.963z"/>
	<path d="M412.531,358.963h-70.832c-2.762,0-5,2.238-5,5v62.213c0,2.557,1.928,4.701,4.47,4.971l70.832,7.553
		c0.177,0.02,0.354,0.029,0.53,0.029c1.228,0,2.42-0.453,3.343-1.283c1.055-0.947,1.657-2.299,1.657-3.717v-69.766
		C417.531,361.201,415.292,358.963,412.531,358.963z"/>
</g>
</svg>
