<?xml version="1.0" encoding="iso-8859-1"?>
<!-- Generator: Adobe Illustrator 16.0.0, SVG Export Plug-In . SVG Version: 6.00 Build 0)  -->
<!DOCTYPE svg PUBLIC "-//W3C//DTD SVG 1.1//EN" "http://www.w3.org/Graphics/SVG/1.1/DTD/svg11.dtd">
<svg version="1.1" id="Layer_1" xmlns="http://www.w3.org/2000/svg" xmlns:xlink="http://www.w3.org/1999/xlink" x="0px" y="0px"
	 width="512px" height="512px" viewBox="0 0 512 512" style="enable-background:new 0 0 512 512;" xml:space="preserve">
<path d="M457.962,110.068H54.04c-10.489,0-18.994,8.504-18.994,18.992v253.879c0,10.488,8.505,18.992,18.994,18.992h403.922
	c10.489,0,18.992-8.504,18.992-18.992V129.061C476.954,118.572,468.451,110.068,457.962,110.068z M79.334,251.658
	c0-6.74,5.462-12.203,12.204-12.203h61.008c6.739,0,12.205,5.463,12.205,12.203c0,6.738-5.466,12.202-12.205,12.202H91.538
	C84.796,263.86,79.334,258.396,79.334,251.658z M160.687,346.575c-1.225,0-2.47-0.186-3.694-0.575
	c-6.426-2.039-9.981-8.9-7.941-15.323l49.761-156.737c2.04-6.422,8.901-9.979,15.323-7.938c6.425,2.039,9.978,8.899,7.941,15.322
	l-49.765,156.738C170.663,343.257,165.86,346.575,160.687,346.575z M212.751,251.658c0-6.74,5.462-12.203,12.2-12.203h61.011
	c6.739,0,12.201,5.463,12.201,12.203c0,6.738-5.462,12.202-12.201,12.202h-61.011C218.213,263.86,212.751,258.396,212.751,251.658z
	 M296.694,346.575c-1.223,0-2.467-0.186-3.697-0.575c-6.42-2.039-9.977-8.9-7.938-15.323l49.762-156.737
	c2.039-6.422,8.9-9.979,15.322-7.938c6.423,2.039,9.979,8.899,7.939,15.322l-49.762,156.738
	C306.673,343.257,301.87,346.575,296.694,346.575z M420.462,263.86h-61.008c-6.741,0-12.203-5.464-12.203-12.202
	c0-6.74,5.462-12.203,12.203-12.203h61.008c6.742,0,12.205,5.463,12.205,12.203C432.667,258.396,427.204,263.86,420.462,263.86z"/>
</svg>
