<?xml version="1.0" encoding="iso-8859-1"?>
<!-- Generator: Adobe Illustrator 16.0.0, SVG Export Plug-In . SVG Version: 6.00 Build 0)  -->
<!DOCTYPE svg PUBLIC "-//W3C//DTD SVG 1.1//EN" "http://www.w3.org/Graphics/SVG/1.1/DTD/svg11.dtd">
<svg version="1.1" id="Layer_1" xmlns="http://www.w3.org/2000/svg" xmlns:xlink="http://www.w3.org/1999/xlink" x="0px" y="0px"
	 width="512px" height="512px" viewBox="0 0 512 512" style="enable-background:new 0 0 512 512;" xml:space="preserve">
<path d="M428.566,339.392c7.388,7.389,7.388,19.366,0.001,26.754l-62.421,62.421c-7.389,7.389-19.366,7.387-26.754,0l-83.392-83.393
	l-83.395,83.393c-7.386,7.388-19.364,7.387-26.752,0l-62.422-62.422c-7.388-7.387-7.387-19.364,0.001-26.75L166.827,256
	l-83.393-83.394c-7.387-7.387-7.387-19.365-0.001-26.751l62.423-62.422c7.387-7.388,19.365-7.387,26.75,0l83.395,83.395
	l83.393-83.395c7.387-7.387,19.364-7.388,26.752,0l62.422,62.421c7.387,7.388,7.388,19.366,0,26.753L345.174,256L428.566,339.392z"
	/>
</svg>
