<?xml version="1.0" encoding="iso-8859-1"?>
<!-- Generator: Adobe Illustrator 16.0.0, SVG Export Plug-In . SVG Version: 6.00 Build 0)  -->
<!DOCTYPE svg PUBLIC "-//W3C//DTD SVG 1.1//EN" "http://www.w3.org/Graphics/SVG/1.1/DTD/svg11.dtd">
<svg version="1.1" id="Layer_1" xmlns="http://www.w3.org/2000/svg" xmlns:xlink="http://www.w3.org/1999/xlink" x="0px" y="0px"
	 width="512px" height="512px" viewBox="0 0 512 512" style="enable-background:new 0 0 512 512;" xml:space="preserve">
<path d="M435.85,55.846H76.15c-11.215,0-20.305,9.091-20.305,20.305V435.85c0,11.214,9.09,20.305,20.305,20.305H435.85
	c11.215,0,20.305-9.091,20.305-20.305V76.15C456.154,64.937,447.064,55.846,435.85,55.846z M363.223,307.815
	c4.59,4.591,4.592,12.033,0.002,16.623l-38.785,38.785c-4.592,4.59-12.033,4.589-16.623,0L256,311.408l-51.816,51.815
	c-4.588,4.59-12.031,4.59-16.621,0l-38.785-38.785c-4.59-4.591-4.59-12.032,0-16.623L200.594,256l-51.816-51.815
	c-4.59-4.591-4.59-12.032,0-16.622l38.785-38.786c4.59-4.59,12.033-4.59,16.621,0L256,200.593l51.816-51.816
	c4.59-4.589,12.033-4.589,16.623,0l38.783,38.786c4.592,4.59,4.592,12.032,0,16.622L311.408,256L363.223,307.815z"/>
</svg>
