<?xml version="1.0" encoding="iso-8859-1"?>
<!-- Generator: Adobe Illustrator 16.0.0, SVG Export Plug-In . SVG Version: 6.00 Build 0)  -->
<!DOCTYPE svg PUBLIC "-//W3C//DTD SVG 1.1//EN" "http://www.w3.org/Graphics/SVG/1.1/DTD/svg11.dtd">
<svg version="1.1" id="Layer_1" xmlns="http://www.w3.org/2000/svg" xmlns:xlink="http://www.w3.org/1999/xlink" x="0px" y="0px"
	 width="512px" height="512px" viewBox="0 0 512 512" style="enable-background:new 0 0 512 512;" xml:space="preserve">
<path d="M372.704,48.813H139.296c-12.27,0-22.215,9.946-22.215,22.216v369.941c0,12.27,9.945,22.216,22.215,22.216h233.408
	c12.27,0,22.215-9.946,22.215-22.216V71.029C394.919,58.76,384.974,48.813,372.704,48.813z M332.839,261.479l-68.475,104.529
	c-1.848,2.821-4.992,4.521-8.364,4.521s-6.518-1.7-8.365-4.521l-68.474-104.529c-2.18-3.328-2.18-7.631,0-10.959l68.474-104.529
	c1.848-2.821,4.993-4.521,8.365-4.521s6.517,1.7,8.364,4.521l68.475,104.529C335.019,253.848,335.019,258.152,332.839,261.479z"/>
</svg>
