<?xml version="1.0" encoding="iso-8859-1"?>
<!-- Generator: Adobe Illustrator 16.0.0, SVG Export Plug-In . SVG Version: 6.00 Build 0)  -->
<!DOCTYPE svg PUBLIC "-//W3C//DTD SVG 1.1//EN" "http://www.w3.org/Graphics/SVG/1.1/DTD/svg11.dtd">
<svg version="1.1" id="Layer_1" xmlns="http://www.w3.org/2000/svg" xmlns:xlink="http://www.w3.org/1999/xlink" x="0px" y="0px"
	 width="512px" height="512px" viewBox="0 0 512 512" style="enable-background:new 0 0 512 512;" xml:space="preserve">
<path d="M429.019,72.981H82.981c-5.523,0-10,4.477-10,10v346.037c0,5.523,4.477,10,10,10h346.037c5.523,0,10-4.477,10-10V82.981
	C439.019,77.458,434.542,72.981,429.019,72.981z M164.562,389.308c-19.351,0-35.038-15.688-35.038-35.039
	c0-19.351,15.688-35.037,35.038-35.037c19.352,0,35.038,15.687,35.038,35.037C199.6,373.62,183.913,389.308,164.562,389.308z
	 M164.562,192.769c-19.351,0-35.038-15.687-35.038-35.037c0-19.352,15.688-35.039,35.038-35.039
	c19.352,0,35.038,15.688,35.038,35.039C199.6,177.082,183.913,192.769,164.562,192.769z M256,291.038
	c-19.351,0-35.038-15.688-35.038-35.038s15.688-35.038,35.038-35.038c19.351,0,35.038,15.688,35.038,35.038
	S275.351,291.038,256,291.038z M347.438,389.308c-19.351,0-35.038-15.688-35.038-35.039c0-19.351,15.688-35.037,35.038-35.037
	s35.038,15.687,35.038,35.037C382.477,373.62,366.789,389.308,347.438,389.308z M347.438,192.769
	c-19.351,0-35.038-15.687-35.038-35.037c0-19.352,15.688-35.039,35.038-35.039s35.038,15.688,35.038,35.039
	C382.477,177.082,366.789,192.769,347.438,192.769z"/>
</svg>
