<?xml version="1.0" encoding="iso-8859-1"?>
<!-- Generator: Adobe Illustrator 16.0.0, SVG Export Plug-In . SVG Version: 6.00 Build 0)  -->
<!DOCTYPE svg PUBLIC "-//W3C//DTD SVG 1.1//EN" "http://www.w3.org/Graphics/SVG/1.1/DTD/svg11.dtd">
<svg version="1.1" id="Layer_1" xmlns="http://www.w3.org/2000/svg" xmlns:xlink="http://www.w3.org/1999/xlink" x="0px" y="0px"
	 width="512px" height="512px" viewBox="0 0 512 512" style="enable-background:new 0 0 512 512;" xml:space="preserve">
<path d="M435.85,55.846H76.15c-11.215,0-20.304,9.091-20.304,20.305V435.85c0,11.214,9.089,20.305,20.304,20.305H435.85
	c11.215,0,20.304-9.091,20.304-20.305V76.15C456.153,64.937,447.064,55.846,435.85,55.846z M256.001,114.476
	c20.083,0,36.423,16.339,36.423,36.424c0,20.084-16.34,36.424-36.423,36.424c-20.085,0-36.424-16.34-36.424-36.424
	C219.577,130.814,235.916,114.476,256.001,114.476z M256.001,397.524c-20.085,0-36.424-16.339-36.424-36.424
	c0-20.084,16.339-36.424,36.424-36.424c20.083,0,36.423,16.34,36.423,36.424C292.424,381.186,276.084,397.524,256.001,397.524z
	 M380.211,283.426c0.001,6.492-5.262,11.754-11.754,11.753H143.544c-6.493,0.001-11.755-5.262-11.754-11.753v-54.851
	c0-6.492,5.261-11.754,11.754-11.754l224.914,0.001c6.491,0,11.754,5.262,11.754,11.753L380.211,283.426z"/>
</svg>
