<?xml version="1.0" encoding="iso-8859-1"?>
<!-- Generator: Adobe Illustrator 16.0.0, SVG Export Plug-In . SVG Version: 6.00 Build 0)  -->
<!DOCTYPE svg PUBLIC "-//W3C//DTD SVG 1.1//EN" "http://www.w3.org/Graphics/SVG/1.1/DTD/svg11.dtd">
<svg version="1.1" id="Layer_1" xmlns="http://www.w3.org/2000/svg" xmlns:xlink="http://www.w3.org/1999/xlink" x="0px" y="0px"
	 width="512px" height="512px" viewBox="0 0 512 512" style="enable-background:new 0 0 512 512;" xml:space="preserve">
<g>
	<path d="M478.92,253.55c-1.899-2.242-4.69-3.535-7.629-3.535H40.709c-2.938,0-5.729,1.293-7.629,3.535
		c-1.899,2.242-2.718,5.207-2.235,8.105l29.547,177.706c1.838,11.157,11.379,19.255,22.688,19.255h345.842
		c11.309,0,20.85-8.098,22.686-19.24l29.549-177.721C481.638,258.757,480.819,255.792,478.92,253.55z"/>
	<path d="M430.818,155.697H383V68.384c0-8.284-6.716-15-15-15H144c-8.284,0-15,6.716-15,15v53.369H81.182
		c-7.663,0-13.874,6.211-13.874,13.875v82.418h24.821H159V83.384h194v134.662h91.692v-48.475
		C444.692,161.91,438.481,155.697,430.818,155.697z"/>
</g>
</svg>
