<?xml version="1.0" encoding="iso-8859-1"?>
<!-- Generator: Adobe Illustrator 16.0.0, SVG Export Plug-In . SVG Version: 6.00 Build 0)  -->
<!DOCTYPE svg PUBLIC "-//W3C//DTD SVG 1.1//EN" "http://www.w3.org/Graphics/SVG/1.1/DTD/svg11.dtd">
<svg version="1.1" id="Layer_1" xmlns="http://www.w3.org/2000/svg" xmlns:xlink="http://www.w3.org/1999/xlink" x="0px" y="0px"
	 width="512px" height="512px" viewBox="0 0 512 512" style="enable-background:new 0 0 512 512;" xml:space="preserve">
<path d="M455.009,374.153h-41.242v-36c0-11.046-8.953-20-20-20c-11.045,0-20,8.954-20,20v6.68H367V167.665h6.767v6.182
	c0,11.046,8.955,20,20,20c11.047,0,20-8.954,20-20v-36h41.242c11.046,0,20-8.954,20-20s-8.954-20-20-20h-41.242v-36
	c0-11.046-8.953-20-20-20c-11.045,0-20,8.954-20,20v8.196H138.232v-8.196c0-11.046-8.954-20-20-20s-20,8.954-20,20v36H56.991
	c-11.046,0-20,8.954-20,20s8.954,20,20,20h41.241v36c0,11.046,8.954,20,20,20s20-8.954,20-20v-6.182H145v177.168h-6.768v-6.68
	c0-11.046-8.954-20-20-20s-20,8.954-20,20v36H56.991c-11.046,0-20,8.954-20,20s8.954,20,20,20h41.241v36c0,11.046,8.954,20,20,20
	s20-8.954,20-20v-7.105h235.534v7.105c0,11.046,8.955,20,20,20c11.047,0,20-8.954,20-20v-36h41.242c11.046,0,20-8.954,20-20
	S466.055,374.153,455.009,374.153z M327,344.833H185V167.665h142V344.833z"/>
</svg>
