<?xml version="1.0" encoding="iso-8859-1"?>
<!-- Generator: Adobe Illustrator 16.0.0, SVG Export Plug-In . SVG Version: 6.00 Build 0)  -->
<!DOCTYPE svg PUBLIC "-//W3C//DTD SVG 1.1//EN" "http://www.w3.org/Graphics/SVG/1.1/DTD/svg11.dtd">
<svg version="1.1" id="Layer_1" xmlns="http://www.w3.org/2000/svg" xmlns:xlink="http://www.w3.org/1999/xlink" x="0px" y="0px"
	 width="512px" height="512px" viewBox="0 0 512 512" style="enable-background:new 0 0 512 512;" xml:space="preserve">
<g>
	<path d="M431.204,174.215c-8.583,0-15.958-0.054-33.704-0.079v-68.238c0-13.974-8.047-19.543-15.801-19.597L75.781,86.297
		c-8.309,0-15.045,6.735-15.045,15.044v260.975c0,34.979,28.457,63.387,63.438,63.387h263.652c34.98,0,63.438-28.408,63.438-63.387
		V194.274C451.264,183.197,442.283,174.215,431.204,174.215z M356.229,384.489H124.174c-12.254,0-22.223-9.947-22.223-22.173
		V127.512l254.335,0.004L356.229,384.489z"/>
	<path d="M130.826,209.296h195.152c3.748,0,6.787-3.04,6.787-6.789v-13.576c0-3.749-3.039-6.789-6.787-6.789H130.826
		c-3.75,0-6.788,3.04-6.788,6.789v13.576C124.038,206.257,127.076,209.296,130.826,209.296z"/>
	<path d="M198.55,235.292h-67.339c-3.122,0-5.652,2.53-5.652,5.652v83.262c0,3.121,2.53,5.652,5.652,5.652h67.339
		c3.122,0,5.653-2.531,5.653-5.652v-83.262C204.203,237.822,201.672,235.292,198.55,235.292z"/>
	<path d="M325.979,243.185h-91.65c-3.748,0-6.787,3.039-6.787,6.788v9.603c0,3.749,3.039,6.788,6.787,6.788h91.65
		c3.748,0,6.787-3.039,6.787-6.788v-9.603C332.766,246.224,329.727,243.185,325.979,243.185z"/>
	<path d="M325.979,301.222h-91.65c-3.748,0-6.787,3.039-6.787,6.788v9.604c0,3.749,3.039,6.788,6.787,6.788h91.65
		c3.748,0,6.787-3.039,6.787-6.788v-9.604C332.766,304.26,329.727,301.222,325.979,301.222z"/>
</g>
</svg>
