<?xml version="1.0" encoding="iso-8859-1"?>
<!-- Generator: Adobe Illustrator 16.0.0, SVG Export Plug-In . SVG Version: 6.00 Build 0)  -->
<!DOCTYPE svg PUBLIC "-//W3C//DTD SVG 1.1//EN" "http://www.w3.org/Graphics/SVG/1.1/DTD/svg11.dtd">
<svg version="1.1" id="Layer_1" xmlns="http://www.w3.org/2000/svg" xmlns:xlink="http://www.w3.org/1999/xlink" x="0px" y="0px"
	 width="512px" height="512px" viewBox="0 0 512 512" style="enable-background:new 0 0 512 512;" xml:space="preserve">
<g>
	<path d="M399.49,149.956h-90.449V59.508c0-5.99-4.873-10.863-10.863-10.863H111.816c-5.99,0-10.863,4.873-10.863,10.863v393.21
		c0,5.989,4.873,10.862,10.863,10.862H399.49c5.99,0,10.863-4.873,10.863-10.862V160.818
		C410.354,154.829,405.48,149.956,399.49,149.956z"/>
	<path d="M344.967,123.749h56.822c3.756,0,7.111-2.242,8.549-5.712c1.439-3.472,0.65-7.432-2.006-10.087L351.51,51.129
		c-1.746-1.747-4.072-2.709-6.547-2.709c-1.219,0-2.408,0.236-3.541,0.704c-3.469,1.438-5.709,4.795-5.709,8.55v56.821
		C335.713,119.598,339.865,123.749,344.967,123.749z"/>
</g>
</svg>
