<?xml version="1.0" encoding="iso-8859-1"?>
<!-- Generator: Adobe Illustrator 16.0.0, SVG Export Plug-In . SVG Version: 6.00 Build 0)  -->
<!DOCTYPE svg PUBLIC "-//W3C//DTD SVG 1.1//EN" "http://www.w3.org/Graphics/SVG/1.1/DTD/svg11.dtd">
<svg version="1.1" id="Layer_1" xmlns="http://www.w3.org/2000/svg" xmlns:xlink="http://www.w3.org/1999/xlink" x="0px" y="0px"
	 width="512px" height="512px" viewBox="0 0 512 512" style="enable-background:new 0 0 512 512;" xml:space="preserve">
<path d="M406.895,31.781H105.107c-8.319,0-15.088,6.768-15.088,15.086v418.264c0,8.319,6.769,15.087,15.088,15.087h301.787
	c8.318,0,15.086-6.768,15.086-15.087V46.868C421.98,38.549,415.213,31.781,406.895,31.781z M283.863,80.378h94.273v140.486h-94.273
	V80.378z M228.137,431.622h-94.273V291.135h94.273V431.622z M228.137,220.865h-94.273V80.378h94.273V220.865z M378.137,431.622
	h-94.273V291.135h94.273V431.622z M377.831,257.781c0,4.532-3.687,8.219-8.219,8.219h-5.479c-3.256,0-6.066-1.907-7.396-4.658
	h-19.324c-1.514,0-2.739-1.227-2.739-2.74v-5.205c0-1.513,1.226-2.74,2.739-2.74h19.324c1.33-2.75,4.141-4.657,7.396-4.657h5.479
	c4.532,0,8.219,3.687,8.219,8.219V257.781z"/>
</svg>
