<?xml version="1.0" encoding="iso-8859-1"?>
<!-- Generator: Adobe Illustrator 16.0.0, SVG Export Plug-In . SVG Version: 6.00 Build 0)  -->
<!DOCTYPE svg PUBLIC "-//W3C//DTD SVG 1.1//EN" "http://www.w3.org/Graphics/SVG/1.1/DTD/svg11.dtd">
<svg version="1.1" id="Layer_1" xmlns="http://www.w3.org/2000/svg" xmlns:xlink="http://www.w3.org/1999/xlink" x="0px" y="0px"
	 width="512px" height="512px" viewBox="0 0 512 512" style="enable-background:new 0 0 512 512;" xml:space="preserve">
<path d="M410.496,98.135c-27.503-27.503-61.849-47.19-99.324-56.933c-2.995-0.777-6.184-0.126-8.633,1.768
	c-2.449,1.894-3.883,4.815-3.883,7.911v101.405c0,5.523,4.477,10,10,10h50.036c4.475,0,8.646,2.408,10.884,6.285
	c2.237,3.875,2.237,8.69-0.001,12.566l-102.692,177.84c-2.238,3.875-6.408,6.283-10.883,6.283s-8.645-2.408-10.883-6.283
	L142.425,181.136c-2.238-3.875-2.238-8.689,0-12.565c2.238-3.876,6.408-6.285,10.883-6.285h50.036c5.523,0,10-4.477,10-10V50.881
	c0-3.096-1.434-6.017-3.883-7.911c-2.449-1.894-5.637-2.548-8.633-1.768c-37.475,9.743-71.82,29.43-99.324,56.933
	c-41.267,41.268-63.994,96.135-63.994,154.496s22.727,113.228,63.994,154.496C142.772,448.394,197.64,471.12,256,471.12
	s113.228-22.727,154.496-63.994c41.267-41.268,63.994-96.135,63.994-154.496S451.763,139.403,410.496,98.135z"/>
</svg>
