<?xml version="1.0" encoding="iso-8859-1"?>
<!-- Generator: Adobe Illustrator 16.0.0, SVG Export Plug-In . SVG Version: 6.00 Build 0)  -->
<!DOCTYPE svg PUBLIC "-//W3C//DTD SVG 1.1//EN" "http://www.w3.org/Graphics/SVG/1.1/DTD/svg11.dtd">
<svg version="1.1" id="Layer_1" xmlns="http://www.w3.org/2000/svg" xmlns:xlink="http://www.w3.org/1999/xlink" x="0px" y="0px"
	 width="512px" height="512px" viewBox="0 0 512 512" style="enable-background:new 0 0 512 512;" xml:space="preserve">
<g>
	<path d="M256,49.854C142.331,49.854,49.854,142.331,49.854,256S142.331,462.146,256,462.146S462.146,369.669,462.146,256
		S369.669,49.854,256,49.854z M256,416.354c-88.419,0-160.354-71.935-160.354-160.354c0-88.42,71.934-160.354,160.354-160.354
		S416.354,167.58,416.354,256C416.354,344.419,344.419,416.354,256,416.354z"/>
	<path d="M341.762,211.49H170.238c-3.722,0-7.111,2.146-8.702,5.512s-1.099,7.347,1.264,10.223l85.762,104.422
		c1.828,2.227,4.558,3.517,7.438,3.517c2.88,0,5.61-1.29,7.438-3.517L349.2,227.225c2.363-2.876,2.855-6.857,1.264-10.223
		C348.873,213.637,345.484,211.49,341.762,211.49z"/>
</g>
</svg>
