<?xml version="1.0" encoding="iso-8859-1"?>
<!-- Generator: Adobe Illustrator 16.0.0, SVG Export Plug-In . SVG Version: 6.00 Build 0)  -->
<!DOCTYPE svg PUBLIC "-//W3C//DTD SVG 1.1//EN" "http://www.w3.org/Graphics/SVG/1.1/DTD/svg11.dtd">
<svg version="1.1" id="Layer_1" xmlns="http://www.w3.org/2000/svg" xmlns:xlink="http://www.w3.org/1999/xlink" x="0px" y="0px"
	 width="512px" height="512px" viewBox="0 0 512 512" style="enable-background:new 0 0 512 512;" xml:space="preserve">
<path d="M256,47.511C140.854,47.511,47.511,140.854,47.511,256S140.854,464.489,256,464.489S464.489,371.146,464.489,256
	S371.146,47.511,256,47.511z M337.249,245.037l-68.259,118.21c-2.68,4.641-7.631,7.499-12.99,7.499s-10.31-2.858-12.99-7.499
	l-68.259-118.21c-2.68-4.641-2.68-10.359-0.001-15c2.68-4.642,7.631-7.501,12.991-7.501H221v-66.282c0-8.284,6.716-15,15-15h40
	c8.284,0,15,6.716,15,15v66.282h33.259c5.359,0,10.311,2.859,12.991,7.501C339.929,234.678,339.929,240.396,337.249,245.037z"/>
</svg>
