<?xml version="1.0" encoding="iso-8859-1"?>
<!-- Generator: Adobe Illustrator 16.0.0, SVG Export Plug-In . SVG Version: 6.00 Build 0)  -->
<!DOCTYPE svg PUBLIC "-//W3C//DTD SVG 1.1//EN" "http://www.w3.org/Graphics/SVG/1.1/DTD/svg11.dtd">
<svg version="1.1" id="Layer_1" xmlns="http://www.w3.org/2000/svg" xmlns:xlink="http://www.w3.org/1999/xlink" x="0px" y="0px"
	 width="512px" height="512px" viewBox="0 0 512 512" style="enable-background:new 0 0 512 512;" xml:space="preserve">
<path d="M429.071,210.722l-50.412-50.412c-6.102-6.102-14.214-9.461-22.843-9.461c-0.135,0-0.268,0.008-0.401,0.01V69.981
	c0-5.523-4.477-10-10-10H83.467c-5.522,0-10,4.477-10,10v372.037c0,5.523,4.478,10,10,10h261.948c5.523,0,10-4.477,10-10V330.063
	l73.656-73.656c6.102-6.102,9.462-14.214,9.462-22.843C438.533,224.935,435.172,216.822,429.071,210.722z M264.068,380.068
	c-0.921,0.922-2.092,1.556-3.367,1.824l-58.713,12.352c-2.222,0.467-4.528-0.219-6.133-1.824c-1.605-1.605-2.291-3.912-1.823-6.133
	l12.351-58.712c0.269-1.276,0.901-2.446,1.823-3.368l93.326-93.326l55.863,55.863L264.068,380.068z M405.626,238.512l-31.13,31.131
	l-55.863-55.863l31.13-31.13c2.624-2.624,6.877-2.624,9.501,0l46.362,46.362C408.25,231.635,408.25,235.889,405.626,238.512z"/>
</svg>
