<?xml version="1.0" encoding="iso-8859-1"?>
<!-- Generator: Adobe Illustrator 16.0.0, SVG Export Plug-In . SVG Version: 6.00 Build 0)  -->
<!DOCTYPE svg PUBLIC "-//W3C//DTD SVG 1.1//EN" "http://www.w3.org/Graphics/SVG/1.1/DTD/svg11.dtd">
<svg version="1.1" id="Layer_1" xmlns="http://www.w3.org/2000/svg" xmlns:xlink="http://www.w3.org/1999/xlink" x="0px" y="0px"
	 width="512px" height="512px" viewBox="0 0 512 512" style="enable-background:new 0 0 512 512;" xml:space="preserve">
<g>
	<path d="M241.134,324.273h18.674c0.68-0.875,1.406-1.719,2.195-2.51l35.184-35.184h-56.053v-60.689h116.742l45.691-45.691
		c1.094-1.094,2.268-2.072,3.504-2.947l0.004-69.059c0-10.391-8.453-18.846-18.846-18.846H56.073
		c-10.393,0-18.848,8.455-18.848,18.846v98.383c0,0.076,0.002,0.152,0.006,0.23c-0.004,0.08-0.006,0.158-0.006,0.236v196.766
		c0,10.391,8.455,18.844,18.848,18.844h165.941c0.047,0,0.09-0.006,0.137-0.006c0.045,0,0.09,0.006,0.135,0.006h33.168
		c-2.098-1.184-4.131-2.574-5.799-4.402c-9.781-10.721-8.521-33.287-8.521-33.287V324.273z M203.171,384.963H74.919v-60.689h128.252
		V384.963z M203.171,286.58H74.919v-60.689h128.252V286.58z"/>
	<path d="M472.808,240.703l-46.363-46.361c-2.623-2.625-6.877-2.625-9.5,0l-31.131,31.129l55.863,55.863l31.131-31.131
		C475.431,247.58,475.431,243.326,472.808,240.703z"/>
	<path d="M275.388,335.898c-0.922,0.922-1.555,2.092-1.824,3.367l-12.35,58.713c-0.469,2.221,0.217,4.527,1.822,6.133
		s3.912,2.291,6.133,1.824l58.713-12.352c1.275-0.268,2.447-0.902,3.367-1.824l93.328-93.324l-55.863-55.863L275.388,335.898z"/>
	<path d="M332.77,413.155l-45.147,9.497h100.607c10.393,0,18.846-8.454,18.846-18.845v-58.822l-60.918,60.917
		C342.49,409.573,337.858,412.083,332.77,413.155z"/>
</g>
</svg>
