<?xml version="1.0" encoding="iso-8859-1"?>
<!-- Generator: Adobe Illustrator 16.0.0, SVG Export Plug-In . SVG Version: 6.00 Build 0)  -->
<!DOCTYPE svg PUBLIC "-//W3C//DTD SVG 1.1//EN" "http://www.w3.org/Graphics/SVG/1.1/DTD/svg11.dtd">
<svg version="1.1" id="Layer_1" xmlns="http://www.w3.org/2000/svg" xmlns:xlink="http://www.w3.org/1999/xlink" x="0px" y="0px"
	 width="512px" height="512px" viewBox="0 0 512 512" style="enable-background:new 0 0 512 512;" xml:space="preserve">
<g>
	<path d="M350.554,147.459c-28.709-18.525-62.655-29.013-88-52.604c-4.733-4.358-13.238-15.663-21.377-20.8
		c-2.993-1.889-6.21-3.432-9.615-4.397c-12.665-3.592-26.586,0.396-35.442,10.119c-5.983,6.57-9.115,15.126-9.115,23.979v234.678
		c-25.196-0.496-54.48,8.719-68.124,31.504c-5.633,9.408-7.509,20.684-4.619,31.32c2.999,11.037,10.604,20.238,19.721,26.893
		c22.386,16.34,53.856,19.322,79.861,10.988c21.599-6.922,43.161-24.1,43.161-48.683V164.896c0-0.001,0-0.001,0-0.001
		c16.81,6.42,34.302,10.727,51.571,15.684c15.883,4.559,32.157,9.555,45.042,20.302c6.403,5.34,10.583,12.661,13.673,20.273
		c2.618,6.452,3.556,13.516,4.563,20.353c0.911,6.186,5.349,11.266,11.752,12.02c6.375,0.752,12.331-3.365,14.391-9.454
		C399.722,238.974,405.785,183.099,350.554,147.459z"/>
</g>
</svg>
