<?xml version="1.0" encoding="iso-8859-1"?>
<!-- Generator: Adobe Illustrator 16.0.0, SVG Export Plug-In . SVG Version: 6.00 Build 0)  -->
<!DOCTYPE svg PUBLIC "-//W3C//DTD SVG 1.1//EN" "http://www.w3.org/Graphics/SVG/1.1/DTD/svg11.dtd">
<svg version="1.1" id="Layer_1" xmlns="http://www.w3.org/2000/svg" xmlns:xlink="http://www.w3.org/1999/xlink" x="0px" y="0px"
	 width="512px" height="512px" viewBox="0 0 512 512" style="enable-background:new 0 0 512 512;" xml:space="preserve">
<g>
	<path d="M396.018,131.608l-230.793-0.244c-12.82,0-23.25-10.43-23.25-23.25s10.43-23.25,23.25-23.25h224.682
		c11.046,0,20-8.954,20-20s-8.954-20-20-20H165.225c-34.876,0-63.2,28.374-63.2,63.25l0.008,343.553
		c0,13.667,6.716,15.469,15,15.469h277.486c8.284,0,15-6.716,15-15V155.589l-0.005-8.469
		C409.461,139.389,404.112,131.608,396.018,131.608z M347.939,345.232c-10.852,14.289-24.355,21.533-40.135,21.533
		c-13.871,0-23.466-5.217-28.517-15.505l-1.376-2.804l-1.97,2.422c-10.679,13.13-24.269,15.887-33.79,15.887
		c-13,0-23.625-4.952-31.581-14.717c-7.752-9.513-11.683-22.345-11.683-38.14c0-20.489,5.282-37.813,15.7-51.493
		c10.68-14.027,24.916-21.139,42.31-21.139c6.972,0,13.306,1.858,18.825,5.522c0.788,0.524,1.55,1.08,2.267,1.653l1.83,1.467
		l1.163-2.047c1.646-2.907,4.629-4.645,7.979-4.645h6.172c2.574,0,5.048,1.103,6.787,3.025c1.734,1.916,2.604,4.501,2.386,7.094
		c-3.621,43.092-5.491,65.751-5.558,67.347c-0.47,9.646,0.979,16.514,4.188,19.882c2.444,2.567,5.22,2.567,6.711,2.567
		c7.861,0,14.038-4.177,19.44-13.145c5.668-9.412,8.542-21.916,8.542-37.166c0-22.553-7.086-41.178-21.063-55.356
		c-13.971-14.176-33.744-21.364-58.771-21.364c-24.033,0-44.161,8.64-59.825,25.678c-15.746,17.129-23.73,38.898-23.73,64.702
		c0,25.333,7.55,46.005,22.442,61.439c14.862,15.406,35.294,23.217,60.728,23.217c17.42,0,32.875-2.536,45.935-7.538
		c2.718-1.041,6.105-0.619,8.495,1.057c2.483,1.742,3.966,4.609,3.966,7.668v5.244c0,3.832-2.372,7.33-5.902,8.705
		c-14.682,5.718-32.774,8.617-53.775,8.617c-32.14,0-58.457-10.029-78.219-29.809c-19.775-19.79-29.801-45.971-29.801-77.819
		c0-32.757,10.479-60.338,31.145-81.978c20.705-21.682,47.476-32.675,79.568-32.675c30.025,0,55.283,9.22,75.071,27.404
		c20.187,18.555,30,42.03,30,71.768C363.892,313.312,358.524,331.292,347.939,345.232z"/>
	<path d="M255.392,265.029c-25.498,0-31.236,36.392-31.236,49.14c0,9.227,1.93,16.489,5.736,21.584
		c3.63,4.865,8.146,7.13,14.216,7.13c7.036,0,16.176-2.268,24.474-19.948c0.553-1.238,5.604-13.147,5.737-34.403
		c0.018-2.865-0.395-12.686-6.42-18.749C264.763,266.629,260.555,265.029,255.392,265.029z"/>
</g>
</svg>
