<?xml version="1.0" encoding="iso-8859-1"?>
<!-- Generator: Adobe Illustrator 16.0.0, SVG Export Plug-In . SVG Version: 6.00 Build 0)  -->
<!DOCTYPE svg PUBLIC "-//W3C//DTD SVG 1.1//EN" "http://www.w3.org/Graphics/SVG/1.1/DTD/svg11.dtd">
<svg version="1.1" id="Layer_1" xmlns="http://www.w3.org/2000/svg" xmlns:xlink="http://www.w3.org/1999/xlink" x="0px" y="0px"
	 width="512px" height="512px" viewBox="0 0 512 512" style="enable-background:new 0 0 512 512;" xml:space="preserve">
<path d="M469.305,314.059L197.941,42.695c-3.486-3.485-9.137-3.485-12.623,0l-20.03,20.029c-2.595,2.596-3.337,6.516-1.869,9.88
	c5.085,11.658,6.871,24.463,5.163,37.031c-2.04,15.024-8.802,28.647-19.551,39.397c-10.75,10.749-24.373,17.511-39.397,19.551
	c-12.567,1.707-25.372-0.079-37.03-5.164c-3.364-1.467-7.284-0.725-9.88,1.87l-20.03,20.029c-3.485,3.486-3.485,9.137,0,12.623
	l271.364,271.364c3.486,3.485,9.137,3.485,12.623,0l20.029-20.029c2.595-2.596,3.337-6.516,1.87-9.88
	c-5.085-11.658-6.871-24.463-5.163-37.031c2.04-15.024,8.801-28.647,19.551-39.396c10.75-10.75,24.373-17.511,39.397-19.552
	c12.567-1.707,25.372,0.079,37.03,5.164c3.365,1.468,7.285,0.726,9.88-1.87l20.029-20.029
	C472.791,323.196,472.791,317.545,469.305,314.059z M364.731,290.969l-73.762,73.762c-3.018,3.018-7.911,3.018-10.928,0
	L147.27,231.959c-3.018-3.017-3.018-7.911,0-10.928l73.761-73.762c3.019-3.018,7.912-3.018,10.929,0l132.772,132.771
	C367.749,283.058,367.749,287.951,364.731,290.969z"/>
</svg>
