<?xml version="1.0" encoding="iso-8859-1"?>
<!-- Generator: Adobe Illustrator 16.0.0, SVG Export Plug-In . SVG Version: 6.00 Build 0)  -->
<!DOCTYPE svg PUBLIC "-//W3C//DTD SVG 1.1//EN" "http://www.w3.org/Graphics/SVG/1.1/DTD/svg11.dtd">
<svg version="1.1" id="Layer_1" xmlns="http://www.w3.org/2000/svg" xmlns:xlink="http://www.w3.org/1999/xlink" x="0px" y="0px"
	 width="512px" height="512px" viewBox="0 0 512 512" style="enable-background:new 0 0 512 512;" xml:space="preserve">
<g>
	<path d="M461.043,86.817H50.958c-5.474,0-9.912,4.438-9.912,9.912v29.987c0,4.582,3.14,8.566,7.595,9.638l203.125,75.503
		c1.27,0.559,2.627,0.837,3.984,0.837c1.366,0,2.732-0.282,4.009-0.847l203.557-75.707c4.476-1.055,7.638-5.05,7.638-9.647V96.729
		C470.954,91.255,466.517,86.817,461.043,86.817z"/>
	<path d="M467.096,186.99c-2.433-1.876-5.6-2.517-8.572-1.736l-199.96,75.962c0,0-1.631,0.703-2.777,0.703s-2.783-0.696-2.783-0.696
		L53.516,185.511c-2.975-0.795-6.152-0.162-8.595,1.714c-2.443,1.876-3.875,4.781-3.875,7.861v220.185
		c0,5.475,4.438,9.912,9.912,9.912h410.085c5.474,0,9.911-4.438,9.911-9.912V194.84C470.954,191.768,469.529,188.867,467.096,186.99
		z"/>
</g>
</svg>
