<?xml version="1.0" encoding="iso-8859-1"?>
<!-- Generator: Adobe Illustrator 16.0.0, SVG Export Plug-In . SVG Version: 6.00 Build 0)  -->
<!DOCTYPE svg PUBLIC "-//W3C//DTD SVG 1.1//EN" "http://www.w3.org/Graphics/SVG/1.1/DTD/svg11.dtd">
<svg version="1.1" id="Layer_1" xmlns="http://www.w3.org/2000/svg" xmlns:xlink="http://www.w3.org/1999/xlink" x="0px" y="0px"
	 width="512px" height="512px" viewBox="0 0 512 512" style="enable-background:new 0 0 512 512;" xml:space="preserve">
<g>
	<path d="M418.036,125.608h-70.768V54.843c0-2.401-1.945-4.348-4.347-4.348H204.751c-2.4,0-4.347,1.946-4.347,4.348v69.684
		c0,2.4,1.946,4.347,4.347,4.347h66.687l72.567,72.518v144.98c0,2.4,1.946,4.348,4.348,4.348h69.684c2.4,0,4.347-1.947,4.347-4.348
		V129.956C422.383,127.555,420.437,125.608,418.036,125.608z"/>
	<path d="M373.447,103.097h45.269c1.484,0,2.82-0.894,3.388-2.264c0.568-1.37,0.255-2.947-0.795-3.996L376.04,51.568
		c-1.049-1.048-2.626-1.36-3.995-0.794c-1.371,0.567-2.264,1.904-2.264,3.387V99.43
		C369.781,101.455,371.422,103.097,373.447,103.097z"/>
	<path d="M307.249,236.396h-70.768v-70.767c0-2.4-1.945-4.347-4.347-4.347H93.964c-2.401,0-4.347,1.946-4.347,4.347v291.529
		c0,2.4,1.945,4.347,4.347,4.347h213.285c2.4,0,4.347-1.946,4.347-4.347V240.742C311.596,238.342,309.649,236.396,307.249,236.396z"
		/>
	<path d="M265.764,162.188c-1.049-1.049-2.627-1.36-3.996-0.795c-1.37,0.567-2.263,1.904-2.263,3.388v45.269
		c0,2.025,1.641,3.666,3.666,3.666h45.269c1.483,0,2.819-0.894,3.387-2.263c0.568-1.37,0.255-2.947-0.795-3.996L265.764,162.188z"/>
</g>
</svg>
