<?xml version="1.0" encoding="iso-8859-1"?>
<!-- Generator: Adobe Illustrator 16.0.0, SVG Export Plug-In . SVG Version: 6.00 Build 0)  -->
<!DOCTYPE svg PUBLIC "-//W3C//DTD SVG 1.1//EN" "http://www.w3.org/Graphics/SVG/1.1/DTD/svg11.dtd">
<svg version="1.1" id="Layer_1" xmlns="http://www.w3.org/2000/svg" xmlns:xlink="http://www.w3.org/1999/xlink" x="0px" y="0px"
	 width="512px" height="512px" viewBox="0 0 512 512" style="enable-background:new 0 0 512 512;" xml:space="preserve">
<g>
	<path d="M299.392,221.881c-63.991,0-116.053,52.063-116.053,116.052c0,63.991,52.062,116.054,116.053,116.054
		s116.052-52.063,116.052-116.054C415.443,273.943,363.383,221.881,299.392,221.881z"/>
	<path d="M454.682,249.101L335.899,61.512c-1.379-2.178-3.776-3.498-6.354-3.498c-2.577,0-4.977,1.32-6.354,3.498l-50.626,79.951
		c-0.762,1.201-1.167,2.599-1.167,4.023v52.711c0,2.18,0.944,4.25,2.59,5.68c1.644,1.429,3.821,2.071,5.986,1.767
		c6.168-0.872,12.439-1.313,18.637-1.313c41.575,0,81.364,19.928,106.438,53.313c1.421,1.891,3.648,3.005,6.015,3.005h37.265
		c2.742,0,5.268-1.495,6.59-3.896C456.238,254.35,456.149,251.418,454.682,249.101z"/>
	<path d="M246.858,214.819c2.778-1.179,4.583-3.903,4.583-6.924V136.77c0-4.153-3.368-7.521-7.521-7.521H63.673
		c-4.154,0-7.521,3.367-7.521,7.521v180.249c0,4.154,3.367,7.521,7.521,7.521h95.86c3.731,0,6.899-2.736,7.441-6.429
		C173.682,272.465,204.29,232.887,246.858,214.819z"/>
</g>
</svg>
