<?xml version="1.0" encoding="iso-8859-1"?>
<!-- Generator: Adobe Illustrator 16.0.0, SVG Export Plug-In . SVG Version: 6.00 Build 0)  -->
<!DOCTYPE svg PUBLIC "-//W3C//DTD SVG 1.1//EN" "http://www.w3.org/Graphics/SVG/1.1/DTD/svg11.dtd">
<svg version="1.1" id="Layer_1" xmlns="http://www.w3.org/2000/svg" xmlns:xlink="http://www.w3.org/1999/xlink" x="0px" y="0px"
	 width="512px" height="512px" viewBox="0 0 512 512" style="enable-background:new 0 0 512 512;" xml:space="preserve">
<g>
	<path d="M133.938,387.524c0.34,3.117-0.678,6.352-3.068,8.744c-4.178,4.178-10.957,4.18-15.137,0
		c-4.184-4.184-4.178-10.961,0-15.139c2.387-2.393,5.625-3.41,8.74-3.068l34.268-34.268l-19.424-19.424l-53.016,38.875
		l-12.816,58.664c-3.92,0.135-7.801,1.697-10.791,4.689c-6.27,6.271-6.27,16.439,0,22.709c6.27,6.271,16.436,6.271,22.709,0
		c2.992-2.994,4.551-6.873,4.688-10.791l58.664-12.816l38.871-53.018l-19.426-19.426L133.938,387.524z"/>
	<path d="M435.713,72.737c-22.934-20.973-58.529-19.387-79.504,3.545l-199.857,233.33l46.031,46.033l233.33-199.857
		c1.199-1.1,2.432-2.324,3.547-3.547C460.236,129.308,458.646,93.712,435.713,72.737z"/>
</g>
</svg>
