<?xml version="1.0" encoding="iso-8859-1"?>
<!-- Generator: Adobe Illustrator 16.0.0, SVG Export Plug-In . SVG Version: 6.00 Build 0)  -->
<!DOCTYPE svg PUBLIC "-//W3C//DTD SVG 1.1//EN" "http://www.w3.org/Graphics/SVG/1.1/DTD/svg11.dtd">
<svg version="1.1" id="Layer_1" xmlns="http://www.w3.org/2000/svg" xmlns:xlink="http://www.w3.org/1999/xlink" x="0px" y="0px"
	 width="512px" height="512px" viewBox="0 0 512 512" style="enable-background:new 0 0 512 512;" xml:space="preserve">
<path d="M438.467,287.929c-34.428-34.429-75.049-13.392-93.934-32.276c-18.883-18.885-20.768-38.082-35.322-52.637
	c-14.891-14.89-31.402-21.316-49.078-19.101c-9.877,1.24-19.752,5.153-29.828,11.832l-69.287-69.273
	c1.818-7.104-0.127-14.868-5.561-20.3l-53.195-53.181c-8.283-8.28-21.76-8.279-30.041,0.003L52.992,72.224
	c-8.283,8.282-8.283,21.759,0,30.042l53.188,53.188c5.432,5.432,13.191,7.377,20.293,5.561l3.439,3.449l65.838,65.838
	c-6.678,10.074-10.59,19.949-11.83,29.825c-2.217,17.676,4.211,34.188,19.102,49.079c14.555,14.556,33.75,16.438,52.635,35.323
	c18.885,18.883-2.152,59.504,32.275,93.932c20.422,20.421,43.16,29.223,67.586,26.162c59.971-7.525,101.732-50.325,109.109-109.111
	C467.689,331.087,458.887,308.35,438.467,287.929z M327.887,327.881c-11.879,11.879-31.137,11.879-43.016,0
	c-11.879-11.878-11.879-31.136,0-43.016c11.879-11.878,31.137-11.878,43.016,0C339.766,296.745,339.766,316.003,327.887,327.881z"/>
</svg>
