<?xml version="1.0" encoding="iso-8859-1"?>
<!-- Generator: Adobe Illustrator 16.0.0, SVG Export Plug-In . SVG Version: 6.00 Build 0)  -->
<!DOCTYPE svg PUBLIC "-//W3C//DTD SVG 1.1//EN" "http://www.w3.org/Graphics/SVG/1.1/DTD/svg11.dtd">
<svg version="1.1" id="Layer_1" xmlns="http://www.w3.org/2000/svg" xmlns:xlink="http://www.w3.org/1999/xlink" x="0px" y="0px"
	 width="512px" height="512px" viewBox="0 0 512 512" style="enable-background:new 0 0 512 512;" xml:space="preserve">
<path d="M404.692,229.215l-163.3-44.138L241.4,55.536c0.002-6.027-2.39-11.808-6.649-16.068c-4.26-4.264-10.039-6.657-16.064-6.657
	h-22.1c-6.024,0-11.803,2.394-16.062,6.654c-4.26,4.259-6.653,10.037-6.652,16.062l0.012,199.07L138.754,229.7
	c-4.994-3.537-11.204-4.906-17.225-3.809c-6.021,1.103-11.341,4.588-14.757,9.667l-10.99,16.341
	c-5.203,7.737-5.149,17.872,0.138,25.554l77.959,113.272v65.713c0,12.543,10.166,22.711,22.708,22.713l163.388,0.038
	c0.003,0,0.003,0,0.006,0c12.536,0,22.703-10.157,22.714-22.694l0.012-13.881l34.299-60.172c1.95-3.423,2.978-7.291,2.98-11.23
	l0.098-120.479C420.091,241.004,413.901,232.351,404.692,229.215z"/>
</svg>
