<?xml version="1.0" encoding="iso-8859-1"?>
<!-- Generator: Adobe Illustrator 16.0.0, SVG Export Plug-In . SVG Version: 6.00 Build 0)  -->
<!DOCTYPE svg PUBLIC "-//W3C//DTD SVG 1.1//EN" "http://www.w3.org/Graphics/SVG/1.1/DTD/svg11.dtd">
<svg version="1.1" id="Layer_1" xmlns="http://www.w3.org/2000/svg" xmlns:xlink="http://www.w3.org/1999/xlink" x="0px" y="0px"
	 width="512px" height="512px" viewBox="0 0 512 512" style="enable-background:new 0 0 512 512;" xml:space="preserve">
<path d="M409.727,100.251C368.547,67.919,313.952,50.113,256,50.113s-112.547,17.806-153.728,50.138
	c-41.996,32.972-65.123,77.061-65.123,124.143c0,47.688,24.536,93.246,67.589,126.028l-20.81,97.656
	c-0.893,4.185,0.629,8.518,3.94,11.227c2.079,1.701,4.645,2.582,7.237,2.582c1.538,0,3.087-0.311,4.548-0.945l144.063-62.538
	c4.104,0.18,8.223,0.271,12.282,0.271c57.951,0,112.546-17.807,153.727-50.139c41.996-32.972,65.124-77.06,65.124-124.143
	C474.851,177.312,451.723,133.223,409.727,100.251z M206.098,313.439c-14.178,0-25.713-11.535-25.713-25.713
	s11.535-25.713,25.713-25.713c14.18,0,25.715,11.535,25.715,25.713S220.277,313.439,206.098,313.439z M206.098,183.439
	c-14.178,0-25.713-11.535-25.713-25.713s11.535-25.713,25.713-25.713c14.18,0,25.715,11.535,25.715,25.713
	S220.277,183.439,206.098,183.439z M317.257,311.067c-2.677,1.981-5.845,3.028-9.161,3.028c-4.87,0-9.506-2.334-12.4-6.242
	c-2.45-3.309-3.465-7.374-2.857-11.445c0.607-4.073,2.765-7.666,6.074-10.115c11.657-8.632,23.42-31.687,23.42-63.732
	c0-32.043-11.764-55.098-23.422-63.73c-6.83-5.058-8.271-14.729-3.215-21.559c2.895-3.909,7.53-6.242,12.4-6.242
	c3.318,0,6.486,1.047,9.16,3.027c22.146,16.4,35.902,50.313,35.902,88.504C353.158,260.756,339.401,294.67,317.257,311.067z"/>
</svg>
