<?xml version="1.0" encoding="iso-8859-1"?>
<!-- Generator: Adobe Illustrator 16.0.0, SVG Export Plug-In . SVG Version: 6.00 Build 0)  -->
<!DOCTYPE svg PUBLIC "-//W3C//DTD SVG 1.1//EN" "http://www.w3.org/Graphics/SVG/1.1/DTD/svg11.dtd">
<svg version="1.1" id="Layer_1" xmlns="http://www.w3.org/2000/svg" xmlns:xlink="http://www.w3.org/1999/xlink" x="0px" y="0px"
	 width="512px" height="512px" viewBox="0 0 512 512" style="enable-background:new 0 0 512 512;" xml:space="preserve">
<g>
	<path d="M404.611,37.889H107.389c-8.31,0-15.07,6.76-15.07,15.069v406.084c0,8.31,6.761,15.069,15.07,15.069h297.223
		c8.31,0,15.07-6.76,15.07-15.069V52.958C419.682,44.648,412.921,37.889,404.611,37.889z M144.5,75.513c11.58,0,21,9.422,21,21
		c0,11.58-9.42,21-21,21s-21-9.42-21-21C123.5,84.935,132.92,75.513,144.5,75.513z M144.5,436.487c-11.58,0-21-9.422-21-21
		c0-11.58,9.42-21,21-21s21,9.42,21,21C165.5,427.065,156.08,436.487,144.5,436.487z M279.125,374.829l18.635-53.15
		c1.432-4.094,0.085-8.814-3.615-11.474c-4.503-3.236-10.776-2.209-14.012,2.294l-45.083,62.734
		C178.185,365.311,134.955,315.706,134.955,256c0-66.852,54.193-121.045,121.045-121.045c66.851,0,121.045,54.193,121.045,121.045
		C377.045,314.942,334.913,364.035,279.125,374.829z M367.5,436.487c-11.58,0-21-9.422-21-21c0-11.58,9.42-21,21-21s21,9.42,21,21
		C388.5,427.065,379.08,436.487,367.5,436.487z M367.5,117.513c-11.58,0-21-9.42-21-21c0-11.578,9.42-21,21-21s21,9.422,21,21
		C388.5,108.093,379.08,117.513,367.5,117.513z"/>
	<circle cx="256" cy="256" r="32.999"/>
</g>
</svg>
