<?xml version="1.0" encoding="iso-8859-1"?>
<!-- Generator: Adobe Illustrator 16.0.0, SVG Export Plug-In . SVG Version: 6.00 Build 0)  -->
<!DOCTYPE svg PUBLIC "-//W3C//DTD SVG 1.1//EN" "http://www.w3.org/Graphics/SVG/1.1/DTD/svg11.dtd">
<svg version="1.1" id="Layer_1" xmlns="http://www.w3.org/2000/svg" xmlns:xlink="http://www.w3.org/1999/xlink" x="0px" y="0px"
	 width="512px" height="512px" viewBox="0 0 512 512" style="enable-background:new 0 0 512 512;" xml:space="preserve">
<path d="M349.058,353.816c-34.094,31.748-68.868,56.578-82.236,65.78c-3.258,2.243-7.042,3.365-10.823,3.365
	c-3.782,0-7.563-1.122-10.821-3.364c-13.299-9.15-47.903-33.852-81.964-65.532c-60.04-55.842-90.483-106.044-90.483-149.21
	c0-63.862,51.956-115.818,115.817-115.818c24.488,0,47.704,7.485,67.453,21.695c19.749-14.21,42.965-21.695,67.455-21.695
	c63.859,0,115.815,51.956,115.815,115.818C439.271,247.953,408.918,298.07,349.058,353.816z"/>
</svg>
