<?xml version="1.0" encoding="iso-8859-1"?>
<!-- Generator: Adobe Illustrator 16.0.0, SVG Export Plug-In . SVG Version: 6.00 Build 0)  -->
<!DOCTYPE svg PUBLIC "-//W3C//DTD SVG 1.1//EN" "http://www.w3.org/Graphics/SVG/1.1/DTD/svg11.dtd">
<svg version="1.1" id="Layer_1" xmlns="http://www.w3.org/2000/svg" xmlns:xlink="http://www.w3.org/1999/xlink" x="0px" y="0px"
	 width="512px" height="512px" viewBox="0 0 512 512" style="enable-background:new 0 0 512 512;" xml:space="preserve">
<path d="M372.704,48.813H139.296c-12.27,0-22.216,9.946-22.216,22.216v369.941c0,12.27,9.946,22.216,22.216,22.216h233.408
	c12.27,0,22.215-9.946,22.215-22.216V71.029C394.919,58.76,384.974,48.813,372.704,48.813z M298.896,301.089
	c-15.716,14.634-31.745,26.08-37.907,30.322c-1.502,1.034-3.246,1.551-4.989,1.551s-3.486-0.517-4.988-1.551
	c-6.13-4.218-22.081-15.604-37.781-30.207c-27.676-25.741-41.709-48.882-41.709-68.779c0-29.438,23.949-53.387,53.387-53.387
	c11.288,0,21.989,3.45,31.093,10c9.104-6.55,19.805-10,31.094-10c29.437,0,53.386,23.949,53.386,53.387
	C340.479,252.291,326.488,275.393,298.896,301.089z"/>
</svg>
