<?xml version="1.0" encoding="iso-8859-1"?>
<!-- Generator: Adobe Illustrator 16.0.0, SVG Export Plug-In . SVG Version: 6.00 Build 0)  -->
<!DOCTYPE svg PUBLIC "-//W3C//DTD SVG 1.1//EN" "http://www.w3.org/Graphics/SVG/1.1/DTD/svg11.dtd">
<svg version="1.1" id="Layer_1" xmlns="http://www.w3.org/2000/svg" xmlns:xlink="http://www.w3.org/1999/xlink" x="0px" y="0px"
	 width="512px" height="512px" viewBox="0 0 512 512" style="enable-background:new 0 0 512 512;" xml:space="preserve">
<path d="M471.063,195.979c-0.724-2.551-2.432-4.711-4.748-6.004l-74.819-41.748v-45.441c0-5.523-4.477-10-10-10h-34.925
	c-5.522,0-10,4.477-10,10v14.795l-75.699-42.238c-3.028-1.689-6.717-1.689-9.745,0L45.685,189.975
	c-2.316,1.293-4.024,3.451-4.748,6.004c-0.724,2.551-0.404,5.285,0.888,7.602l17.018,30.498c2.69,4.822,8.782,6.549,13.604,3.859
	l27.069-15.043v205.547c0,5.238,4.246,9.484,9.484,9.484h94.983c5.237,0,9.483-4.246,9.483-9.484v-91.984
	c0-2.678,2.179-4.857,4.857-4.857h75.352c2.678,0,4.856,2.18,4.856,4.857v91.984c0,5.238,4.246,9.484,9.484,9.484H403
	c5.237,0,9.483-4.246,9.483-9.484V222.895l27.069,15.043c4.823,2.691,10.914,0.963,13.605-3.859l17.018-30.498
	C471.468,201.264,471.787,198.529,471.063,195.979z"/>
</svg>
