<?xml version="1.0" encoding="iso-8859-1"?>
<!-- Generator: Adobe Illustrator 16.0.0, SVG Export Plug-In . SVG Version: 6.00 Build 0)  -->
<!DOCTYPE svg PUBLIC "-//W3C//DTD SVG 1.1//EN" "http://www.w3.org/Graphics/SVG/1.1/DTD/svg11.dtd">
<svg version="1.1" id="Layer_1" xmlns="http://www.w3.org/2000/svg" xmlns:xlink="http://www.w3.org/1999/xlink" x="0px" y="0px"
	 width="512px" height="512px" viewBox="0 0 512 512" style="enable-background:new 0 0 512 512;" xml:space="preserve">
<path d="M435.851,55.846H76.149c-11.215,0-20.303,9.091-20.303,20.305V435.85c0,11.214,9.088,20.305,20.303,20.305h359.701
	c11.215,0,20.303-9.091,20.303-20.305V76.15C456.153,64.937,447.065,55.846,435.851,55.846z M380.21,283.425
	c0,6.492-5.262,11.754-11.754,11.754h-73.277v73.278c0,6.491-5.262,11.754-11.754,11.754h-54.852
	c-6.49,0-11.752-5.263-11.752-11.754v-73.278h-73.277c-6.492,0-11.756-5.263-11.756-11.753v-54.852
	c0-6.491,5.264-11.754,11.756-11.753h73.277v-73.278c0-6.491,5.262-11.754,11.752-11.754h54.852c6.492,0,11.754,5.263,11.754,11.754
	v73.278h73.277c6.492,0,11.754,5.263,11.754,11.754V283.425z"/>
</svg>
