<?xml version="1.0" encoding="iso-8859-1"?>
<!-- Generator: Adobe Illustrator 16.0.0, SVG Export Plug-In . SVG Version: 6.00 Build 0)  -->
<!DOCTYPE svg PUBLIC "-//W3C//DTD SVG 1.1//EN" "http://www.w3.org/Graphics/SVG/1.1/DTD/svg11.dtd">
<svg version="1.1" id="Layer_1" xmlns="http://www.w3.org/2000/svg" xmlns:xlink="http://www.w3.org/1999/xlink" x="0px" y="0px"
	 width="512px" height="512px" viewBox="0 0 512 512" style="enable-background:new 0 0 512 512;" xml:space="preserve">
<path d="M457.961,110.068H54.039c-10.488,0-18.992,8.504-18.992,18.992v253.877c0,10.49,8.504,18.994,18.992,18.994h403.922
	c10.488,0,18.992-8.504,18.992-18.994V129.061C476.953,118.572,468.449,110.068,457.961,110.068z M83.688,185.601
	c0-16.429,15.018-29.745,33.543-29.745c6.285,0,12.164,1.537,17.192,4.203c6.071-7.641,16.09-12.637,27.432-12.637
	c13.044,0,24.34,6.607,29.889,16.25c2.833-0.69,5.814-1.066,8.894-1.066c18.525,0,33.543,13.318,33.543,29.745
	s-15.018,29.745-33.543,29.745c-7.467,0-14.363-2.166-19.937-5.826c-6.137,6.998-15.716,11.507-26.488,11.507
	c-11.762,0-22.103-5.372-28.091-13.495c-2.833,0.688-5.812,1.063-8.891,1.063C98.706,215.345,83.688,202.027,83.688,185.601z
	 M406.974,352.69c-1.252,1.585-3.16,2.508-5.178,2.508H110.205c-2.255,0-4.353-1.151-5.565-3.053c-1.212-1.9-1.37-4.289-0.418-6.332
	c2.565-5.513,16.19-24.407,33.088-40.869c16.341-15.919,41.142-34.896,66.493-34.896c10.296,0,19.907,3.084,28.565,9.164
	c9.548,6.708,18.155,9.968,26.311,9.967c15.981-0.002,28.313-12.889,40.239-25.352c4.589-4.797,8.924-9.326,13.434-13.084
	c0.122-0.102,0.246-0.197,0.374-0.289c7.756-5.574,15.669-8.398,23.521-8.398c20.19,0,38.523,18.127,54.49,53.879
	c11.281,25.261,17.234,50.094,17.483,51.139C408.683,349.038,408.225,351.107,406.974,352.69z M384,220.6c-18.226,0-33-14.775-33-33
	c0-18.226,14.774-33,33-33s33,14.774,33,33C417,205.824,402.226,220.6,384,220.6z"/>
</svg>
