<?xml version="1.0" encoding="iso-8859-1"?>
<!-- Generator: Adobe Illustrator 16.0.0, SVG Export Plug-In . SVG Version: 6.00 Build 0)  -->
<!DOCTYPE svg PUBLIC "-//W3C//DTD SVG 1.1//EN" "http://www.w3.org/Graphics/SVG/1.1/DTD/svg11.dtd">
<svg version="1.1" id="Layer_1" xmlns="http://www.w3.org/2000/svg" xmlns:xlink="http://www.w3.org/1999/xlink" x="0px" y="0px"
	 width="512px" height="512px" viewBox="0 0 512 512" style="enable-background:new 0 0 512 512;" xml:space="preserve">
<path d="M447.931,53.379l-95.175,0.004c-0.073-0.004-0.146-0.004-0.22-0.004H162.648c-10.028,0-18.188,8.158-18.188,18.188v52.564
	H63.424c-9.688,0-17.543,7.855-17.543,17.543v299.404c0,9.688,7.854,17.543,17.543,17.543h299.402
	c9.688,0,17.543-7.855,17.543-17.543V249.896h67.562c10.029,0,18.188-8.16,18.188-18.188V71.566
	C466.119,61.537,457.96,53.379,447.931,53.379z M80.967,423.535V159.217h63.494v72.492c0,10.027,8.159,18.188,18.188,18.188h73.979
	v20.191l-45.196,33.266l-15.817-21.488c-1.589-2.158-4.207-3.305-6.87-3.008s-4.966,1.992-6.04,4.445l-38.639,88.268
	c-0.423,0.965-0.63,1.988-0.63,3.008c0,1.574,0.495,3.137,1.46,4.447c1.588,2.156,4.207,3.303,6.87,3.008l95.764-10.66
	c2.663-0.297,4.966-1.99,6.04-4.445c1.073-2.457,0.758-5.297-0.83-7.453l-15.816-21.49l59.651-43.908
	c1.92-1.414,3.054-3.656,3.054-6.041v-38.139h65.655v173.639H80.967z"/>
</svg>
