<?xml version="1.0" encoding="iso-8859-1"?>
<!-- Generator: Adobe Illustrator 16.0.0, SVG Export Plug-In . SVG Version: 6.00 Build 0)  -->
<!DOCTYPE svg PUBLIC "-//W3C//DTD SVG 1.1//EN" "http://www.w3.org/Graphics/SVG/1.1/DTD/svg11.dtd">
<svg version="1.1" id="Layer_1" xmlns="http://www.w3.org/2000/svg" xmlns:xlink="http://www.w3.org/1999/xlink" x="0px" y="0px"
	 width="512px" height="512px" viewBox="0 0 512 512" style="enable-background:new 0 0 512 512;" xml:space="preserve">
<path d="M403.515,108.666c-81.37-81.47-213.378-81.551-294.849-0.182c-81.47,81.371-81.552,213.379-0.181,294.85
	c81.369,81.47,213.378,81.551,294.849,0.181C484.804,322.146,484.886,190.137,403.515,108.666z M285.11,388.297
	c0,3.216-2.607,5.822-5.822,5.822h-46.576c-3.215,0-5.822-2.606-5.822-5.822V215.395c0-3.217,2.607-5.822,5.822-5.822h46.576
	c3.215,0,5.822,2.605,5.822,5.822V388.297z M256,185.411c-18.618,0-33.766-15.146-33.766-33.765
	c0-18.617,15.147-33.766,33.766-33.766s33.766,15.148,33.766,33.766C289.766,170.265,274.618,185.411,256,185.411z"/>
</svg>
