<?xml version="1.0" encoding="iso-8859-1"?>
<!-- Generator: Adobe Illustrator 16.0.0, SVG Export Plug-In . SVG Version: 6.00 Build 0)  -->
<!DOCTYPE svg PUBLIC "-//W3C//DTD SVG 1.1//EN" "http://www.w3.org/Graphics/SVG/1.1/DTD/svg11.dtd">
<svg version="1.1" id="Layer_1" xmlns="http://www.w3.org/2000/svg" xmlns:xlink="http://www.w3.org/1999/xlink" x="0px" y="0px"
	 width="512px" height="512px" viewBox="0 0 512 512" style="enable-background:new 0 0 512 512;" xml:space="preserve">
<path d="M458.62,64.069c0-10.029-8.158-18.188-18.186-18.188H280.29c-10.027,0-18.186,8.159-18.186,18.188v67.562H70.923
	c-9.689,0-17.543,7.854-17.543,17.543v299.402c0,9.688,7.854,17.543,17.543,17.543h299.402c9.689,0,17.543-7.854,17.543-17.543
	v-81.037h52.566c10.027,0,18.186-8.159,18.186-18.188V159.464c0-0.073,0-0.146-0.004-0.22L458.62,64.069z M352.782,431.033H88.466
	V166.717h173.639v65.655h-38.141c-2.385,0-4.627,1.134-6.039,3.054l-43.908,59.651l-21.49-15.816
	c-2.156-1.588-4.998-1.903-7.455-0.83c-2.453,1.074-4.148,3.377-4.445,6.04l-10.658,95.764c-0.297,2.663,0.85,5.282,3.008,6.87
	c1.311,0.965,2.873,1.46,4.447,1.46c1.018,0,2.041-0.207,3.006-0.63l88.268-38.639c2.455-1.074,4.15-3.377,4.447-6.04
	s-0.85-5.281-3.008-6.87l-21.488-15.817l33.266-45.196h20.191v73.979c0,10.028,8.158,18.188,18.186,18.188h72.492V431.033z"/>
</svg>
