<?xml version="1.0" encoding="iso-8859-1"?>
<!-- Generator: Adobe Illustrator 16.0.0, SVG Export Plug-In . SVG Version: 6.00 Build 0)  -->
<!DOCTYPE svg PUBLIC "-//W3C//DTD SVG 1.1//EN" "http://www.w3.org/Graphics/SVG/1.1/DTD/svg11.dtd">
<svg version="1.1" id="Layer_1" xmlns="http://www.w3.org/2000/svg" xmlns:xlink="http://www.w3.org/1999/xlink" x="0px" y="0px"
	 width="512px" height="512px" viewBox="0 0 512 512" style="enable-background:new 0 0 512 512;" xml:space="preserve">
<path d="M454.316,46.027H276.6c-7.184,0-13.01,5.824-13.01,13.009v71.649H62.262c-9.713,0-17.586,7.873-17.586,17.585v300.117
	c0,9.712,7.873,17.585,17.586,17.585h300.117c9.711,0,17.584-7.873,17.584-17.585V249.763h74.354
	c7.184,0,13.008-5.823,13.008-13.009V59.036C467.324,51.852,461.5,46.027,454.316,46.027z M344.793,430.803H79.846V165.855H263.59
	v50.841l-75.533,75.534l-18.91-18.91c-1.9-1.9-4.668-2.64-7.262-1.945s-4.621,2.721-5.314,5.316l-25.512,95.227
	c-0.693,2.594,0.047,5.362,1.945,7.261c1.43,1.429,3.35,2.202,5.316,2.202c0.648,0,1.303-0.084,1.945-0.257l95.227-25.509
	c2.596-0.695,4.621-2.722,5.316-5.315c0.695-2.595-0.047-5.362-1.945-7.263l-18.912-18.911l74.365-74.363h50.477V430.803z"/>
</svg>
