<?xml version="1.0" encoding="iso-8859-1"?>
<!-- Generator: Adobe Illustrator 16.0.0, SVG Export Plug-In . SVG Version: 6.00 Build 0)  -->
<!DOCTYPE svg PUBLIC "-//W3C//DTD SVG 1.1//EN" "http://www.w3.org/Graphics/SVG/1.1/DTD/svg11.dtd">
<svg version="1.1" id="Layer_1" xmlns="http://www.w3.org/2000/svg" xmlns:xlink="http://www.w3.org/1999/xlink" x="0px" y="0px"
	 width="512px" height="512px" viewBox="0 0 512 512" style="enable-background:new 0 0 512 512;" xml:space="preserve">
<path d="M447.639,54.86H299.42c-5.991,0-10.85,4.857-10.85,10.85v56.941H71.055c-9.689,0-17.543,7.854-17.543,17.543v299.402
	c0,9.688,7.854,17.543,17.543,17.543h299.402c9.689,0,17.543-7.854,17.543-17.543V224.778h59.639c5.992,0,10.85-4.857,10.85-10.85
	V65.71C458.488,59.718,453.631,54.86,447.639,54.86z M352.914,422.054H88.598V157.737H288.57v34.054l-92.02,92.021l-18.865-18.865
	c-1.896-1.896-4.656-2.634-7.244-1.941c-2.588,0.693-4.609,2.715-5.303,5.304l-25.449,95c-0.693,2.588,0.045,5.35,1.939,7.244
	c1.426,1.425,3.342,2.196,5.305,2.196c0.646,0,1.299-0.084,1.939-0.256l95-25.448c2.59-0.693,4.611-2.715,5.305-5.303
	s-0.047-5.35-1.941-7.245l-18.867-18.866l90.855-90.853h33.689V422.054z"/>
</svg>
