<?xml version="1.0" encoding="iso-8859-1"?>
<!-- Generator: Adobe Illustrator 16.0.0, SVG Export Plug-In . SVG Version: 6.00 Build 0)  -->
<!DOCTYPE svg PUBLIC "-//W3C//DTD SVG 1.1//EN" "http://www.w3.org/Graphics/SVG/1.1/DTD/svg11.dtd">
<svg version="1.1" id="Layer_1" xmlns="http://www.w3.org/2000/svg" xmlns:xlink="http://www.w3.org/1999/xlink" x="0px" y="0px"
	 width="512px" height="512px" viewBox="0 0 512 512" style="enable-background:new 0 0 512 512;" xml:space="preserve">
<g>
	<path d="M451.734,49.36H284.325c-6.767,0-12.254,5.486-12.254,12.254v66.537H65.555c-9.689,0-17.543,7.854-17.543,17.543v299.402
		c0,9.688,7.854,17.543,17.543,17.543h299.402c9.689,0,17.543-7.854,17.543-17.543V241.278h69.234
		c6.768,0,12.254-5.486,12.254-12.254V61.614C463.988,54.847,458.502,49.36,451.734,49.36z M347.414,427.554H83.098V163.237H272.07
		v65.787c0,6.768,5.487,12.254,12.254,12.254h63.089V427.554z M428.988,206.278H307.07V84.36h121.918V206.278z"/>
	<path d="M222.869,321.131l97.249-97.245c-5.538-4.021-10.786-8.489-16.072-12.793c-6.343-5.164-12.469-11.153-16.299-18.477
		l-96.695,96.695l-18.865-18.865c-1.896-1.896-4.656-2.634-7.244-1.941c-2.588,0.693-4.609,2.715-5.303,5.304l-25.449,95
		c-0.693,2.588,0.045,5.35,1.939,7.244c1.426,1.425,3.342,2.196,5.305,2.196c0.646,0,1.299-0.084,1.939-0.256l95-25.448
		c2.59-0.693,4.611-2.715,5.305-5.303s-0.047-5.35-1.941-7.245L222.869,321.131z"/>
</g>
</svg>
