<?xml version="1.0" encoding="iso-8859-1"?>
<!-- Generator: Adobe Illustrator 16.0.0, SVG Export Plug-In . SVG Version: 6.00 Build 0)  -->
<!DOCTYPE svg PUBLIC "-//W3C//DTD SVG 1.1//EN" "http://www.w3.org/Graphics/SVG/1.1/DTD/svg11.dtd">
<svg version="1.1" id="Layer_1" xmlns="http://www.w3.org/2000/svg" xmlns:xlink="http://www.w3.org/1999/xlink" x="0px" y="0px"
	 width="512px" height="512px" viewBox="0 0 512 512" style="enable-background:new 0 0 512 512;" xml:space="preserve">
<path d="M463.516,39.349h-223.01c-8.414,0-15.26,6.846-15.26,15.26v82.756H50.81c-9.713,0-17.586,7.873-17.586,17.584v300.117
	c0,9.713,7.873,17.586,17.586,17.586h300.117c9.711,0,17.584-7.873,17.584-17.586V270.007h95.005c8.414,0,15.26-6.846,15.26-15.26
	V54.608C478.776,46.194,471.93,39.349,463.516,39.349z M255.766,126.792h80.144v41.09h-80.144V126.792z M255.766,198.401h80.144
	v41.088h-80.144V198.401z M333.341,437.481H68.394V172.534h156.853v77.732l-48.642,48.643l-18.91-18.91
	c-1.9-1.9-4.668-2.641-7.262-1.945c-2.594,0.693-4.621,2.721-5.314,5.316l-25.512,95.227c-0.693,2.594,0.047,5.361,1.945,7.26
	c1.43,1.43,3.35,2.203,5.316,2.203c0.648,0,1.303-0.084,1.945-0.258l95.227-25.508c2.596-0.695,4.621-2.723,5.316-5.316
	s-0.047-5.361-1.945-7.262L208.5,330.804l60.799-60.797h64.042V437.481z M448.258,239.489h-80.145v-41.088h80.145V239.489z
	 M448.258,167.882h-80.145v-41.09h80.145V167.882z"/>
</svg>
