<?xml version="1.0" encoding="iso-8859-1"?>
<!-- Generator: Adobe Illustrator 16.0.0, SVG Export Plug-In . SVG Version: 6.00 Build 0)  -->
<!DOCTYPE svg PUBLIC "-//W3C//DTD SVG 1.1//EN" "http://www.w3.org/Graphics/SVG/1.1/DTD/svg11.dtd">
<svg version="1.1" id="Layer_1" xmlns="http://www.w3.org/2000/svg" xmlns:xlink="http://www.w3.org/1999/xlink" x="0px" y="0px"
	 width="512px" height="512px" viewBox="0 0 512 512" style="enable-background:new 0 0 512 512;" xml:space="preserve">
<path d="M466.854,188.333L368.653,73.546c-3.613-4.225-8.894-6.656-14.452-6.656H157.798c-5.559,0-10.839,2.432-14.452,6.656
	L45.145,188.335c-6.132,7.167-6.084,17.746,0.113,24.858L241.66,438.587c3.612,4.145,8.841,6.523,14.34,6.523
	c5.498,0,10.727-2.379,14.339-6.523l196.403-225.394C472.939,206.081,472.987,195.502,466.854,188.333z M238.482,104.929h35.034
	l28.479,76.75h-91.992L238.482,104.929z M166.557,104.929h31.353l-28.479,76.75h-68.533L166.557,104.929z M101.396,219.718h67.426
	l35.751,118.405L101.396,219.718z M256,376.841l-47.442-157.123h94.885L256,376.841z M307.426,338.123l35.751-118.405h67.426
	L307.426,338.123z M342.569,181.679l-28.479-76.75h31.352l65.659,76.75H342.569z"/>
</svg>
