<?xml version="1.0" encoding="utf-8"?>
<!-- Generator: Adobe Illustrator 18.0.0, SVG Export Plug-In . SVG Version: 6.00 Build 0)  -->
<!DOCTYPE svg PUBLIC "-//W3C//DTD SVG 1.1//EN" "http://www.w3.org/Graphics/SVG/1.1/DTD/svg11.dtd">
<svg version="1.1" id="Layer_1" xmlns="http://www.w3.org/2000/svg" xmlns:xlink="http://www.w3.org/1999/xlink" x="0px" y="0px"
	 viewBox="0 0 512 512" enable-background="new 0 0 512 512" xml:space="preserve">
<path d="M426.6,128.5C382.1,84,316.8,77.1,280.9,113.1c-27.3,27.3-29.9,71.3-10.2,110.4L138.4,355.8c-3.5,3.5-5.4,8.4-5.2,13.3
	l0,35.9c0.2,4.6,2.1,8.7,5.2,11.7c3,3,7.1,5,11.7,5.2l36,0c5,0.2,9.8-1.6,13.3-5.2l13.5-13.5c3.3-3.3,5.2-7.8,5.2-12.5l0-18.2
	l18.2,0c4.7,0,9.2-1.9,12.5-5.2l15.8-15.8c3.3-3.3,5.2-7.8,5.2-12.5v-18.2l18.2,0c4.7,0,9.2-1.9,12.5-5.2l31.1-31.1
	c39,19.6,82.8,17,110.1-9.9v148.3c0,10.4-8.4,18.8-18.8,18.8H89.1c-10.4,0-18.8-8.4-18.8-18.8V89.1c0-10.4,8.4-18.8,18.8-18.8h333.8
	c10.4,0,18.8,8.4,18.8,18.8v57.3C437.3,140.2,432.3,134.2,426.6,128.5z M352.5,149.8c-9.7,9.7-5.7,29.3,8.9,43.9
	c14.6,14.6,34.3,18.6,43.9,8.9c9.7-9.7,5.7-29.3-8.9-43.9C381.8,144.1,362.2,140.1,352.5,149.8z"/>
</svg>
