<?xml version="1.0" encoding="iso-8859-1"?>
<!-- Generator: Adobe Illustrator 16.0.0, SVG Export Plug-In . SVG Version: 6.00 Build 0)  -->
<!DOCTYPE svg PUBLIC "-//W3C//DTD SVG 1.1//EN" "http://www.w3.org/Graphics/SVG/1.1/DTD/svg11.dtd">
<svg version="1.1" id="Layer_1" xmlns="http://www.w3.org/2000/svg" xmlns:xlink="http://www.w3.org/1999/xlink" x="0px" y="0px"
	 width="512px" height="512px" viewBox="0 0 512 512" style="enable-background:new 0 0 512 512;" xml:space="preserve">
<path d="M393.366,118.492c-47.969-47.967-118.295-55.414-157.078-16.633c-29.378,29.381-32.221,76.861-11.021,119.012
	L82.753,363.385c-3.795,3.795-5.816,9.012-5.57,14.371l0.046,39.027c0.227,4.928,2.311,9.363,5.57,12.625
	c3.262,3.26,7.699,5.344,12.625,5.57l38.677-0.303c5.359,0.246,10.577-1.775,14.373-5.572l14.52-14.52
	c3.58-3.58,5.592-8.436,5.592-13.5v-19.631h19.631c5.064,0,9.919-2.012,13.499-5.592l17.022-17.021
	c3.58-3.58,5.588-8.436,5.588-13.498v-19.633h19.633c5.064,0,9.922-2.012,13.5-5.592l33.529-33.525
	c42.15,21.199,89.629,18.357,119.01-11.023C448.78,236.785,441.333,166.461,393.366,118.492z M388.256,197.48
	c-1.328,2.605-4.02,4.232-6.945,4.197l-27.331-0.352l-15.489,21.902c-0.311,0.506-0.684,0.984-1.122,1.422
	c-2.999,2.998-7.86,3.002-10.861,0.008c-0.006-0.006-0.012-0.014-0.019-0.02c-0.865-0.865-1.526-1.939-1.904-3.15l-8.113-26.102
	l-26.102-8.113c-2.792-0.869-4.851-3.246-5.308-6.137c-0.457-2.889,0.765-5.787,3.152-7.477l22.316-15.781l-0.35-27.33
	c-0.036-2.926,1.59-5.619,4.197-6.947c2.606-1.326,5.74-1.059,8.084,0.689l21.904,16.348l25.885-8.777
	c2.77-0.939,5.833-0.225,7.902,1.844c2.067,2.068,2.783,5.131,1.844,7.902l-8.777,25.885l16.347,21.904
	C389.316,191.74,389.584,194.875,388.256,197.48z"/>
</svg>
