<?xml version="1.0" encoding="iso-8859-1"?>
<!-- Generator: Adobe Illustrator 16.0.0, SVG Export Plug-In . SVG Version: 6.00 Build 0)  -->
<!DOCTYPE svg PUBLIC "-//W3C//DTD SVG 1.1//EN" "http://www.w3.org/Graphics/SVG/1.1/DTD/svg11.dtd">
<svg version="1.1" id="Layer_1" xmlns="http://www.w3.org/2000/svg" xmlns:xlink="http://www.w3.org/1999/xlink" x="0px" y="0px"
	 width="512px" height="512px" viewBox="0 0 512 512" style="enable-background:new 0 0 512 512;" xml:space="preserve">
<path d="M408.24,135.916l-30.076,30.076l14.65,14.65c2.413,2.412,3.354,5.93,2.471,9.225c-0.883,3.295-3.457,5.869-6.754,6.752
	l-83.94,22.486c-3.295,0.883-6.811-0.059-9.224-2.473c-2.411-2.412-3.354-5.928-2.471-9.223l22.485-83.941
	c0.883-3.297,3.457-5.871,6.752-6.754c3.296-0.883,6.813,0.059,9.226,2.471l14.65,14.652l30.075-30.076
	C329.702,69.572,270.633,67.66,236.29,102c-29.38,29.381-32.221,76.861-11.021,119.012L82.756,363.525
	c-3.797,3.795-5.817,9.012-5.572,14.371l0.146,38.527c0.228,4.928,2.311,9.363,5.571,12.625c3.262,3.26,7.698,5.344,12.625,5.57
	l38.577,0.197c5.359,0.246,10.576-1.775,14.372-5.572l14.521-14.52c3.58-3.58,5.591-8.436,5.592-13.5l-0.001-19.631h19.632
	c5.063,0,9.92-2.012,13.499-5.59l17.021-17.023c3.579-3.58,5.591-8.434,5.591-13.498V325.85h19.633
	c5.063,0,9.919-2.012,13.499-5.592l33.527-33.527c42.15,21.201,89.628,18.359,119.009-11.02
	C444.34,241.369,442.428,182.299,408.24,135.916z"/>
</svg>
