<?xml version="1.0" encoding="iso-8859-1"?>
<!-- Generator: Adobe Illustrator 16.0.0, SVG Export Plug-In . SVG Version: 6.00 Build 0)  -->
<!DOCTYPE svg PUBLIC "-//W3C//DTD SVG 1.1//EN" "http://www.w3.org/Graphics/SVG/1.1/DTD/svg11.dtd">
<svg version="1.1" id="Layer_1" xmlns="http://www.w3.org/2000/svg" xmlns:xlink="http://www.w3.org/1999/xlink" x="0px" y="0px"
	 width="512px" height="512px" viewBox="0 0 512 512" style="enable-background:new 0 0 512 512;" xml:space="preserve">
<path d="M415.325,185.211c-30.195-30.195-59.654-44.873-90.057-44.873c-17.613,0-34.918,5.049-52.297,15.324l6.875-11.551
	c1.75-2.943,1.75-6.607,0-9.549l-15.822-26.588c-1.684-2.828-4.732-4.563-8.023-4.563s-6.34,1.732-8.023,4.563l-15.824,26.586
	c-1.752,2.943-1.752,6.607,0,9.551l6.875,11.551c-17.379-10.275-34.684-15.324-52.297-15.324c-30.404,0-59.861,14.678-90.057,44.873
	c-32.764,32.766-47.711,66.105-44.426,99.096c2.377,23.865,14.199,47.32,36.035,71.428c-7.738,5.174-12.838,13.99-12.838,24
	c0,15.936,12.918,28.854,28.854,28.854h303.398c15.936,0,28.854-12.918,28.854-28.854c0-10.01-5.098-18.826-12.836-24
	c21.836-24.107,33.656-47.563,36.035-71.428C463.036,251.316,448.089,217.977,415.325,185.211z M244.089,252.471
	c6.23-8.117,10.691-10.496,11.916-10.746c3.063,0.525,9.357,6.695,14.857,14.75c-0.895,1.328-1.883,2.717-2.951,4.107
	c-6.23,8.115-10.693,10.496-11.916,10.746c-3.063-0.525-9.357-6.695-14.857-14.75C242.032,255.252,243.021,253.861,244.089,252.471z
	 M125.821,214.357c21.766-21.766,42.258-32.801,60.91-32.801c15.664,0,32.145,7.709,50.232,23.52
	c-21.602,10.561-35.189,36.199-38.219,42.385c0,0-2.34,5.529-2.34,9.066s2.34,9.064,2.34,9.064
	c3.84,7.842,24.652,46.965,57.254,46.965c32.604,0,53.414-39.123,57.256-46.965c0,0,2.34-4.936,2.34-9.064s-2.34-9.066-2.34-9.066
	c-3.029-6.186-16.619-31.824-38.219-42.385c18.088-15.811,34.568-23.52,50.232-23.52c18.652,0,39.145,11.035,60.91,32.801
	c23.936,23.938,34.586,45.48,32.555,65.863c-1.514,15.207-10.281,31.336-26.744,49.141h-271.98
	c-16.461-17.805-25.229-33.934-26.744-49.141C91.235,259.838,101.884,238.295,125.821,214.357z"/>
</svg>
