<?xml version="1.0" encoding="iso-8859-1"?>
<!-- Generator: Adobe Illustrator 16.0.0, SVG Export Plug-In . SVG Version: 6.00 Build 0)  -->
<!DOCTYPE svg PUBLIC "-//W3C//DTD SVG 1.1//EN" "http://www.w3.org/Graphics/SVG/1.1/DTD/svg11.dtd">
<svg version="1.1" id="Layer_1" xmlns="http://www.w3.org/2000/svg" xmlns:xlink="http://www.w3.org/1999/xlink" x="0px" y="0px"
	 width="512px" height="512px" viewBox="0 0 512 512" style="enable-background:new 0 0 512 512;" xml:space="preserve">
<g>
	<path d="M256,47.462c-76.193,0-138.181,58.891-138.181,131.279c0,50.467,19.549,79.123,38.464,106.849
		c15.548,22.779,31.605,46.33,33,77.959h133.519c1.402-31.604,17.429-55.146,32.961-77.939
		c18.887-27.712,38.418-56.368,38.418-106.868C394.181,106.353,332.192,47.462,256,47.462z M322.708,263.084
		c-11.425,16.766-24.736,36.301-32.761,60.465h-67.805c-8.032-24.188-21.372-43.734-32.816-60.502
		c-17.603-25.801-31.507-46.181-31.507-84.306c0-50.331,44.044-91.279,98.181-91.279s98.181,40.948,98.181,91.279
		C354.181,216.907,340.292,237.284,322.708,263.084z"/>
	<path d="M190.72,415.899c0,9.425,7.641,17.065,17.066,17.065h10.431c3.223,17.95,18.906,31.573,37.783,31.573
		c18.876,0,34.56-13.623,37.782-31.573h10.431c9.426,0,17.066-7.641,17.066-17.065v-28.794H190.72V415.899z"/>
</g>
</svg>
