<?xml version="1.0" encoding="iso-8859-1"?>
<!-- Generator: Adobe Illustrator 16.0.0, SVG Export Plug-In . SVG Version: 6.00 Build 0)  -->
<!DOCTYPE svg PUBLIC "-//W3C//DTD SVG 1.1//EN" "http://www.w3.org/Graphics/SVG/1.1/DTD/svg11.dtd">
<svg version="1.1" id="Layer_1" xmlns="http://www.w3.org/2000/svg" xmlns:xlink="http://www.w3.org/1999/xlink" x="0px" y="0px"
	 width="512px" height="512px" viewBox="0 0 512 512" style="enable-background:new 0 0 512 512;" xml:space="preserve">
<path d="M464.489,256c0-115.146-93.344-208.489-208.489-208.489S47.511,140.854,47.511,256S140.854,464.489,256,464.489
	S464.489,371.146,464.489,256z M266.963,337.249l-118.21-68.259c-4.641-2.68-7.499-7.631-7.499-12.99s2.858-10.31,7.499-12.99
	l118.21-68.259c4.641-2.68,10.359-2.68,15-0.001c4.642,2.68,7.501,7.631,7.501,12.991V221h66.282c8.284,0,15,6.716,15,15v40
	c0,8.284-6.716,15-15,15h-66.282v33.259c0,5.359-2.859,10.311-7.501,12.991C277.322,339.929,271.604,339.929,266.963,337.249z"/>
</svg>
