<?xml version="1.0" encoding="iso-8859-1"?>
<!-- Generator: Adobe Illustrator 16.0.0, SVG Export Plug-In . SVG Version: 6.00 Build 0)  -->
<!DOCTYPE svg PUBLIC "-//W3C//DTD SVG 1.1//EN" "http://www.w3.org/Graphics/SVG/1.1/DTD/svg11.dtd">
<svg version="1.1" id="Layer_1" xmlns="http://www.w3.org/2000/svg" xmlns:xlink="http://www.w3.org/1999/xlink" x="0px" y="0px"
	 width="512px" height="512px" viewBox="0 0 512 512" style="enable-background:new 0 0 512 512;" xml:space="preserve">
<path d="M406.637,75.767h-84.866c-8.774,0-15.912,7.138-15.912,15.913v180.127c0,26.322-21.415,47.737-47.737,47.737h-4.243
	c-26.322,0-47.737-21.415-47.737-47.737V91.679c0-8.774-7.138-15.913-15.913-15.913h-84.866c-8.774,0-15.912,7.138-15.912,15.913
	v180.127c0,90.666,73.762,164.427,164.427,164.427h4.243c90.666,0,164.427-73.762,164.427-164.427V91.679
	C422.549,82.905,415.411,75.767,406.637,75.767z M174.812,113.708v65.771h-53.749v-65.771H174.812z"/>
</svg>
