<?xml version="1.0" encoding="iso-8859-1"?>
<!-- Generator: Adobe Illustrator 16.0.0, SVG Export Plug-In . SVG Version: 6.00 Build 0)  -->
<!DOCTYPE svg PUBLIC "-//W3C//DTD SVG 1.1//EN" "http://www.w3.org/Graphics/SVG/1.1/DTD/svg11.dtd">
<svg version="1.1" id="Layer_1" xmlns="http://www.w3.org/2000/svg" xmlns:xlink="http://www.w3.org/1999/xlink" x="0px" y="0px"
	 width="512px" height="512px" viewBox="0 0 512 512" style="enable-background:new 0 0 512 512;" xml:space="preserve">
<g>
	<path d="M394.18,178.741c0-72.389-61.987-131.279-138.18-131.279s-138.18,58.891-138.18,131.279
		c0,50.467,19.548,79.123,38.464,106.849c15.547,22.779,31.605,46.33,33,77.959h133.519c1.402-31.604,17.429-55.146,32.961-77.939
		C374.649,257.897,394.18,229.241,394.18,178.741z"/>
	<path d="M190.72,415.899c0,9.425,7.641,17.065,17.066,17.065h10.431c3.223,17.95,18.906,31.573,37.783,31.573
		s34.56-13.623,37.783-31.573h10.431c9.425,0,17.066-7.641,17.066-17.065v-28.794H190.72V415.899z"/>
</g>
</svg>
