<?xml version="1.0" encoding="iso-8859-1"?>
<!-- Generator: Adobe Illustrator 16.0.0, SVG Export Plug-In . SVG Version: 6.00 Build 0)  -->
<!DOCTYPE svg PUBLIC "-//W3C//DTD SVG 1.1//EN" "http://www.w3.org/Graphics/SVG/1.1/DTD/svg11.dtd">
<svg version="1.1" id="Layer_1" xmlns="http://www.w3.org/2000/svg" xmlns:xlink="http://www.w3.org/1999/xlink" x="0px" y="0px"
	 width="512px" height="512px" viewBox="0 0 512 512" style="enable-background:new 0 0 512 512;" xml:space="preserve">
<path d="M438.651,303.491l-56.585-56.584c-14.953-14.954-34.856-23.19-56.043-23.19c-17.771,0-34.627,5.814-48.43,16.508
	l-5.819-5.819c10.694-13.802,16.509-30.657,16.509-48.429c0-21.187-8.236-41.09-23.191-56.042l-56.584-56.587
	C193.554,58.395,173.65,50.16,152.464,50.16c-21.185,0-41.088,8.234-56.042,23.188L73.35,96.421
	c-14.956,14.955-23.189,34.858-23.189,56.044c0,21.187,8.233,41.09,23.189,56.043l56.584,56.585
	c14.953,14.954,34.856,23.189,56.043,23.189c17.772,0,34.627-5.814,48.428-16.508l5.822,5.82
	c-10.695,13.802-16.509,30.657-16.509,48.429c0,21.187,8.235,41.09,23.188,56.042l56.585,56.587
	c14.953,14.953,34.856,23.188,56.043,23.188c21.188,0,41.091-8.235,56.044-23.188l23.073-23.072
	c14.953-14.955,23.188-34.858,23.188-56.045C461.84,338.349,453.604,318.445,438.651,303.491z M185.977,235.434
	c-7.069,0-13.701-2.738-18.673-7.711l-56.587-56.584c-4.97-4.973-7.709-11.604-7.709-18.674s2.739-13.702,7.709-18.674
	l23.073-23.073c4.973-4.971,11.604-7.71,18.674-7.71c7.071,0,13.704,2.739,18.674,7.71l56.586,56.586
	c4.973,4.972,7.71,11.604,7.71,18.673c0,3.527-0.683,6.946-1.983,10.104l-29.297-29.298c-10.318-10.319-27.052-10.319-37.37,0
	s-10.318,27.051,0,37.37l29.299,29.297C192.924,234.751,189.505,235.434,185.977,235.434z M401.281,378.208l-23.073,23.073
	c-4.972,4.972-11.604,7.711-18.674,7.711c-7.069,0-13.701-2.739-18.671-7.71l-56.587-56.586c-4.972-4.973-7.71-11.604-7.71-18.673
	c0-3.527,0.682-6.946,1.982-10.104l29.299,29.297c5.159,5.161,11.92,7.74,18.685,7.74c6.761,0,13.526-2.581,18.683-7.739
	c10.32-10.319,10.32-27.051,0-37.37l-29.297-29.298c3.159-1.3,6.578-1.982,10.105-1.982c7.069,0,13.701,2.738,18.674,7.71
	l56.584,56.585c4.973,4.972,7.71,11.604,7.71,18.673C408.991,366.605,406.254,373.236,401.281,378.208z"/>
</svg>
