<?xml version="1.0" encoding="iso-8859-1"?>
<!-- Generator: Adobe Illustrator 16.0.0, SVG Export Plug-In . SVG Version: 6.00 Build 0)  -->
<!DOCTYPE svg PUBLIC "-//W3C//DTD SVG 1.1//EN" "http://www.w3.org/Graphics/SVG/1.1/DTD/svg11.dtd">
<svg version="1.1" id="Layer_1" xmlns="http://www.w3.org/2000/svg" xmlns:xlink="http://www.w3.org/1999/xlink" x="0px" y="0px"
	 width="512px" height="512px" viewBox="0 0 512 512" style="enable-background:new 0 0 512 512;" xml:space="preserve">
<path d="M256.305,43.02h-0.608c-73.563,0-133.409,59.826-133.409,133.361c0,48.202,21.952,111.817,65.246,189.081
	c32.098,57.281,64.646,101.151,64.972,101.588c0.906,1.217,2.334,1.932,3.847,1.932c0.043,0,0.087,0,0.13-0.002
	c1.561-0.042,3.003-0.841,3.867-2.142c0.322-0.486,32.637-49.286,64.517-108.975c43.03-80.564,64.848-141.624,64.848-181.482
	C389.713,102.845,329.866,43.02,256.305,43.02z M317.885,179.64c0,34.124-27.761,61.884-61.885,61.884
	c-34.123,0-61.884-27.761-61.884-61.884c0-34.123,27.761-61.884,61.884-61.884C290.124,117.756,317.885,145.517,317.885,179.64z"/>
</svg>
