<?xml version="1.0" encoding="iso-8859-1"?>
<!-- Generator: Adobe Illustrator 16.0.0, SVG Export Plug-In . SVG Version: 6.00 Build 0)  -->
<!DOCTYPE svg PUBLIC "-//W3C//DTD SVG 1.1//EN" "http://www.w3.org/Graphics/SVG/1.1/DTD/svg11.dtd">
<svg version="1.1" id="Layer_1" xmlns="http://www.w3.org/2000/svg" xmlns:xlink="http://www.w3.org/1999/xlink" x="0px" y="0px"
	 width="512px" height="512px" viewBox="0 0 512 512" style="enable-background:new 0 0 512 512;" xml:space="preserve">
<path d="M392.653,214.796H372.11v-50.792c0-64.022-52.086-116.108-116.107-116.108c-64.023,0-116.111,52.086-116.111,116.108v50.792
	h-20.543c-6.635,0-12.012,5.377-12.012,12.011v225.287c0,6.634,5.377,12.011,12.012,12.011h273.305
	c6.633,0,12.01-5.377,12.01-12.011V226.807C404.663,220.173,399.286,214.796,392.653,214.796z M274.729,351.907v47.962
	c0,4.19-3.396,7.585-7.586,7.585h-22.285c-4.189,0-7.586-3.395-7.586-7.585v-47.962c-8.287-5.875-13.699-15.534-13.699-26.465
	c0-17.908,14.518-32.427,32.428-32.427c17.908,0,32.426,14.519,32.426,32.427C288.427,336.373,283.015,346.032,274.729,351.907z
	 M316.675,214.796H195.327v-50.792c0-33.456,27.219-60.673,60.676-60.673c33.455,0,60.672,27.217,60.672,60.673V214.796z"/>
</svg>
