<?xml version="1.0" encoding="iso-8859-1"?>
<!-- Generator: Adobe Illustrator 16.0.0, SVG Export Plug-In . SVG Version: 6.00 Build 0)  -->
<!DOCTYPE svg PUBLIC "-//W3C//DTD SVG 1.1//EN" "http://www.w3.org/Graphics/SVG/1.1/DTD/svg11.dtd">
<svg version="1.1" id="Layer_1" xmlns="http://www.w3.org/2000/svg" xmlns:xlink="http://www.w3.org/1999/xlink" x="0px" y="0px"
	 width="512px" height="512px" viewBox="0 0 512 512" style="enable-background:new 0 0 512 512;" xml:space="preserve">
<g>
	<path d="M272.737,218.448l-41.9-41.9c-1.952-1.952-5.12-1.952-7.071,0l-45.722,45.722c-0.938,0.938-1.465,2.209-1.465,3.536
		s0.526,2.598,1.465,3.536l41.902,41.9c0.976,0.976,2.255,1.464,3.535,1.464c1.279,0,2.56-0.488,3.535-1.464l45.721-45.722
		C274.69,223.566,274.69,220.4,272.737,218.448z"/>
	<path d="M471.595,417.304L292.89,238.6c-1.951-1.952-5.119-1.952-7.071,0l-45.722,45.722c-0.938,0.938-1.465,2.209-1.465,3.536
		s0.526,2.598,1.465,3.536l178.704,178.704c0.977,0.976,2.257,1.464,3.536,1.464c1.28,0,2.56-0.488,3.535-1.464l45.723-45.722
		c0.938-0.938,1.465-2.209,1.465-3.536S472.533,418.242,471.595,417.304z"/>
	<path d="M170.547,278.96c-15.883,2.681-32.786,7.227-52.588,14.228c7.001-19.802,11.547-36.705,14.228-52.588
		c0.997-5.908-1.618-11.842-6.648-15.094c-9.972-6.445-21.325-12.734-34.689-19.184c13.366-6.45,24.72-12.739,34.689-19.183
		c5.03-3.252,7.646-9.187,6.648-15.095c-2.682-15.883-7.228-32.787-14.228-52.589c19.801,7.001,36.705,11.547,52.588,14.228
		c5.908,0.995,11.841-1.616,15.095-6.648c6.444-9.97,12.733-21.324,19.185-34.689c6.449,13.366,12.739,24.72,19.183,34.689
		c3.253,5.031,9.187,7.644,15.093,6.648c15.885-2.681,32.787-7.227,52.588-14.227c-7,19.802-11.546,36.705-14.228,52.586
		c-1.379,8.168,4.125,15.909,12.294,17.288c8.18,1.383,15.908-4.125,17.288-12.293c3.624-21.469,11.245-45.54,24.708-78.046
		c2.322-5.605,1.039-12.057-3.252-16.347c-4.288-4.29-10.742-5.572-16.346-3.251c-27.638,11.448-49.18,18.672-68.208,22.807
		c-8.146-13.899-16.302-30.869-25.263-52.501c-2.322-5.605-7.791-9.26-13.857-9.26c-6.067,0-11.537,3.654-13.859,9.26
		c-8.96,21.631-17.117,38.602-25.263,52.502c-19.029-4.135-40.571-11.359-68.21-22.808c-5.603-2.32-12.057-1.038-16.348,3.251
		c-4.289,4.29-5.572,10.742-3.251,16.347c11.448,27.639,18.671,49.181,22.806,68.211c-13.9,8.146-30.87,16.302-52.5,25.262
		c-5.606,2.321-9.261,7.791-9.261,13.858s3.654,11.537,9.261,13.858c21.63,8.959,38.6,17.115,52.5,25.263
		c-4.133,19.029-11.356,40.571-22.806,68.21c-2.321,5.605-1.038,12.057,3.251,16.347c2.871,2.87,6.707,4.394,10.61,4.394
		c1.933,0,3.882-0.374,5.737-1.142c32.505-13.465,56.574-21.085,78.047-24.71c8.169-1.379,13.672-9.119,12.293-17.288
		C186.456,283.085,178.716,277.58,170.547,278.96z"/>
</g>
</svg>
