<?xml version="1.0" encoding="iso-8859-1"?>
<!-- Generator: Adobe Illustrator 16.0.0, SVG Export Plug-In . SVG Version: 6.00 Build 0)  -->
<!DOCTYPE svg PUBLIC "-//W3C//DTD SVG 1.1//EN" "http://www.w3.org/Graphics/SVG/1.1/DTD/svg11.dtd">
<svg version="1.1" id="Layer_1" xmlns="http://www.w3.org/2000/svg" xmlns:xlink="http://www.w3.org/1999/xlink" x="0px" y="0px"
	 width="512px" height="512px" viewBox="0 0 512 512" style="enable-background:new 0 0 512 512;" xml:space="preserve">
<path d="M442.414,388.235L251.912,217.828l32.208-10.012c2.592-0.806,4.888-2.221,6.737-4.069c2.408-2.409,4.057-5.553,4.61-9.046
	c0.979-6.176-1.634-12.371-6.739-15.981l-49.768-35.196l0.778-60.951c0.08-6.251-3.396-12.007-8.967-14.846
	c-5.572-2.838-12.271-2.268-17.282,1.471l-48.854,36.457L106.91,86.078c-5.92-2.007-12.469-0.479-16.89,3.941
	s-5.948,10.969-3.94,16.89l19.575,57.728L69.197,213.49c-3.739,5.011-4.309,11.71-1.471,17.281
	c2.838,5.571,8.594,9.047,14.846,8.967l60.952-0.779l35.196,49.769c3.61,5.104,9.806,7.717,15.981,6.739
	c6.176-0.979,11.26-5.378,13.115-11.348l10.013-32.208l170.407,190.502c2.006,2.244,4.847,3.562,7.857,3.646
	c0.102,0.003,0.203,0.004,0.304,0.004c2.9,0,5.687-1.151,7.743-3.208l38.717-38.716c2.128-2.128,3.287-5.039,3.203-8.048
	C445.976,393.083,444.657,390.242,442.414,388.235z"/>
</svg>
