<?xml version="1.0" encoding="iso-8859-1"?>
<!-- Generator: Adobe Illustrator 16.0.0, SVG Export Plug-In . SVG Version: 6.00 Build 0)  -->
<!DOCTYPE svg PUBLIC "-//W3C//DTD SVG 1.1//EN" "http://www.w3.org/Graphics/SVG/1.1/DTD/svg11.dtd">
<svg version="1.1" id="Layer_1" xmlns="http://www.w3.org/2000/svg" xmlns:xlink="http://www.w3.org/1999/xlink" x="0px" y="0px"
	 width="512px" height="512px" viewBox="0 0 512 512" style="enable-background:new 0 0 512 512;" xml:space="preserve">
<g>
	<path d="M258.644,190.592H157.835c-2.91,0-5.269,2.358-5.269,5.268v24.585c0,2.909,2.358,5.268,5.269,5.268h100.809
		c2.909,0,5.269-2.359,5.269-5.268V195.86C263.912,192.951,261.553,190.592,258.644,190.592z"/>
	<path d="M441.21,388.673L331.402,278.867c31.707-55.131,22.968-125.203-22.758-170.928c-55.334-55.334-145.368-55.334-200.704,0
		c-55.334,55.336-55.334,145.371,0,200.709c45.724,45.721,115.797,54.461,170.927,22.756L388.674,441.21
		c5.804,5.805,15.211,5.799,21.015,0l31.521-31.521C447.011,403.886,447.011,394.476,441.21,388.673z M271.609,271.613
		c-34.911,34.906-91.722,34.911-126.632,0c-34.913-34.915-34.913-91.725,0-126.636c34.91-34.916,91.721-34.916,126.632,0
		C306.519,179.89,306.519,236.698,271.609,271.613z"/>
</g>
</svg>
