<?xml version="1.0" encoding="iso-8859-1"?>
<!-- Generator: Adobe Illustrator 16.0.0, SVG Export Plug-In . SVG Version: 6.00 Build 0)  -->
<!DOCTYPE svg PUBLIC "-//W3C//DTD SVG 1.1//EN" "http://www.w3.org/Graphics/SVG/1.1/DTD/svg11.dtd">
<svg version="1.1" id="Layer_1" xmlns="http://www.w3.org/2000/svg" xmlns:xlink="http://www.w3.org/1999/xlink" x="0px" y="0px"
	 width="512px" height="512px" viewBox="0 0 512 512" style="enable-background:new 0 0 512 512;" xml:space="preserve">
<g>
	<path d="M53.516,236.633h170.791c5.324,0,9.64-4.316,9.64-9.641V56.203c0-5.325-4.315-9.641-9.64-9.641H53.516
		c-5.325,0-9.641,4.316-9.641,9.641v170.79C43.875,232.317,48.19,236.633,53.516,236.633z M79.934,128.575
		c0-3.082,2.499-5.581,5.582-5.58h34.793V88.201c0-3.082,2.498-5.581,5.58-5.581h26.044c3.083,0,5.581,2.499,5.581,5.581v34.794
		h34.793c3.082,0,5.58,2.499,5.58,5.581v26.043c0,3.083-2.498,5.581-5.58,5.581h-34.793v34.793c0,3.082-2.498,5.581-5.581,5.581
		h-26.044c-3.082,0-5.58-2.499-5.58-5.581V160.2H85.516c-3.083,0-5.582-2.499-5.582-5.581V128.575z"/>
	<path d="M458.484,46.562H287.693c-5.324,0-9.641,4.316-9.641,9.641v170.79c0,5.324,4.316,9.641,9.641,9.641h170.791
		c5.324,0,9.641-4.316,9.641-9.641V56.203C468.125,50.878,463.809,46.562,458.484,46.562z M424,166.2c2.179,2.18,2.18,5.713,0,7.893
		l-18.415,18.416c-2.181,2.179-5.714,2.179-7.894,0l-24.603-24.603l-24.603,24.603c-2.179,2.179-5.713,2.179-7.893,0l-18.416-18.416
		c-2.179-2.18-2.179-5.713,0-7.893l24.604-24.603l-24.604-24.603c-2.179-2.18-2.179-5.713,0-7.892l18.416-18.416
		c2.18-2.18,5.714-2.18,7.893,0l24.603,24.603l24.603-24.603c2.18-2.179,5.714-2.179,7.894,0L424,109.103
		c2.18,2.179,2.18,5.713,0,7.892l-24.603,24.603L424,166.2z"/>
	<path d="M224.307,275.366H53.516c-5.324,0-9.641,4.316-9.641,9.641v170.79c0,5.325,4.316,9.641,9.641,9.641h170.791
		c5.324,0,9.641-4.316,9.641-9.641v-170.79C233.947,279.683,229.631,275.366,224.307,275.366z M197.887,383.424
		c0.002,3.083-2.498,5.581-5.58,5.581H85.516c-3.083,0-5.582-2.499-5.582-5.581v-26.043c0-3.083,2.499-5.581,5.582-5.581l106.791,0
		c3.082,0,5.582,2.498,5.582,5.581L197.887,383.424z"/>
	<path d="M458.484,275.367H287.693c-5.324,0-9.64,4.316-9.64,9.641v170.79c0,5.325,4.315,9.641,9.64,9.641h170.791
		c5.324,0,9.641-4.316,9.641-9.641v-170.79C468.125,279.683,463.809,275.367,458.484,275.367z M373.09,303.205
		c9.535,0,17.293,7.758,17.293,17.294c0,9.537-7.758,17.295-17.293,17.295c-9.537,0-17.295-7.758-17.295-17.295
		C355.795,310.963,363.553,303.205,373.09,303.205z M373.09,437.6c-9.537,0-17.295-7.758-17.295-17.294
		c0-9.536,7.758-17.294,17.295-17.294c9.535,0,17.293,7.758,17.293,17.294C390.383,429.842,382.625,437.6,373.09,437.6z
		 M432.066,383.425c0,3.083-2.499,5.581-5.582,5.58H319.693c-3.083,0-5.582-2.498-5.58-5.58v-26.044c0-3.083,2.497-5.581,5.58-5.581
		l106.793,0c3.081,0,5.58,2.499,5.58,5.581V383.425z"/>
</g>
</svg>
