<?xml version="1.0" encoding="iso-8859-1"?>
<!-- Generator: Adobe Illustrator 16.0.0, SVG Export Plug-In . SVG Version: 6.00 Build 0)  -->
<!DOCTYPE svg PUBLIC "-//W3C//DTD SVG 1.1//EN" "http://www.w3.org/Graphics/SVG/1.1/DTD/svg11.dtd">
<svg version="1.1" id="Layer_1" xmlns="http://www.w3.org/2000/svg" xmlns:xlink="http://www.w3.org/1999/xlink" x="0px" y="0px"
	 width="512px" height="512px" viewBox="0 0 512 512" style="enable-background:new 0 0 512 512;" xml:space="preserve">
<path d="M463.359,144.688L260.233,69.185c-1.27-0.559-2.628-0.837-3.984-0.837c-1.366,0-2.732,0.282-4.009,0.847L48.684,144.902
	c-4.476,1.055-7.638,5.05-7.638,9.647v279.19c0,5.475,4.438,9.912,9.912,9.912h410.085c5.474,0,9.911-4.438,9.911-9.912V154.326
	C470.954,149.744,467.814,145.759,463.359,144.688z M430.954,211.835l-172.391,67.85c0,0-1.631,0.704-2.777,0.704
	s-2.783-0.697-2.783-0.697L81.046,212.169v-34.484l175.244-66.592l174.664,66.284V211.835z"/>
</svg>
