<?xml version="1.0" encoding="iso-8859-1"?>
<!-- Generator: Adobe Illustrator 16.0.0, SVG Export Plug-In . SVG Version: 6.00 Build 0)  -->
<!DOCTYPE svg PUBLIC "-//W3C//DTD SVG 1.1//EN" "http://www.w3.org/Graphics/SVG/1.1/DTD/svg11.dtd">
<svg version="1.1" id="Layer_1" xmlns="http://www.w3.org/2000/svg" xmlns:xlink="http://www.w3.org/1999/xlink" x="0px" y="0px"
	 width="512px" height="512px" viewBox="0 0 512 512" style="enable-background:new 0 0 512 512;" xml:space="preserve">
<g>
	<path d="M378.386,255.142c-1.879-1.905-4.443-2.978-7.12-2.978h-21.548c-5.444,0-9.889,4.356-9.998,9.799
		c-0.425,21.189-18.019,38.428-39.22,38.428h-89c-21.201,0-38.795-17.238-39.22-38.428c-0.109-5.443-4.554-9.799-9.998-9.799
		h-21.548c-2.677,0-5.241,1.073-7.12,2.978c-1.879,1.906-2.916,4.485-2.879,7.161c0.61,43.91,36.842,79.634,80.765,79.634h15.947
		l0.001,74.595c-9.283,3.193-15.52,11.923-15.52,21.724c0,12.666,10.304,22.971,22.97,22.971h42.205
		c12.664,0,22.968-10.305,22.968-22.971c0-9.8-6.235-18.53-15.517-21.724v-74.596H300.5c43.923,0,80.154-35.724,80.765-79.634
		C381.302,259.626,380.265,257.047,378.386,255.142z"/>
	<path d="M311.497,106.271c0-30.601-24.896-55.497-55.497-55.497s-55.497,24.896-55.497,55.497v10.225h110.994V106.271z"/>
	<path d="M256,283.262c30.602,0,55.497-24.896,55.497-55.497v-81.27H200.503v81.27C200.503,258.366,225.398,283.262,256,283.262z"/>
</g>
</svg>
