<?xml version="1.0" encoding="iso-8859-1"?>
<!-- Generator: Adobe Illustrator 16.0.0, SVG Export Plug-In . SVG Version: 6.00 Build 0)  -->
<!DOCTYPE svg PUBLIC "-//W3C//DTD SVG 1.1//EN" "http://www.w3.org/Graphics/SVG/1.1/DTD/svg11.dtd">
<svg version="1.1" id="Layer_1" xmlns="http://www.w3.org/2000/svg" xmlns:xlink="http://www.w3.org/1999/xlink" x="0px" y="0px"
	 width="512px" height="512px" viewBox="0 0 512 512" style="enable-background:new 0 0 512 512;" xml:space="preserve">
<path d="M59.727,431.163h28.07c3.17,0,5.739-2.569,5.739-5.739v-37.333h53.683v37.333c0,3.17,2.57,5.739,5.739,5.739h206.084
	c3.169,0,5.739-2.569,5.739-5.739v-37.333h53.683v37.333c0,3.17,2.569,5.739,5.739,5.739h28.07c3.169,0,5.738-2.569,5.738-5.739
	V86.576c0-3.17-2.569-5.739-5.738-5.739h-28.07c-3.17,0-5.739,2.569-5.739,5.739v37.333h-53.683V86.576
	c0-3.17-2.57-5.739-5.739-5.739H152.958c-3.169,0-5.739,2.569-5.739,5.739v37.333H93.536V86.576c0-3.17-2.569-5.739-5.739-5.739
	h-28.07c-3.169,0-5.738,2.569-5.738,5.739v338.848C53.988,428.594,56.557,431.163,59.727,431.163z M364.781,176.181h53.683v53.684
	h-53.683V176.181z M364.781,282.136h53.683v53.684h-53.683V282.136z M93.536,176.181h53.683v53.684H93.536V176.181z M93.536,282.136
	h53.683v53.684H93.536V282.136z"/>
</svg>
