<?xml version="1.0" encoding="iso-8859-1"?>
<!-- Generator: Adobe Illustrator 16.0.0, SVG Export Plug-In . SVG Version: 6.00 Build 0)  -->
<!DOCTYPE svg PUBLIC "-//W3C//DTD SVG 1.1//EN" "http://www.w3.org/Graphics/SVG/1.1/DTD/svg11.dtd">
<svg version="1.1" id="Layer_1" xmlns="http://www.w3.org/2000/svg" xmlns:xlink="http://www.w3.org/1999/xlink" x="0px" y="0px"
	 width="512px" height="512px" viewBox="0 0 512 512" style="enable-background:new 0 0 512 512;" xml:space="preserve">
<path d="M409.741,147.12c-0.053-7.731-5.949-14.879-13.496-15.628l-230.793-0.128c-12.82,0-23.25-10.43-23.25-23.25
	s10.43-23.25,23.25-23.25h224.053c11.047,0,20-8.954,20-20s-8.953-20-20-20H165.452c-34.875,0-63.199,28.374-63.199,63.25
	l0.008,343.885c0,10.333,6.715,15.137,15,15.137h277.486c8.283,0,15-6.716,15-15L409.741,147.12z M334.209,293.097
	c-1.135,3.354-4.414,5.621-7.926,5.207c-3.527-0.415-5.972-3.213-6.473-6.619c-0.554-3.768-1.071-7.656-2.513-11.211
	c-1.701-4.191-4.004-8.225-7.53-11.166c-7.097-5.919-16.061-8.672-24.809-11.182c-9.511-2.73-19.145-5.102-28.404-8.638v124.234
	c0,13.54-11.876,23.001-23.772,26.813c-14.322,4.59-31.655,2.947-43.985-6.053c-5.022-3.666-9.21-8.733-10.862-14.813
	c-1.592-5.857-0.559-12.068,2.543-17.25c7.515-12.55,23.644-17.625,37.521-17.352V215.813c0-4.875,1.726-9.588,5.021-13.206
	c4.877-5.356,12.545-7.552,19.521-5.573c1.875,0.531,3.647,1.381,5.296,2.422c4.482,2.828,9.167,9.056,11.774,11.456
	c13.959,12.993,32.656,18.77,48.468,28.972C338.498,259.515,335.159,290.29,334.209,293.097z M340.071,276.806
	c0.002,0.092,0.003,0.183,0.006,0.274C340.04,275.806,340.058,276.367,340.071,276.806z"/>
</svg>
