<?xml version="1.0" encoding="iso-8859-1"?>
<!-- Generator: Adobe Illustrator 16.0.0, SVG Export Plug-In . SVG Version: 6.00 Build 0)  -->
<!DOCTYPE svg PUBLIC "-//W3C//DTD SVG 1.1//EN" "http://www.w3.org/Graphics/SVG/1.1/DTD/svg11.dtd">
<svg version="1.1" id="Layer_1" xmlns="http://www.w3.org/2000/svg" xmlns:xlink="http://www.w3.org/1999/xlink" x="0px" y="0px"
	 width="512px" height="512px" viewBox="0 0 512 512" style="enable-background:new 0 0 512 512;" xml:space="preserve">
<path d="M464.489,256c0-115.146-93.344-208.489-208.489-208.489S47.511,140.854,47.511,256S140.854,464.489,256,464.489
	S464.489,371.146,464.489,256z M342.186,338.774l-179.939-73.508c-3.76-1.537-6.218-5.195-6.218-9.258
	c0-4.061,2.457-7.721,6.218-9.256l179.943-73.527c3.961-1.619,8.515-0.537,11.324,2.689c1.624,1.865,2.458,4.209,2.458,6.568
	c0,1.725-0.444,3.457-1.353,5.02l-39.783,68.508l39.779,68.484c2.148,3.701,1.705,8.359-1.104,11.588
	S346.148,340.394,342.186,338.774z"/>
</svg>
