<?xml version="1.0" encoding="iso-8859-1"?>
<!-- Generator: Adobe Illustrator 16.0.0, SVG Export Plug-In . SVG Version: 6.00 Build 0)  -->
<!DOCTYPE svg PUBLIC "-//W3C//DTD SVG 1.1//EN" "http://www.w3.org/Graphics/SVG/1.1/DTD/svg11.dtd">
<svg version="1.1" id="Layer_1" xmlns="http://www.w3.org/2000/svg" xmlns:xlink="http://www.w3.org/1999/xlink" x="0px" y="0px"
	 width="512px" height="512px" viewBox="0 0 512 512" style="enable-background:new 0 0 512 512;" xml:space="preserve">
<path d="M256,47.511C140.854,47.511,47.511,140.854,47.511,256S140.854,464.489,256,464.489S464.489,371.146,464.489,256
	S371.146,47.511,256,47.511z M338.774,169.814l-73.508,179.939c-1.537,3.761-5.195,6.218-9.258,6.218
	c-4.061,0-7.721-2.457-9.256-6.217l-73.527-179.943c-1.619-3.962-0.537-8.515,2.689-11.325c1.865-1.624,4.209-2.458,6.568-2.458
	c1.725,0,3.457,0.445,5.02,1.353l68.508,39.783l68.484-39.779c3.701-2.149,8.359-1.706,11.588,1.104
	S340.394,165.852,338.774,169.814z"/>
</svg>
