<?xml version="1.0" encoding="iso-8859-1"?>
<!-- Generator: Adobe Illustrator 16.0.0, SVG Export Plug-In . SVG Version: 6.00 Build 0)  -->
<!DOCTYPE svg PUBLIC "-//W3C//DTD SVG 1.1//EN" "http://www.w3.org/Graphics/SVG/1.1/DTD/svg11.dtd">
<svg version="1.1" id="Layer_1" xmlns="http://www.w3.org/2000/svg" xmlns:xlink="http://www.w3.org/1999/xlink" x="0px" y="0px"
	 width="512px" height="512px" viewBox="0 0 512 512" style="enable-background:new 0 0 512 512;" xml:space="preserve">
<path d="M403.515,108.666c-81.37-81.47-213.378-81.551-294.849-0.182c-81.47,81.371-81.552,213.379-0.181,294.85
	c81.369,81.47,213.378,81.551,294.849,0.181C484.804,322.146,484.886,190.137,403.515,108.666z M379.667,283.385
	c-0.003,6.465-5.246,11.702-11.711,11.697l-223.961-0.138c-6.465-0.003-11.702-5.248-11.697-11.711l0.034-54.618
	c0.003-6.466,5.245-11.701,11.71-11.698l223.963,0.14c6.465,0.003,11.701,5.247,11.697,11.711L379.667,283.385z"/>
</svg>
