<?xml version="1.0" encoding="iso-8859-1"?>
<!-- Generator: Adobe Illustrator 16.0.0, SVG Export Plug-In . SVG Version: 6.00 Build 0)  -->
<!DOCTYPE svg PUBLIC "-//W3C//DTD SVG 1.1//EN" "http://www.w3.org/Graphics/SVG/1.1/DTD/svg11.dtd">
<svg version="1.1" id="Layer_1" xmlns="http://www.w3.org/2000/svg" xmlns:xlink="http://www.w3.org/1999/xlink" x="0px" y="0px"
	 width="512px" height="512px" viewBox="0 0 512 512" style="enable-background:new 0 0 512 512;" xml:space="preserve">
<g>
	<path d="M303.144,308.454c0-7.601,2.959-14.749,8.334-20.125l71.273-71.181l11.459-11.456l-0.006-58.571
		c-0.053-7.731-5.92-15.722-13.496-15.722l-230.793-0.034c-12.82,0-23.25-10.43-23.25-23.25s10.43-23.25,23.25-23.25h224.252
		c11.047,0,20-8.954,20-20s-8.953-20-20-20H149.915c-34.875,0-63.199,28.374-63.199,63.25l0.008,343.869
		c0,9.397,6.715,15.153,15,15.153h34.941V189.3c0-8.284,6.717-15,15-15c8.285,0,15,6.716,15,15v277.836H379.21
		c8.283,0,15-6.716,15-15v-40.852l-82.73-82.702C306.103,323.2,303.144,316.054,303.144,308.454z"/>
	<path d="M419.111,215.749c-3.737-1.549-8.038-0.692-10.898,2.167l-83.301,83.301c-3.905,3.905-3.905,10.237,0,14.143l83.301,83.301
		c1.913,1.913,4.471,2.929,7.073,2.929c1.288,0,2.588-0.25,3.825-0.762c3.736-1.548,6.173-5.194,6.173-9.239V224.987
		C425.284,220.943,422.848,217.296,419.111,215.749z M378.671,324.657c-8.934,0-16.176-7.242-16.176-16.176
		s7.242-16.176,16.176-16.176s16.176,7.242,16.176,16.176S387.604,324.657,378.671,324.657z"/>
</g>
</svg>
