<?xml version="1.0" encoding="iso-8859-1"?>
<!-- Generator: Adobe Illustrator 16.0.0, SVG Export Plug-In . SVG Version: 6.00 Build 0)  -->
<!DOCTYPE svg PUBLIC "-//W3C//DTD SVG 1.1//EN" "http://www.w3.org/Graphics/SVG/1.1/DTD/svg11.dtd">
<svg version="1.1" id="Layer_1" xmlns="http://www.w3.org/2000/svg" xmlns:xlink="http://www.w3.org/1999/xlink" x="0px" y="0px"
	 width="512px" height="512px" viewBox="0 0 512 512" style="enable-background:new 0 0 512 512;" xml:space="preserve">
<path d="M418.662,99.862H396V65.687c0-11.046-8.954-20-20-20s-20,8.954-20,20v34.176h-40V65.687c0-11.046-8.954-20-20-20
	s-20,8.954-20,20v34.176h-40V65.687c0-11.046-8.954-20-20-20s-20,8.954-20,20v34.176h-40V65.687c0-11.046-8.954-20-20-20
	s-20,8.954-20,20v34.176H93.338c-5.523,0-10,4.477-10,10v346.451c0,5.523,4.477,10,10,10h325.324c5.523,0,10-4.477,10-10V109.862
	C428.662,104.339,424.186,99.862,418.662,99.862z M364.638,375.101c0,4.262-3.455,7.719-7.719,7.719h-201.84
	c-4.262,0-7.717-3.457-7.717-7.719v-15.926c0-4.262,3.455-7.719,7.717-7.719h201.84c4.264,0,7.719,3.457,7.719,7.719V375.101z
	 M364.638,285.101c0,4.262-3.455,7.719-7.719,7.719h-201.84c-4.262,0-7.717-3.457-7.717-7.719v-15.926
	c0-4.262,3.455-7.719,7.717-7.719h201.84c4.264,0,7.719,3.457,7.719,7.719V285.101z M364.638,195.101
	c0,4.262-3.455,7.719-7.719,7.719h-201.84c-4.262,0-7.717-3.457-7.717-7.719v-15.926c0-4.262,3.455-7.719,7.717-7.719h201.84
	c4.264,0,7.719,3.457,7.719,7.719V195.101z"/>
</svg>
