<?xml version="1.0" encoding="iso-8859-1"?>
<!-- Generator: Adobe Illustrator 16.0.0, SVG Export Plug-In . SVG Version: 6.00 Build 0)  -->
<!DOCTYPE svg PUBLIC "-//W3C//DTD SVG 1.1//EN" "http://www.w3.org/Graphics/SVG/1.1/DTD/svg11.dtd">
<svg version="1.1" id="Layer_1" xmlns="http://www.w3.org/2000/svg" xmlns:xlink="http://www.w3.org/1999/xlink" x="0px" y="0px"
	 width="512px" height="512px" viewBox="0 0 512 512" style="enable-background:new 0 0 512 512;" xml:space="preserve">
<path d="M469.502,256.568c0-26.381-15.704-50.893-44.738-70.582c0.215-1.09,0.431-2.178,0.629-3.262
	c6.926-37.887,3.063-69.549-10.792-92.052c0.591-2.317,0.907-4.745,0.907-7.247c0-16.139-13.083-29.221-29.222-29.221
	c-5.455,0-10.558,1.498-14.926,4.101c-7.257-1.97-15.037-2.966-23.303-2.966c-27.877,0-59.592,11.445-91.415,31.844
	c-31.823-20.398-63.538-31.844-91.416-31.844c-18.632,0-34.801,5.033-48.058,14.961c-28.265,21.164-38.663,61.09-29.278,112.424
	c0.198,1.084,0.414,2.173,0.628,3.262c-3.993,2.707-7.725,5.509-11.207,8.392c-1.811-0.351-3.678-0.54-5.592-0.54
	c-16.138,0-29.221,13.082-29.221,29.221c0,5.391,1.465,10.436,4.01,14.77c-1.797,6.111-2.727,12.369-2.727,18.739
	c0,26.38,15.704,50.892,44.736,70.581c-0.215,1.089-0.431,2.178-0.628,3.262c-9.385,51.334,1.014,91.26,29.279,112.424
	c13.256,9.926,29.425,14.959,48.058,14.961c0.003,0,0.002,0,0.006,0c27.875,0,59.588-11.445,91.41-31.843
	c31.823,20.397,63.538,31.843,91.414,31.843c11.631,0,22.302-1.963,31.904-5.852c4.617,3.055,10.148,4.838,16.099,4.838
	c16.138,0,29.221-13.084,29.221-29.223c0-6.013-1.818-11.6-4.932-16.246c9.054-21.351,10.893-48.91,5.045-80.902
	c-0.199-1.084-0.414-2.173-0.629-3.262C453.798,307.459,469.502,282.947,469.502,256.568z M387.779,313.803
	c-8.461,4.085-17.578,7.729-27.244,10.902c7.372-10.197,14.235-20.568,20.538-31.027
	C383.617,300.453,385.857,307.17,387.779,313.803z M329.708,311.279c-6.546,8.742-13.354,17.135-20.366,25.133
	c-16.882,2.405-34.58,3.655-52.701,3.655c-18.122,0-35.819-1.25-52.701-3.655c-7.013-7.998-13.82-16.391-20.366-25.133
	c-13.375-17.861-25.018-36.291-34.661-54.713c9.644-18.42,21.286-36.85,34.66-54.711c6.546-8.742,13.354-17.135,20.366-25.133
	c16.883-2.404,34.581-3.655,52.702-3.655c18.121,0,35.819,1.251,52.702,3.655c7.012,7.998,13.82,16.391,20.366,25.133
	c13.375,17.861,25.017,36.291,34.66,54.711C354.726,274.987,343.083,293.418,329.708,311.279z M256.642,385.91
	c-6.693-5.062-13.326-10.504-19.86-16.317c6.564,0.313,13.189,0.475,19.86,0.475c6.67,0,13.296-0.161,19.86-0.475
	C269.968,375.406,263.335,380.849,256.642,385.91z M132.21,293.679c6.303,10.458,13.166,20.829,20.537,31.026
	c-9.665-3.175-18.782-6.817-27.243-10.902C127.426,307.17,129.665,300.453,132.21,293.679z M125.504,199.332
	c8.46-4.084,17.577-7.728,27.241-10.901c-7.371,10.196-14.233,20.566-20.536,31.024
	C129.665,212.681,127.426,205.964,125.504,199.332z M256.642,127.225c6.693,5.062,13.325,10.504,19.86,16.317
	c-6.564-0.313-13.189-0.475-19.86-0.475c-6.671,0-13.296,0.161-19.86,0.475C243.315,137.729,249.947,132.286,256.642,127.225z
	 M360.537,188.431c9.664,3.175,18.78,6.817,27.241,10.901c-1.921,6.632-4.161,13.349-6.706,20.122
	C374.77,208.996,367.907,198.627,360.537,188.431z M348.057,88.137c3.335,0,6.508,0.25,9.522,0.733
	c2.551,13.536,14.43,23.778,28.707,23.778c0.944,0,1.875-0.049,2.795-0.137c6.661,14.006,8.549,33.571,5.266,56.807
	c-19.431-8.635-41.517-15.275-65.255-19.719c-14.046-15.482-28.711-29.402-43.605-41.488
	C308.383,95.148,330.17,88.137,348.057,88.137z M136.825,96.553c7.458-5.585,17.014-8.416,28.401-8.416
	c17.886,0,39.674,7.012,62.57,19.975c-14.895,12.086-29.559,26.006-43.605,41.489c-23.738,4.442-45.823,11.083-65.255,19.718
	C114.095,135.081,120.477,108.793,136.825,96.553z M73.781,256.567c0-1.462,0.108-2.925,0.298-4.39
	c13.323-1.066,24.121-11.063,26.407-24.004c3.439,9.404,7.401,18.891,11.854,28.393c-6.179,13.182-11.401,26.332-15.605,39.277
	C81.904,283.594,73.781,269.977,73.781,256.567z M165.232,424.999c-0.002,0-0.003,0-0.004,0
	c-11.389-0.001-20.945-2.833-28.402-8.417c-16.348-12.24-22.73-38.528-17.89-72.766c19.432,8.635,41.517,15.275,65.256,19.719
	c14.047,15.483,28.711,29.403,43.605,41.489C204.903,417.986,183.116,424.999,165.232,424.999z M285.487,405.023
	c14.894-12.086,29.558-26.006,43.604-41.488c23.739-4.443,45.825-11.084,65.256-19.719c3.161,22.357,1.531,41.317-4.531,55.196
	c-11.22,2.442-20.033,11.323-22.37,22.583c-5.681,2.26-12.166,3.403-19.391,3.403C330.17,424.999,308.383,417.986,285.487,405.023z
	 M416.548,295.844c-4.204-12.945-9.427-26.096-15.606-39.277c6.178-13.182,11.401-26.331,15.605-39.275
	c14.832,12.25,22.956,25.867,22.956,39.277C439.502,269.978,431.378,283.594,416.548,295.844z"/>
</svg>
