<?xml version="1.0" encoding="iso-8859-1"?>
<!-- Generator: Adobe Illustrator 16.0.0, SVG Export Plug-In . SVG Version: 6.00 Build 0)  -->
<!DOCTYPE svg PUBLIC "-//W3C//DTD SVG 1.1//EN" "http://www.w3.org/Graphics/SVG/1.1/DTD/svg11.dtd">
<svg version="1.1" id="Layer_1" xmlns="http://www.w3.org/2000/svg" xmlns:xlink="http://www.w3.org/1999/xlink" x="0px" y="0px"
	 width="512px" height="512px" viewBox="0 0 512 512" style="enable-background:new 0 0 512 512;" xml:space="preserve">
<g>
	<path d="M457.185,117.619h-60.334V67.864c0-4.686-3.799-8.485-8.485-8.485h-50.064c-4.686,0-8.484,3.8-8.484,8.485v49.755H182.184
		V67.864c0-4.686-3.799-8.485-8.485-8.485h-50.064c-4.686,0-8.484,3.8-8.484,8.485v49.755H54.815
		c-10.17,0-18.413,8.244-18.413,18.414v298.175c0,10.169,8.242,18.414,18.413,18.414h402.369c10.17,0,18.413-8.244,18.413-18.414
		V136.033C475.597,125.863,467.355,117.619,457.185,117.619z M435.332,417.757H76.668V196.564l358.664-0.18V417.757z"/>
	<path d="M227.211,283.295c0.487,1.924,1.836,3.516,3.654,4.313c1.816,0.799,3.9,0.715,5.647-0.229l11.971-6.463v102.131
		c0,3.557,2.884,6.44,6.44,6.44h30.398c3.557,0,6.44-2.884,6.44-6.44V236.209c0-3.557-2.883-6.44-6.44-6.44H261.81
		c-1.06,0-2.104,0.262-3.039,0.763l-35.131,18.803c-2.61,1.396-3.931,4.392-3.204,7.261L227.211,283.295z"/>
</g>
</svg>
