<?xml version="1.0" encoding="iso-8859-1"?>
<!-- Generator: Adobe Illustrator 16.0.0, SVG Export Plug-In . SVG Version: 6.00 Build 0)  -->
<!DOCTYPE svg PUBLIC "-//W3C//DTD SVG 1.1//EN" "http://www.w3.org/Graphics/SVG/1.1/DTD/svg11.dtd">
<svg version="1.1" id="Layer_1" xmlns="http://www.w3.org/2000/svg" xmlns:xlink="http://www.w3.org/1999/xlink" x="0px" y="0px"
	 width="512px" height="512px" viewBox="0 0 512 512" style="enable-background:new 0 0 512 512;" xml:space="preserve">
<path d="M465.593,184.189l-11.719-17.62c-6.082-9.142-18.238-11.956-27.717-6.419l-148.219,92.74l-76.873-21.102l65.182-0.021
	c5.52-0.002,10.811-2.206,14.703-6.126c3.889-3.917,6.002-9.225,5.965-14.747l-0.074-18.092c-0.08-11.39-9.332-20.582-20.725-20.586
	l-116.006-0.03c-0.002,0-0.002,0-0.004,0c-5.545,0-10.857,2.221-14.752,6.166L48.915,265.91c-7.693,7.79-8,20.22-0.703,28.38
	l47.811,53.476c4.021,4.5,9.682,6.916,15.459,6.916c2.795,0,5.615-0.565,8.289-1.733l60.82-26.554l109.195-0.019
	c4.223,0,8.342-1.289,11.813-3.696l158.549-109.977C469.425,206.268,471.847,193.591,465.593,184.189z"/>
</svg>
