<?xml version="1.0" encoding="iso-8859-1"?>
<!-- Generator: Adobe Illustrator 16.0.0, SVG Export Plug-In . SVG Version: 6.00 Build 0)  -->
<!DOCTYPE svg PUBLIC "-//W3C//DTD SVG 1.1//EN" "http://www.w3.org/Graphics/SVG/1.1/DTD/svg11.dtd">
<svg version="1.1" id="Layer_1" xmlns="http://www.w3.org/2000/svg" xmlns:xlink="http://www.w3.org/1999/xlink" x="0px" y="0px"
	 width="512px" height="512px" viewBox="0 0 512 512" style="enable-background:new 0 0 512 512;" xml:space="preserve">
<g>
	<path d="M147.765,250.411h216.471c1.085,0,2.085-0.586,2.616-1.531c0.531-0.946,0.51-2.104-0.054-3.031l-38.772-63.57
		c-0.544-0.893-1.515-1.438-2.561-1.438H186.536c-1.046,0-2.017,0.545-2.561,1.438l-38.771,63.57
		c-0.565,0.927-0.586,2.085-0.055,3.031C145.68,249.825,146.68,250.411,147.765,250.411z"/>
	<path d="M89.605,345.769h332.789c1.085,0,2.085-0.586,2.616-1.531c0.53-0.946,0.51-2.104-0.055-3.031l-38.773-63.572
		c-0.544-0.893-1.515-1.438-2.561-1.438H128.378c-1.046,0-2.017,0.545-2.561,1.438l-38.772,63.572
		c-0.565,0.927-0.586,2.085-0.055,3.031C87.521,345.183,88.521,345.769,89.605,345.769z"/>
	<path d="M205.922,155.055h100.156c1.084,0,2.085-0.586,2.616-1.531c0.531-0.946,0.51-2.104-0.055-3.031l-50.078-82.108
		c-0.544-0.893-1.515-1.438-2.561-1.438s-2.017,0.545-2.561,1.438l-50.078,82.108c-0.565,0.927-0.586,2.085-0.055,3.031
		C203.837,154.469,204.837,155.055,205.922,155.055z"/>
	<path d="M485.509,440.491l-41.168-67.5c-0.544-0.893-1.515-1.438-2.561-1.438H70.22c-1.046,0-2.017,0.545-2.561,1.438l-41.168,67.5
		c-0.565,0.927-0.586,2.085-0.055,3.031c0.531,0.945,1.531,1.531,2.616,1.531h453.896c1.084,0,2.085-0.586,2.616-1.531
		C486.095,442.576,486.074,441.418,485.509,440.491z"/>
</g>
</svg>
