<?xml version="1.0" encoding="iso-8859-1"?>
<!-- Generator: Adobe Illustrator 16.0.0, SVG Export Plug-In . SVG Version: 6.00 Build 0)  -->
<!DOCTYPE svg PUBLIC "-//W3C//DTD SVG 1.1//EN" "http://www.w3.org/Graphics/SVG/1.1/DTD/svg11.dtd">
<svg version="1.1" id="Layer_1" xmlns="http://www.w3.org/2000/svg" xmlns:xlink="http://www.w3.org/1999/xlink" x="0px" y="0px"
	 width="512px" height="512px" viewBox="0 0 512 512" style="enable-background:new 0 0 512 512;" xml:space="preserve">
<path d="M375.739,220.576h-18.243v-78.141c0-46.869-38.132-85-85-85h-32.992c-46.869,0-85,38.131-85,85v43.828
	c0,5.523,4.478,10,10,10h30c5.522,0,10-4.477,10-10v-43.828c0-19.299,15.7-35,35-35h32.992c19.3,0,35,15.701,35,35v78.141h-84.897
	h-18.095h-50h-18.243c-9.314,0-16.866,7.551-16.866,16.865v200.257c0,9.314,7.552,16.866,16.866,16.866h239.479
	c9.315,0,16.866-7.552,16.866-16.866V237.441C392.605,228.127,385.055,220.576,375.739,220.576z"/>
</svg>
