<?xml version="1.0" encoding="iso-8859-1"?>
<!-- Generator: Adobe Illustrator 16.0.0, SVG Export Plug-In . SVG Version: 6.00 Build 0)  -->
<!DOCTYPE svg PUBLIC "-//W3C//DTD SVG 1.1//EN" "http://www.w3.org/Graphics/SVG/1.1/DTD/svg11.dtd">
<svg version="1.1" id="Layer_1" xmlns="http://www.w3.org/2000/svg" xmlns:xlink="http://www.w3.org/1999/xlink" x="0px" y="0px"
	 width="512px" height="512px" viewBox="0 0 512 512" style="enable-background:new 0 0 512 512;" xml:space="preserve">
<path d="M392.652,214.796h-20.543v-50.792c0-64.022-52.086-116.108-116.107-116.108c-64.023,0-116.111,52.086-116.111,116.108
	v50.792h-20.543c-6.635,0-12.012,5.377-12.012,12.011v225.287c0,6.634,5.377,12.011,12.012,12.011h273.305
	c6.633,0,12.012-5.377,12.012-12.011V226.807C404.664,220.173,399.285,214.796,392.652,214.796z M195.326,164.004
	c0-33.456,27.219-60.673,60.676-60.673c33.455,0,60.672,27.217,60.672,60.673v50.792H195.326V164.004z M339.842,409.683
	c0,5.103-4.137,9.239-9.24,9.239H181.396c-5.1,0-9.238-4.137-9.238-9.239V382.43c0-5.103,4.139-9.239,9.238-9.239h149.205
	c5.104,0,9.24,4.137,9.24,9.239V409.683z"/>
</svg>
