<?xml version="1.0" encoding="iso-8859-1"?>
<!-- Generator: Adobe Illustrator 16.0.0, SVG Export Plug-In . SVG Version: 6.00 Build 0)  -->
<!DOCTYPE svg PUBLIC "-//W3C//DTD SVG 1.1//EN" "http://www.w3.org/Graphics/SVG/1.1/DTD/svg11.dtd">
<svg version="1.1" id="Layer_1" xmlns="http://www.w3.org/2000/svg" xmlns:xlink="http://www.w3.org/1999/xlink" x="0px" y="0px"
	 width="512px" height="512px" viewBox="0 0 512 512" style="enable-background:new 0 0 512 512;" xml:space="preserve">
<path d="M440.226,83.613H276.84v-9.087c0-2.302-1.867-4.167-4.168-4.167h-33.345c-2.301,0-4.167,1.865-4.167,4.167v9.087H71.774
	c-2.301,0-4.168,1.866-4.168,4.168v33.344c0,2.301,1.867,4.168,4.168,4.168h18.34v214.234c0,2.302,1.866,4.168,4.167,4.168h121.05
	L124.5,434.526c-1.192,1.192-1.549,2.985-0.903,4.543c0.644,1.558,2.165,2.572,3.85,2.572h47.154c1.106,0,2.166-0.438,2.947-1.22
	l77.702-77.701l77.699,77.701c0.781,0.782,1.842,1.22,2.948,1.22h47.155c0.005,0,0.011,0,0.017,0c2.302,0,4.168-1.866,4.168-4.167
	c0-1.265-0.563-2.397-1.452-3.162l-90.616-90.617h122.549c2.301,0,4.168-1.866,4.168-4.168V125.293h18.339
	c2.301,0,4.167-1.867,4.167-4.168V87.781C444.393,85.479,442.527,83.613,440.226,83.613z M380.206,125.293v176.723H131.794V125.293
	H380.206z"/>
</svg>
