<?xml version="1.0" encoding="iso-8859-1"?>
<!-- Generator: Adobe Illustrator 16.0.0, SVG Export Plug-In . SVG Version: 6.00 Build 0)  -->
<!DOCTYPE svg PUBLIC "-//W3C//DTD SVG 1.1//EN" "http://www.w3.org/Graphics/SVG/1.1/DTD/svg11.dtd">
<svg version="1.1" id="Layer_1" xmlns="http://www.w3.org/2000/svg" xmlns:xlink="http://www.w3.org/1999/xlink" x="0px" y="0px"
	 width="512px" height="512px" viewBox="0 0 512 512" style="enable-background:new 0 0 512 512;" xml:space="preserve">
<path d="M409.741,147.12c-0.053-7.731-5.949-14.879-13.496-15.628l-230.793-0.128c-12.82,0-23.25-10.43-23.25-23.25
	s10.43-23.25,23.25-23.25h224.053c11.046,0,20-8.954,20-20s-8.954-20-20-20H165.452c-34.875,0-63.199,28.374-63.199,63.25
	l0.008,343.885c0,10.333,6.715,15.137,15,15.137h277.486c8.283,0,15-6.716,15-15V155.589L409.741,147.12z M255.939,404.835
	c-18.145,0-35.986-4.798-51.6-13.877l-9.092,7.967c-1.313,1.151-3.141,1.512-4.793,0.951c-1.652-0.563-2.881-1.963-3.221-3.676
	l-11.709-54.146c-0.34-1.711,0.262-3.475,1.572-4.625c1.314-1.152,3.141-1.515,4.795-0.953l55.227,15.91
	c1.654,0.563,2.881,1.961,3.221,3.674s-0.26,3.477-1.572,4.627l-8.486,7.541c8.176,3.166,16.807,4.773,25.658,4.773
	c39.148,0,71-31.852,71-71.001c0-39.15-31.852-71.001-71-71.001c-37.352,0-68.475,29.177-70.855,66.425
	c-0.164,2.573-2.299,4.576-4.877,4.576h-22.096c-1.336,0-2.617-0.548-3.541-1.519c-0.92-0.968-1.406-2.273-1.34-3.609
	c1.299-26.343,12.572-50.928,31.74-69.23c19.23-18.364,44.436-28.477,70.969-28.477c56.703,0,102.836,46.131,102.836,102.835
	S312.643,404.835,255.939,404.835z"/>
</svg>
