<?xml version="1.0" encoding="iso-8859-1"?>
<!-- Generator: Adobe Illustrator 16.0.0, SVG Export Plug-In . SVG Version: 6.00 Build 0)  -->
<!DOCTYPE svg PUBLIC "-//W3C//DTD SVG 1.1//EN" "http://www.w3.org/Graphics/SVG/1.1/DTD/svg11.dtd">
<svg version="1.1" id="Layer_1" xmlns="http://www.w3.org/2000/svg" xmlns:xlink="http://www.w3.org/1999/xlink" x="0px" y="0px"
	 width="512px" height="512px" viewBox="0 0 512 512" style="enable-background:new 0 0 512 512;" xml:space="preserve">
<path d="M396.245,131.373l-230.793-0.009c-12.82,0-23.25-10.43-23.25-23.25s10.43-23.25,23.25-23.25h224.252
	c11.046,0,20-8.954,20-20s-8.954-20-20-20H165.452c-34.875,0-63.199,28.374-63.199,63.25l0.008,331.586
	c0,20.72,6.715,27.436,15,27.436h277.486c8.283,0,15-6.716,15-15l-0.006-305.016C409.688,139.389,403.293,131.373,396.245,131.373z
	 M340.077,368.594l-0.004,0.003l-6.386,6.383c-0.046,0.046-0.093,0.091-0.139,0.137c-12.627,12.36-29.763,14.53-50.934,6.449
	c-19.414-7.411-41.773-23.425-64.66-46.311c-22.886-22.887-38.899-45.245-46.312-64.66c-8.08-21.171-5.909-38.307,6.45-50.934
	c0.045-0.047,0.092-0.093,0.137-0.139l6.382-6.386l0.003-0.003c3.532-3.532,8.322-5.516,13.316-5.517
	c4.995-0.001,9.787,1.983,13.321,5.517l24.055,24.056c7.355,7.354,7.355,19.28,0,26.636l-8.398,8.398l54.077,54.076l8.398-8.398
	c7.355-7.354,19.279-7.354,26.635,0l24.058,24.057c3.531,3.533,5.517,8.325,5.516,13.321
	C345.591,360.272,343.607,365.063,340.077,368.594z"/>
</svg>
