<?xml version="1.0" encoding="iso-8859-1"?>
<!-- Generator: Adobe Illustrator 16.0.0, SVG Export Plug-In . SVG Version: 6.00 Build 0)  -->
<!DOCTYPE svg PUBLIC "-//W3C//DTD SVG 1.1//EN" "http://www.w3.org/Graphics/SVG/1.1/DTD/svg11.dtd">
<svg version="1.1" id="Layer_1" xmlns="http://www.w3.org/2000/svg" xmlns:xlink="http://www.w3.org/1999/xlink" x="0px" y="0px"
	 width="512px" height="512px" viewBox="0 0 512 512" style="enable-background:new 0 0 512 512;" xml:space="preserve">
<g>
	<path d="M451.781,285.847c1.471-9.734,2.238-19.701,2.238-29.847c0-34.929-9.055-67.737-24.928-96.228l-129.977,90.563
		L451.781,285.847z"/>
	<path d="M254.908,281.137L91.91,145.125C70.492,176.761,57.98,214.919,57.98,256c0,109.363,88.656,198.02,198.02,198.02
		c85.246,0,157.908-53.869,185.81-129.423L254.908,281.137z"/>
	<path d="M257.092,230.863l149.111-103.895C369.889,84.734,316.07,57.98,256,57.98c-53.886,0-102.734,21.534-138.438,56.452
		L257.092,230.863z"/>
</g>
</svg>
