<?xml version="1.0" encoding="iso-8859-1"?>
<!-- Generator: Adobe Illustrator 16.0.0, SVG Export Plug-In . SVG Version: 6.00 Build 0)  -->
<!DOCTYPE svg PUBLIC "-//W3C//DTD SVG 1.1//EN" "http://www.w3.org/Graphics/SVG/1.1/DTD/svg11.dtd">
<svg version="1.1" id="Layer_1" xmlns="http://www.w3.org/2000/svg" xmlns:xlink="http://www.w3.org/1999/xlink" x="0px" y="0px"
	 width="512px" height="512px" viewBox="0 0 512 512" style="enable-background:new 0 0 512 512;" xml:space="preserve">
<path d="M481.801,120.235c-8.086-13.447-23.568-20.266-46.016-20.266c-25.67,0-61.105,8.931-101.578,24.945
	c-54.822-32.717-126.616-28.548-177.693,15.364c-37.17,31.955-55.173,77.914-52.93,123.352
	c-11.964,10.202-22.875,20.312-32.524,30.175c-40.999,41.904-54.747,74.862-40.861,97.958c8.087,13.448,23.567,20.267,46.018,20.267
	c25.668,0,61.104-8.931,101.576-24.945c54.822,32.717,126.617,28.547,177.694-15.364c37.17-31.954,55.172-77.913,52.93-123.351
	c11.964-10.202,22.875-20.312,32.524-30.175C481.939,176.291,495.688,143.333,481.801,120.235z M61.611,372.858
	c-0.728-1.064,0.472-7.221,6.392-17.281c6.688-11.365,18.095-25.187,32.989-39.971c3.377-3.353,6.92-6.738,10.602-10.148
	c6.105,17.845,15.637,34.852,28.685,50.028c1.41,1.641,2.854,3.234,4.318,4.8c-29.479,10.26-53.019,15.142-68.381,15.142
	C65.999,375.428,62.543,374.222,61.611,372.858z M443.998,156.422c-6.688,11.365-18.096,25.187-32.989,39.971
	c-3.378,3.353-6.921,6.739-10.603,10.149c-6.106-17.846-15.639-34.853-28.686-50.029c-1.41-1.641-2.854-3.234-4.318-4.799
	c29.479-10.26,53.02-15.142,68.383-15.142c10.214,0,13.758,0.915,14.604,2.569C451.391,141.101,449.916,146.363,443.998,156.422z"/>
</svg>
