<?xml version="1.0" encoding="iso-8859-1"?>
<!-- Generator: Adobe Illustrator 16.0.0, SVG Export Plug-In . SVG Version: 6.00 Build 0)  -->
<!DOCTYPE svg PUBLIC "-//W3C//DTD SVG 1.1//EN" "http://www.w3.org/Graphics/SVG/1.1/DTD/svg11.dtd">
<svg version="1.1" id="Layer_1" xmlns="http://www.w3.org/2000/svg" xmlns:xlink="http://www.w3.org/1999/xlink" x="0px" y="0px"
	 width="512px" height="512px" viewBox="0 0 512 512" style="enable-background:new 0 0 512 512;" xml:space="preserve">
<g>
	<path d="M274.287,275.511l-30.939,30.939l-37.799-37.799l30.939-30.939c6.856-6.855,6.856-18.012,0-24.867
		c-6.855-6.856-18.011-6.856-24.867,0l-30.94,30.939l-15.539-15.538c-4.12-4.122-10.801-4.121-14.921,0l-22.446,22.445
		c-4.12,4.12-4.12,10.8,0,14.921l3.35,3.35L80.405,319.68c-2.361,2.362-3.465,5.702-2.976,9.005l7.816,52.813L44.24,422.503
		c-4.12,4.119-4.12,10.8,0,14.92l30.337,30.336c4.12,4.121,10.8,4.121,14.92,0l41.006-41.006l52.813,7.817
		c3.303,0.489,6.644-0.614,9.004-2.976l50.719-50.719l3.35,3.35c4.12,4.119,10.801,4.119,14.921,0l22.446-22.447
		c4.12-4.118,4.12-10.801,0-14.92l-15.539-15.539l30.939-30.94c6.856-6.856,6.856-18.012,0-24.868
		C292.299,268.655,281.144,268.655,274.287,275.511z"/>
	<path d="M467.76,74.578l-30.337-30.339c-4.119-4.118-10.8-4.118-14.92,0l-41.006,41.007l-52.813-7.817
		c-3.303-0.488-6.643,0.615-9.004,2.977l-50.719,50.719l-3.35-3.35c-4.12-4.12-10.8-4.121-14.921,0l-22.446,22.446
		c-4.12,4.12-4.12,10.8,0,14.921l118.613,118.613c4.12,4.119,10.801,4.119,14.921,0l22.446-22.447c4.12-4.12,4.12-10.801,0-14.92
		l-3.35-3.35l50.719-50.719c2.361-2.361,3.465-5.7,2.976-9.004l-7.816-52.813l41.006-41.006
		C471.88,85.377,471.88,78.696,467.76,74.578z"/>
</g>
</svg>
