<?xml version="1.0" encoding="iso-8859-1"?>
<!-- Generator: Adobe Illustrator 16.0.0, SVG Export Plug-In . SVG Version: 6.00 Build 0)  -->
<!DOCTYPE svg PUBLIC "-//W3C//DTD SVG 1.1//EN" "http://www.w3.org/Graphics/SVG/1.1/DTD/svg11.dtd">
<svg version="1.1" id="Layer_1" xmlns="http://www.w3.org/2000/svg" xmlns:xlink="http://www.w3.org/1999/xlink" x="0px" y="0px"
	 width="512px" height="512px" viewBox="0 0 512 512" style="enable-background:new 0 0 512 512;" xml:space="preserve">
<g>
	<rect x="232.325" y="232.324" width="47.35" height="47.35"/>
	<path d="M422.881,70.279H89.12c-10.406,0-18.84,8.434-18.84,18.84v333.762c0,10.404,8.434,18.84,18.84,18.84h333.761
		c10.406,0,18.839-8.436,18.839-18.84V287.924v-13.328V89.119C441.72,78.713,433.287,70.279,422.881,70.279z M355.012,228.094
		c0,2.338-1.895,4.23-4.231,4.23h-37.235v47.35h37.235c2.336,0,4.231,1.895,4.231,4.23v25.41c0,2.336-1.895,4.232-4.231,4.232
		h-37.235v37.234c0,2.336-1.895,4.23-4.231,4.23h-25.409c-2.336,0-4.23-1.895-4.23-4.23v-37.234h-47.35v37.234
		c0,2.336-1.894,4.23-4.23,4.23h-25.409c-2.336,0-4.231-1.895-4.231-4.23v-37.234h-37.235c-2.336,0-4.231-1.896-4.231-4.232v-25.41
		c0-2.336,1.895-4.23,4.231-4.23h37.235v-47.35h-37.235c-2.336,0-4.231-1.893-4.231-4.23v-25.408c0-2.336,1.895-4.23,4.231-4.23
		h37.235v-37.236c0-2.336,1.895-4.23,4.231-4.23h25.409c2.336,0,4.23,1.895,4.23,4.23v37.236h47.35v-37.236
		c0-2.336,1.894-4.23,4.23-4.23h25.409c2.336,0,4.231,1.895,4.231,4.23v37.236h37.235c2.336,0,4.231,1.895,4.231,4.23V228.094z"/>
</g>
</svg>
