<?xml version="1.0" encoding="iso-8859-1"?>
<!-- Generator: Adobe Illustrator 16.0.0, SVG Export Plug-In . SVG Version: 6.00 Build 0)  -->
<!DOCTYPE svg PUBLIC "-//W3C//DTD SVG 1.1//EN" "http://www.w3.org/Graphics/SVG/1.1/DTD/svg11.dtd">
<svg version="1.1" id="Layer_1" xmlns="http://www.w3.org/2000/svg" xmlns:xlink="http://www.w3.org/1999/xlink" x="0px" y="0px"
	 width="512px" height="512px" viewBox="0 0 512 512" style="enable-background:new 0 0 512 512;" xml:space="preserve">
<path d="M451.898,216.014L440.397,90.598c-0.448-4.877-2.601-9.469-6.063-12.932c-3.463-3.462-8.055-5.615-12.931-6.063
	L295.986,60.102c-6.231-0.57-12.343,1.639-16.767,6.063L66.154,279.23c-8.188,8.188-8.189,21.51,0,29.697l136.918,136.918
	c8.188,8.188,21.51,8.188,29.698,0l213.064-213.064C450.259,228.357,452.469,222.246,451.898,216.014z M218.051,389.408
	l-95.459-95.459l175.977-175.978l95.46,95.459L218.051,389.408z M407.252,133.032c-7.811,7.811-20.475,7.811-28.286,0
	c-7.81-7.811-7.81-20.474,0.001-28.284c7.811-7.811,20.474-7.811,28.284,0S415.063,125.222,407.252,133.032z"/>
</svg>
