<?xml version="1.0" encoding="iso-8859-1"?>
<!-- Generator: Adobe Illustrator 16.0.0, SVG Export Plug-In . SVG Version: 6.00 Build 0)  -->
<!DOCTYPE svg PUBLIC "-//W3C//DTD SVG 1.1//EN" "http://www.w3.org/Graphics/SVG/1.1/DTD/svg11.dtd">
<svg version="1.1" id="Layer_1" xmlns="http://www.w3.org/2000/svg" xmlns:xlink="http://www.w3.org/1999/xlink" x="0px" y="0px"
	 width="512px" height="512px" viewBox="0 0 512 512" style="enable-background:new 0 0 512 512;" xml:space="preserve">
<g>
	<path d="M440.607,143.974h-64.25v-72.23c0-9.496-7.697-17.193-17.192-17.193h-206.33c-9.495,0-17.192,7.697-17.192,17.193v72.23
		h-64.25c-11.983,0-21.696,9.713-21.696,21.695v159.834c0,11.982,9.713,21.696,21.696,21.696h20.655
		c11.982,0,21.696-9.714,21.696-21.696V294.65h21.899v145.606c0,9.496,7.697,17.193,17.192,17.193h206.33
		c9.495,0,17.192-7.697,17.192-17.193V294.65h21.899v30.853c0,11.982,9.713,21.696,21.696,21.696h20.655
		c11.983,0,21.696-9.714,21.696-21.696V165.669C462.303,153.687,452.59,143.974,440.607,143.974z M170.027,88.935h171.945v55.039
		H170.027V88.935z M341.973,423.064H170.027V294.65h171.945V423.064z"/>
</g>
</svg>
