<?xml version="1.0" encoding="iso-8859-1"?>
<!-- Generator: Adobe Illustrator 16.0.0, SVG Export Plug-In . SVG Version: 6.00 Build 0)  -->
<!DOCTYPE svg PUBLIC "-//W3C//DTD SVG 1.1//EN" "http://www.w3.org/Graphics/SVG/1.1/DTD/svg11.dtd">
<svg version="1.1" id="Layer_1" xmlns="http://www.w3.org/2000/svg" xmlns:xlink="http://www.w3.org/1999/xlink" x="0px" y="0px"
	 width="512px" height="512px" viewBox="0 0 512 512" style="enable-background:new 0 0 512 512;" xml:space="preserve">
<path d="M406.13,74.082H105.868c-12.689,0-22.975,10.287-22.975,22.975v107.682c0,12.689,10.285,22.977,22.975,22.977h42.055v84.705
	v107.682c0,9.84,7.975,17.816,17.814,17.816h180.525c9.838,0,17.814-7.977,17.814-17.816V312.42v-84.705h42.053
	c12.689,0,22.977-10.287,22.977-22.977V97.057C429.106,84.369,418.819,74.082,406.13,74.082z M328.446,402.287H183.552v-72.051
	h144.895V402.287z M328.446,294.605H183.552v-66.891h144.895V294.605z M383.155,181.764H128.845v-61.73h254.311V181.764z"/>
</svg>
