<?xml version="1.0" encoding="iso-8859-1"?>
<!-- Generator: Adobe Illustrator 16.0.0, SVG Export Plug-In . SVG Version: 6.00 Build 0)  -->
<!DOCTYPE svg PUBLIC "-//W3C//DTD SVG 1.1//EN" "http://www.w3.org/Graphics/SVG/1.1/DTD/svg11.dtd">
<svg version="1.1" id="Layer_1" xmlns="http://www.w3.org/2000/svg" xmlns:xlink="http://www.w3.org/1999/xlink" x="0px" y="0px"
	 width="512px" height="512px" viewBox="0 0 512 512" style="enable-background:new 0 0 512 512;" xml:space="preserve">
<path d="M402.747,109.253C363.55,70.055,311.435,48.468,256,48.468c-55.434,0-107.55,21.587-146.747,60.785
	C70.056,148.45,48.468,200.566,48.468,256s21.588,107.55,60.785,146.747S200.566,463.532,256,463.532
	c55.435,0,107.55-21.588,146.747-60.785c39.198-39.197,60.785-91.313,60.785-146.747S441.945,148.45,402.747,109.253z M256,388.386
	c-22.863,0-44.391-5.827-63.178-16.072l179.492-179.491c10.245,18.787,16.072,40.314,16.072,63.178
	C388.387,328.998,328.998,388.386,256,388.386z M256,123.613c22.863,0,44.391,5.827,63.178,16.073L139.687,319.178
	c-10.245-18.787-16.072-40.314-16.072-63.178C123.614,183.002,183.002,123.613,256,123.613z"/>
</svg>
