<?xml version="1.0" encoding="iso-8859-1"?>
<!-- Generator: Adobe Illustrator 16.0.0, SVG Export Plug-In . SVG Version: 6.00 Build 0)  -->
<!DOCTYPE svg PUBLIC "-//W3C//DTD SVG 1.1//EN" "http://www.w3.org/Graphics/SVG/1.1/DTD/svg11.dtd">
<svg version="1.1" id="Layer_1" xmlns="http://www.w3.org/2000/svg" xmlns:xlink="http://www.w3.org/1999/xlink" x="0px" y="0px"
	 width="512px" height="512px" viewBox="0 0 512 512" style="enable-background:new 0 0 512 512;" xml:space="preserve">
<path d="M453.067,86.658C366.648,58.328,262.588,41.989,258.2,41.307c-1.457-0.227-2.942-0.227-4.399,0
	c-4.388,0.682-108.448,17.021-194.867,45.351c-5.886,1.93-9.866,7.423-9.866,13.617c0,55.55,10.479,109.505,31.148,160.366
	c16.504,40.612,39.494,79.316,68.333,115.037c49.09,60.805,97.785,91.708,99.834,92.994c2.329,1.462,4.973,2.192,7.617,2.192
	s5.289-0.73,7.617-2.192c2.049-1.286,50.744-32.189,99.834-92.994c28.839-35.72,51.83-74.425,68.333-115.037
	c20.669-50.861,31.148-104.816,31.148-160.366C462.933,94.081,458.953,88.587,453.067,86.658z M399.256,137.773
	c-6.729,72.401-34.648,139.685-83.081,200.141c-12.467,15.562-25.021,28.927-36.286,39.877l0.021-267.155
	C308.268,115.922,354.56,125.322,399.256,137.773z"/>
</svg>
