<?xml version="1.0" encoding="iso-8859-1"?>
<!-- Generator: Adobe Illustrator 16.0.0, SVG Export Plug-In . SVG Version: 6.00 Build 0)  -->
<!DOCTYPE svg PUBLIC "-//W3C//DTD SVG 1.1//EN" "http://www.w3.org/Graphics/SVG/1.1/DTD/svg11.dtd">
<svg version="1.1" id="Layer_1" xmlns="http://www.w3.org/2000/svg" xmlns:xlink="http://www.w3.org/1999/xlink" x="0px" y="0px"
	 width="512px" height="512px" viewBox="0 0 512 512" style="enable-background:new 0 0 512 512;" xml:space="preserve">
<path d="M403.124,69.376c-7.251-5.869-16.765-8.156-25.888-6.211l-188.602,40.133c-14.275,3.037-24.48,15.645-24.48,30.238v187.75
	c-0.862-0.035-1.725-0.064-2.595-0.064c-35.427,0-64.146,28.719-64.146,64.145c0,35.428,28.72,64.146,64.146,64.146
	s64.276-28.719,64.276-64.146l0.149-226.801l126.771-26.977v146.924c-0.774-0.027-1.55-0.059-2.332-0.059
	c-35.427,0-64.146,28.721-64.146,64.146c0,35.428,28.719,64.146,64.146,64.146s64.146-28.719,64.146-64.146l0.017-249.197
	C414.587,84.073,410.374,75.245,403.124,69.376z"/>
</svg>
