<?xml version="1.0" encoding="iso-8859-1"?>
<!-- Generator: Adobe Illustrator 16.0.0, SVG Export Plug-In . SVG Version: 6.00 Build 0)  -->
<!DOCTYPE svg PUBLIC "-//W3C//DTD SVG 1.1//EN" "http://www.w3.org/Graphics/SVG/1.1/DTD/svg11.dtd">
<svg version="1.1" id="Layer_1" xmlns="http://www.w3.org/2000/svg" xmlns:xlink="http://www.w3.org/1999/xlink" x="0px" y="0px"
	 width="512px" height="512px" viewBox="0 0 512 512" style="enable-background:new 0 0 512 512;" xml:space="preserve">
<path d="M403.515,108.666c-81.37-81.47-213.378-81.551-294.849-0.182c-81.47,81.371-81.552,213.379-0.181,294.85
	c81.369,81.47,213.378,81.551,294.849,0.181C484.804,322.146,484.886,190.137,403.515,108.666z M256.064,382.304
	c-11.028,0-19.968-8.939-19.968-19.967c0-11.029,8.939-19.969,19.968-19.969s19.968,8.939,19.968,19.969
	C276.032,373.364,267.093,382.304,256.064,382.304z M288.528,262.077c-11.406,6.668-12.381,14.871-12.43,38.508
	c-0.003,1.563-0.007,3.139-0.016,4.725c-0.072,11.172-9.148,20.18-20.304,20.18c-0.044,0-0.088,0-0.131,0
	c-11.215-0.071-20.248-9.22-20.178-20.436c0.01-1.528,0.013-3.046,0.016-4.551c0.05-24.293,0.111-54.525,32.547-73.485
	c26.026-15.214,29.306-25.208,26.254-38.322c-3.586-15.404-17.653-19.396-28.63-18.141c-3.686,0.423-22.069,3.456-22.069,21.642
	c0,11.213-9.092,20.306-20.307,20.306s-20.306-9.093-20.306-20.306c0-32.574,23.87-58.065,58.048-61.989
	c35.2-4.038,65.125,16.226,72.817,49.282C345.335,228.871,304.065,252.995,288.528,262.077z"/>
</svg>
