<?xml version="1.0" encoding="iso-8859-1"?>
<!-- Generator: Adobe Illustrator 16.0.0, SVG Export Plug-In . SVG Version: 6.00 Build 0)  -->
<!DOCTYPE svg PUBLIC "-//W3C//DTD SVG 1.1//EN" "http://www.w3.org/Graphics/SVG/1.1/DTD/svg11.dtd">
<svg version="1.1" id="Layer_1" xmlns="http://www.w3.org/2000/svg" xmlns:xlink="http://www.w3.org/1999/xlink" x="0px" y="0px"
	 width="512px" height="512px" viewBox="0 0 512 512" style="enable-background:new 0 0 512 512;" xml:space="preserve">
<path d="M412.006,100.186c-86.054-86.161-225.661-86.246-311.821-0.192c-86.16,86.056-86.247,225.661-0.191,311.822
	c86.053,86.158,225.661,86.245,311.821,0.19C497.975,325.952,498.062,186.346,412.006,100.186z M131.283,235.91
	c0.482-3.9,2.153-10.057,2.397-10.943c7.501-28.359,24.128-54.332,46.821-73.141c23.007-19.068,52.085-30.584,81.88-32.424
	c2.869-0.178,5.788-0.268,8.675-0.268c21.354,0,42.629,4.843,61.859,14.047l25.991-21.35c1.406-1.153,3.146-1.757,4.909-1.757
	c0.916,0,1.836,0.163,2.72,0.495c2.587,0.972,4.457,3.25,4.908,5.976l9.226,114.8c0.451,2.726-0.586,5.484-2.721,7.238
	c-2.135,1.753-5.042,2.235-7.628,1.263l-109.896-32.237c-2.586-0.972-4.457-3.249-4.908-5.975s0.586-5.484,2.721-7.238
	l24.876-20.307c-5.756-0.79-11.623-1.017-17.396-0.661c-18.434,1.14-36.432,8.269-50.675,20.074
	c-14.088,11.676-24.401,27.774-29.04,45.33c-0.896,3.394-3.966,5.758-7.476,5.758h-39.57c-2.216,0-4.325-0.951-5.792-2.61
	C131.697,240.319,131.013,238.109,131.283,235.91z M380.716,276.09c-0.481,3.9-2.152,10.057-2.396,10.943
	c-7.502,28.359-24.129,54.332-46.822,73.141c-23.007,19.068-52.085,30.584-81.88,32.424c-2.87,0.178-5.788,0.268-8.675,0.268
	c-21.354,0-42.629-4.843-61.859-14.047l-25.991,21.35c-1.405,1.153-3.146,1.757-4.909,1.757c-0.916,0-1.836-0.163-2.72-0.495
	c-2.587-0.972-4.457-3.25-4.908-5.976l-9.226-114.8c-0.451-2.726,0.586-5.484,2.721-7.238c2.134-1.753,5.042-2.235,7.628-1.263
	l109.896,32.237c2.586,0.972,4.458,3.249,4.909,5.975s-0.586,5.485-2.721,7.238l-24.876,20.307
	c5.755,0.79,11.622,1.017,17.395,0.661c18.434-1.14,36.432-8.269,50.675-20.074c14.088-11.676,24.401-27.774,29.041-45.33
	c0.896-3.394,3.966-5.758,7.475-5.758h39.57c2.216,0,4.326,0.951,5.793,2.61C380.303,271.681,380.988,273.891,380.716,276.09z"/>
</svg>
