<?xml version="1.0" encoding="iso-8859-1"?>
<!-- Generator: Adobe Illustrator 16.0.0, SVG Export Plug-In . SVG Version: 6.00 Build 0)  -->
<!DOCTYPE svg PUBLIC "-//W3C//DTD SVG 1.1//EN" "http://www.w3.org/Graphics/SVG/1.1/DTD/svg11.dtd">
<svg version="1.1" id="Layer_1" xmlns="http://www.w3.org/2000/svg" xmlns:xlink="http://www.w3.org/1999/xlink" x="0px" y="0px"
	 width="512px" height="512px" viewBox="0 0 512 512" style="enable-background:new 0 0 512 512;" xml:space="preserve">
<path d="M412.007,100.186c-86.055-86.16-225.661-86.246-311.822-0.191c-86.159,86.055-86.246,225.66-0.19,311.822
	c86.053,86.158,225.661,86.244,311.821,0.189C497.976,325.953,498.062,186.346,412.007,100.186z M255.999,403.174
	c-81.199,0-147.26-66.061-147.26-147.259c0-25.983,6.87-51.536,19.87-73.894l-11.404-13.016c-1.649-1.881-2.167-4.499-1.364-6.865
	c0.805-2.367,2.813-4.127,5.266-4.613l77.536-16.767c2.451-0.486,4.978,0.372,6.625,2.253c1.647,1.879,2.169,4.494,1.362,6.863
	l-22.781,79.086c-0.805,2.367-2.811,4.125-5.264,4.613c-2.452,0.486-4.979-0.371-6.626-2.253l-10.795-12.153
	c-4.537,11.709-6.838,24.07-6.838,36.744c0,56.063,45.61,101.672,101.673,101.673c56.064,0,101.674-45.609,101.674-101.674
	c0-53.487-41.782-98.056-95.121-101.464c-3.684-0.234-6.553-3.291-6.553-6.984v-31.642c0-1.915,0.787-3.748,2.175-5.069
	c1.388-1.32,3.257-2.016,5.17-1.92c37.723,1.861,72.93,18.004,99.137,45.45c26.298,27.542,40.78,63.634,40.78,101.63
	C403.261,337.113,337.198,403.174,255.999,403.174z"/>
</svg>
