<?xml version="1.0" encoding="iso-8859-1"?>
<!-- Generator: Adobe Illustrator 16.0.0, SVG Export Plug-In . SVG Version: 6.00 Build 0)  -->
<!DOCTYPE svg PUBLIC "-//W3C//DTD SVG 1.1//EN" "http://www.w3.org/Graphics/SVG/1.1/DTD/svg11.dtd">
<svg version="1.1" id="Layer_1" xmlns="http://www.w3.org/2000/svg" xmlns:xlink="http://www.w3.org/1999/xlink" x="0px" y="0px"
	 width="512px" height="512px" viewBox="0 0 512 512" style="enable-background:new 0 0 512 512;" xml:space="preserve">
<path d="M474.453,372.342c-0.295-0.294-0.601-0.564-0.921-0.815L275.423,191.423l9.429-9.427c5.135-5.137,5.135-13.462,0-18.6
	l-1.128-1.127c19.123-13.951,48.235-29.507,89.661-38.031c2.567-0.528,4.862-1.796,6.648-3.582c0.009-0.006,0.014-0.012,0.018-0.018
	c5.137-5.138,5.136-13.463,0-18.6c-0.208-0.209-0.422-0.409-0.642-0.602c-27.111-26.785-59.455-37.635-96.147-32.244
	c-25.784,3.787-49.278,15.263-66.584,26.029l-2.497-2.498c-5.136-5.134-13.463-5.135-18.599,0l-77.485,77.485
	c-5.136-5.134-13.462-5.134-18.598,0l-61.084,61.085c-5.135,5.136-5.135,13.463,0,18.598l89.271,89.27
	c5.135,5.135,13.461,5.136,18.597,0l61.084-61.084c5.135-5.135,5.135-13.462,0-18.598l17.325-17.323l180.603,198.657
	c1.874,2.061,4.51,3.266,7.294,3.332c2.786,0.066,5.476-1.011,7.446-2.98l54.397-54.399c0.007-0.005,0.013-0.012,0.02-0.019
	C478.43,382.77,478.43,376.32,474.453,372.342z"/>
</svg>
