<?xml version="1.0" encoding="iso-8859-1"?>
<!-- Generator: Adobe Illustrator 16.0.0, SVG Export Plug-In . SVG Version: 6.00 Build 0)  -->
<!DOCTYPE svg PUBLIC "-//W3C//DTD SVG 1.1//EN" "http://www.w3.org/Graphics/SVG/1.1/DTD/svg11.dtd">
<svg version="1.1" id="Layer_1" xmlns="http://www.w3.org/2000/svg" xmlns:xlink="http://www.w3.org/1999/xlink" x="0px" y="0px"
	 width="512px" height="512px" viewBox="0 0 512 512" style="enable-background:new 0 0 512 512;" xml:space="preserve">
<path d="M47.511,256c0,115.146,93.344,208.489,208.489,208.489S464.489,371.146,464.489,256S371.146,47.511,256,47.511
	S47.511,140.854,47.511,256z M245.037,174.751l118.21,68.259c4.641,2.68,7.499,7.631,7.499,12.99s-2.858,10.31-7.499,12.99
	l-118.21,68.259c-4.641,2.68-10.359,2.68-15,0.001c-4.642-2.68-7.501-7.631-7.501-12.991V291h-66.282c-8.284,0-15-6.716-15-15v-40
	c0-8.284,6.716-15,15-15h66.282v-33.259c0-5.359,2.859-10.311,7.501-12.991C234.678,172.071,240.396,172.071,245.037,174.751z"/>
</svg>
