<?xml version="1.0" encoding="iso-8859-1"?>
<!-- Generator: Adobe Illustrator 16.0.0, SVG Export Plug-In . SVG Version: 6.00 Build 0)  -->
<!DOCTYPE svg PUBLIC "-//W3C//DTD SVG 1.1//EN" "http://www.w3.org/Graphics/SVG/1.1/DTD/svg11.dtd">
<svg version="1.1" id="Layer_1" xmlns="http://www.w3.org/2000/svg" xmlns:xlink="http://www.w3.org/1999/xlink" x="0px" y="0px"
	 width="512px" height="512px" viewBox="0 0 512 512" style="enable-background:new 0 0 512 512;" xml:space="preserve">
<g>
	<path d="M276,69h-40V53.755h-82.783v404.49H236V443h40v15.245h82.782V53.755H276V69z M276,380.666h-40v-93.5h40V380.666z
		 M276,224.833h-40v-93.5h40V224.833z"/>
	<path d="M449.916,253.576l-49.383-41.764c-0.584-0.494-1.314-0.751-2.051-0.751c-0.451,0-0.908,0.097-1.336,0.295
		c-1.121,0.521-1.838,1.645-1.838,2.88v83.528c0,1.235,0.717,2.359,1.838,2.879c1.123,0.521,2.443,0.342,3.387-0.456l49.383-41.763
		c0.713-0.603,1.125-1.489,1.125-2.425C451.041,255.066,450.629,254.18,449.916,253.576z"/>
	<path d="M114.852,211.356c-0.426-0.198-0.883-0.295-1.334-0.295c-0.736,0-1.467,0.257-2.051,0.751l-49.383,41.764
		c-0.713,0.604-1.125,1.49-1.125,2.424c0,0.936,0.412,1.822,1.125,2.425l49.383,41.763c0.941,0.798,2.264,0.978,3.385,0.456
		c1.123-0.52,1.84-1.644,1.84-2.879v-83.528C116.691,213.001,115.975,211.877,114.852,211.356z"/>
</g>
</svg>
