<?xml version="1.0" encoding="iso-8859-1"?>
<!-- Generator: Adobe Illustrator 16.0.0, SVG Export Plug-In . SVG Version: 6.00 Build 0)  -->
<!DOCTYPE svg PUBLIC "-//W3C//DTD SVG 1.1//EN" "http://www.w3.org/Graphics/SVG/1.1/DTD/svg11.dtd">
<svg version="1.1" id="Layer_1" xmlns="http://www.w3.org/2000/svg" xmlns:xlink="http://www.w3.org/1999/xlink" x="0px" y="0px"
	 width="512px" height="512px" viewBox="0 0 512 512" style="enable-background:new 0 0 512 512;" xml:space="preserve">
<g>
	<path d="M387.046,91.792h-13.559V72.317c0-6.266-5.08-11.346-11.346-11.346H149.86c-6.267,0-11.347,5.08-11.347,11.346v19.475
		h-13.56c-6.266,0-11.346,5.08-11.346,11.346v40.846c0,6.266,5.08,11.346,11.346,11.346h19.333h223.425h19.334
		c6.266,0,11.346-5.08,11.346-11.346v-40.846C398.392,96.873,393.312,91.792,387.046,91.792z"/>
	<path d="M167.272,440.551c0.453,5.913,5.385,10.478,11.313,10.478h154.83c5.929,0,10.857-4.565,11.312-10.478l20.123-262.189
		H147.149L167.272,440.551z"/>
</g>
</svg>
