<?xml version="1.0" encoding="iso-8859-1"?>
<!-- Generator: Adobe Illustrator 16.0.0, SVG Export Plug-In . SVG Version: 6.00 Build 0)  -->
<!DOCTYPE svg PUBLIC "-//W3C//DTD SVG 1.1//EN" "http://www.w3.org/Graphics/SVG/1.1/DTD/svg11.dtd">
<svg version="1.1" id="Layer_1" xmlns="http://www.w3.org/2000/svg" xmlns:xlink="http://www.w3.org/1999/xlink" x="0px" y="0px"
	 width="512px" height="512px" viewBox="0 0 512 512" style="enable-background:new 0 0 512 512;" xml:space="preserve">
<g>
	<path d="M139.506,440.542c0.461,11.01,9.521,19.699,20.539,19.699h191.91c11.019,0,20.078-8.689,20.54-19.699l13.704-289.316
		H125.801L139.506,440.542z M299.413,223.087c0-4.61,3.738-8.349,8.349-8.349h13.356c4.61,0,8.349,3.738,8.349,8.349V388.38
		c0,4.611-3.738,8.349-8.349,8.349h-13.356c-4.61,0-8.349-3.737-8.349-8.349V223.087z M240.974,223.087
		c0-4.61,3.738-8.349,8.349-8.349h13.355c4.61,0,8.349,3.738,8.349,8.349V388.38c0,4.611-3.738,8.349-8.349,8.349h-13.355
		c-4.61,0-8.349-3.737-8.349-8.349V223.087z M182.533,223.087c0-4.61,3.738-8.349,8.349-8.349h13.356
		c4.61,0,8.349,3.738,8.349,8.349V388.38c0,4.611-3.738,8.349-8.349,8.349h-13.356c-4.61,0-8.349-3.737-8.349-8.349V223.087z"/>
	<path d="M395.325,72.801H306.79V56.063c0-2.377-1.927-4.305-4.305-4.305h-92.971c-2.377,0-4.304,1.928-4.304,4.305v16.737h-88.536
		c-7.125,0-12.9,5.776-12.9,12.901v40.527h304.451V85.702C408.226,78.577,402.45,72.801,395.325,72.801z"/>
</g>
</svg>
