<?xml version="1.0" encoding="iso-8859-1"?>
<!-- Generator: Adobe Illustrator 16.0.0, SVG Export Plug-In . SVG Version: 6.00 Build 0)  -->
<!DOCTYPE svg PUBLIC "-//W3C//DTD SVG 1.1//EN" "http://www.w3.org/Graphics/SVG/1.1/DTD/svg11.dtd">
<svg version="1.1" id="Layer_1" xmlns="http://www.w3.org/2000/svg" xmlns:xlink="http://www.w3.org/1999/xlink" x="0px" y="0px"
	 width="512px" height="512px" viewBox="0 0 512 512" style="enable-background:new 0 0 512 512;" xml:space="preserve">
<g>
	<path d="M454.567,136.46L375.54,57.433c-3.188-3.189-7.514-4.981-12.024-4.981H69.457c-9.392,0-17.005,7.614-17.005,17.005v373.086
		c0,9.392,7.613,17.005,17.005,17.005h373.086c9.392,0,17.005-7.613,17.005-17.005V148.484
		C459.548,143.975,457.757,139.649,454.567,136.46z M353.116,216.019H119.581V91.314h233.535V216.019z"/>
	<path d="M266.503,200.612h43.08c3.131,0,5.668-2.538,5.668-5.669v-82.907c0-3.13-2.537-5.668-5.668-5.668h-43.08
		c-3.131,0-5.668,2.538-5.668,5.668v82.907C260.835,198.074,263.372,200.612,266.503,200.612z"/>
</g>
</svg>
