<?xml version="1.0" encoding="iso-8859-1"?>
<!-- Generator: Adobe Illustrator 16.0.0, SVG Export Plug-In . SVG Version: 6.00 Build 0)  -->
<!DOCTYPE svg PUBLIC "-//W3C//DTD SVG 1.1//EN" "http://www.w3.org/Graphics/SVG/1.1/DTD/svg11.dtd">
<svg version="1.1" id="Layer_1" xmlns="http://www.w3.org/2000/svg" xmlns:xlink="http://www.w3.org/1999/xlink" x="0px" y="0px"
	 width="512px" height="512px" viewBox="0 0 512 512" style="enable-background:new 0 0 512 512;" xml:space="preserve">
<path d="M423.971,76.304c-12.274-13.016-29.293-21.064-47.158-22.184c-10.617-0.666-21.344,1.063-31.194,5.084
	c-9.033,3.688-16.489,9.738-23.983,15.918c-19.519,16.096-46.131,48.27-65.635,72.959c-19.504-24.689-46.118-56.863-65.636-72.959
	c-7.493-6.18-14.949-12.23-23.982-15.918c-9.851-4.021-20.577-5.75-31.194-5.084c-17.865,1.119-34.884,9.168-47.158,22.184
	c-12.353,13.098-19.357,30.668-19.357,48.676s7.004,35.578,19.357,48.676c12.274,13.018,29.293,21.066,47.158,22.184
	c18.665,1.17,37.299-5.205,51.333-17.563c10.927-9.625,18.776-22.56,22.179-36.724c4.123,6.367,14.387,23.238,22.87,37.885
	c-0.149,0.184-0.289,0.352-0.416,0.506c-4.077,4.904-32.724,46.67-48.653,76.058c-20.164,37.198-18.751,149.448-5.74,195.409
	c1.09,3.849,4.756,6.326,8.852,6.588c4.813,0.309,9.509-2.663,10.34-7.287c15.714-87.512,36.864-131.336,60.049-180.084
	c23.184,48.748,44.333,92.572,60.049,180.084c0.831,4.624,5.527,7.596,10.34,7.287c4.095-0.262,7.762-2.739,8.852-6.588
	c13.009-45.961,14.424-158.211-5.74-195.409c-15.93-29.388-44.576-71.153-48.653-76.058c-0.128-0.154-0.267-0.322-0.416-0.506
	c8.482-14.646,18.747-31.518,22.869-37.885c3.403,14.164,11.253,27.099,22.18,36.724c14.034,12.358,32.668,18.733,51.333,17.563
	c17.865-1.117,34.884-9.166,47.158-22.184c12.354-13.098,19.357-30.668,19.357-48.676S436.323,89.401,423.971,76.304z
	 M175.065,145.657c-7.303,12.453-20.949,20.322-35.394,20.322c-18.217,0-34.691-12.549-39.533-30.113
	c-4.888-17.729,3.016-36.992,18.855-46.281c15.902-9.324,36.636-6.601,49.653,6.418
	C181.668,109.021,184.391,129.755,175.065,145.657z M411.861,135.866c-4.842,17.564-21.316,30.113-39.533,30.113
	c-14.444,0-28.091-7.869-35.394-20.322c-9.325-15.902-6.603-36.637,6.417-49.654c13.018-13.019,33.752-15.742,49.654-6.418
	C408.846,98.874,416.749,118.138,411.861,135.866z"/>
</svg>
