<?xml version="1.0" encoding="iso-8859-1"?>
<!-- Generator: Adobe Illustrator 16.0.0, SVG Export Plug-In . SVG Version: 6.00 Build 0)  -->
<!DOCTYPE svg PUBLIC "-//W3C//DTD SVG 1.1//EN" "http://www.w3.org/Graphics/SVG/1.1/DTD/svg11.dtd">
<svg version="1.1" id="Layer_1" xmlns="http://www.w3.org/2000/svg" xmlns:xlink="http://www.w3.org/1999/xlink" x="0px" y="0px"
	 width="512px" height="512px" viewBox="0 0 512 512" style="enable-background:new 0 0 512 512;" xml:space="preserve">
<path d="M449.812,97.222H62.188c-10.598,0-19.189,8.592-19.189,19.189v279.178c0,10.598,8.592,19.189,19.189,19.189h387.623
	c10.598,0,19.189-8.592,19.189-19.189V116.411C469.001,105.813,460.409,97.222,449.812,97.222z M411.435,124.938
	c9.854,0,17.844,7.988,17.844,17.844c0,9.857-7.99,17.846-17.844,17.846c-9.857,0-17.846-7.988-17.846-17.846
	C393.589,132.927,401.577,124.938,411.435,124.938z M363.46,124.938c9.855,0,17.844,7.988,17.844,17.844
	c0,9.857-7.988,17.846-17.844,17.846s-17.846-7.988-17.846-17.846C345.614,132.927,353.604,124.938,363.46,124.938z
	 M315.487,124.938c9.855,0,17.844,7.988,17.844,17.844c0,9.857-7.988,17.846-17.844,17.846c-9.857,0-17.846-7.988-17.846-17.846
	C297.642,132.927,305.63,124.938,315.487,124.938z M430.622,376.399H81.378V184.55h349.244V376.399z"/>
</svg>
