<?xml version="1.0" encoding="iso-8859-1"?>
<!-- Generator: Adobe Illustrator 16.0.0, SVG Export Plug-In . SVG Version: 6.00 Build 0)  -->
<!DOCTYPE svg PUBLIC "-//W3C//DTD SVG 1.1//EN" "http://www.w3.org/Graphics/SVG/1.1/DTD/svg11.dtd">
<svg version="1.1" id="Layer_1" xmlns="http://www.w3.org/2000/svg" xmlns:xlink="http://www.w3.org/1999/xlink" x="0px" y="0px"
	 width="512px" height="512px" viewBox="0 0 512 512" style="enable-background:new 0 0 512 512;" xml:space="preserve">
<path d="M428.1,87.891H83.9c-11.046,0-20,8.953-20,20v238.1c0,11.045,8.954,20,20,20h117.238v28.119h-7.386c-8.284,0-15,6.717-15,15
	c0,8.285,6.716,15,15,15h124.494c8.284,0,15-6.715,15-15c0-8.283-6.716-15-15-15h-7.386V365.99H428.1c11.046,0,20-8.955,20-20
	v-238.1C448.1,96.844,439.146,87.891,428.1,87.891z M408.1,325.99H103.9v-198.1H408.1V325.99z"/>
</svg>
