<?xml version="1.0" encoding="iso-8859-1"?>
<!-- Generator: Adobe Illustrator 16.0.0, SVG Export Plug-In . SVG Version: 6.00 Build 0)  -->
<!DOCTYPE svg PUBLIC "-//W3C//DTD SVG 1.1//EN" "http://www.w3.org/Graphics/SVG/1.1/DTD/svg11.dtd">
<svg version="1.1" id="Layer_1" xmlns="http://www.w3.org/2000/svg" xmlns:xlink="http://www.w3.org/1999/xlink" x="0px" y="0px"
	 width="512px" height="512px" viewBox="0 0 512 512" style="enable-background:new 0 0 512 512;" xml:space="preserve">
<path d="M440.14,359.989l-99.544-99.545c-5.666-5.666-13.359-8.631-21.393-8.234l5.191-5.189c4.614-4.615,7.155-10.748,7.155-17.271
	c0-6.527-2.542-12.66-7.154-17.271c-4.613-4.615-10.749-7.158-17.274-7.158c-6.524,0-12.659,2.541-17.272,7.156l-22.775,22.775
	L148.562,116.739l-0.863-9.863c-0.263-3.002-1.804-5.746-4.23-7.535L97.744,65.636c-4.181-3.082-9.983-2.645-13.655,1.027
	L66.663,84.089c-3.671,3.672-4.107,9.477-1.027,13.656l33.705,45.725c1.788,2.426,4.533,3.967,7.535,4.229l9.86,0.865
	l118.513,118.51l-22.773,22.775c-4.61,4.609-7.149,10.744-7.149,17.273s2.539,12.664,7.148,17.275
	c4.613,4.613,10.747,7.152,17.271,7.152s12.659-2.541,17.272-7.154l5.191-5.189c-0.404,7.98,2.556,15.713,8.233,21.391
	l99.545,99.545c5.334,5.334,12.427,8.271,19.971,8.271c7.545,0,14.638-2.938,19.97-8.271l40.209-40.211
	c5.336-5.334,8.274-12.426,8.274-19.971S445.474,365.323,440.14,359.989z"/>
</svg>
