<?xml version="1.0" encoding="iso-8859-1"?>
<!-- Generator: Adobe Illustrator 16.0.0, SVG Export Plug-In . SVG Version: 6.00 Build 0)  -->
<!DOCTYPE svg PUBLIC "-//W3C//DTD SVG 1.1//EN" "http://www.w3.org/Graphics/SVG/1.1/DTD/svg11.dtd">
<svg version="1.1" id="Layer_1" xmlns="http://www.w3.org/2000/svg" xmlns:xlink="http://www.w3.org/1999/xlink" x="0px" y="0px"
	 width="512px" height="512px" viewBox="0 0 512 512" style="enable-background:new 0 0 512 512;" xml:space="preserve">
<g>
	<path d="M329.572,400.242v18.512H100.083V93.246h229.488v100.552c10.769,3.958,20.879,9.608,30,16.819v-2.947V73.967
		c0-5.922-4.799-10.721-10.721-10.721H80.804c-5.922,0-10.721,4.799-10.721,10.721v364.066c0,5.922,4.799,10.721,10.721,10.721
		h268.047c5.922,0,10.721-4.799,10.721-10.721v-10.729v-0.576l-27.46-27.46C331.269,399.604,330.422,399.928,329.572,400.242z"/>
	<path d="M439.157,411.438l-69.645-69.644c20.11-34.966,14.566-79.408-14.434-108.409c-35.096-35.096-92.199-35.096-127.295,0
		s-35.096,92.199,0,127.297c29,28.998,73.442,34.542,108.408,14.433l69.644,69.645c3.681,3.681,9.647,3.679,13.329,0l19.992-19.992
		C442.836,421.086,442.836,415.117,439.157,411.438z M325.756,331.358c-18.927,18.925-49.724,18.927-68.65,0
		c-18.927-18.928-18.927-49.725,0-68.651c18.927-18.928,49.724-18.928,68.65,0C344.682,281.635,344.682,312.431,325.756,331.358z"/>
</g>
</svg>
