<?xml version="1.0" encoding="iso-8859-1"?>
<!-- Generator: Adobe Illustrator 16.0.0, SVG Export Plug-In . SVG Version: 6.00 Build 0)  -->
<!DOCTYPE svg PUBLIC "-//W3C//DTD SVG 1.1//EN" "http://www.w3.org/Graphics/SVG/1.1/DTD/svg11.dtd">
<svg version="1.1" id="Layer_1" xmlns="http://www.w3.org/2000/svg" xmlns:xlink="http://www.w3.org/1999/xlink" x="0px" y="0px"
	 width="512px" height="512px" viewBox="0 0 512 512" style="enable-background:new 0 0 512 512;" xml:space="preserve">
<g>
	<path d="M225.892,341.468H110.011c-5.522,0-10,4.478-10,10v44.299c0,5.522,4.478,10,10,10h115.881c5.521,0,10-4.478,10-10v-44.299
		C235.892,345.945,231.413,341.468,225.892,341.468z"/>
	<path d="M401.991,341.468H286.114c-5.522,0-10,4.478-10,10v44.299c0,5.522,4.478,10,10,10h115.877c5.522,0,10-4.478,10-10v-44.299
		C411.991,345.945,407.514,341.468,401.991,341.468z"/>
	<path d="M225.892,237.233H110.011c-5.522,0-10,4.478-10,10v44.301c0,5.522,4.478,10,10,10h115.881c5.521,0,10-4.478,10-10v-44.301
		C235.892,241.711,231.413,237.233,225.892,237.233z"/>
	<path d="M401.991,237.233H286.114c-5.522,0-10,4.478-10,10v44.301c0,5.522,4.478,10,10,10h115.877c5.522,0,10-4.478,10-10v-44.301
		C411.991,241.711,407.514,237.233,401.991,237.233z"/>
	<path d="M233.522,187.291v-71.058c0-5.522-4.478-10-10-10H51.098c-5.522,0-10,4.478-10,10v71.058c0,5.522,4.478,10,10,10h172.425
		C229.045,197.291,233.522,192.813,233.522,187.291z"/>
	<path d="M460.902,106.233H288.483c-5.522,0-10,4.478-10,10v71.058c0,5.522,4.478,10,10,10h172.419c5.522,0,10-4.478,10-10v-71.058
		C470.902,110.711,466.425,106.233,460.902,106.233z"/>
</g>
</svg>
