<?xml version="1.0" encoding="iso-8859-1"?>
<!-- Generator: Adobe Illustrator 16.0.0, SVG Export Plug-In . SVG Version: 6.00 Build 0)  -->
<!DOCTYPE svg PUBLIC "-//W3C//DTD SVG 1.1//EN" "http://www.w3.org/Graphics/SVG/1.1/DTD/svg11.dtd">
<svg version="1.1" id="Layer_1" xmlns="http://www.w3.org/2000/svg" xmlns:xlink="http://www.w3.org/1999/xlink" x="0px" y="0px"
	 width="512px" height="512px" viewBox="0 0 512 512" style="enable-background:new 0 0 512 512;" xml:space="preserve">
<path d="M461.166,273.792h-17.2V92.688c0-10.563-8.593-19.155-19.156-19.155H87.192c-10.563,0-19.158,8.593-19.158,19.155v181.104
	h-17.2c-10.597,0-19.188,8.592-19.188,19.188V419.28c0,10.598,8.591,19.188,19.188,19.188h204.563c0.152,0,0.303-0.002,0.455-0.006
	h0.099l0.484,0.006c0.073,0,0.146,0,0.22,0h204.511c10.597,0,19.188-8.59,19.188-19.188V292.979
	C480.354,282.384,471.763,273.792,461.166,273.792z M232.48,393.733H73.557v-75.205H232.48V393.733z M236.708,273.792h-130.36
	v-61.473h130.36V273.792z M275.296,212.319h130.358v61.473H275.296V212.319z M438.443,393.733h-158.92v-75.205h158.92V393.733z"/>
</svg>
