<?xml version="1.0" encoding="iso-8859-1"?>
<!-- Generator: Adobe Illustrator 16.0.0, SVG Export Plug-In . SVG Version: 6.00 Build 0)  -->
<!DOCTYPE svg PUBLIC "-//W3C//DTD SVG 1.1//EN" "http://www.w3.org/Graphics/SVG/1.1/DTD/svg11.dtd">
<svg version="1.1" id="Layer_1" xmlns="http://www.w3.org/2000/svg" xmlns:xlink="http://www.w3.org/1999/xlink" x="0px" y="0px"
	 width="512px" height="512px" viewBox="0 0 512 512" style="enable-background:new 0 0 512 512;" xml:space="preserve">
<path d="M448.961,238.115l-28.843-14.435c-1.447-7.383-3.397-14.677-5.826-21.788l17.767-26.912
	c4.202-6.365,4.441-14.421,0.625-21.024c-3.764-6.514-10.935-10.413-18.528-9.957l-32.21,1.954
	c-4.935-5.642-10.258-10.966-15.899-15.899l1.955-32.207c0.463-7.613-3.352-14.713-9.955-18.528
	c-3.039-1.757-6.5-2.686-10.008-2.686c-3.929,0-7.74,1.145-11.019,3.31l-26.913,17.766c-7.111-2.428-14.405-4.379-21.789-5.826
	l-14.434-28.844C270.474,56.224,263.621,51.99,256,51.99s-14.474,4.233-17.886,11.049L223.68,91.882
	c-7.382,1.447-14.675,3.397-21.787,5.826L174.98,79.94c-3.279-2.165-7.09-3.31-11.02-3.31c-3.51,0-6.971,0.93-10.006,2.685
	c-6.603,3.815-10.418,10.915-9.956,18.527l1.955,32.211c-5.642,4.935-10.964,10.257-15.899,15.899L97.856,144
	c-7.574-0.486-14.773,3.436-18.54,9.955c-3.816,6.603-3.577,14.659,0.625,21.026l17.767,26.912
	c-2.428,7.109-4.378,14.404-5.826,21.787l-28.841,14.434c-6.816,3.411-11.05,10.264-11.05,17.886
	c0,7.621,4.234,14.475,11.049,17.885l28.843,14.435c1.447,7.383,3.398,14.678,5.826,21.787L79.941,337.02
	c-4.202,6.365-4.441,14.421-0.626,21.024c3.563,6.165,10.189,9.995,17.294,9.995c0.419,0,0.838-0.013,1.234-0.038l32.21-1.954
	c4.935,5.642,10.257,10.965,15.899,15.899l-1.955,32.207c-0.463,7.613,3.352,14.713,9.957,18.53
	c3.038,1.755,6.498,2.683,10.006,2.683c3.93,0,7.741-1.145,11.017-3.309l26.915-17.766c7.111,2.428,14.405,4.379,21.788,5.826
	l14.434,28.844c3.412,6.814,10.265,11.048,17.885,11.048s14.474-4.233,17.886-11.049l14.434-28.844
	c7.384-1.447,14.678-3.397,21.787-5.825l26.915,17.767c3.279,2.165,7.089,3.309,11.019,3.309c3.509,0,6.969-0.928,10.006-2.684
	c6.604-3.816,10.419-10.916,9.956-18.527l-1.955-32.21c5.642-4.935,10.964-10.258,15.899-15.899L414.142,368
	c0.415,0.026,0.83,0.036,1.31,0.038c10.993-0.035,19.937-9.007,19.937-20c0-4.243-1.307-8.283-3.784-11.708l-17.312-26.224
	c2.428-7.109,4.378-14.404,5.826-21.787l28.843-14.435c6.815-3.41,11.049-10.264,11.049-17.885S455.776,241.525,448.961,238.115z
	 M333.752,255.999c0,42.873-34.879,77.753-77.752,77.753s-77.752-34.88-77.752-77.753c0-42.872,34.879-77.751,77.752-77.751
	S333.752,213.127,333.752,255.999z"/>
</svg>
