<?xml version="1.0" encoding="iso-8859-1"?>
<!-- Generator: Adobe Illustrator 16.0.0, SVG Export Plug-In . SVG Version: 6.00 Build 0)  -->
<!DOCTYPE svg PUBLIC "-//W3C//DTD SVG 1.1//EN" "http://www.w3.org/Graphics/SVG/1.1/DTD/svg11.dtd">
<svg version="1.1" id="Layer_1" xmlns="http://www.w3.org/2000/svg" xmlns:xlink="http://www.w3.org/1999/xlink" x="0px" y="0px"
	 width="512px" height="512px" viewBox="0 0 512 512" style="enable-background:new 0 0 512 512;" xml:space="preserve">
<path d="M373.575,123.87V80.128c0-5.522-4.477-10-10-10H193.599c0-4.35-3.525-7.875-7.875-7.875h-13.75
	c-4.352,0-7.877,3.525-7.877,7.875H140.55c-5.521,0-10,4.478-10,10v359.619c0,5.522,4.479,10,10,10h223.025c5.523,0,10-4.478,10-10
	V221.203c4.35,0,7.875-3.526,7.875-7.876v-81.58C381.45,127.396,377.925,123.87,373.575,123.87z M252.062,429.548
	c-12.426,0-22.498-10.073-22.498-22.499s10.072-22.499,22.498-22.499s22.5,10.073,22.5,22.499S264.487,429.548,252.062,429.548z
	 M336.575,366.653H167.55V107.128h169.025V366.653z"/>
</svg>
