<?xml version="1.0" encoding="iso-8859-1"?>
<!-- Generator: Adobe Illustrator 16.0.0, SVG Export Plug-In . SVG Version: 6.00 Build 0)  -->
<!DOCTYPE svg PUBLIC "-//W3C//DTD SVG 1.1//EN" "http://www.w3.org/Graphics/SVG/1.1/DTD/svg11.dtd">
<svg version="1.1" id="Layer_1" xmlns="http://www.w3.org/2000/svg" xmlns:xlink="http://www.w3.org/1999/xlink" x="0px" y="0px"
	 width="512px" height="512px" viewBox="0 0 512 512" style="enable-background:new 0 0 512 512;" xml:space="preserve">
<path d="M432.661,290.534c-29.559-29.561-73.099-36.815-109.528-21.779l-79.888-79.888c15.036-36.43,7.781-79.97-21.778-109.528
	c-25.238-25.238-62.373-35.227-96.912-26.066c-3.458,0.916-6.164,3.611-7.093,7.064c-0.93,3.455,0.056,7.143,2.585,9.672
	l60.653,60.653l-16.032,34.007l-34.006,16.032l-60.654-60.653c-2.529-2.529-6.217-3.516-9.672-2.586
	c-3.453,0.932-6.147,3.636-7.065,7.094c-9.16,34.538,0.829,71.673,26.067,96.911c29.559,29.56,73.099,36.815,109.528,21.778
	l79.888,79.888c-15.036,36.43-7.781,79.97,21.778,109.528c25.238,25.238,62.373,35.227,96.912,26.066
	c3.457-0.917,6.162-3.611,7.093-7.064c0.93-3.455-0.056-7.143-2.585-9.672l-60.653-60.654l16.033-34.006l34.006-16.032
	l60.654,60.653c2.529,2.529,6.217,3.516,9.672,2.585c1.721-0.464,3.252-1.367,4.47-2.585c1.227-1.227,2.135-2.772,2.595-4.508
	C467.888,352.907,457.899,315.771,432.661,290.534z"/>
</svg>
