<?xml version="1.0" encoding="iso-8859-1"?>
<!-- Generator: Adobe Illustrator 16.0.0, SVG Export Plug-In . SVG Version: 6.00 Build 0)  -->
<!DOCTYPE svg PUBLIC "-//W3C//DTD SVG 1.1//EN" "http://www.w3.org/Graphics/SVG/1.1/DTD/svg11.dtd">
<svg version="1.1" id="Layer_1" xmlns="http://www.w3.org/2000/svg" xmlns:xlink="http://www.w3.org/1999/xlink" x="0px" y="0px"
	 width="512px" height="512px" viewBox="0 0 512 512" style="enable-background:new 0 0 512 512;" xml:space="preserve">
<path d="M402.389,256l17.072-17.072c5.116-5.115,7.934-11.916,7.934-19.15s-2.817-14.035-7.932-19.149l-23.368-23.368
	c-5.114-5.113-11.914-7.929-19.147-7.929c-7.23,0-14.031,2.815-19.147,7.931l-17.075,17.074V89.038c0-3.749-2.096-7.183-5.432-8.896
	c-3.334-1.712-7.348-1.416-10.395,0.768L173.838,189.201H94.605c-5.521,0-10,4.477-10,10v113.598c0,5.523,4.479,10,10,10h79.232
	l151.061,108.291c1.732,1.241,3.775,1.873,5.828,1.873c1.561,0,3.127-0.365,4.566-1.104c3.336-1.712,5.432-5.146,5.432-8.896
	V317.664l17.078,17.077c5.113,5.112,11.914,7.927,19.145,7.927h0.002c7.232,0,14.032-2.816,19.148-7.931l23.362-23.363
	c10.56-10.556,10.563-27.735,0.002-38.301L402.389,256z M401.129,285.124c2.578,2.58,2.58,6.763,0,9.343l-21.801,21.8
	c-2.58,2.58-6.762,2.579-9.342,0l-29.125-29.124l-29.123,29.124c-2.58,2.58-6.764,2.58-9.342,0l-21.801-21.8
	c-2.58-2.581-2.58-6.763,0-9.343L309.721,256l-29.125-29.124c-2.58-2.58-2.58-6.762,0-9.342l21.801-21.8
	c2.578-2.58,6.762-2.58,9.342,0l29.123,29.124l29.125-29.124c2.58-2.579,6.762-2.579,9.342,0l21.801,21.8
	c2.58,2.58,2.58,6.763,0,9.342L372.004,256L401.129,285.124z"/>
</svg>
