<?xml version="1.0" encoding="iso-8859-1"?>
<!-- Generator: Adobe Illustrator 16.0.0, SVG Export Plug-In . SVG Version: 6.00 Build 0)  -->
<!DOCTYPE svg PUBLIC "-//W3C//DTD SVG 1.1//EN" "http://www.w3.org/Graphics/SVG/1.1/DTD/svg11.dtd">
<svg version="1.1" id="Layer_1" xmlns="http://www.w3.org/2000/svg" xmlns:xlink="http://www.w3.org/1999/xlink" x="0px" y="0px"
	 width="512px" height="512px" viewBox="0 0 512 512" style="enable-background:new 0 0 512 512;" xml:space="preserve">
<g>
	<path d="M380.536,175.053c-1.032,0-2.021,0.409-2.752,1.14L352.1,201.878c-0.729,0.729-1.14,1.719-1.14,2.75
		c0,1.033,0.41,2.022,1.14,2.751c13.009,13.01,20.175,30.275,20.175,48.62s-7.166,35.611-20.175,48.62
		c-0.729,0.729-1.14,1.72-1.14,2.752c0,1.03,0.41,2.02,1.14,2.75l25.685,25.684c1.52,1.52,3.983,1.52,5.504,0
		c21.35-21.35,33.107-49.691,33.107-79.807c0-30.113-11.758-58.456-33.107-79.807C382.559,175.463,381.568,175.054,380.536,175.053z
		"/>
	<path d="M304.501,109.458c-2.777-1.427-6.123-1.18-8.662,0.64l-125.877,90.238h-66.025c-4.602,0-8.332,3.73-8.332,8.333v94.66
		c0,4.603,3.73,8.333,8.332,8.333h66.025l125.877,90.238c1.443,1.035,3.146,1.561,4.855,1.561c1.301,0,2.607-0.304,3.807-0.92
		c2.779-1.427,4.527-4.289,4.527-7.413V116.871C309.028,113.747,307.28,110.886,304.501,109.458z"/>
</g>
</svg>
