<?xml version="1.0" encoding="iso-8859-1"?>
<!-- Generator: Adobe Illustrator 16.0.0, SVG Export Plug-In . SVG Version: 6.00 Build 0)  -->
<!DOCTYPE svg PUBLIC "-//W3C//DTD SVG 1.1//EN" "http://www.w3.org/Graphics/SVG/1.1/DTD/svg11.dtd">
<svg version="1.1" id="Layer_1" xmlns="http://www.w3.org/2000/svg" xmlns:xlink="http://www.w3.org/1999/xlink" x="0px" y="0px"
	 width="512px" height="512px" viewBox="0 0 512 512" style="enable-background:new 0 0 512 512;" xml:space="preserve">
<path d="M412.814,96.318C370.758,63.298,315.066,45.113,256,45.113S141.242,63.298,99.184,96.318
	C55.957,130.258,32.15,175.742,32.15,224.394c0,48.025,24.391,94.532,67.043,128.06l-20.154,94.582
	c-1.289,6.043,0.881,12.227,5.664,16.14c2.926,2.394,6.621,3.712,10.404,3.712c2.264,0,4.463-0.457,6.539-1.358l143.01-62.081
	c3.803,0.151,7.613,0.228,11.344,0.228c59.066,0,114.756-18.186,156.814-51.206c43.229-33.939,67.035-79.424,67.035-128.075
	S456.043,130.258,412.814,96.318z M380.703,311.568c-32.941,25.863-77.229,40.106-124.627,40.107
	c-0.734-0.012-73.949-1.561-122.873-38.653c-16.461-12.48-28.217-25.908-36.994-42.258c-8.002-14.903-12.059-30.505-12.059-46.371
	c0-15.748,3.846-31.065,11.434-45.528c8.053-15.353,20.068-29.364,35.713-41.646C164.236,111.356,208.523,97.113,256,97.113
	s91.764,14.243,124.703,40.105c15.645,12.283,27.66,26.295,35.713,41.646c7.588,14.464,11.434,29.782,11.434,45.529
	c0,15.748-3.846,31.066-11.434,45.528C408.363,285.275,396.348,299.286,380.703,311.568z"/>
</svg>
