<?xml version="1.0" encoding="iso-8859-1"?>
<!-- Generator: Adobe Illustrator 16.0.0, SVG Export Plug-In . SVG Version: 6.00 Build 0)  -->
<!DOCTYPE svg PUBLIC "-//W3C//DTD SVG 1.1//EN" "http://www.w3.org/Graphics/SVG/1.1/DTD/svg11.dtd">
<svg version="1.1" id="Layer_1" xmlns="http://www.w3.org/2000/svg" xmlns:xlink="http://www.w3.org/1999/xlink" x="0px" y="0px"
	 width="512px" height="512px" viewBox="0 0 512 512" style="enable-background:new 0 0 512 512;" xml:space="preserve">
<path d="M409.727,100.251C368.547,67.919,313.952,50.113,256,50.113s-112.547,17.806-153.728,50.138
	c-41.996,32.972-65.123,77.061-65.123,124.143c0,47.688,24.536,93.246,67.589,126.028l-20.81,97.656
	c-0.893,4.185,0.629,8.518,3.94,11.227c2.079,1.701,4.645,2.582,7.237,2.582c1.538,0,3.087-0.311,4.548-0.945l144.063-62.538
	c4.104,0.18,8.223,0.271,12.282,0.271c57.951,0,112.546-17.807,153.727-50.139c41.996-32.972,65.124-77.06,65.124-124.143
	C474.851,177.312,451.723,133.223,409.727,100.251z M256.001,341.543c-15.709,0-28.49-12.781-28.49-28.49
	c0-15.71,12.781-28.491,28.49-28.491s28.49,12.781,28.49,28.491C284.491,328.762,271.71,341.543,256.001,341.543z M277.869,252.72
	c-0.771,11.446-10.366,20.417-21.843,20.417c-0.499,0-1.002-0.017-1.505-0.051c-10.867-0.738-19.624-9.498-20.355-20.377
	l-6.931-102.056c-0.522-7.686,1.98-15.118,7.049-20.926c5.068-5.806,12.092-9.29,19.779-9.813c0.653-0.044,1.313-0.066,1.962-0.066
	c15.111,0,27.756,11.813,28.778,26.894C285.351,153.35,277.869,252.72,277.869,252.72z"/>
</svg>
