<?xml version="1.0" encoding="iso-8859-1"?>
<!-- Generator: Adobe Illustrator 16.0.0, SVG Export Plug-In . SVG Version: 6.00 Build 0)  -->
<!DOCTYPE svg PUBLIC "-//W3C//DTD SVG 1.1//EN" "http://www.w3.org/Graphics/SVG/1.1/DTD/svg11.dtd">
<svg version="1.1" id="Layer_1" xmlns="http://www.w3.org/2000/svg" xmlns:xlink="http://www.w3.org/1999/xlink" x="0px" y="0px"
	 width="512px" height="512px" viewBox="0 0 512 512" style="enable-background:new 0 0 512 512;" xml:space="preserve">
<path d="M466,64.316H46c-8.284,0-15,6.716-15,15v134c0,8.284,6.716,15,15,15h14.075v199.4c0,11.01,8.959,19.967,19.969,19.967
	h175.813c0.049,0,0.096-0.006,0.145-0.006s0.096,0.006,0.145,0.006h175.813c11.012,0,19.967-8.957,19.967-19.967v-199.4H466
	c8.284,0,15-6.716,15-15v-134C481,71.032,474.284,64.316,466,64.316z M235.892,407.75H100.011v-64.299h135.881V407.75z
	 M235.892,303.518H100.011v-64.301h135.881V303.518z M271,200.816h-30v-109.5h30V200.816z M411.991,407.75H276.114v-64.299h135.877
	V407.75z M411.991,303.518H276.114v-64.301h135.877V303.518z"/>
</svg>
