<?xml version="1.0" encoding="iso-8859-1"?>
<!-- Generator: Adobe Illustrator 16.0.0, SVG Export Plug-In . SVG Version: 6.00 Build 0)  -->
<!DOCTYPE svg PUBLIC "-//W3C//DTD SVG 1.1//EN" "http://www.w3.org/Graphics/SVG/1.1/DTD/svg11.dtd">
<svg version="1.1" id="Layer_1" xmlns="http://www.w3.org/2000/svg" xmlns:xlink="http://www.w3.org/1999/xlink" x="0px" y="0px"
	 width="512px" height="512px" viewBox="0 0 512 512" style="enable-background:new 0 0 512 512;" xml:space="preserve">
<path d="M431.958,79.435H80.044c-11.011,0-19.969,8.957-19.969,19.967v313.197c0,11.01,8.958,19.967,19.969,19.967h175.812
	c0.05,0,0.096-0.006,0.146-0.006c0.048,0,0.096,0.006,0.144,0.006h175.813c11.011,0,19.967-8.957,19.967-19.967V99.401
	C451.925,88.392,442.969,79.435,431.958,79.435z M235.892,392.632H100.011v-64.299h135.881V392.632z M235.892,288.399H100.011
	v-64.301h135.881V288.399z M411.991,392.632H276.113v-64.299h135.878V392.632z M411.991,288.399H276.113v-64.301h135.878V288.399z"
	/>
</svg>
