<?xml version="1.0" encoding="iso-8859-1"?>
<!-- Generator: Adobe Illustrator 16.0.0, SVG Export Plug-In . SVG Version: 6.00 Build 0)  -->
<!DOCTYPE svg PUBLIC "-//W3C//DTD SVG 1.1//EN" "http://www.w3.org/Graphics/SVG/1.1/DTD/svg11.dtd">
<svg version="1.1" id="Layer_1" xmlns="http://www.w3.org/2000/svg" xmlns:xlink="http://www.w3.org/1999/xlink" x="0px" y="0px"
	 width="512px" height="512px" viewBox="0 0 512 512" style="enable-background:new 0 0 512 512;" xml:space="preserve">
<g>
	<path d="M472.665,242.625l-60.284-48.63c-3.553-2.866-8.436-3.437-12.554-1.469c-4.117,1.971-6.739,6.128-6.739,10.692v13.161
		h-35.467c-13.794,19.162-59.475,33.231-113.706,33.231s-99.912-14.069-113.706-33.231c-0.004,0.007-0.007,0.013-0.012,0.019
		l0.001-0.019H45.57c-5.88,0-10.646,4.767-10.646,10.646v48.747c0,5.88,4.766,10.646,10.646,10.646l80.603,0.033l0.003-0.038
		c3.828,23.722,55.074,42.506,117.739,42.506c62.63,0,113.853-18.764,117.73-42.468h31.442v14.029c0,4.563,2.622,8.724,6.739,10.691
		c4.117,1.969,9.001,1.398,12.554-1.467l60.284-48.631c2.789-2.25,4.41-5.641,4.41-9.225S475.454,244.875,472.665,242.625z"/>
	<path d="M243.915,230.604c65.157,0,117.977-20.307,117.977-45.357V130.19c0-25.052-52.819-45.358-117.977-45.358
		s-117.979,20.307-117.979,45.358v55.057C125.937,210.298,178.758,230.604,243.915,230.604z"/>
	<path d="M243.915,347.861c-54.231,0-99.912-14.07-113.706-33.233c-2.779,3.86-4.272,7.925-4.272,12.126v55.057
		c0,25.05,52.821,45.357,117.979,45.357s117.977-20.308,117.977-45.357v-55.057c0-4.201-1.49-8.266-4.271-12.126
		C343.827,333.791,298.146,347.861,243.915,347.861z"/>
</g>
</svg>
