<?xml version="1.0" encoding="iso-8859-1"?>
<!-- Generator: Adobe Illustrator 16.0.0, SVG Export Plug-In . SVG Version: 6.00 Build 0)  -->
<!DOCTYPE svg PUBLIC "-//W3C//DTD SVG 1.1//EN" "http://www.w3.org/Graphics/SVG/1.1/DTD/svg11.dtd">
<svg version="1.1" id="Layer_1" xmlns="http://www.w3.org/2000/svg" xmlns:xlink="http://www.w3.org/1999/xlink" x="0px" y="0px"
	 width="512px" height="512px" viewBox="0 0 512 512" style="enable-background:new 0 0 512 512;" xml:space="preserve">
<g>
	<g>
		<path d="M256.001,136.124c-55.371,0-100.26,17.257-100.26,38.546v46.786c0,21.289,44.889,38.546,100.26,38.546
			s100.258-17.257,100.258-38.546V174.67C356.259,153.381,311.372,136.124,256.001,136.124z"/>
		<path d="M256.001,276.155c-46.087,0-84.907-11.957-96.629-28.24c-2.363,3.278-3.631,6.735-3.631,10.304v46.786
			c0,21.289,44.889,38.546,100.26,38.546s100.258-17.257,100.258-38.546v-46.786c0-3.569-1.266-7.025-3.629-10.304
			C340.908,264.199,302.088,276.155,256.001,276.155z"/>
		<path d="M256.001,359.65c-46.087,0-84.907-11.957-96.629-28.242c-2.363,3.281-3.631,6.735-3.631,10.304V388.5
			c0,21.287,44.889,38.547,100.26,38.547s100.258-17.26,100.258-38.547v-46.788c0-3.569-1.266-7.023-3.629-10.304
			C340.908,347.694,302.088,359.65,256.001,359.65z"/>
	</g>
	<path d="M374.676,84.953c-45.443,0-83.377,12.355-92.316,28.807c18.451,1.846,35.561,5.619,49.734,11.068
		c38.652,14.859,44.422,37.764,44.422,50.096v26.559c51.24-0.377,92.479-16.463,92.479-36.254v-44.014
		C468.994,101.187,426.766,84.953,374.676,84.953z"/>
	<path d="M376.516,216.671v63.408c51.24-0.377,92.479-16.463,92.479-36.252v-44.016c0-3.357-1.191-6.607-3.414-9.693
		C454.707,205.22,419.061,216.359,376.516,216.671z"/>
	<path d="M376.516,295.216v63.408c51.24-0.377,92.479-16.461,92.479-36.252v-44.016c0-3.357-1.191-6.607-3.414-9.693
		C454.707,283.765,419.061,294.904,376.516,295.216z"/>
	<path d="M229.641,113.759c-8.939-16.451-46.873-28.807-92.316-28.807c-52.09,0-94.318,16.234-94.318,36.262v44.014
		c0,19.791,41.238,35.877,92.477,36.254v-26.559c0-12.332,5.771-35.236,44.424-50.096
		C194.08,119.378,211.189,115.605,229.641,113.759z"/>
	<path d="M46.42,190.119c-2.223,3.086-3.414,6.336-3.414,9.693v44.016c0,19.789,41.238,35.875,92.477,36.252v-63.408
		C92.939,216.359,57.291,205.22,46.42,190.119z"/>
	<path d="M46.42,268.664c-2.223,3.086-3.414,6.336-3.414,9.693v44.016c0,19.791,41.238,35.875,92.477,36.252v-63.408
		C92.939,294.904,57.291,283.765,46.42,268.664z"/>
</g>
</svg>
