<?xml version="1.0" encoding="iso-8859-1"?>
<!-- Generator: Adobe Illustrator 16.0.0, SVG Export Plug-In . SVG Version: 6.00 Build 0)  -->
<!DOCTYPE svg PUBLIC "-//W3C//DTD SVG 1.1//EN" "http://www.w3.org/Graphics/SVG/1.1/DTD/svg11.dtd">
<svg version="1.1" id="Layer_1" xmlns="http://www.w3.org/2000/svg" xmlns:xlink="http://www.w3.org/1999/xlink" x="0px" y="0px"
	 width="512px" height="512px" viewBox="0 0 512 512" style="enable-background:new 0 0 512 512;" xml:space="preserve">
<g>
	<path d="M171.748,256.209h-71.496c-5.523,0-10,4.477-10,10v166.022c0,5.523,4.477,10,10,10h71.496c5.523,0,10-4.477,10-10V266.209
		C181.748,260.687,177.271,256.209,171.748,256.209z"/>
	<path d="M291.748,69.768h-71.496c-5.523,0-10,4.477-10,10v352.464c0,5.523,4.477,10,10,10h71.496c5.523,0,10-4.477,10-10V79.768
		C301.748,74.245,297.271,69.768,291.748,69.768z"/>
	<path d="M411.748,185.025h-71.496c-5.523,0-10,4.477-10,10v237.207c0,5.523,4.477,10,10,10h71.496c5.523,0,10-4.477,10-10V195.025
		C421.748,189.502,417.271,185.025,411.748,185.025z"/>
</g>
</svg>
