<?xml version="1.0" encoding="iso-8859-1"?>
<!-- Generator: Adobe Illustrator 16.0.0, SVG Export Plug-In . SVG Version: 6.00 Build 0)  -->
<!DOCTYPE svg PUBLIC "-//W3C//DTD SVG 1.1//EN" "http://www.w3.org/Graphics/SVG/1.1/DTD/svg11.dtd">
<svg version="1.1" id="Layer_1" xmlns="http://www.w3.org/2000/svg" xmlns:xlink="http://www.w3.org/1999/xlink" x="0px" y="0px"
	 width="512px" height="512px" viewBox="0 0 512 512" style="enable-background:new 0 0 512 512;" xml:space="preserve">
<path d="M455.607,228.373c-3.678-26.537-12.961-52.711-26.851-75.692c-13.571-22.455-31.934-42.557-53.098-58.134
	c-21.481-15.808-46.474-27.396-72.278-33.514c-15.064-3.57-30.616-5.381-46.225-5.381c-0.385,0-0.771,0.013-1.156,0.016
	c-0.385-0.003-0.77-0.016-1.156-0.016c-15.607,0-31.16,1.811-46.225,5.381c-25.805,6.117-50.799,17.706-72.277,33.514
	c-21.164,15.577-39.525,35.679-53.097,58.134c-13.89,22.981-23.175,49.155-26.852,75.692c-3.804,27.466-1.819,56.002,5.745,82.523
	c7.252,25.415,19.898,49.799,36.568,70.515c16.494,20.497,37.385,37.979,60.41,50.555c23.664,12.924,50.357,21.062,77.193,23.534
	c6.107,0.563,12.32,0.848,18.467,0.848h2.445c6.148,0,12.361-0.285,18.469-0.848c26.836-2.473,53.527-10.61,77.191-23.534
	c23.026-12.576,43.914-30.058,60.411-50.555c16.671-20.716,29.315-45.1,36.567-70.515
	C457.425,284.375,459.411,255.839,455.607,228.373z M221.502,409.698c-26.398-5.721-51.072-18.324-71.354-36.449
	c-20.141-18.003-35.394-40.938-44.107-66.326c-10.244-29.846-11.169-63.04-2.609-93.468c8.938,7.768,18.547,16.027,28.264,23.806
	c7.611,6.092,15.258,11.93,22.729,17.354c3.699,2.686,7.578,5.405,11.525,8.085c1.929,1.307,3.863,2.591,5.756,3.816
	c0.861,0.56,1.73,1.117,2.594,1.666c0.984,0.624,1.234,0.923,1.681,2.005c7.584,18.401,22.036,31.432,32.827,39.123
	c3.66,2.611,7.479,4.988,11.348,7.063c1.068,0.573,2.148,1.128,3.24,1.662c0.084,1.008,0.172,2.013,0.268,3.012
	c0.205,2.176,0.422,4.346,0.662,6.517c0.982,9.012,2.264,18.323,3.918,28.462c2.938,18.015,6.678,36.497,11.434,56.505
	C239.676,412.53,234.1,412.279,221.502,409.698z M253.445,199.553c-13.793,0-25.855,1.274-36.873,3.897
	c-3.471,0.827-6.793,1.806-9.873,2.908c-1.592,0.568-3.164,1.188-4.67,1.841c-0.685,0.295-1.366,0.603-2.041,0.92
	c-0.719,0.336-1.363,0.065-1.999-0.254c-0.163-0.084-0.341-0.172-0.528-0.254c-7.701-3.424-16.213-6.88-26.01-10.561
	c-17.166-6.452-35.454-12.459-54.354-17.856v-0.001c12.685-22.957,31.079-42.576,53.197-56.737
	c25.254-16.171,54.492-24.718,84.549-24.718h2.313c30.057,0,59.295,8.547,84.549,24.718c22.118,14.161,40.514,33.78,53.197,56.737
	v0.001c-18.898,5.397-37.188,11.404-54.354,17.856c-9.797,3.681-18.307,7.137-26.01,10.561c-0.188,0.082-0.363,0.17-0.527,0.254
	c-0.638,0.319-1.281,0.59-2,0.254c-0.674-0.317-1.355-0.625-2.039-0.92c-1.508-0.652-3.08-1.272-4.672-1.841
	c-3.079-1.103-6.4-2.081-9.872-2.908c-11.018-2.623-23.081-3.897-36.873-3.897H253.445z M405.959,306.923
	c-8.713,25.389-23.967,48.323-44.107,66.326c-20.28,18.125-44.955,30.729-71.352,36.449c-11.934,2.469-18.176,2.832-18.176,2.832
	c4.754-20.008,8.496-38.49,11.435-56.505c1.653-10.139,2.935-19.45,3.919-28.462c0.238-2.171,0.455-4.341,0.661-6.517
	c0.095-0.999,0.183-2.004,0.267-3.012c1.094-0.534,2.17-1.089,3.24-1.662c3.869-2.075,7.688-4.452,11.348-7.063
	c10.791-7.691,25.242-20.722,32.828-39.123c0.445-1.082,0.695-1.381,1.68-2.005c0.863-0.549,1.732-1.106,2.596-1.666
	c1.89-1.226,3.826-2.51,5.754-3.816c3.947-2.68,7.826-5.399,11.525-8.085c7.471-5.424,15.119-11.262,22.727-17.354
	c9.721-7.778,19.329-16.038,28.266-23.806C417.129,243.883,416.203,277.077,405.959,306.923z"/>
</svg>
