<?xml version="1.0" encoding="iso-8859-1"?>
<!-- Generator: Adobe Illustrator 16.0.0, SVG Export Plug-In . SVG Version: 6.00 Build 0)  -->
<!DOCTYPE svg PUBLIC "-//W3C//DTD SVG 1.1//EN" "http://www.w3.org/Graphics/SVG/1.1/DTD/svg11.dtd">
<svg version="1.1" id="Layer_1" xmlns="http://www.w3.org/2000/svg" xmlns:xlink="http://www.w3.org/1999/xlink" x="0px" y="0px"
	 width="512px" height="512px" viewBox="0 0 512 512" style="enable-background:new 0 0 512 512;" xml:space="preserve">
<g>
	<path d="M256.002,75.675c-68.643,0-124.29,21.395-124.29,47.785v58c0,26.393,55.647,47.787,124.29,47.787
		c68.642,0,124.286-21.395,124.286-47.787v-58C380.288,97.069,324.644,75.675,256.002,75.675z"/>
	<path d="M256.002,249.269c-57.133,0-105.257-14.822-119.789-35.01c-2.929,4.066-4.501,8.35-4.501,12.775v58
		c0,26.393,55.647,47.785,124.29,47.785c68.642,0,124.286-21.393,124.286-47.785v-58c0-4.426-1.569-8.709-4.498-12.775
		C361.259,234.446,313.134,249.269,256.002,249.269z"/>
	<path d="M256.002,352.774c-57.133,0-105.257-14.82-119.789-35.01c-2.929,4.066-4.501,8.348-4.501,12.773v58.002
		c0,26.391,55.647,47.785,124.29,47.785c68.642,0,124.286-21.395,124.286-47.785v-58.002c0-4.426-1.569-8.707-4.498-12.773
		C361.259,337.954,313.134,352.774,256.002,352.774z"/>
</g>
</svg>
