<?xml version="1.0" encoding="iso-8859-1"?>
<!-- Generator: Adobe Illustrator 16.0.0, SVG Export Plug-In . SVG Version: 6.00 Build 0)  -->
<!DOCTYPE svg PUBLIC "-//W3C//DTD SVG 1.1//EN" "http://www.w3.org/Graphics/SVG/1.1/DTD/svg11.dtd">
<svg version="1.1" id="Layer_1" xmlns="http://www.w3.org/2000/svg" xmlns:xlink="http://www.w3.org/1999/xlink" x="0px" y="0px"
	 width="512px" height="512px" viewBox="0 0 512 512" style="enable-background:new 0 0 512 512;" xml:space="preserve">
<path d="M435.85,55.846H76.15c-11.215,0-20.305,9.091-20.305,20.305V435.85c0,11.214,9.09,20.305,20.305,20.305H435.85
	c11.215,0,20.305-9.091,20.305-20.305V76.15C456.154,64.937,447.064,55.846,435.85,55.846z M380.209,283.426
	c0.002,6.492-5.262,11.754-11.754,11.753H143.543c-6.492,0.001-11.756-5.262-11.754-11.753v-54.851
	c0-6.492,5.262-11.754,11.754-11.754l224.914,0.001c6.49,0,11.754,5.262,11.754,11.753L380.209,283.426z"/>
</svg>
