<?xml version="1.0" encoding="iso-8859-1"?>
<!-- Generator: Adobe Illustrator 16.0.0, SVG Export Plug-In . SVG Version: 6.00 Build 0)  -->
<!DOCTYPE svg PUBLIC "-//W3C//DTD SVG 1.1//EN" "http://www.w3.org/Graphics/SVG/1.1/DTD/svg11.dtd">
<svg version="1.1" id="Layer_1" xmlns="http://www.w3.org/2000/svg" xmlns:xlink="http://www.w3.org/1999/xlink" x="0px" y="0px"
	 width="512px" height="512px" viewBox="0 0 512 512" style="enable-background:new 0 0 512 512;" xml:space="preserve">
<path d="M467.783,171.813l-85.349-85.406c-2.813-2.815-6.63-4.397-10.61-4.397h-61.125c-3.426,0-6.749,1.173-9.417,3.324
	L256.04,121.82l-45.242-36.486c-2.667-2.151-5.99-3.324-9.417-3.324h-61.112c-3.978,0-7.792,1.58-10.605,4.392l-85.441,85.411
	c-2.814,2.813-4.395,6.628-4.396,10.607c0,3.979,1.58,7.794,4.394,10.608l29.696,29.696c5.857,5.858,15.355,5.858,21.213,0
	l38.91-38.909V414.99c0,8.284,6.716,15,15,15h214c8.284,0,15-6.716,15-15V183.899l38.825,38.824c5.857,5.858,15.354,5.857,21.213,0
	l29.702-29.701C473.636,187.167,473.638,177.671,467.783,171.813z"/>
</svg>
