<?xml version="1.0" encoding="iso-8859-1"?>
<!-- Generator: Adobe Illustrator 16.0.0, SVG Export Plug-In . SVG Version: 6.00 Build 0)  -->
<!DOCTYPE svg PUBLIC "-//W3C//DTD SVG 1.1//EN" "http://www.w3.org/Graphics/SVG/1.1/DTD/svg11.dtd">
<svg version="1.1" id="Layer_1" xmlns="http://www.w3.org/2000/svg" xmlns:xlink="http://www.w3.org/1999/xlink" x="0px" y="0px"
	 width="512px" height="512px" viewBox="0 0 512 512" style="enable-background:new 0 0 512 512;" xml:space="preserve">
<g>
	<path d="M306.885,369.476h-101.77c-3.006,0-5.442,2.438-5.442,5.443v56.055c0,3.006,2.437,5.442,5.442,5.442h101.77
		c3.006,0,5.442-2.437,5.442-5.442v-56.055C312.327,371.913,309.891,369.476,306.885,369.476z"/>
	<path d="M165.381,271.513H63.611c-3.005,0-5.442,2.436-5.442,5.441v56.056c0,3.006,2.438,5.442,5.442,5.442h101.77
		c3.006,0,5.442-2.437,5.442-5.442v-56.056C170.823,273.948,168.387,271.513,165.381,271.513z"/>
	<path d="M165.381,173.548H63.611c-3.005,0-5.442,2.437-5.442,5.443v56.055c0,3.006,2.438,5.442,5.442,5.442h101.77
		c3.006,0,5.442-2.437,5.442-5.442v-56.055C170.823,175.984,168.387,173.548,165.381,173.548z"/>
	<path d="M165.381,75.584H63.611c-3.005,0-5.442,2.437-5.442,5.442v56.055c0,3.007,2.438,5.444,5.442,5.444h101.77
		c3.006,0,5.442-2.438,5.442-5.444V81.026C170.823,78.021,168.387,75.584,165.381,75.584z"/>
	<path d="M448.389,369.476h-101.77c-3.006,0-5.442,2.438-5.442,5.443v56.055c0,3.006,2.437,5.442,5.442,5.442h101.77
		c3.005,0,5.442-2.437,5.442-5.442v-56.055C453.831,371.913,451.394,369.476,448.389,369.476z"/>
	<path d="M448.389,271.513h-101.77c-3.006,0-5.442,2.436-5.442,5.441v56.056c0,3.006,2.437,5.442,5.442,5.442h101.77
		c3.005,0,5.442-2.437,5.442-5.442v-56.056C453.831,273.948,451.394,271.513,448.389,271.513z"/>
	<path d="M448.389,173.548h-101.77c-3.006,0-5.442,2.437-5.442,5.443v56.055c0,3.006,2.437,5.442,5.442,5.442h101.77
		c3.005,0,5.442-2.437,5.442-5.442v-56.055C453.831,175.984,451.394,173.548,448.389,173.548z"/>
	<path d="M306.885,75.584h-101.77c-3.006,0-5.442,2.437-5.442,5.442v56.055c0,3.007,2.437,5.444,5.442,5.444h101.77
		c3.006,0,5.442-2.438,5.442-5.444V81.026C312.327,78.021,309.891,75.584,306.885,75.584z"/>
	<path d="M205.204,338.435h101.591c3.006,0,5.443-2.438,5.443-5.443v-153.93c0-3.006-2.438-5.442-5.443-5.442H205.204
		c-3.005,0-5.442,2.437-5.442,5.442v153.93C199.762,335.997,202.199,338.435,205.204,338.435z M221.532,195.39h68.936v49.726
		h-68.936l-0.007-49.726H221.532z M221.532,266.885h68.936v49.779h-68.936l-0.007-49.779H221.532z"/>
</g>
</svg>
