<?xml version="1.0" encoding="iso-8859-1"?>
<!-- Generator: Adobe Illustrator 16.0.0, SVG Export Plug-In . SVG Version: 6.00 Build 0)  -->
<!DOCTYPE svg PUBLIC "-//W3C//DTD SVG 1.1//EN" "http://www.w3.org/Graphics/SVG/1.1/DTD/svg11.dtd">
<svg version="1.1" id="Layer_1" xmlns="http://www.w3.org/2000/svg" xmlns:xlink="http://www.w3.org/1999/xlink" x="0px" y="0px"
	 width="512px" height="512px" viewBox="0 0 512 512" style="enable-background:new 0 0 512 512;" xml:space="preserve">
<path d="M457.748,150.251h-120v-80c0-5.522-4.478-10-10-10H54.252c-5.522,0-10,4.478-10,10v281.498c0,5.522,4.478,10,10,10h120v80
	c0,5.522,4.478,10,10,10h273.496c5.522,0,10-4.478,10-10V160.251C467.748,154.729,463.271,150.251,457.748,150.251z
	 M177.748,331.749H74.252v-61.498h103.496V331.749z M177.748,241.749H74.252v-61.498h103.496V241.749z M177.748,151.749H74.252
	V90.251h103.496V151.749z M307.748,421.749H204.252v-61.498h103.496V421.749z M204.334,266v-20h103.332v20H204.334z
	 M307.748,151.749H204.252V90.251h103.496V151.749z M437.748,421.749H334.252v-61.498h103.496V421.749z M437.748,331.749H334.252
	v-61.498h103.496V331.749z M437.748,241.749H334.252v-61.498h103.496V241.749z"/>
</svg>
