<?xml version="1.0" encoding="iso-8859-1"?>
<!-- Generator: Adobe Illustrator 16.0.0, SVG Export Plug-In . SVG Version: 6.00 Build 0)  -->
<!DOCTYPE svg PUBLIC "-//W3C//DTD SVG 1.1//EN" "http://www.w3.org/Graphics/SVG/1.1/DTD/svg11.dtd">
<svg version="1.1" id="Layer_1" xmlns="http://www.w3.org/2000/svg" xmlns:xlink="http://www.w3.org/1999/xlink" x="0px" y="0px"
	 width="512px" height="512px" viewBox="0 0 512 512" style="enable-background:new 0 0 512 512;" xml:space="preserve">
<g>
	<path d="M407.261,104.217h-302.52c-9.465,0-17.166,7.7-17.166,17.165v89.604c0,0.069,0.002,0.14,0.006,0.211
		c-0.004,0.072-0.006,0.144-0.006,0.215v179.208c0,9.464,7.701,17.164,17.166,17.164h151.135c0.043,0,0.082-0.006,0.125-0.006
		c0.041,0,0.082,0.006,0.123,0.006h151.137c9.465,0,17.164-7.7,17.164-17.164V211.411c0-0.069,0-0.138-0.004-0.207l0.004-89.822
		C424.425,111.917,416.726,104.217,407.261,104.217z M238.714,373.455H121.905v-55.274h116.809V373.455z M238.714,283.852H121.905
		v-55.275h116.809V283.852z M390.097,373.455H273.29v-55.274h116.807V373.455z M390.097,283.852H273.29v-55.275h116.807V283.852z"/>
	<path d="M490.044,256.296c-1.123-0.521-2.443-0.342-3.387,0.456l-49.383,41.763c-0.713,0.603-1.125,1.489-1.125,2.425
		c0,0.934,0.412,1.82,1.125,2.424l49.383,41.764c0.584,0.494,1.314,0.751,2.051,0.751c0.451,0,0.908-0.097,1.336-0.295
		c1.121-0.521,1.838-1.645,1.838-2.88v-83.528C491.882,257.939,491.165,256.815,490.044,256.296z"/>
	<path d="M25.343,256.752c-0.941-0.798-2.264-0.978-3.385-0.456c-1.123,0.52-1.84,1.644-1.84,2.879v83.528
		c0,1.235,0.717,2.359,1.84,2.88c0.426,0.198,0.883,0.295,1.334,0.295c0.736,0,1.467-0.257,2.051-0.751l49.383-41.764
		c0.713-0.604,1.125-1.49,1.125-2.424c0-0.936-0.412-1.822-1.125-2.425L25.343,256.752z"/>
</g>
</svg>
