<?xml version="1.0" encoding="iso-8859-1"?>
<!-- Generator: Adobe Illustrator 16.0.0, SVG Export Plug-In . SVG Version: 6.00 Build 0)  -->
<!DOCTYPE svg PUBLIC "-//W3C//DTD SVG 1.1//EN" "http://www.w3.org/Graphics/SVG/1.1/DTD/svg11.dtd">
<svg version="1.1" id="Layer_1" xmlns="http://www.w3.org/2000/svg" xmlns:xlink="http://www.w3.org/1999/xlink" x="0px" y="0px"
	 width="512px" height="512px" viewBox="0 0 512 512" style="enable-background:new 0 0 512 512;" xml:space="preserve">
<path d="M463.516,32.099H240.506c-8.414,0-15.26,6.846-15.26,15.26v97.256H50.81c-9.713,0-17.586,7.873-17.586,17.584v300.117
	c0,9.713,7.874,17.586,17.586,17.586h300.117c9.711,0,17.584-7.873,17.584-17.586V277.257h95.004c8.415,0,15.26-6.846,15.26-15.26
	V47.358C478.776,38.944,471.931,32.099,463.516,32.099z M255.766,62.709h80.144v41.09h-80.144V62.709z M255.766,134.042h80.144
	v41.09h-80.144V134.042z M255.766,205.651h80.144v41.088h-80.144V205.651z M333.341,444.731H68.394V179.784h156.853v77.732
	l-48.642,48.643l-18.91-18.91c-1.9-1.9-4.668-2.641-7.262-1.945c-2.594,0.693-4.621,2.721-5.314,5.316l-25.512,95.227
	c-0.693,2.594,0.047,5.361,1.946,7.26c1.43,1.43,3.35,2.203,5.316,2.203c0.648,0,1.303-0.084,1.945-0.258l95.226-25.508
	c2.596-0.695,4.622-2.723,5.316-5.316c0.696-2.594-0.046-5.361-1.945-7.262L208.5,338.054l60.799-60.797h64.042V444.731z
	 M448.258,246.739h-80.146v-41.088h80.146V246.739z M448.258,175.132h-80.146v-41.09h80.146V175.132z M448.258,103.799h-80.146
	v-41.09h80.146V103.799z"/>
</svg>
