<?xml version="1.0" encoding="iso-8859-1"?>
<!-- Generator: Adobe Illustrator 16.0.0, SVG Export Plug-In . SVG Version: 6.00 Build 0)  -->
<!DOCTYPE svg PUBLIC "-//W3C//DTD SVG 1.1//EN" "http://www.w3.org/Graphics/SVG/1.1/DTD/svg11.dtd">
<svg version="1.1" id="Layer_1" xmlns="http://www.w3.org/2000/svg" xmlns:xlink="http://www.w3.org/1999/xlink" x="0px" y="0px"
	 width="512px" height="512px" viewBox="0 0 512 512" style="enable-background:new 0 0 512 512;" xml:space="preserve">
<path d="M422.881,70.279H89.12c-10.406,0-18.84,8.434-18.84,18.84v333.762c0,10.404,8.434,18.84,18.84,18.84h333.761
	c10.406,0,18.839-8.436,18.839-18.84V287.924v-13.328V89.119C441.72,78.713,433.287,70.279,422.881,70.279z M331.274,186.25
	c0,4.768-3.865,8.633-8.632,8.633h-47.65v151.584c0,4.768-3.865,8.633-8.633,8.633h-20.718c-4.768,0-8.632-3.865-8.632-8.633
	V194.883h-47.651c-4.768,0-8.632-3.865-8.632-8.633v-20.719c0-4.768,3.865-8.631,8.632-8.631h133.284
	c4.768,0,8.632,3.863,8.632,8.631V186.25z"/>
</svg>
