<?xml version="1.0" encoding="iso-8859-1"?>
<!-- Generator: Adobe Illustrator 16.0.0, SVG Export Plug-In . SVG Version: 6.00 Build 0)  -->
<!DOCTYPE svg PUBLIC "-//W3C//DTD SVG 1.1//EN" "http://www.w3.org/Graphics/SVG/1.1/DTD/svg11.dtd">
<svg version="1.1" id="Layer_1" xmlns="http://www.w3.org/2000/svg" xmlns:xlink="http://www.w3.org/1999/xlink" x="0px" y="0px"
	 width="512px" height="512px" viewBox="0 0 512 512" style="enable-background:new 0 0 512 512;" xml:space="preserve">
<g>
	<g>
		<path d="M399.043,155.275h-95.15V60.127c0-3.229-2.615-5.845-5.845-5.845H112.273c-3.23,0-5.846,2.616-5.846,5.845v391.971
			c0,3.229,2.615,5.845,5.846,5.845h286.77c3.228,0,5.843-2.616,5.843-5.845V161.119
			C404.886,157.892,402.271,155.275,399.043,155.275z M332.406,385.32c0,4.283-3.474,7.758-7.76,7.758h-137.98
			c-4.282,0-7.757-3.475-7.757-7.758v-16.007c0-4.286,3.475-7.759,7.757-7.759h137.98c4.286,0,7.76,3.473,7.76,7.759V385.32z
			 M332.406,316.99c0,4.283-3.474,7.758-7.76,7.758h-137.98c-4.282,0-7.757-3.475-7.757-7.758v-16.008
			c0-4.285,3.475-7.758,7.757-7.758h137.98c4.286,0,7.76,3.473,7.76,7.758V316.99z M332.406,248.66c0,4.283-3.474,7.757-7.76,7.757
			h-137.98c-4.282,0-7.757-3.474-7.757-7.757v-16.008c0-4.285,3.475-7.758,7.757-7.758h137.98c4.286,0,7.76,3.473,7.76,7.758V248.66
			z"/>
	</g>
	<g>
		<path d="M343.264,55.5c-1.41-1.41-3.533-1.828-5.373-1.068c-1.842,0.764-3.041,2.561-3.041,4.555v60.865
			c0,2.724,2.205,4.93,4.929,4.93h60.864c1.995,0,3.791-1.201,4.553-3.043c0.765-1.842,0.344-3.963-1.068-5.373L343.264,55.5z"/>
	</g>
</g>
</svg>
