<?xml version="1.0" encoding="iso-8859-1"?>
<!-- Generator: Adobe Illustrator 16.0.0, SVG Export Plug-In . SVG Version: 6.00 Build 0)  -->
<!DOCTYPE svg PUBLIC "-//W3C//DTD SVG 1.1//EN" "http://www.w3.org/Graphics/SVG/1.1/DTD/svg11.dtd">
<svg version="1.1" id="Layer_1" xmlns="http://www.w3.org/2000/svg" xmlns:xlink="http://www.w3.org/1999/xlink" x="0px" y="0px"
	 width="512px" height="512px" viewBox="0 0 512 512" style="enable-background:new 0 0 512 512;" xml:space="preserve">
<path d="M403.298,217.364c0,0-28.082-10.253-111.288-10.253c5.569-33.818,12.457-55.599,5.793-90.245
	c-8.691-45.195-57.363-73.877-66.198-31.868c-9.887,46.998,3.772,93.566-40.104,123.992H98.136c-9.601,0-17.383,7.782-17.383,17.383
	v192.372c0,9.601,7.782,17.383,17.383,17.383h108.013c32.916,7.915,67.205,11.338,100.708,11.338
	c66.108,0,84.756-15.386,104.392-78.813C421.838,335.181,454.408,235.834,403.298,217.364z M115.519,243.756h62.623l-0.235,157.606
	h-62.388V243.756z"/>
</svg>
