<?xml version="1.0" encoding="iso-8859-1"?>
<!-- Generator: Adobe Illustrator 16.0.0, SVG Export Plug-In . SVG Version: 6.00 Build 0)  -->
<!DOCTYPE svg PUBLIC "-//W3C//DTD SVG 1.1//EN" "http://www.w3.org/Graphics/SVG/1.1/DTD/svg11.dtd">
<svg version="1.1" id="Layer_1" xmlns="http://www.w3.org/2000/svg" xmlns:xlink="http://www.w3.org/1999/xlink" x="0px" y="0px"
	 width="512px" height="512px" viewBox="0 0 512 512" style="enable-background:new 0 0 512 512;" xml:space="preserve">
<path d="M108.703,294.636c0,0,28.08,10.253,111.287,10.253c-5.568,33.818-12.457,55.599-5.793,90.245
	c8.691,45.195,57.363,73.877,66.197,31.868c9.887-46.998-3.771-93.566,40.105-123.992l93.363,0.001
	c9.602,0,17.383-7.782,17.383-17.383V93.256c0-9.601-7.781-17.383-17.383-17.383l-108.012-0.001
	c-32.916-7.915-67.205-11.338-100.707-11.338c-66.109,0-84.758,15.386-104.393,78.813
	C90.162,176.819,57.592,276.166,108.703,294.636z M396.48,268.244h-62.623l0.236-157.606h62.387V268.244z"/>
</svg>
