<?xml version="1.0" encoding="iso-8859-1"?>
<!-- Generator: Adobe Illustrator 16.0.0, SVG Export Plug-In . SVG Version: 6.00 Build 0)  -->
<!DOCTYPE svg PUBLIC "-//W3C//DTD SVG 1.1//EN" "http://www.w3.org/Graphics/SVG/1.1/DTD/svg11.dtd">
<svg version="1.1" id="Layer_1" xmlns="http://www.w3.org/2000/svg" xmlns:xlink="http://www.w3.org/1999/xlink" x="0px" y="0px"
	 width="512px" height="512px" viewBox="0 0 512 512" style="enable-background:new 0 0 512 512;" xml:space="preserve">
<path d="M340.24,42.301h-51.356C282.397,32.613,269.86,26.5,256,26.5c-13.859,0-26.397,6.113-32.883,15.801H171.76
	c-8.284,0-15,6.716-15,15v393.761c0,8.284,6.716,15,15,15h49.291C226.507,477.671,240.289,485.5,256,485.5
	s29.493-7.828,34.949-19.438h49.291c8.284,0,15-6.716,15-15V57.301C355.24,49.017,348.524,42.301,340.24,42.301z M256,289.815
	c-19.648,0-35.634-15.985-35.634-35.635c0-19.648,15.985-35.634,35.634-35.634s35.634,15.985,35.634,35.634
	C291.634,273.83,275.648,289.815,256,289.815z M256,338.458c19.648,0,35.634,15.985,35.634,35.634
	c0,19.649-15.985,35.634-35.634,35.634s-35.634-15.984-35.634-35.634C220.366,354.443,236.352,338.458,256,338.458z M256,169.903
	c-19.648,0-35.634-15.984-35.634-35.633c0-19.649,15.985-35.635,35.634-35.635s35.634,15.985,35.634,35.635
	C291.634,153.919,275.648,169.903,256,169.903z"/>
</svg>
