<?xml version="1.0" encoding="iso-8859-1"?>
<!-- Generator: Adobe Illustrator 16.0.0, SVG Export Plug-In . SVG Version: 6.00 Build 0)  -->
<!DOCTYPE svg PUBLIC "-//W3C//DTD SVG 1.1//EN" "http://www.w3.org/Graphics/SVG/1.1/DTD/svg11.dtd">
<svg version="1.1" id="Layer_1" xmlns="http://www.w3.org/2000/svg" xmlns:xlink="http://www.w3.org/1999/xlink" x="0px" y="0px"
	 width="512px" height="512px" viewBox="0 0 512 512" style="enable-background:new 0 0 512 512;" xml:space="preserve">
<path d="M461.254,251.85L337.391,144.146c-1.502-1.305-3.591-1.699-5.463-1.027c-1.873,0.67-3.238,2.3-3.569,4.261l-8.938,52.887
	H89.409c-2.684,0-4.976,1.938-5.423,4.583l-3.054,18.067c-0.27,1.597,0.177,3.23,1.223,4.467c1.045,1.237,2.581,1.95,4.2,1.95
	h103.982l-2.208,15H56.989c-2.684,0-4.976,1.938-5.423,4.583l-2.634,15.585c-0.27,1.596,0.177,3.229,1.223,4.467
	c1.045,1.236,2.581,1.949,4.2,1.949h159.196l-2.206,15H112.36c-2.684,0-4.976,1.937-5.423,4.583l-2.505,14.817
	c-0.271,1.597,0.177,3.23,1.222,4.467c1.046,1.237,2.582,1.95,4.201,1.95h190.721l-8.628,51.053
	c-0.366,2.168,0.593,4.346,2.439,5.538c0.909,0.586,1.946,0.879,2.983,0.879c1.07,0,2.141-0.313,3.067-0.935l160.273-107.704
	c1.421-0.955,2.316-2.517,2.422-4.225C463.24,254.633,462.545,252.973,461.254,251.85z"/>
</svg>
