<?xml version="1.0" encoding="iso-8859-1"?>
<!-- Generator: Adobe Illustrator 16.0.0, SVG Export Plug-In . SVG Version: 6.00 Build 0)  -->
<!DOCTYPE svg PUBLIC "-//W3C//DTD SVG 1.1//EN" "http://www.w3.org/Graphics/SVG/1.1/DTD/svg11.dtd">
<svg version="1.1" id="Layer_1" xmlns="http://www.w3.org/2000/svg" xmlns:xlink="http://www.w3.org/1999/xlink" x="0px" y="0px"
	 width="512px" height="512px" viewBox="0 0 512 512" style="enable-background:new 0 0 512 512;" xml:space="preserve">
<path d="M256,464.489c115.146,0,208.489-93.344,208.489-208.489S371.146,47.511,256,47.511S47.511,140.854,47.511,256
	S140.854,464.489,256,464.489z M174.751,266.963l68.259-118.21c2.68-4.641,7.632-7.499,12.99-7.499s10.31,2.858,12.989,7.499
	l68.259,118.21c2.681,4.641,2.681,10.359,0.001,15c-2.68,4.642-7.631,7.501-12.99,7.501H291v66.282c0,8.284-6.716,15-15,15h-40
	c-8.284,0-15-6.716-15-15v-66.282h-33.259c-5.359,0-10.312-2.859-12.991-7.501C172.071,277.322,172.071,271.604,174.751,266.963z"/>
</svg>
