<?xml version="1.0" encoding="iso-8859-1"?>
<!-- Generator: Adobe Illustrator 16.0.0, SVG Export Plug-In . SVG Version: 6.00 Build 0)  -->
<!DOCTYPE svg PUBLIC "-//W3C//DTD SVG 1.1//EN" "http://www.w3.org/Graphics/SVG/1.1/DTD/svg11.dtd">
<svg version="1.1" id="Layer_1" xmlns="http://www.w3.org/2000/svg" xmlns:xlink="http://www.w3.org/1999/xlink" x="0px" y="0px"
	 width="512px" height="512px" viewBox="0 0 512 512" style="enable-background:new 0 0 512 512;" xml:space="preserve">
<g>
	<path d="M255.877,45.586c-54.29,0-105.86,20.693-145.213,58.269c-39.218,37.446-62.283,87.753-64.943,141.652
		c-0.135,2.734,0.857,5.404,2.744,7.388c1.889,1.983,4.507,3.105,7.244,3.105h45.211c5.275,0,9.644-4.098,9.979-9.362
		c4.871-76.214,68.553-135.914,144.979-135.914c80.105,0,145.275,65.171,145.275,145.276s-65.17,145.276-145.275,145.276
		c-18.109,0-35.772-3.287-52.501-9.77l17.366-15.425c2.686-2.354,3.912-5.964,3.217-9.468c-0.696-3.505-3.209-6.371-6.592-7.521
		l-113-32.552c-3.387-1.15-7.122-0.407-9.81,1.948c-2.686,2.354-3.913,5.963-3.218,9.467l23.957,110.788
		c0.696,3.505,3.209,6.372,6.591,7.521c3.383,1.147,7.122,0.408,9.81-1.947l18.599-16.298
		c31.946,18.575,68.456,28.394,105.581,28.394c116.021,0,210.414-94.392,210.414-210.414S371.898,45.586,255.877,45.586z"/>
	<path d="M240.699,283.487h118.5c2.757,0,5-2.243,5-5v-30c0-2.757-2.243-5-5-5h-83.5v-91c0-2.757-2.243-5-5-5h-30
		c-2.757,0-5,2.243-5,5v126C235.699,281.244,237.942,283.487,240.699,283.487z"/>
</g>
</svg>
