<?xml version="1.0" encoding="iso-8859-1"?>
<!-- Generator: Adobe Illustrator 16.0.0, SVG Export Plug-In . SVG Version: 6.00 Build 0)  -->
<!DOCTYPE svg PUBLIC "-//W3C//DTD SVG 1.1//EN" "http://www.w3.org/Graphics/SVG/1.1/DTD/svg11.dtd">
<svg version="1.1" id="Layer_1" xmlns="http://www.w3.org/2000/svg" xmlns:xlink="http://www.w3.org/1999/xlink" x="0px" y="0px"
	 width="512px" height="512px" viewBox="0 0 512 512" style="enable-background:new 0 0 512 512;" xml:space="preserve">
<g>
	<path d="M195.733,265.347l16.238-8.453c2.654-1.382,5.585-2.212,8.565-2.454c-1.731-1.782-3.425-3.628-5.069-5.551
		c-19.569-22.905-30.346-53.182-30.346-85.254c0-42.063,10.536-73.904,31.315-94.637c3.263-3.255,6.76-6.217,10.48-8.897
		c-4.008-0.368-8.099-0.548-12.26-0.548c-49.112,0-88.925,24.368-88.925,104.082C125.733,213.516,155.713,255.193,195.733,265.347z"
		/>
	<path d="M79.225,413.634l44.863-101.064c3.695-8.324,10.18-15.226,18.26-19.433l20.074-10.45
		c-5.081-2.75-10.002-5.904-14.721-9.473c-1.383-1.045-3.242-1.201-4.777-0.401l-69.624,36.243
		c-4.489,2.337-8.091,6.171-10.144,10.796L18.293,420.914c-3.092,6.966-2.458,14.939,1.696,21.329
		c4.154,6.389,11.184,10.204,18.806,10.204H82.57c-0.094-0.143-0.198-0.277-0.292-0.421C74.8,440.523,73.659,426.172,79.225,413.634
		z"/>
	<path d="M297.342,267.718c49.11,0,88.924-46.6,88.924-104.082c0-79.714-39.813-104.082-88.924-104.082
		c-49.113,0-88.926,24.368-88.926,104.082C208.417,221.118,248.23,267.718,297.342,267.718z"/>
	<path d="M493.707,420.914l-44.863-101.063c-2.053-4.625-5.656-8.459-10.146-10.796l-69.624-36.243
		c-1.535-0.799-3.395-0.643-4.777,0.401c-19.69,14.895-42.844,22.768-66.955,22.768c-24.112,0-47.265-7.873-66.958-22.768
		c-1.383-1.045-3.242-1.201-4.777-0.401l-69.623,36.243c-4.489,2.337-8.091,6.171-10.144,10.796l-44.863,101.063
		c-3.092,6.966-2.458,14.939,1.696,21.329c4.154,6.389,11.184,10.204,18.806,10.204h351.726c7.622,0,14.652-3.814,18.806-10.204
		C496.164,435.853,496.799,427.879,493.707,420.914z"/>
</g>
</svg>
