<?xml version="1.0" encoding="iso-8859-1"?>
<!-- Generator: Adobe Illustrator 16.0.0, SVG Export Plug-In . SVG Version: 6.00 Build 0)  -->
<!DOCTYPE svg PUBLIC "-//W3C//DTD SVG 1.1//EN" "http://www.w3.org/Graphics/SVG/1.1/DTD/svg11.dtd">
<svg version="1.1" id="Layer_1" xmlns="http://www.w3.org/2000/svg" xmlns:xlink="http://www.w3.org/1999/xlink" x="0px" y="0px"
	 width="512px" height="512px" viewBox="0 0 512 512" style="enable-background:new 0 0 512 512;" xml:space="preserve">
<g>
	<path d="M487.339,381.051l-37.105-83.588c-1.698-3.827-4.678-6.997-8.391-8.93l-57.586-29.977c-1.27-0.661-2.808-0.532-3.951,0.331
		c-6.347,4.801-13.132,8.708-20.226,11.703l34.318,17.864c7.806,4.063,14.069,10.73,17.637,18.771l41.23,92.878
		c1.016,2.29,1.799,4.643,2.354,7.027h14.762c6.305,0,12.119-3.154,15.555-8.44C489.372,393.406,489.897,386.812,487.339,381.051z"
		/>
	<path d="M117.601,288.455l34.319-17.864c-7.094-2.996-13.88-6.902-20.228-11.703c-1.144-0.864-2.682-0.992-3.951-0.331
		l-57.585,29.977c-3.713,1.933-6.692,5.103-8.39,8.929L24.66,381.051c-2.558,5.761-2.033,12.356,1.402,17.64
		c3.436,5.286,9.251,8.44,15.555,8.44H56.38c0.556-2.386,1.339-4.737,2.355-7.028l41.23-92.879
		C103.535,299.183,109.798,292.517,117.601,288.455z"/>
	<path d="M183.574,254.243c1.367,0,2.305-0.369,2.953-0.964c-0.772-0.849-1.538-1.707-2.29-2.587
		c-18.277-21.393-28.343-49.654-28.343-79.578c0-39.178,9.87-68.89,29.334-88.312c0.215-0.214,0.443-0.411,0.659-0.622
		c-40.074,0.393-72.364,20.79-72.364,86.077C113.523,214.427,144.578,252.105,183.574,254.243z"/>
	<path d="M356.105,171.114c0,29.924-10.066,58.186-28.343,79.578c-0.752,0.88-1.519,1.739-2.291,2.588
		c0.6,0.734,1.787,0.963,2.952,0.963c38.995-2.136,70.052-39.815,70.052-85.985c0-65.288-32.291-85.685-72.364-86.077
		c0.217,0.211,0.444,0.408,0.659,0.622C346.235,102.225,356.105,131.937,356.105,171.114z"/>
	<path d="M256.001,266.769c45.134,0,81.724-42.826,81.724-95.654c0-73.26-36.589-95.654-81.724-95.654
		c-45.137,0-81.726,22.395-81.726,95.654C174.275,223.942,210.865,266.769,256.001,266.769z"/>
	<path d="M395.234,314.682c-1.886-4.252-5.198-7.775-9.323-9.923l-63.986-33.308c-1.411-0.735-3.12-0.592-4.391,0.368
		c-18.096,13.689-39.375,20.925-61.533,20.925c-22.16,0-43.438-7.235-61.537-20.925c-1.271-0.961-2.979-1.104-4.391-0.368
		l-63.985,33.308c-4.126,2.147-7.436,5.671-9.322,9.922l-41.23,92.881c-2.843,6.401-2.26,13.729,1.558,19.601
		c3.818,5.872,10.279,9.378,17.284,9.378h323.247c7.004,0,13.466-3.506,17.282-9.378c3.817-5.872,4.4-13.2,1.56-19.601
		L395.234,314.682z"/>
</g>
</svg>
