<?xml version="1.0" encoding="iso-8859-1"?>
<!-- Generator: Adobe Illustrator 16.0.0, SVG Export Plug-In . SVG Version: 6.00 Build 0)  -->
<!DOCTYPE svg PUBLIC "-//W3C//DTD SVG 1.1//EN" "http://www.w3.org/Graphics/SVG/1.1/DTD/svg11.dtd">
<svg version="1.1" id="Layer_1" xmlns="http://www.w3.org/2000/svg" xmlns:xlink="http://www.w3.org/1999/xlink" x="0px" y="0px"
	 width="512px" height="512px" viewBox="0 0 512 512" style="enable-background:new 0 0 512 512;" xml:space="preserve">
<g>
	<path d="M186.479,280.075h-20.724v-20.722c0-1.836-1.488-3.324-3.323-3.324h-15.513c-1.836,0-3.323,1.488-3.323,3.324v20.722
		h-20.724c-1.835,0-3.324,1.488-3.324,3.324v15.513c0,1.836,1.489,3.323,3.324,3.323h20.724v20.723c0,1.836,1.487,3.323,3.323,3.323
		h15.513c1.835,0,3.323-1.487,3.323-3.323v-20.723h20.724c1.835,0,3.324-1.487,3.324-3.323v-15.513
		C189.803,281.563,188.314,280.075,186.479,280.075z"/>
	<path d="M462.709,179.222H293.311v-19.387c0-8.769-7.108-15.877-15.877-15.877h-3.38v-35.045h-36.107v35.045h-3.38
		c-8.769,0-15.877,7.108-15.877,15.877v19.387H49.291c-6.647,0-12.036,5.388-12.036,12.035v199.795
		c0,6.647,5.389,12.035,12.036,12.035h413.418c6.647,0,12.036-5.388,12.036-12.035V191.257
		C474.745,184.609,469.356,179.222,462.709,179.222z M154.676,351.924c-33.562,0-60.768-27.208-60.768-60.767
		c0-33.563,27.207-60.77,60.768-60.77s60.768,27.207,60.768,60.77C215.444,324.716,188.237,351.924,154.676,351.924z
		 M337.779,345.478c-15.165,0-27.456-12.292-27.456-27.454s12.291-27.454,27.456-27.454c15.161,0,27.453,12.292,27.453,27.454
		S352.94,345.478,337.779,345.478z M391.516,291.742c-15.163,0-27.454-12.292-27.454-27.457c0-15.162,12.291-27.454,27.454-27.454
		c15.163,0,27.455,12.292,27.455,27.454C418.97,279.45,406.678,291.742,391.516,291.742z"/>
</g>
</svg>
