<?xml version="1.0" encoding="iso-8859-1"?>
<!-- Generator: Adobe Illustrator 16.0.0, SVG Export Plug-In . SVG Version: 6.00 Build 0)  -->
<!DOCTYPE svg PUBLIC "-//W3C//DTD SVG 1.1//EN" "http://www.w3.org/Graphics/SVG/1.1/DTD/svg11.dtd">
<svg version="1.1" id="Layer_1" xmlns="http://www.w3.org/2000/svg" xmlns:xlink="http://www.w3.org/1999/xlink" x="0px" y="0px"
	 width="512px" height="512px" viewBox="0 0 512 512" style="enable-background:new 0 0 512 512;" xml:space="preserve">
<g>
	<path d="M223.906,228.576V104.217H99.741c-9.465,0-17.166,7.7-17.166,17.165v269.237c0,9.464,7.701,17.165,17.166,17.165h124.165
		v-25.992v-8.337h-107v-55.274h107v-0.45v-33.879h-107v-55.275H223.906z"/>
	<path d="M429.425,121.382c0-9.465-7.699-17.165-17.164-17.165H288.094v124.359h107.002v55.275H288.094v33.879v0.45h107.002v55.274
		H288.094v8.337v25.992h124.167c9.465,0,17.164-7.701,17.164-17.165V211.411c0-0.069,0-0.138-0.004-0.207L429.425,121.382z"/>
	<path d="M503.257,298.516l-49.383-41.764c-0.584-0.494-1.314-0.751-2.051-0.751c-0.451,0-0.908,0.097-1.336,0.295
		c-1.121,0.521-1.838,1.645-1.838,2.88v83.528c0,1.235,0.717,2.359,1.838,2.879c1.123,0.521,2.443,0.342,3.387-0.456l49.383-41.763
		c0.713-0.603,1.125-1.489,1.125-2.425C504.382,300.006,503.97,299.119,503.257,298.516z"/>
	<path d="M61.511,256.296c-0.426-0.198-0.883-0.295-1.334-0.295c-0.736,0-1.467,0.257-2.051,0.751L8.743,298.516
		c-0.713,0.604-1.125,1.49-1.125,2.424c0,0.936,0.412,1.822,1.125,2.425l49.383,41.763c0.941,0.798,2.264,0.978,3.385,0.456
		c1.123-0.52,1.84-1.644,1.84-2.879v-83.528C63.351,257.94,62.634,256.816,61.511,256.296z"/>
</g>
<g>
	<rect x="238.906" y="391.792" width="34.188" height="68.377"/>
	<rect x="238.906" y="204.27" width="34.188" height="103.461"/>
	<rect x="238.906" y="51.831" width="34.188" height="68.377"/>
</g>
</svg>
