<?xml version="1.0" encoding="iso-8859-1"?>
<!-- Generator: Adobe Illustrator 16.0.0, SVG Export Plug-In . SVG Version: 6.00 Build 0)  -->
<!DOCTYPE svg PUBLIC "-//W3C//DTD SVG 1.1//EN" "http://www.w3.org/Graphics/SVG/1.1/DTD/svg11.dtd">
<svg version="1.1" id="Layer_1" xmlns="http://www.w3.org/2000/svg" xmlns:xlink="http://www.w3.org/1999/xlink" x="0px" y="0px"
	 width="512px" height="512px" viewBox="0 0 512 512" style="enable-background:new 0 0 512 512;" xml:space="preserve">
<g>
	<path d="M230.358,153.437v-34.189H87.908c-9.44,0-17.094,7.652-17.094,17.095v239.317c0,9.441,7.653,17.094,17.094,17.094h142.45
		v-34.188H105.003V153.437H230.358z"/>
	<path d="M424.092,119.247h-142.45v34.189h125.356v205.129H281.642v34.188h142.45c9.44,0,17.094-7.652,17.094-17.094V136.342
		C441.186,126.899,433.532,119.247,424.092,119.247z"/>
	<rect x="238.906" y="391.792" width="34.188" height="68.377"/>
	<rect x="238.906" y="204.27" width="34.188" height="103.461"/>
	<rect x="238.906" y="51.831" width="34.188" height="68.377"/>
	<path d="M347.773,293.768l42.207-35.695c0.609-0.515,0.962-1.272,0.962-2.072c0-0.798-0.353-1.556-0.962-2.071l-42.207-35.696
		c-0.499-0.423-1.124-0.642-1.753-0.642c-0.385,0-0.776,0.082-1.143,0.252c-0.957,0.445-1.569,1.406-1.569,2.461v71.393
		c0,1.057,0.612,2.018,1.569,2.461C345.838,294.603,346.967,294.45,347.773,293.768z"/>
	<path d="M165.979,217.591c-0.629,0-1.253,0.219-1.753,0.642l-42.207,35.696c-0.61,0.516-0.962,1.273-0.962,2.071
		c0,0.8,0.352,1.558,0.962,2.072l42.207,35.695c0.805,0.683,1.936,0.835,2.894,0.39c0.959-0.443,1.572-1.404,1.572-2.461v-71.393
		c0-1.055-0.613-2.016-1.572-2.461C166.756,217.673,166.365,217.591,165.979,217.591z"/>
</g>
</svg>
