<?xml version="1.0" encoding="iso-8859-1"?>
<!-- Generator: Adobe Illustrator 16.0.0, SVG Export Plug-In . SVG Version: 6.00 Build 0)  -->
<!DOCTYPE svg PUBLIC "-//W3C//DTD SVG 1.1//EN" "http://www.w3.org/Graphics/SVG/1.1/DTD/svg11.dtd">
<svg version="1.1" id="Layer_1" xmlns="http://www.w3.org/2000/svg" xmlns:xlink="http://www.w3.org/1999/xlink" x="0px" y="0px"
	 width="512px" height="512px" viewBox="0 0 512 512" style="enable-background:new 0 0 512 512;" xml:space="preserve">
<g>
	<path d="M483.049,188.749c-0.175-0.257-0.374-0.498-0.595-0.719C421.965,127.542,341.542,94.229,256,94.229
		c-85.537,0-165.953,33.306-226.439,93.788c-0.94,0.933-1.48,2.21-1.48,3.552c0,1.326,0.526,2.598,1.465,3.536l33.113,33.114
		c0.938,0.938,2.209,1.464,3.535,1.464s2.598-0.527,3.535-1.464C119.565,178.38,185.717,150.934,256,150.934
		c70.282,0,136.434,27.447,186.271,77.284c0.938,0.938,2.209,1.464,3.535,1.464s2.598-0.527,3.535-1.464l33.113-33.114
		c0.938-0.938,1.465-2.209,1.465-3.536C483.92,190.563,483.615,189.58,483.049,188.749z"/>
	<path d="M256,181.801c-62.056,0-120.461,24.231-164.458,68.229c-1.952,1.953-1.952,5.119,0.001,7.071l33.01,33.009
		c0.938,0.938,2.209,1.464,3.535,1.464s2.598-0.527,3.535-1.464C164.9,256.833,209.071,238.505,256,238.505
		c46.93,0,91.102,18.327,124.376,51.605c0.938,0.938,2.21,1.464,3.536,1.464s2.598-0.527,3.535-1.464l33.011-33.009
		c0.938-0.938,1.465-2.209,1.465-3.536s-0.526-2.598-1.465-3.536C376.461,206.032,318.056,181.801,256,181.801z"/>
	<path d="M256,269.373c-38.701,0-75.126,15.111-102.564,42.55c-0.939,0.938-1.465,2.209-1.465,3.536s0.525,2.598,1.465,3.536
		l33.01,33.01c0.938,0.938,2.209,1.464,3.535,1.464s2.598-0.527,3.535-1.464c16.719-16.719,38.909-25.926,62.484-25.926
		s45.766,9.208,62.485,25.926c0.938,0.938,2.209,1.464,3.535,1.464c1.325,0,2.597-0.527,3.535-1.464l33.009-33.01
		c1.953-1.953,1.953-5.119,0-7.071C331.127,284.484,294.702,269.373,256,269.373z"/>
	<path d="M256,362.164c-13.521,0-26.229,5.264-35.784,14.823c-1.952,1.953-1.952,5.118,0.001,7.07l32.248,32.25
		c0.938,0.938,2.209,1.464,3.535,1.464s2.598-0.527,3.535-1.464l32.248-32.25c1.953-1.953,1.953-5.118,0-7.071
		C282.227,367.428,269.519,362.164,256,362.164z"/>
</g>
</svg>
