<?xml version="1.0" encoding="iso-8859-1"?>
<!-- Generator: Adobe Illustrator 16.0.0, SVG Export Plug-In . SVG Version: 6.00 Build 0)  -->
<!DOCTYPE svg PUBLIC "-//W3C//DTD SVG 1.1//EN" "http://www.w3.org/Graphics/SVG/1.1/DTD/svg11.dtd">
<svg version="1.1" id="Layer_1" xmlns="http://www.w3.org/2000/svg" xmlns:xlink="http://www.w3.org/1999/xlink" x="0px" y="0px"
	 width="512px" height="512px" viewBox="0 0 512 512" style="enable-background:new 0 0 512 512;" xml:space="preserve">
<path d="M427.083,79.06H84.916c-20.753,0-37.638,16.885-37.638,37.639v278.604c0,20.754,16.885,37.639,37.638,37.639h342.167
	c20.754,0,37.639-16.885,37.639-37.639V116.698C464.722,95.944,447.837,79.06,427.083,79.06z M394.437,117.649
	c14.132,0,25.588,11.455,25.588,25.588c0,14.131-11.456,25.586-25.588,25.586c-14.131,0-25.587-11.455-25.587-25.586
	C368.85,129.104,380.306,117.649,394.437,117.649z M321.384,117.649c14.132,0,25.588,11.455,25.588,25.588
	c0,14.131-11.456,25.586-25.588,25.586c-14.131,0-25.587-11.455-25.587-25.586C295.797,129.104,307.253,117.649,321.384,117.649z
	 M422.345,390.563H89.653V206.726h332.691V390.563z"/>
</svg>
