<?xml version="1.0" encoding="iso-8859-1"?>
<!-- Generator: Adobe Illustrator 16.0.0, SVG Export Plug-In . SVG Version: 6.00 Build 0)  -->
<!DOCTYPE svg PUBLIC "-//W3C//DTD SVG 1.1//EN" "http://www.w3.org/Graphics/SVG/1.1/DTD/svg11.dtd">
<svg version="1.1" id="Layer_1" xmlns="http://www.w3.org/2000/svg" xmlns:xlink="http://www.w3.org/1999/xlink" x="0px" y="0px"
	 width="512px" height="512px" viewBox="0 0 512 512" style="enable-background:new 0 0 512 512;" xml:space="preserve">
<path d="M462.175,59.218H109.606c-9.642,0-17.456,7.816-17.456,17.455v87.271H49.826c-9.641,0-17.454,7.813-17.454,17.453v253.93
	c0,9.639,7.813,17.455,17.454,17.455h352.569c9.638,0,17.453-7.816,17.453-17.455v-87.27h42.326c9.639,0,17.453-7.814,17.453-17.455
	V76.673C479.628,67.034,471.813,59.218,462.175,59.218z M427.266,84.431c8.966,0,16.23,7.266,16.23,16.229
	c0,8.967-7.265,16.232-16.23,16.232c-8.965,0-16.229-7.266-16.229-16.232C411.037,91.696,418.301,84.431,427.266,84.431z
	 M383.632,84.431c8.965,0,16.23,7.266,16.23,16.229c0,8.967-7.266,16.232-16.23,16.232s-16.231-7.266-16.231-16.232
	C367.4,91.696,374.667,84.431,383.632,84.431z M339.996,84.431c8.966,0,16.231,7.266,16.231,16.229
	c0,8.967-7.266,16.232-16.231,16.232c-8.965,0-16.23-7.266-16.23-16.232C323.766,91.696,331.031,84.431,339.996,84.431z
	 M384.942,417.874H67.279v-174.5h317.663V417.874z M263.985,205.384c0-8.963,7.268-16.23,16.231-16.23
	c8.965,0,16.232,7.268,16.232,16.23c0,8.965-7.268,16.232-16.232,16.232C271.253,221.616,263.985,214.349,263.985,205.384z
	 M307.622,205.384c0-8.963,7.266-16.23,16.23-16.23c8.964,0,16.23,7.268,16.23,16.23c0,8.965-7.267,16.232-16.23,16.232
	C314.888,221.616,307.622,214.349,307.622,205.384z M351.255,205.384c0-8.963,7.266-16.23,16.232-16.23
	c8.965,0,16.229,7.268,16.229,16.23c0,8.965-7.265,16.232-16.229,16.232C358.521,221.616,351.255,214.349,351.255,205.384z
	 M444.721,313.149h-24.872V181.397c0-9.641-7.815-17.453-17.453-17.453H127.06v-25.295h317.661V313.149z"/>
</svg>
