<?xml version="1.0" encoding="iso-8859-1"?>
<!-- Generator: Adobe Illustrator 16.0.0, SVG Export Plug-In . SVG Version: 6.00 Build 0)  -->
<!DOCTYPE svg PUBLIC "-//W3C//DTD SVG 1.1//EN" "http://www.w3.org/Graphics/SVG/1.1/DTD/svg11.dtd">
<svg version="1.1" id="Layer_1" xmlns="http://www.w3.org/2000/svg" xmlns:xlink="http://www.w3.org/1999/xlink" x="0px" y="0px"
	 width="512px" height="512px" viewBox="0 0 512 512" style="enable-background:new 0 0 512 512;" xml:space="preserve">
<g>
	<path d="M458.581,426.135l-46.283-104.263c-2.117-4.771-5.836-8.727-10.465-11.138l-71.83-37.391
		c-1.584-0.824-3.502-0.663-4.926,0.415c-20.316,15.366-44.203,23.488-69.076,23.488c-24.877,0-48.762-8.122-69.078-23.488
		c-1.428-1.079-3.346-1.239-4.93-0.415l-71.826,37.391c-4.631,2.411-8.346,6.366-10.465,11.138L53.419,426.135
		c-3.191,7.188-2.537,15.412,1.75,22.005c4.285,6.591,11.537,10.526,19.4,10.526h362.861c7.863,0,15.117-3.936,19.402-10.527
		C461.116,441.547,461.772,433.32,458.581,426.135z"/>
	<path d="M392.927,242.997c-0.301-2.127-1.927-3.824-4.04-4.215c-0.363-0.068-41.147-12.084-41.147-78.071
		c0-82.236-41.071-107.376-91.738-107.377l0,0H256h-0.001l0,0c-50.667,0.001-91.738,25.141-91.738,107.377
		c0,65.987-40.784,78.003-41.147,78.071c-2.113,0.391-3.739,2.088-4.04,4.215c-0.302,2.128,0.79,4.21,2.711,5.172
		c0.559,0.279,13.969,6.845,40.256,6.845c0,0,0.001,0,0.002,0c13.386,0,27.808-1.714,42.923-5.065
		c14.592,11.455,32.146,18.141,51.034,18.141l0,0H256h0.001l0,0c18.889,0,36.442-6.686,51.034-18.141
		c15.115,3.352,29.537,5.065,42.923,5.065c0,0,0.001,0,0.002,0c26.287,0,39.697-6.565,40.256-6.845
		C392.137,247.207,393.229,245.125,392.927,242.997z"/>
</g>
</svg>
