<?xml version="1.0" encoding="utf-8"?>
<!-- Generator: Adobe Illustrator 16.0.0, SVG Export Plug-In . SVG Version: 6.00 Build 0)  -->
<!DOCTYPE svg PUBLIC "-//W3C//DTD SVG 1.1//EN" "http://www.w3.org/Graphics/SVG/1.1/DTD/svg11.dtd">
<svg version="1.1" id="Artwork" xmlns="http://www.w3.org/2000/svg" xmlns:xlink="http://www.w3.org/1999/xlink" x="0px" y="0px"
	 width="512px" height="512px" viewBox="0 0 512 512" enable-background="new 0 0 512 512" xml:space="preserve">
<path d="M452.573,88.509l-40.626-56.074c-8.192-11.299-21.187-18.167-36.051-18.315c-0.944-0.01-306.448-0.108-306.448-0.108
	c-13.078,0-23.335,10.479-23.335,23.549c0,0,0.601,388.522,0.767,389.523c2.043,12.394,9.231,23.43,19.748,30.27l56.856,37.119
	c6.379,4.159,13.752,6.368,21.355,6.368h251.105c35.346,0,64.055-28.775,64.055-64.117V111.44
	C460,103.128,457.438,95.188,452.573,88.509z M212.296,92.989c25.192,0,45.604,20.417,45.604,45.594
	c0,25.183-20.412,45.598-45.604,45.598c-25.172,0-45.594-20.415-45.594-45.598C166.702,113.406,187.124,92.989,212.296,92.989z
	 M148.283,301.898l16.449-82.055c2.209-11.087,11.937-18.938,23.242-18.938h48.663c11.295,0,21.023,7.815,23.243,18.896
	l16.429,82.174c0.403,2.008-0.115,4.087-1.411,5.674c-1.296,1.581-3.246,2.655-5.289,2.655H154.993
	c-2.054,0-3.982-1.074-5.289-2.655C148.407,306.063,147.889,303.905,148.283,301.898z M416.241,436.723
	c0,11.326-8.971,20.359-20.296,20.359H146.177l-40.791-26.437h251.925c13.079,0,23.378-10.875,23.378-23.947V63.503l35.553,49.4
	V436.723z"/>
</svg>
