<?xml version="1.0" encoding="utf-8"?>
<!-- Generator: Adobe Illustrator 16.0.0, SVG Export Plug-In . SVG Version: 6.00 Build 0)  -->
<!DOCTYPE svg PUBLIC "-//W3C//DTD SVG 1.1//EN" "http://www.w3.org/Graphics/SVG/1.1/DTD/svg11.dtd">
<svg version="1.1" id="Artwork" xmlns="http://www.w3.org/2000/svg" xmlns:xlink="http://www.w3.org/1999/xlink" x="0px" y="0px"
	 width="512px" height="512px" viewBox="0 0 512 512" enable-background="new 0 0 512 512" xml:space="preserve">
<path d="M496.047,174.75c-8.912-51.251-51.034-91.912-102.525-99.305c-57.862-8.302-109.416,23.824-130.581,72.271
	c-1.689,3.871-5.16,5.933-8.678,5.933c-3.518,0-6.989-2.062-8.678-5.933C224.42,99.27,172.867,67.144,115.004,75.445
	c-51.491,7.393-93.613,48.054-102.525,99.305c-7.188,41.332,6.346,79.751,31.928,106.586c5.561,6.711,14.008,16.156,20.27,23.298
	c33.494,38.2,105.859,107.919,152.262,149.677c8.863,7.988,21.044,13.609,34.087,14.074c1.617,0.058,4.856,0.058,6.473,0
	c13.043-0.465,25.225-6.086,34.087-14.074c46.403-41.758,118.769-111.477,152.262-149.677c6.262-7.142,14.709-16.587,20.27-23.298
	C489.701,254.501,503.236,216.082,496.047,174.75z"/>
</svg>
