<?xml version="1.0" encoding="utf-8"?>
<!-- Generator: Adobe Illustrator 16.0.0, SVG Export Plug-In . SVG Version: 6.00 Build 0)  -->
<!DOCTYPE svg PUBLIC "-//W3C//DTD SVG 1.1//EN" "http://www.w3.org/Graphics/SVG/1.1/DTD/svg11.dtd">
<svg version="1.1" id="Artwork" xmlns="http://www.w3.org/2000/svg" xmlns:xlink="http://www.w3.org/1999/xlink" x="0px" y="0px"
	 width="512px" height="512px" viewBox="0 0 512 512" enable-background="new 0 0 512 512" xml:space="preserve">
<g>
	<path d="M257.14,98.829c-86.325,0-156.307,69.976-156.307,156.296c0,86.335,69.982,156.317,156.307,156.317
		c86.32,0,156.302-69.981,156.302-156.317C413.442,168.805,343.46,98.829,257.14,98.829z M340.549,275.422H257.14
		c-10.962,0-20.286-9.324-20.286-20.292V140.373c0-10.961,9.324-19.847,20.286-19.847c10.963,0,20.287,8.885,20.287,19.847v94.476
		h63.122c10.957,0,19.852,9.325,19.852,20.282C360.401,266.098,351.506,275.422,340.549,275.422z"/>
	<path d="M257.14,12C123.077,12,14,121.072,14,255.14c0,134.059,109.077,243.13,243.14,243.13
		c134.064,0,243.141-109.072,243.141-243.13C500.281,121.072,391.204,12,257.14,12z M257.14,442.858
		c-103.512,0-187.734-84.21-187.734-187.718c0-103.518,84.222-187.733,187.734-187.733c103.513,0,187.729,84.216,187.729,187.733
		C444.87,358.648,360.653,442.858,257.14,442.858z"/>
</g>
</svg>
