<?xml version="1.0" encoding="utf-8"?>
<!-- Generator: Adobe Illustrator 16.0.0, SVG Export Plug-In . SVG Version: 6.00 Build 0)  -->
<!DOCTYPE svg PUBLIC "-//W3C//DTD SVG 1.1//EN" "http://www.w3.org/Graphics/SVG/1.1/DTD/svg11.dtd">
<svg version="1.1" id="Artwork" xmlns="http://www.w3.org/2000/svg" xmlns:xlink="http://www.w3.org/1999/xlink" x="0px" y="0px"
	 width="512px" height="512px" viewBox="0 0 512 512" enable-background="new 0 0 512 512" xml:space="preserve">
<g>
	<path d="M458.563,86.412l-40.505-55.878c-8.166-11.26-21.132-18.193-35.943-18.337C381.178,12.188,209.323,12,209.323,12v135.937
		c0,2.328-1.136,4.489-3.083,5.75c-1.959,1.259-4.396,1.437-6.5,0.479l-34.298-15.54c-1.771-0.797-3.78-0.807-5.562-0.031
		l-36.151,15.769c-2.114,0.923-4.614,0.725-6.562-0.546c-1.916-1.256-3.156-3.412-3.156-5.714V12H76.725
		c-13.029,0-23.258,10.53-23.258,23.555c0,0,0.604,387.218,0.761,388.218c2.041,12.353,9.196,23.366,19.675,30.185l56.659,37.104
		c6.364,4.145,13.718,6.462,21.289,6.462H402.08c35.226,0,63.92-28.882,63.92-64.101V109.27
		C466,100.984,463.406,93.068,458.563,86.412z M422.13,433.423c0,11.284-8.759,20.222-20.05,20.222H153.184l-40.65-26.425h251.053
		c13.028,0,23.143-10.696,23.143-23.721v-342l35.401,49.223V433.423z"/>
</g>
</svg>
