<?xml version="1.0" encoding="utf-8"?>
<!-- Generator: Adobe Illustrator 16.0.0, SVG Export Plug-In . SVG Version: 6.00 Build 0)  -->
<!DOCTYPE svg PUBLIC "-//W3C//DTD SVG 1.1//EN" "http://www.w3.org/Graphics/SVG/1.1/DTD/svg11.dtd">
<svg version="1.1" id="Artwork" xmlns="http://www.w3.org/2000/svg" xmlns:xlink="http://www.w3.org/1999/xlink" x="0px" y="0px"
	 width="512px" height="512px" viewBox="0 0 512 512" enable-background="new 0 0 512 512" xml:space="preserve">
<g>
	<path d="M259.59,69.345c-25.033-24.254-59.491-36.528-94.342-33.862c-29.776,2.259-57.676,15.698-78.604,36.957
		c-4.063,4.127-12.25,12.313-16.375,16.375c-21.259,20.932-34.7,48.83-36.958,78.605c-2.666,34.851,9.608,69.308,33.861,94.342
		l55.332,56.386c6.388,6.51,15.111,10.195,24.231,10.239c9.119,0.043,17.878-3.562,24.326-10.01l17.064-17.063
		c13.263-13.263,13.358-34.737,0.213-48.117l-54.778-55.756c-10.853-11.177-10.459-30.734,0.638-41.674
		c4.885-4.814,14.581-14.513,19.396-19.396c10.938-11.096,30.497-11.49,41.674-0.637l55.754,54.777
		c13.38,13.146,34.854,13.05,48.117-0.213l17.064-17.063c6.448-6.449,10.052-15.208,10.009-24.328
		c-0.043-9.119-3.729-17.844-10.238-24.23L259.59,69.345z"/>
	<path d="M250.068,444.655c25.034,24.254,59.492,36.528,94.342,33.862c29.776-2.259,57.676-15.698,78.606-36.957
		c4.061-4.127,12.247-12.313,16.374-16.375c21.258-20.931,34.699-48.829,36.958-78.605c2.665-34.851-9.61-69.308-33.862-94.342
		l-55.331-56.386c-6.388-6.509-15.111-10.195-24.231-10.238c-9.119-0.044-17.878,3.561-24.326,10.009l-17.064,17.063
		c-13.263,13.263-13.358,34.737-0.213,48.117l54.777,55.756c10.852,11.177,10.459,30.734-0.638,41.674
		c-4.884,4.814-14.583,14.513-19.397,19.396c-10.938,11.096-30.497,11.49-41.674,0.637l-55.753-54.776
		c-13.38-13.146-34.854-13.051-48.117,0.212l-17.063,17.063c-6.448,6.448-10.053,15.207-10.01,24.327
		c0.043,9.119,3.729,17.844,10.238,24.231L250.068,444.655z"/>
</g>
<path d="M338.129,119.462c8.647,0,15.663-7.016,15.663-15.669v-73.13c0-8.647-7.016-15.663-15.663-15.663
	s-15.652,7.016-15.652,15.663v73.13C322.477,112.446,329.481,119.462,338.129,119.462z"/>
<path d="M477.653,160.329h-73.13c-8.647,0-15.685,6.995-15.685,15.652c0,8.664,7.037,15.653,15.685,15.653h73.13
	c8.637,0,15.662-6.989,15.662-15.653C493.315,167.324,486.29,160.329,477.653,160.329z"/>
<path d="M355.039,156.183c4.084,4.074,9.416,6.116,14.769,6.116c5.354,0,10.695-2.042,14.78-6.116l104.81-104.81
	c8.17-8.159,8.17-21.391,0-29.55c-8.159-8.153-21.38-8.153-29.56,0L355.039,126.639C346.87,134.792,346.87,148.023,355.039,156.183z
	"/>
<path d="M168.358,393.547c-8.667,0-15.663,7.016-15.663,15.663v73.13c0,8.652,6.996,15.667,15.663,15.667
	c8.647,0,15.633-7.015,15.633-15.667v-73.13C183.991,400.563,177.006,393.547,168.358,393.547z"/>
<path d="M28.887,352.985h73.13c8.647,0,15.674-6.999,15.674-15.657c0-8.653-7.026-15.653-15.674-15.653h-73.13
	c-8.658,0-15.664,7-15.664,15.653C13.223,345.986,20.229,352.985,28.887,352.985z"/>
<path d="M151.49,356.826c-8.169-8.159-21.39-8.159-29.56,0L17.111,461.64c-8.148,8.155-8.148,21.391,0,29.544
	c4.094,4.08,9.438,6.111,14.789,6.111c5.354,0,10.695-2.031,14.77-6.111L151.49,386.37
	C159.639,378.216,159.639,364.984,151.49,356.826z"/>
</svg>
