<?xml version="1.0" encoding="utf-8"?>
<!-- Generator: Adobe Illustrator 16.0.0, SVG Export Plug-In . SVG Version: 6.00 Build 0)  -->
<!DOCTYPE svg PUBLIC "-//W3C//DTD SVG 1.1//EN" "http://www.w3.org/Graphics/SVG/1.1/DTD/svg11.dtd">
<svg version="1.1" id="Artwork" xmlns="http://www.w3.org/2000/svg" xmlns:xlink="http://www.w3.org/1999/xlink" x="0px" y="0px"
	 width="512px" height="512px" viewBox="0 0 512 512" enable-background="new 0 0 512 512" xml:space="preserve">
<g>
	<path d="M435.216,9.131H102.182C88.274,9.131,77,20.411,77,34.318v439.495C77,487.72,88.274,499,102.182,499h333.035
		c13.914,0,25.182-11.28,25.182-25.187V34.318C460.398,20.411,449.13,9.131,435.216,9.131z M196.684,395.071
		c0,6.283-5.101,11.383-11.385,11.383h-39.162c-6.29,0-11.385-5.101-11.385-11.383v-39.163c0-6.29,5.095-11.385,11.385-11.385
		h39.162c6.284,0,11.385,5.095,11.385,11.385V395.071z M196.684,296.261c0,6.289-5.101,11.383-11.385,11.383h-39.162
		c-6.29,0-11.385-5.094-11.385-11.383v-39.163c0-6.284,5.095-11.383,11.385-11.383h39.162c6.284,0,11.385,5.099,11.385,11.383
		V296.261z M296.187,395.071c0,6.283-5.095,11.383-11.384,11.383H245.64c-6.289,0-11.385-5.101-11.385-11.383v-39.163
		c0-6.29,5.096-11.385,11.385-11.385h39.162c6.289,0,11.384,5.095,11.384,11.385V395.071z M296.187,296.261
		c0,6.289-5.095,11.383-11.384,11.383H245.64c-6.289,0-11.385-5.094-11.385-11.383v-39.163c0-6.284,5.096-11.383,11.385-11.383
		h39.162c6.289,0,11.384,5.099,11.384,11.383V296.261z M395.694,395.071c0,6.283-5.1,11.383-11.389,11.383h-39.163
		c-6.289,0-11.384-5.101-11.384-11.383v-39.163c0-6.29,5.095-11.385,11.384-11.385h39.163c6.29,0,11.389,5.095,11.389,11.385
		V395.071z M395.694,296.261c0,6.289-5.1,11.383-11.389,11.383h-39.163c-6.289,0-11.384-5.094-11.384-11.383v-39.163
		c0-6.284,5.095-11.383,11.384-11.383h39.163c6.29,0,11.389,5.099,11.389,11.383V296.261z M409.602,165.251
		c0,10.236-8.292,18.534-18.534,18.534h-244.05c-10.226,0-18.528-8.297-18.528-18.534V84.025c0-10.231,8.303-18.527,18.528-18.527
		h244.05c10.242,0,18.534,8.296,18.534,18.527V165.251z"/>
	<path d="M364.03,77.408c-12.526,0-22.617,10.148-22.617,22.674v51.01c0,12.526,10.09,22.674,22.617,22.674
		c12.516,0,22.611-10.148,22.611-22.674v-51.01C386.642,87.556,376.546,77.408,364.03,77.408z"/>
</g>
</svg>
