<?xml version="1.0" encoding="utf-8"?>
<!-- Generator: Adobe Illustrator 16.0.0, SVG Export Plug-In . SVG Version: 6.00 Build 0)  -->
<!DOCTYPE svg PUBLIC "-//W3C//DTD SVG 1.1//EN" "http://www.w3.org/Graphics/SVG/1.1/DTD/svg11.dtd">
<svg version="1.1" id="Artwork" xmlns="http://www.w3.org/2000/svg" xmlns:xlink="http://www.w3.org/1999/xlink" x="0px" y="0px"
	 width="512px" height="512px" viewBox="0 0 512 512" enable-background="new 0 0 512 512" xml:space="preserve">
<g>
	<path d="M189.443,281.31c0-6.114-4.96-11.069-11.08-11.069h-38.665c-6.113,0-11.074,4.955-11.074,11.069v38.66
		c0,6.124,4.961,11.08,11.074,11.08h38.665c6.12,0,11.08-4.956,11.08-11.08V281.31z"/>
	<path d="M286.072,281.31c0-6.114-4.96-11.069-11.069-11.069h-38.67c-6.113,0-11.074,4.955-11.074,11.069v38.66
		c0,6.124,4.961,11.08,11.074,11.08h38.67c6.109,0,11.069-4.956,11.069-11.08V281.31z"/>
	<path d="M382.706,281.31c0-6.114-4.961-11.069-11.074-11.069h-38.665c-6.12,0-11.08,4.955-11.08,11.069v38.66
		c0,6.124,4.96,11.08,11.08,11.08h38.665c6.113,0,11.074-4.956,11.074-11.08V281.31z"/>
	<path d="M189.443,377.95c0-6.125-4.96-11.075-11.08-11.075h-38.665c-6.113,0-11.074,4.95-11.074,11.075v38.654
		c0,6.119,4.961,11.074,11.074,11.074h38.665c6.12,0,11.08-4.956,11.08-11.074V377.95z"/>
	<path d="M286.072,377.95c0-6.125-4.96-11.075-11.069-11.075h-38.67c-6.113,0-11.074,4.95-11.074,11.075v38.654
		c0,6.119,4.961,11.074,11.074,11.074h38.67c6.109,0,11.069-4.956,11.069-11.074V377.95z"/>
	<path d="M382.706,377.95c0-6.125-4.961-11.075-11.069-11.075h-38.67c-6.12,0-11.08,4.95-11.08,11.075v38.654
		c0,6.119,4.96,11.074,11.08,11.074h38.67c6.108,0,11.069-4.956,11.069-11.074V377.95z"/>
	<path d="M451.843,66.354v59.05c0,26.69-21.653,48.198-48.338,48.198h-30.493c-26.689,0-48.627-21.508-48.627-48.198V66.142H186.945
		v59.262c0,26.69-21.938,48.198-48.622,48.198h-30.499c-26.685,0-48.336-21.508-48.336-48.198v-59.05
		C36.165,67.057,17,86.356,17,110.077v346.061c0,24.167,19.588,44.014,43.755,44.014h389.82c24.131,0,43.755-19.888,43.755-44.014
		V110.077C494.33,86.356,475.166,67.057,451.843,66.354z M437.68,434.588c0,10.444-8.468,18.917-18.916,18.917H91.733
		c-10.448,0-18.916-8.473-18.916-18.917V255.835c0-10.448,8.467-18.921,18.916-18.921h327.03c10.448,0,18.916,8.473,18.916,18.921
		V434.588z"/>
	<path d="M107.717,141.945h30.162c9.155,0,16.578-7.412,16.578-16.567V28.573c0-9.156-7.423-16.573-16.578-16.573h-30.162
		c-9.156,0-16.578,7.417-16.578,16.573v96.805C91.139,134.533,98.561,141.945,107.717,141.945z"/>
	<path d="M372.624,141.945h30.162c9.15,0,16.572-7.412,16.572-16.567V28.573c0-9.156-7.422-16.573-16.572-16.573h-30.162
		c-9.154,0-16.577,7.417-16.577,16.573v96.805C356.047,134.533,363.47,141.945,372.624,141.945z"/>
</g>
</svg>
