<?xml version="1.0" encoding="utf-8"?>
<!-- Generator: Adobe Illustrator 16.0.0, SVG Export Plug-In . SVG Version: 6.00 Build 0)  -->
<!DOCTYPE svg PUBLIC "-//W3C//DTD SVG 1.1//EN" "http://www.w3.org/Graphics/SVG/1.1/DTD/svg11.dtd">
<svg version="1.1" id="Artwork" xmlns="http://www.w3.org/2000/svg" xmlns:xlink="http://www.w3.org/1999/xlink" x="0px" y="0px"
	 width="512px" height="512px" viewBox="0 0 512 512" enable-background="new 0 0 512 512" xml:space="preserve">
<g>
	<path d="M461.655,422.963H43.048c-18.25,0-33.048,14.42-33.048,32.671c0,18.25,14.798,32.67,33.048,32.67h418.607
		c18.249,0,33.047-14.42,33.047-32.67C494.702,437.383,479.904,422.963,461.655,422.963z"/>
	<path d="M227.351,379.245c13.862,19.657,37.98,17.842,50.002,0c30.483-45.242,126.299-177.947,126.299-177.947
		c7.234-10.19,6.902-23.929-0.811-33.762c-7.716-9.834-20.984-13.421-32.602-8.819l-73.499,29.111l9.704-143.854
		c0.53-7.827-2.224-15.52-7.6-21.238c-5.376-5.712-12.887-8.935-20.73-8.889h-51.525c-7.844-0.046-15.354,3.176-20.73,8.889
		c-5.376,5.718-8.13,13.412-7.6,21.238l9.704,143.854l-73.499-29.111c-11.617-4.602-24.886-1.015-32.602,8.819
		c-7.713,9.833-8.045,23.571-0.811,33.762C101.052,201.297,195.911,334.663,227.351,379.245z"/>
</g>
</svg>
