<?xml version="1.0" encoding="utf-8"?>
<!-- Generator: Adobe Illustrator 16.0.0, SVG Export Plug-In . SVG Version: 6.00 Build 0)  -->
<!DOCTYPE svg PUBLIC "-//W3C//DTD SVG 1.1//EN" "http://www.w3.org/Graphics/SVG/1.1/DTD/svg11.dtd">
<svg version="1.1" id="Artwork" xmlns="http://www.w3.org/2000/svg" xmlns:xlink="http://www.w3.org/1999/xlink" x="0px" y="0px"
	 width="512px" height="512px" viewBox="0 0 512 512" enable-background="new 0 0 512 512" xml:space="preserve">
<g>
	<path d="M355.069,236.787l-148.351-94.778c-8.49-5.433-19.55-4.619-27.169,1.982c-7.62,6.602-9.991,17.435-5.824,26.621
		l34.471,75.971c1.176,2.605,1.988,5.377,1.988,8.178s-0.813,5.572-1.988,8.178l-34.471,75.971
		c-4.167,9.187-1.796,20.02,5.824,26.621c7.619,6.602,18.679,7.415,27.169,1.982l148.351-94.778
		c6.208-3.963,10.488-10.653,10.488-17.974S361.277,240.75,355.069,236.787z"/>
	<path d="M380.087,9.842H110.064c-32.945,0-59.786,26.955-59.786,59.895v370.367c0,32.936,26.84,59.577,59.786,59.577h317.119
		c32.945,0,59.786-26.642,59.786-59.577V119.348L380.087,9.842z M444.224,440.104c0,9.449-7.586,17.412-17.041,17.412H110.064
		c-9.455,0-17.041-7.963-17.041-17.412V69.736c0-9.448,7.586-17.15,17.041-17.15H359.31v47.695c0,21.081,17.01,38.227,38.079,38.44
		l46.835,0.479V440.104z"/>
</g>
</svg>
