<?xml version="1.0" encoding="utf-8"?>
<!-- Generator: Adobe Illustrator 16.0.0, SVG Export Plug-In . SVG Version: 6.00 Build 0)  -->
<!DOCTYPE svg PUBLIC "-//W3C//DTD SVG 1.1//EN" "http://www.w3.org/Graphics/SVG/1.1/DTD/svg11.dtd">
<svg version="1.1" id="Artwork" xmlns="http://www.w3.org/2000/svg" xmlns:xlink="http://www.w3.org/1999/xlink" x="0px" y="0px"
	 width="512px" height="512px" viewBox="0 0 512 512" enable-background="new 0 0 512 512" xml:space="preserve">
<g>
	<path d="M436.334,144.523h-11.076L299.938,30.034c-24.63-22.474-62.812-22.059-86.931,0.947L94.006,144.523H73.654
		C38.491,144.523,10,173.04,10,208.208v227.101C10,470.488,38.491,499,73.654,499h362.68c35.174,0,63.737-28.512,63.737-63.691
		V208.208C500.071,173.04,471.508,144.523,436.334,144.523z M248.993,68.694c4.393-4.185,11.325-4.252,15.79-0.172l83.193,76
		H169.516L248.993,68.694z M447.784,435.309c0,6.381-5.444,11.403-11.815,11.403H73.426c-6.381,0-11.742-5.022-11.742-11.403
		V208.281c0-6.381,5.361-11.465,11.742-11.465h362.543c6.371,0,11.815,5.084,11.815,11.465V435.309z"/>
	<path d="M135.644,307.844c26.128,0,47.322-21.178,47.322-47.312c0-26.128-21.194-47.317-47.322-47.317
		c-26.129,0-47.312,21.189-47.312,47.317C88.332,286.666,109.515,307.844,135.644,307.844z"/>
	<path d="M411.643,256.759c-6.35-4.591-14.459-5.855-21.912-3.399l-283.349,93.739c-10.764,3.565-17.946,13.625-17.946,24.967
		v31.816c0,6.476,5.153,11.82,11.617,11.82h310.111c6.475,0,11.472-5.345,11.472-11.82v-127.33
		C421.636,268.709,417.992,261.345,411.643,256.759z"/>
</g>
</svg>
