<?xml version="1.0" encoding="utf-8"?>
<!-- Generator: Adobe Illustrator 16.0.0, SVG Export Plug-In . SVG Version: 6.00 Build 0)  -->
<!DOCTYPE svg PUBLIC "-//W3C//DTD SVG 1.1//EN" "http://www.w3.org/Graphics/SVG/1.1/DTD/svg11.dtd">
<svg version="1.1" id="Artwork" xmlns="http://www.w3.org/2000/svg" xmlns:xlink="http://www.w3.org/1999/xlink" x="0px" y="0px"
	 width="512px" height="512px" viewBox="0 0 512 512" enable-background="new 0 0 512 512" xml:space="preserve">
<path d="M497.812,182.905C490.001,122.786,442.672,74.882,382.7,66.395C376.168,65.466,369.542,65,363.01,65
	c-43.417,0-83.353,20.523-108.664,54.18c-25.362-33.038-65.015-53.168-107.866-53.168c-6.626,0-13.358,0.482-19.994,1.437
	C69.313,75.658,22.488,121.03,12.612,177.79c-7.496,43.113,5.169,85.801,34.788,117.292c3.901,4.676,9.132,10.621,13.882,15.994
	l4.058,4.619c29.976,34.18,93.586,95.861,137.779,135.619c13.798,12.435,32.765,19.674,52.036,19.674h0.545
	c19.921-0.466,38.992-7.475,52.339-19.947c37.19-34.693,61.598-59.484,102.257-101.827l1.552-1.625
	c45.996-47.485,53.818-57.042,56.386-60.507C492.234,257.797,502.74,220.828,497.812,182.905z M426.422,253.535
	c-12.265,15.056-8.985,11.245-53.053,56.738l-1.73,1.782c-39.947,41.583-63.883,65.749-100.17,99.6
	c-3.586,3.35-11.607,5.316-16.251,5.316c-6.103,0-12.173-2.061-16.21-5.699c-42.096-37.886-105.078-98.697-133.365-130.963
	l-4.162-4.697c-4.613-5.227-10.889-12.692-14.637-16.817c-17.771-19.563-26.055-45.31-21.431-71.821
	c5.944-34.19,34.2-61.529,68.695-66.483c4.121-0.586,8.272-0.886,12.372-0.886c32.764,0,62.405,19.407,75.531,49.43
	c5.672,12.991,18.421,21.374,32.523,21.374c14.217,0,27.03-8.494,32.649-21.662c14.542-34.165,50.526-54.542,88.009-49.293
	c35.617,5.048,64.827,34.625,69.472,70.341C447.684,213.09,441.037,235.594,426.422,253.535z"/>
</svg>
