<?xml version="1.0" encoding="utf-8"?>
<!-- Generator: Adobe Illustrator 16.0.0, SVG Export Plug-In . SVG Version: 6.00 Build 0)  -->
<!DOCTYPE svg PUBLIC "-//W3C//DTD SVG 1.1//EN" "http://www.w3.org/Graphics/SVG/1.1/DTD/svg11.dtd">
<svg version="1.1" id="Artwork" xmlns="http://www.w3.org/2000/svg" xmlns:xlink="http://www.w3.org/1999/xlink" x="0px" y="0px"
	 width="512px" height="512px" viewBox="0 0 512 512" enable-background="new 0 0 512 512" xml:space="preserve">
<g>
	<path d="M254.752,10.519c-134.674,0-244.236,109.563-244.236,244.237c0,134.678,109.563,244.243,244.236,244.243
		C389.436,498.999,499,389.435,499,254.756C499,120.083,389.436,10.519,254.752,10.519z M254.752,424.137
		c-93.4,0-169.38-75.979-169.38-169.38c0-93.396,75.979-169.375,169.38-169.375c93.401,0,169.392,75.979,169.392,169.375
		C424.144,348.157,348.153,424.137,254.752,424.137z"/>
	<path d="M254.752,217.333c-14.757,0-26.619,11.962-26.619,26.73v118.709c0,14.768,11.862,26.736,26.619,26.736
		c14.769,0,26.62-11.968,26.62-26.736V244.063C281.372,229.295,269.521,217.333,254.752,217.333z"/>
	<path d="M254.752,118.41c-19.949,0-36.102,16.158-36.102,36.091c0,19.934,16.152,36.092,36.102,36.092
		c19.929,0,36.081-16.158,36.081-36.092C290.833,134.568,274.681,118.41,254.752,118.41z"/>
</g>
</svg>
