<?xml version="1.0" encoding="utf-8"?>
<!-- Generator: Adobe Illustrator 16.0.0, SVG Export Plug-In . SVG Version: 6.00 Build 0)  -->
<!DOCTYPE svg PUBLIC "-//W3C//DTD SVG 1.1//EN" "http://www.w3.org/Graphics/SVG/1.1/DTD/svg11.dtd">
<svg version="1.1" id="Artwork" xmlns="http://www.w3.org/2000/svg" xmlns:xlink="http://www.w3.org/1999/xlink" x="0px" y="0px"
	 width="512px" height="512px" viewBox="0 0 512 512" enable-background="new 0 0 512 512" xml:space="preserve">
<g>
	<path d="M464.254,52.41l-16.565-14.656c-18.03-15.978-41.238-24.779-65.353-24.779c-28.223,0-55.118,12.079-73.791,33.143
		l-47.408,53.497c-6.105,6.876-9.164,15.722-8.608,24.901c0.557,9.166,4.642,17.576,11.518,23.673l4.438,3.94
		c6.299,5.594,14.416,8.673,22.842,8.673l2.054-0.059c9.166-0.551,17.582-4.637,23.699-11.523l47.418-53.503
		c8.342-9.416,24.169-10.362,33.601-2.026l16.557,14.688c4.748,4.203,7.571,10.021,7.955,16.384
		c0.386,6.358-1.721,12.465-5.936,17.208L312.973,258.953c-6.983,7.888-19.378,10.165-28.735,5.342
		c-14.577-7.518-33.58-3.93-44.392,8.256l-0.813,0.926c-7.573,8.518-10.727,19.838-8.674,31.104
		c2.074,11.198,9.047,20.801,19.153,26.09c13.987,7.31,29.763,11.33,45.622,11.33h0.011c28.211,0,55.118-12.239,73.8-33.308
		l103.692-117.046C508.677,150.981,504.935,88.487,464.254,52.41z"/>
	<path d="M239.803,360.213c-13.668-12.102-36.425-10.743-48.574,2.939l-47.396,53.488c-8.342,9.411-24.159,10.385-33.58,2.042
		l-16.576-14.704c-4.748-4.208-7.571-10.026-7.956-16.384c-0.386-6.347,1.722-12.453,5.935-17.196l103.692-116.974
		c6.876-7.765,19.047-10.111,28.297-5.566c15.121,7.448,34.36,3.818,46.05-9.416c7.433-8.374,10.555-19.496,8.586-30.463
		c-1.956-11.031-8.747-20.389-18.618-25.666c-14.201-7.604-30.275-11.624-46.466-11.624c-28.223,0-55.118,12.084-73.791,33.151
		L35.703,320.793c-36.062,40.666-32.308,103.083,8.361,139.143l16.565,14.482C78.65,490.396,101.857,499,125.973,499
		c0.011,0,0,0,0.011,0c28.223,0,55.129-11.888,73.812-32.956l47.387-53.379c6.117-6.887,9.176-15.692,8.619-24.82
		c-0.534-9.068-4.737-17.694-11.539-23.706L239.803,360.213z"/>
</g>
</svg>
