<?xml version="1.0" encoding="utf-8"?>
<!-- Generator: Adobe Illustrator 16.0.0, SVG Export Plug-In . SVG Version: 6.00 Build 0)  -->
<!DOCTYPE svg PUBLIC "-//W3C//DTD SVG 1.1//EN" "http://www.w3.org/Graphics/SVG/1.1/DTD/svg11.dtd">
<svg version="1.1" id="Artwork" xmlns="http://www.w3.org/2000/svg" xmlns:xlink="http://www.w3.org/1999/xlink" x="0px" y="0px"
	 width="512px" height="512px" viewBox="0 0 512 512" enable-background="new 0 0 512 512" xml:space="preserve">
<g>
	<path d="M382.481,11H113.533C80.717,11,54,37.686,54,70.502v368.892c0,32.815,26.717,59.501,59.533,59.501h315.862
		c32.8,0,59.74-26.686,59.74-59.501V119.908L382.481,11z M429.395,456.834H113.533c-9.417,0-16.704-8.025-16.704-17.44V70.502
		c0-9.416,7.288-17.44,16.704-17.44H362.19v47.863c0,20.991,16.704,38.075,37.695,38.282l46.42,0.477v299.71
		C446.306,448.809,438.805,456.834,429.395,456.834z"/>
	<path d="M294.809,107.844c-11.212-1.646-22.397,1.74-30.958,9.156c-8.554,7.424-13.308,18.158-13.308,29.469v134.3
		c-9.183-4.151-19.394-6.468-30.066-6.468c-39.916,0-72.328,32.35-72.328,72.256s32.313,72.261,72.214,72.261
		c39.912,0,72.24-32.354,72.24-72.261c0-0.659-0.058-1.318-0.072-1.978c0.072-0.731,0.062-1.469,0.062-2.227V163.884
		c0-3.38,1.718-6.546,4.511-8.445c2.798-1.905,6.37-2.299,9.525-1.063c25.923,10.225,27.329,31.195,27.849,38.909
		c0.778,11.689,10.973,20.565,22.574,19.756c11.689-0.778,20.54-10.885,19.767-22.574C373.786,145,343.893,114.894,294.809,107.844z
		"/>
</g>
</svg>
