<?xml version="1.0" encoding="utf-8"?>
<!-- Generator: Adobe Illustrator 16.0.0, SVG Export Plug-In . SVG Version: 6.00 Build 0)  -->
<!DOCTYPE svg PUBLIC "-//W3C//DTD SVG 1.1//EN" "http://www.w3.org/Graphics/SVG/1.1/DTD/svg11.dtd">
<svg version="1.1" id="Artwork" xmlns="http://www.w3.org/2000/svg" xmlns:xlink="http://www.w3.org/1999/xlink" x="0px" y="0px"
	 width="512px" height="512px" viewBox="0 0 512 512" enable-background="new 0 0 512 512" xml:space="preserve">
<path d="M483.684,50.715c-8.702-29.95-40.07-47.178-69.979-38.443L114.371,99.347c-29.945,8.707-47.156,40.044-38.444,69.985
	c7.181,24.683,29.853,40.71,54.321,40.71c0.198,0,0.136-0.011,0.725-0.016v111.759c-7.707-1.849-14.866-2.828-22.636-2.828
	C58.477,318.957,18,359.37,18,409.23c0,49.852,40.439,90.271,90.29,90.271c49.861,0,90.302-40.419,90.302-90.271V192.482
	l182.076-52.956v122.575c-7.122-1.844-14.808-2.834-22.578-2.834c-49.851,0-90.306,40.42-90.306,90.275
	c0,49.86,40.399,90.274,90.244,90.274c49.86,0,90.274-40.414,90.274-90.274c0-0.735-0.025-1.464-0.025-2.199V119.72
	C476.154,109.852,492.109,79.635,483.684,50.715z"/>
</svg>
