<?xml version="1.0" encoding="utf-8"?>
<!-- Generator: Adobe Illustrator 16.0.0, SVG Export Plug-In . SVG Version: 6.00 Build 0)  -->
<!DOCTYPE svg PUBLIC "-//W3C//DTD SVG 1.1//EN" "http://www.w3.org/Graphics/SVG/1.1/DTD/svg11.dtd">
<svg version="1.1" id="Artwork" xmlns="http://www.w3.org/2000/svg" xmlns:xlink="http://www.w3.org/1999/xlink" x="0px" y="0px"
	 width="512px" height="512px" viewBox="0 0 512 512" enable-background="new 0 0 512 512" xml:space="preserve">
<path d="M373.343,9h-269.55C70.905,9,44.152,35.753,44.152,68.636v369.729c0,32.883,26.752,59.636,59.641,59.636h316.566
	C453.248,498,480,471.247,480,438.364V118.16L373.343,9z M420.359,455.479H103.793c-9.437,0-17.119-7.678-17.119-17.114V68.636
	c0-9.437,7.683-17.114,17.119-17.114h248.642v47.604c0,21.043,17.109,38.162,38.152,38.375l46.892,0.477v300.388
	C437.479,447.801,429.795,455.479,420.359,455.479z"/>
</svg>
