<?xml version="1.0" encoding="utf-8"?>
<!-- Generator: Adobe Illustrator 16.0.0, SVG Export Plug-In . SVG Version: 6.00 Build 0)  -->
<!DOCTYPE svg PUBLIC "-//W3C//DTD SVG 1.1//EN" "http://www.w3.org/Graphics/SVG/1.1/DTD/svg11.dtd">
<svg version="1.1" id="Artwork" xmlns="http://www.w3.org/2000/svg" xmlns:xlink="http://www.w3.org/1999/xlink" x="0px" y="0px"
	 width="512px" height="512px" viewBox="0 0 512 512" enable-background="new 0 0 512 512" xml:space="preserve">
<g>
	<path d="M485.072,385.353L281.379,212.846c8.437-18.11,13.284-38.229,13.284-59.52C294.663,75.276,231.376,12,153.332,12
		C75.287,12,12,75.276,12,153.326c0,78.049,63.287,141.326,141.332,141.326c25.748,0,49.825-7,70.624-19.039l58.958,49.935
		l-17.383,20.529c-15.173,17.917-12.942,44.74,4.972,59.914c7.979,6.767,17.746,10.072,27.45,10.072
		c12.059,0,24.047-5.105,32.463-15.033L347.8,380.5l17.445,14.78l-27.472,32.442c-15.172,17.913-12.94,44.736,4.972,59.909
		c7.991,6.766,17.746,10.072,27.45,10.072c12.061,0,24.058-5.112,32.463-15.039l27.473-32.437
		c7.99,6.767,17.746,10.072,27.45,10.072c12.059,0,24.056-5.105,32.464-15.038C505.217,427.348,502.985,400.526,485.072,385.353z
		 M119.612,166.33c-24.326,0-44.056-19.725-44.056-44.056c0-24.337,19.729-44.061,44.056-44.061
		c24.338,0,44.066,19.724,44.066,44.061C163.679,146.605,143.95,166.33,119.612,166.33z"/>
</g>
</svg>
