<?xml version="1.0" encoding="utf-8"?>
<!-- Generator: Adobe Illustrator 16.0.0, SVG Export Plug-In . SVG Version: 6.00 Build 0)  -->
<!DOCTYPE svg PUBLIC "-//W3C//DTD SVG 1.1//EN" "http://www.w3.org/Graphics/SVG/1.1/DTD/svg11.dtd">
<svg version="1.1" id="Artwork" xmlns="http://www.w3.org/2000/svg" xmlns:xlink="http://www.w3.org/1999/xlink" x="0px" y="0px"
	 width="512px" height="512px" viewBox="0 0 512 512" enable-background="new 0 0 512 512" xml:space="preserve">
<g>
	<path d="M368.639,13H99.645C66.826,13,40,39.77,40,72.587v368.947c0,32.818,26.826,59.438,59.645,59.438h315.911
		c32.818,0,59.645-26.619,59.645-59.438V122.002L368.639,13z M415.555,458.576H99.645c-9.412,0-17.238-7.619-17.238-17.042V72.587
		c0-9.422,7.826-17.191,17.238-17.191h248.377v47.611c0,21.001,17.03,38.083,38.022,38.302l46.75,0.466v299.76
		C432.793,450.957,424.967,458.576,415.555,458.576z"/>
	<path d="M194.928,272.063c41.536,0,75.235-33.674,75.235-75.229c0-41.552-33.699-75.23-75.235-75.23
		c-41.546,0-75.225,33.679-75.225,75.23C119.703,238.389,153.381,272.063,194.928,272.063z"/>
	<path d="M385.4,253.56c-6.343-4.265-14.428-5.1-21.508-2.212L136.33,343.956c-10.075,4.104-16.73,13.899-16.73,24.784v24.878
		c0,11.475,9.402,20.83,20.866,20.83h234.269c11.464,0,20.866-9.355,20.866-20.83V272.627
		C395.601,264.978,391.744,257.831,385.4,253.56z"/>
</g>
</svg>
