<?xml version="1.0" encoding="utf-8"?>
<!-- Generator: Adobe Illustrator 16.0.0, SVG Export Plug-In . SVG Version: 6.00 Build 0)  -->
<!DOCTYPE svg PUBLIC "-//W3C//DTD SVG 1.1//EN" "http://www.w3.org/Graphics/SVG/1.1/DTD/svg11.dtd">
<svg version="1.1" id="Artwork" xmlns="http://www.w3.org/2000/svg" xmlns:xlink="http://www.w3.org/1999/xlink" x="0px" y="0px"
	 width="512px" height="512px" viewBox="0 0 512 512" enable-background="new 0 0 512 512" xml:space="preserve">
<g>
	<path d="M453.294,191.384h-5.575v-70.458L354.8,11H119.097c-29.983,0-54.338,26.482-54.338,59.346v121.039h-5.449
		c-23.578,0-42.853,18.854-42.853,42.433v117.007c0,23.589,19.275,42.591,42.853,42.591h5.449v47.458
		c0,32.858,24.355,59.666,54.338,59.666h274.379c30.014,0,54.244-26.808,54.244-59.666v-47.458h5.575
		c23.589,0,42.706-19.002,42.706-42.591V233.817C496,210.239,476.883,191.384,453.294,191.384z M63.845,254.945
		c-10.466,0-18.938-8.473-18.938-18.935c0-10.455,8.472-18.938,18.938-18.938c10.457,0,18.929,8.483,18.929,18.938
		C82.773,246.473,74.301,254.945,63.845,254.945z M405.538,440.872c0,9.228-5.585,17.474-12.063,17.474H119.097
		c-6.445,0-12.157-8.247-12.157-17.474v-47.458h298.598V440.872z M405.538,191.384H106.94V70.346
		c0-9.228,5.711-17.154,12.157-17.154H329.5v45.021c0,23.751,19.044,43.079,42.801,43.32l33.237,0.335V191.384z"/>
	<path d="M159.935,441.701h187.696c8.755,0,15.852-7.06,15.852-15.815c0-8.76-7.097-15.821-15.852-15.821H159.935
		c-8.756,0-15.853,7.061-15.853,15.821C144.082,434.641,151.178,441.701,159.935,441.701z"/>
</g>
</svg>
