<?xml version="1.0" encoding="utf-8"?>
<!-- Generator: Adobe Illustrator 16.0.0, SVG Export Plug-In . SVG Version: 6.00 Build 0)  -->
<!DOCTYPE svg PUBLIC "-//W3C//DTD SVG 1.1//EN" "http://www.w3.org/Graphics/SVG/1.1/DTD/svg11.dtd">
<svg version="1.1" id="Artwork" xmlns="http://www.w3.org/2000/svg" xmlns:xlink="http://www.w3.org/1999/xlink" x="0px" y="0px"
	 width="512px" height="512px" viewBox="0 0 512 512" enable-background="new 0 0 512 512" xml:space="preserve">
<path d="M124.745,104.167H333.67l-17.507-42.795c-3.724-9.132-1-19.574,6.691-25.744c7.701-6.166,18.538-6.508,26.639-0.879
	l141.466,98.261c6.197,4.304,9.795,11.457,9.563,18.995c-0.231,7.533-4.261,14.446-10.71,18.359l-147.925,89.823
	c-8.417,5.108-19.18,4.093-26.481-2.499c-7.312-6.591-9.427-17.312-5.219-26.202l19.443-41.132H124.745
	c-15.119,0-27.418,12.536-27.418,27.654V367.86c0,15.118,12.299,27.19,27.418,27.19h226.74c20.226,0,36.623,16.396,36.623,36.623
	v12.942c0,20.227-16.397,36.623-36.623,36.623h-226.74c-62.642,0-113.605-50.732-113.605-113.379V218.009
	C11.139,155.362,62.103,104.167,124.745,104.167z"/>
</svg>
