<?xml version="1.0" encoding="utf-8"?>
<!-- Generator: Adobe Illustrator 16.0.0, SVG Export Plug-In . SVG Version: 6.00 Build 0)  -->
<!DOCTYPE svg PUBLIC "-//W3C//DTD SVG 1.1//EN" "http://www.w3.org/Graphics/SVG/1.1/DTD/svg11.dtd">
<svg version="1.1" id="Artwork" xmlns="http://www.w3.org/2000/svg" xmlns:xlink="http://www.w3.org/1999/xlink" x="0px" y="0px"
	 width="512px" height="512px" viewBox="0 0 512 512" enable-background="new 0 0 512 512" xml:space="preserve">
<path d="M486.409,31.156c-11.08-11.076-27.016-15.801-42.341-12.552L92.303,93.223c-20,4.244-34.85,21.106-36.527,41.486
	c-1.683,20.38,10.209,39.445,29.247,46.904l123.833,48.526L28.844,374.104c-9.992,7.99-16.231,19.759-17.238,32.513
	c-1.006,12.754,3.311,25.355,11.92,34.81l35.577,39.071c8.66,9.511,20.895,14.99,33.759,15.124
	c12.871,0.129,25.211-5.099,34.062-14.436L289.642,309.61l46.569,120.998c7.362,19.127,26.434,31.143,46.869,29.521
	c20.431-1.627,37.371-16.493,41.621-36.543l74.261-350.088C502.21,58.172,497.491,42.237,486.409,31.156z"/>
</svg>
