<?xml version="1.0" encoding="utf-8"?>
<!-- Generator: Adobe Illustrator 16.0.0, SVG Export Plug-In . SVG Version: 6.00 Build 0)  -->
<!DOCTYPE svg PUBLIC "-//W3C//DTD SVG 1.1//EN" "http://www.w3.org/Graphics/SVG/1.1/DTD/svg11.dtd">
<svg version="1.1" id="Artwork" xmlns="http://www.w3.org/2000/svg" xmlns:xlink="http://www.w3.org/1999/xlink" x="0px" y="0px"
	 width="512px" height="512px" viewBox="0 0 512 512" enable-background="new 0 0 512 512" xml:space="preserve">
<g>
	<path d="M255.831,11.322C121.383,11.322,12,120.711,12,255.163C12,389.617,121.383,499,255.831,499
		c134.454,0,243.842-109.383,243.842-243.837C499.673,120.711,390.285,11.322,255.831,11.322z M255.831,424.264
		c-93.238,0-169.095-75.857-169.095-169.101c0-93.242,75.857-169.104,169.095-169.104c93.243,0,169.105,75.862,169.105,169.104
		C424.937,348.406,349.074,424.264,255.831,424.264z"/>
	<path d="M289.081,212.963l-24.293-74.944c-1.257-3.879-4.87-6.589-8.941-6.589c-4.077,0-7.684,2.58-8.946,6.448l-24.299,75.112
		c-1.256,3.872-4.869,6.828-8.946,6.828h-78.427c-4.076,0-7.694,2.278-8.946,6.162c-1.257,3.884,0.141,7.956,3.452,10.338
		l63.34,45.558c3.321,2.394,4.713,6.621,3.44,10.511l-24.22,74.142c-1.267,3.873,0.105,8.111,3.399,10.51
		c3.299,2.397,7.762,2.397,11.062,0.005l63.559-46.131c3.295-2.393,7.763-2.393,11.058,0.005l63.548,46.268
		c3.295,2.397,7.763,2.403,11.062,0.004c3.3-2.393,4.676-6.641,3.416-10.52l-24.232-74.366c-1.266-3.895,0.125-8.153,3.447-10.546
		l63.324-45.61c3.316-2.388,4.708-6.282,3.457-10.166c-1.256-3.884-4.87-6.162-8.951-6.162h-78.417
		C293.95,219.818,290.342,216.842,289.081,212.963z"/>
</g>
</svg>
