<?xml version="1.0" encoding="utf-8"?>
<!-- Generator: Adobe Illustrator 16.0.0, SVG Export Plug-In . SVG Version: 6.00 Build 0)  -->
<!DOCTYPE svg PUBLIC "-//W3C//DTD SVG 1.1//EN" "http://www.w3.org/Graphics/SVG/1.1/DTD/svg11.dtd">
<svg version="1.1" id="Artwork" xmlns="http://www.w3.org/2000/svg" xmlns:xlink="http://www.w3.org/1999/xlink" x="0px" y="0px"
	 width="512px" height="512px" viewBox="0 0 512 512" enable-background="new 0 0 512 512" xml:space="preserve">
<g>
	<path d="M498.77,255.877C498.77,121.402,389.368,12,254.887,12C120.402,12,11,121.402,11,255.877
		C11,390.362,120.402,499.77,254.887,499.77C389.368,499.77,498.77,390.362,498.77,255.877z M85.754,255.877
		c0-93.251,75.872-169.124,169.133-169.124c93.257,0,169.129,75.872,169.129,169.124c0,93.262-75.872,169.139-169.129,169.139
		C161.626,425.016,85.754,349.14,85.754,255.877z"/>
	<path d="M293.414,294.372h53.027c21.79,0,39.446-17.592,39.446-39.373c0-20.965-17.001-37.898-37.967-37.898h-54.507v-52.783
		c0-21.79-17.583-39.447-39.373-39.447c-20.965,0-37.893,16.992-37.893,37.963v54.267h-54.3c-20.976,0-38.181,17.077-38.181,38.047
		v1.474c0,20.971,17.205,37.749,38.181,37.749h54.3v54.549c0,20.976,17.028,37.937,38.004,37.937h1.463
		c20.976,0,37.798-16.96,37.798-37.937V294.372z"/>
</g>
</svg>
