<?xml version="1.0" encoding="utf-8"?>
<!-- Generator: Adobe Illustrator 16.0.0, SVG Export Plug-In . SVG Version: 6.00 Build 0)  -->
<!DOCTYPE svg PUBLIC "-//W3C//DTD SVG 1.1//EN" "http://www.w3.org/Graphics/SVG/1.1/DTD/svg11.dtd">
<svg version="1.1" id="Artwork" xmlns="http://www.w3.org/2000/svg" xmlns:xlink="http://www.w3.org/1999/xlink" x="0px" y="0px"
	 width="512px" height="512px" viewBox="0 0 512 512" enable-background="new 0 0 512 512" xml:space="preserve">
<g>
	<g>
		<path d="M253.833,498.677C119.936,498.677,11,389.742,11,255.838C11,121.936,119.936,13,253.833,13
			c133.909,0,242.844,108.936,242.844,242.838C496.677,389.742,387.742,498.677,253.833,498.677z M253.833,87.431
			c-92.861,0-168.403,75.546-168.403,168.407c0,92.862,75.542,168.408,168.403,168.408S422.247,348.7,422.247,255.838
			C422.247,162.977,346.694,87.431,253.833,87.431z"/>
	</g>
	<g>
		<g>
			<path d="M384.283,256.57c0,20.88-16.926,37.807-37.806,37.807H161.198c-20.879,0-37.805-16.926-37.805-37.805
				c0-21.69,17.583-39.273,39.273-39.273h183.81c20.88,0,37.806,16.927,37.806,37.807V256.57z"/>
		</g>
	</g>
</g>
</svg>
