<?xml version="1.0" encoding="utf-8"?>
<!-- Generator: Adobe Illustrator 16.0.0, SVG Export Plug-In . SVG Version: 6.00 Build 0)  -->
<!DOCTYPE svg PUBLIC "-//W3C//DTD SVG 1.1//EN" "http://www.w3.org/Graphics/SVG/1.1/DTD/svg11.dtd">
<svg version="1.1" id="Artwork" xmlns="http://www.w3.org/2000/svg" xmlns:xlink="http://www.w3.org/1999/xlink" x="0px" y="0px"
	 width="512px" height="512px" viewBox="0 0 512 512" enable-background="new 0 0 512 512" xml:space="preserve">
<g>
	<path d="M474.229,222.831H459.02c-5.236-31.496-17.611-60.576-35.425-85.512l10.757-10.757c10.781-10.781,10.781-28.261,0-39.042
		l-9.041-9.041c-10.781-10.781-28.26-10.781-39.041,0l-10.758,10.757C350.576,71.423,321.496,59.047,290,53.812V38.603
		c0-15.246-12.36-27.606-27.606-27.606h-12.787C234.36,10.996,222,23.356,222,38.603v15.209
		c-31.495,5.236-60.576,17.611-85.512,35.425L125.73,78.479c-10.78-10.781-28.261-10.781-39.041,0l-9.041,9.041
		c-10.781,10.781-10.781,28.261,0,39.042l10.757,10.757c-17.813,24.936-30.188,54.016-35.425,85.512H37.771
		c-15.246,0-27.606,12.36-27.606,27.607v12.786c0,15.247,12.36,27.607,27.606,27.607H52.98
		c5.236,31.496,17.611,60.576,35.425,85.512L77.648,387.1c-10.781,10.781-10.781,28.261,0,39.042l9.041,9.041
		c10.78,10.781,28.261,10.781,39.041,0l10.758-10.757c24.936,17.813,54.017,30.189,85.512,35.425v15.208
		c0,15.247,12.36,27.607,27.606,27.607h12.787c15.246,0,27.606-12.36,27.606-27.607v-15.208
		c31.496-5.235,60.576-17.611,85.512-35.425l10.758,10.757c10.781,10.781,28.26,10.781,39.041,0l9.041-9.041
		c10.781-10.781,10.781-28.261,0-39.042l-10.757-10.757c17.813-24.936,30.189-54.016,35.425-85.512h15.209
		c15.246,0,27.606-12.36,27.606-27.607v-12.786C501.835,235.191,489.475,222.831,474.229,222.831z M256,386.662
		c-71.703,0-129.831-58.127-129.831-129.831C126.169,185.127,184.297,127,256,127c71.705,0,129.831,58.127,129.831,129.831
		C385.831,328.535,327.705,386.662,256,386.662z"/>
	<circle cx="256" cy="256.831" r="71.831"/>
</g>
</svg>
