<?xml version="1.0" encoding="utf-8"?>
<!-- Generator: Adobe Illustrator 16.0.0, SVG Export Plug-In . SVG Version: 6.00 Build 0)  -->
<!DOCTYPE svg PUBLIC "-//W3C//DTD SVG 1.1//EN" "http://www.w3.org/Graphics/SVG/1.1/DTD/svg11.dtd">
<svg version="1.1" id="Artwork" xmlns="http://www.w3.org/2000/svg" xmlns:xlink="http://www.w3.org/1999/xlink" x="0px" y="0px"
	 width="512px" height="512px" viewBox="0 0 512 512" enable-background="new 0 0 512 512" xml:space="preserve">
<g>
	<path d="M385.525,11H122.563C61.092,11,11.084,61.009,11.084,122.475v262.967c0,61.466,50.008,111.475,111.479,111.475h262.963
		c61.466,0,111.475-50.009,111.475-111.475V122.475C497,61.009,446.991,11,385.525,11z M436.052,385.648
		c0,28.022-22.72,50.736-50.743,50.736H122.352c-28.022,0-50.736-22.714-50.736-50.736V122.69c0-28.022,22.714-50.742,50.736-50.742
		h262.957c28.023,0,50.743,22.72,50.743,50.742V385.648z"/>
	<path d="M413.775,135.938c0-23.269-18.863-42.138-42.132-42.138H136.022c-23.269,0-42.138,18.869-42.138,42.138V371.56
		c0,23.27,18.869,42.132,42.138,42.132h235.621c23.269,0,42.132-18.862,42.132-42.132V135.938z M365.426,365.343H142.657v-222.77
		h222.769V365.343z"/>
</g>
</svg>
