<?xml version="1.0" encoding="utf-8"?>
<!-- Generator: Adobe Illustrator 16.0.0, SVG Export Plug-In . SVG Version: 6.00 Build 0)  -->
<!DOCTYPE svg PUBLIC "-//W3C//DTD SVG 1.1//EN" "http://www.w3.org/Graphics/SVG/1.1/DTD/svg11.dtd">
<svg version="1.1" id="Artwork" xmlns="http://www.w3.org/2000/svg" xmlns:xlink="http://www.w3.org/1999/xlink" x="0px" y="0px"
	 width="512px" height="512px" viewBox="0 0 512 512" enable-background="new 0 0 512 512" xml:space="preserve">
<path d="M419.703,227.348h-8.891v-72.198c0-76.962-61.075-141.253-137.411-142.625c-2.084-0.038-6.254-0.038-8.338,0
	c-76.337,1.372-137.411,65.663-137.411,142.625v1.603c0,16.182,13.118,29.3,29.3,29.3c16.182,0,29.299-13.118,29.299-29.3v-1.603
	c0-45.845,37.257-83.752,82.98-83.752s82.981,37.907,82.981,83.752v72.198H118.762c-13.702,0-24.878,14.139-24.878,31.601V467.65
	c0,17.441,11.176,31.712,24.878,31.712h300.941c13.703,0,24.878-14.271,24.878-31.712V258.948
	C444.582,241.486,433.406,227.348,419.703,227.348z M297.427,363.087v63.061c0,7.222-6.046,13.332-13.273,13.332h-29.842
	c-7.228,0-13.273-6.11-13.273-13.332v-63.061c-7.009-6.9-11.09-16.44-11.09-26.993c0-19.999,15.459-37.185,35.115-37.977
	c2.083-0.085,6.255-0.085,8.338,0c19.656,0.792,35.115,17.978,35.115,37.977C308.517,346.646,304.436,356.187,297.427,363.087z"/>
</svg>
