<?xml version="1.0" encoding="utf-8"?>
<!-- Generator: Adobe Illustrator 16.0.0, SVG Export Plug-In . SVG Version: 6.00 Build 0)  -->
<!DOCTYPE svg PUBLIC "-//W3C//DTD SVG 1.1//EN" "http://www.w3.org/Graphics/SVG/1.1/DTD/svg11.dtd">
<svg version="1.1" id="Artwork" xmlns="http://www.w3.org/2000/svg" xmlns:xlink="http://www.w3.org/1999/xlink" x="0px" y="0px"
	 width="512px" height="512px" viewBox="0 0 512 512" enable-background="new 0 0 512 512" xml:space="preserve">
<g>
	<path d="M469.037,423.684H50.43c-18.25,0-33.048,14.42-33.048,32.671c0,18.25,14.798,32.67,33.048,32.67h418.607
		c18.249,0,33.047-14.42,33.047-32.67C502.084,438.104,487.286,423.684,469.037,423.684z"/>
	<path d="M284.734,28.637c-13.862-19.657-37.98-17.842-50.002,0c-30.483,45.242-126.299,177.947-126.299,177.947
		c-7.234,10.19-6.902,23.929,0.811,33.762c7.716,9.834,20.984,13.421,32.602,8.819l73.499-29.111l-9.704,143.854
		c-0.53,7.827,2.224,15.52,7.6,21.238c5.376,5.712,12.887,8.935,20.73,8.889h51.525c7.844,0.046,15.354-3.176,20.73-8.889
		c5.376-5.718,8.13-13.412,7.6-21.238l-9.704-143.854l73.499,29.111c11.617,4.602,24.886,1.015,32.602-8.819
		c7.713-9.833,8.045-23.571,0.811-33.762C411.033,206.584,316.174,73.219,284.734,28.637z"/>
</g>
</svg>
