<?xml version="1.0" encoding="utf-8"?>
<!-- Generator: Adobe Illustrator 16.0.0, SVG Export Plug-In . SVG Version: 6.00 Build 0)  -->
<!DOCTYPE svg PUBLIC "-//W3C//DTD SVG 1.1//EN" "http://www.w3.org/Graphics/SVG/1.1/DTD/svg11.dtd">
<svg version="1.1" id="Artwork" xmlns="http://www.w3.org/2000/svg" xmlns:xlink="http://www.w3.org/1999/xlink" x="0px" y="0px"
	 width="512px" height="512px" viewBox="0 0 512 512" enable-background="new 0 0 512 512" xml:space="preserve">
<g>
	<path d="M496.434,438.672c-0.675-12.079-6.263-23.347-15.46-31.204L356.263,300.973c18.688-29.096,29.531-63.675,29.531-100.742
		c0-103.059-83.84-186.898-186.897-186.898C95.834,13.333,12,97.172,12,200.231c0,103.058,83.834,186.897,186.897,186.897
		c32.663,0,63.394-8.434,90.132-23.218l118.798,121.732c8.448,8.656,20.065,13.481,32.165,13.355
		c12.084-0.125,23.602-5.192,31.868-14.02l12.692-13.575C492.819,462.569,497.113,450.746,496.434,438.672z M67.631,200.231
		c0-72.379,58.893-131.266,131.266-131.266c72.378,0,131.26,58.887,131.26,131.266c0,72.377-58.882,131.265-131.26,131.265
		C126.523,331.496,67.631,272.608,67.631,200.231z"/>
	<path d="M269.759,175.928h-46.232v-46.559c0-13.487-10.952-24.459-24.432-24.459c-13.492,0-24.433,10.973-24.433,24.459v46.559
		h-46.627c-13.485,0-24.458,10.957-24.458,24.433c0,13.485,10.973,24.432,24.458,24.432h46.627v46.299
		c0,13.481,10.941,24.458,24.433,24.458c13.479,0,24.432-10.977,24.432-24.458v-46.299h46.232c13.481,0,24.453-10.947,24.453-24.432
		C294.212,186.885,283.24,175.928,269.759,175.928z"/>
</g>
</svg>
